<?xml version="1.0" encoding="utf-8"?>
<!-- Generator: Adobe Illustrator 16.0.0, SVG Export Plug-In . SVG Version: 6.00 Build 0)  -->
<!DOCTYPE svg PUBLIC "-//W3C//DTD SVG 1.1//EN" "http://www.w3.org/Graphics/SVG/1.1/DTD/svg11.dtd">
<svg version="1.1" id="圖層_1" xmlns="http://www.w3.org/2000/svg" xmlns:xlink="http://www.w3.org/1999/xlink" x="0px" y="0px"
	 width="1920px" height="1280px" viewBox="0 0 1920 1280" enable-background="new 0 0 1920 1280" xml:space="preserve">
<g id="圖層_3">
	<rect y="0" fill="#1F1E1D" stroke="#FFFFFF" stroke-miterlimit="10" width="1920" height="1280"/>
</g>
<g>
	<path fill="#EDEDED" stroke="#EDEDED" stroke-width="4" stroke-miterlimit="10" d="M888.319,358.994h-4.866v-57.616h4.866V358.994z
		"/>
	<path fill="#EDEDED" stroke="#EDEDED" stroke-width="4" stroke-miterlimit="10" d="M901.932,315.506l-2.811-2.059
		c2.375-3.19,3.603-6.542,3.682-10.051v-5.184h4.669v3.997C907.472,307.724,905.625,312.156,901.932,315.506z"/>
	<path fill="#EDEDED" stroke="#EDEDED" stroke-width="4" stroke-miterlimit="10" d="M920.769,316.178l0.158,6.965
		c1.583-2.585,3.562-4.524,5.937-5.817c2.374-1.292,5.012-1.938,7.914-1.938c6.753,0,11.04,2.77,12.86,8.31
		c1.53-2.665,3.575-4.715,6.134-6.153s5.382-2.156,8.469-2.156c9.182,0,13.863,5.012,14.048,15.037v28.57h-4.749V330.78
		c-0.025-3.825-0.851-6.661-2.473-8.508c-1.623-1.846-4.268-2.77-7.936-2.77c-3.402,0.053-6.277,1.153-8.627,3.304
		c-2.348,2.149-3.652,4.769-3.916,7.854v28.333h-4.75v-28.569c-0.025-3.667-0.89-6.404-2.592-8.211
		c-1.701-1.808-4.319-2.71-7.854-2.71c-2.981,0-5.54,0.851-7.678,2.552c-2.138,1.702-3.721,4.228-4.748,7.578v29.361h-4.75v-42.816
		H920.769L920.769,316.178z"/>
	<path fill="#EDEDED" stroke="#EDEDED" stroke-width="4" stroke-miterlimit="10" d="M1040.196,342.81h-26.156l-5.937,16.185H1003
		l21.804-57.616h4.63l21.804,57.616h-5.063L1040.196,342.81z M1015.543,338.695h23.109l-11.556-31.38L1015.543,338.695z"/>
	<path fill="#EDEDED" stroke="#EDEDED" stroke-width="4" stroke-miterlimit="10" d="M1063.108,316.178l0.158,7.321
		c1.608-2.639,3.614-4.649,6.015-6.035s5.053-2.077,7.954-2.077c4.59,0,8.007,1.292,10.249,3.878s3.377,6.464,3.403,11.634v28.096
		h-4.709v-28.136c-0.026-3.825-0.838-6.674-2.435-8.547s-4.148-2.81-7.656-2.81c-2.93,0-5.521,0.917-7.776,2.75
		s-3.924,4.307-5.006,7.419v29.322h-4.709v-42.816L1063.108,316.178L1063.108,316.178z"/>
	<path fill="#EDEDED" stroke="#EDEDED" stroke-width="4" stroke-miterlimit="10" d="M1101.216,337.191
		c0-6.648,1.483-11.944,4.452-15.888c2.968-3.943,6.996-5.916,12.089-5.916c5.776,0,10.184,2.282,13.218,6.846v-24.02h4.709v60.781
		h-4.433l-0.197-5.697c-3.034,4.327-7.493,6.489-13.376,6.489c-4.934,0-8.91-1.984-11.932-5.955
		c-3.021-3.971-4.53-9.332-4.53-16.087V337.191z M1106.004,338.022c0,5.461,1.095,9.769,3.285,12.92
		c2.188,3.153,5.274,4.729,9.26,4.729c5.83,0,9.972-2.572,12.426-7.717v-20.103c-2.454-5.566-6.568-8.35-12.347-8.35
		c-3.984,0-7.084,1.563-9.3,4.688C1107.112,327.318,1106.004,331.928,1106.004,338.022z"/>
	<path fill="#EDEDED" stroke="#EDEDED" stroke-width="4" stroke-miterlimit="10" d="M1161.721,352.189l12.505-36.011h5.104
		l-18.282,50.098l-0.949,2.216c-2.349,5.197-5.976,7.796-10.883,7.796c-1.134,0-2.349-0.185-3.642-0.554l-0.039-3.917l2.453,0.237
		c2.321,0,4.201-0.574,5.641-1.721c1.438-1.147,2.656-3.12,3.66-5.916l2.097-5.777l-16.146-42.461h5.185L1161.721,352.189z"/>
	<path fill="#EDEDED" stroke="#EDEDED" stroke-width="4" stroke-miterlimit="10" d="M1248.265,341.029
		c-0.66,6.068-2.83,10.711-6.51,13.93c-3.682,3.22-8.581,4.828-14.701,4.828c-4.273,0-8.053-1.067-11.337-3.205
		c-3.285-2.138-5.824-5.164-7.618-9.082s-2.704-8.396-2.73-13.436v-7.479c0-5.118,0.896-9.656,2.691-13.613
		c1.794-3.957,4.372-7.01,7.736-9.161c3.362-2.149,7.233-3.225,11.613-3.225c6.173,0,11.048,1.661,14.622,4.985
		s5.651,7.928,6.232,13.812h-4.907c-1.214-9.787-6.529-14.682-15.947-14.682c-5.224,0-9.386,1.954-12.484,5.861
		c-3.1,3.907-4.649,9.307-4.649,16.197v7.049c0,6.653,1.51,11.96,4.531,15.92c3.021,3.96,7.103,5.94,12.247,5.94
		c5.091,0,8.93-1.221,11.516-3.66c2.585-2.44,4.181-6.101,4.788-10.981L1248.265,341.029L1248.265,341.029z"/>
	<path fill="#EDEDED" stroke="#EDEDED" stroke-width="4" stroke-miterlimit="10" d="M1263.697,323.42
		c1.558-2.56,3.549-4.537,5.977-5.937c2.427-1.397,5.078-2.097,7.954-2.097c4.59,0,8.007,1.292,10.249,3.878
		s3.377,6.464,3.402,11.634v28.096h-4.709v-28.136c-0.025-3.825-0.838-6.674-2.434-8.547c-1.598-1.873-4.149-2.81-7.657-2.81
		c-2.929,0-5.521,0.917-7.776,2.75c-2.255,1.833-3.924,4.307-5.006,7.419v29.322h-4.709v-60.781h4.709V323.42z"/>
	<path fill="#EDEDED" stroke="#EDEDED" stroke-width="4" stroke-miterlimit="10" d="M1303.19,303.812c0-0.892,0.29-1.645,0.87-2.261
		s1.372-0.924,2.374-0.924c1.003,0,1.801,0.308,2.396,0.924c0.594,0.616,0.891,1.369,0.891,2.261s-0.297,1.639-0.891,2.242
		c-0.595,0.604-1.393,0.904-2.396,0.904c-1.002,0-1.794-0.302-2.374-0.904C1303.48,305.45,1303.19,304.703,1303.19,303.812z
		 M1308.77,358.994h-4.748v-42.816h4.748V358.994z"/>
	<path fill="#EDEDED" stroke="#EDEDED" stroke-width="4" stroke-miterlimit="10" d="M1338.212,359.786
		c-3.642,0-6.933-0.896-9.873-2.69c-2.942-1.794-5.23-4.293-6.866-7.499c-1.636-3.205-2.453-6.799-2.453-10.783v-1.702
		c0-4.114,0.798-7.821,2.395-11.12c1.597-3.297,3.818-5.889,6.668-7.775s5.937-2.829,9.26-2.829c5.197,0,9.318,1.773,12.366,5.321
		c3.048,3.549,4.57,8.396,4.57,14.543v2.65h-30.55v0.91c0,4.854,1.393,8.896,4.175,12.129c2.783,3.232,6.285,4.848,10.507,4.848
		c2.532,0,4.769-0.461,6.707-1.385c1.938-0.923,3.7-2.399,5.283-4.432l2.969,2.256
		C1349.886,357.268,1344.833,359.786,1338.212,359.786z M1337.341,319.423c-3.563,0-6.563,1.306-9.002,3.917
		c-2.44,2.611-3.925,6.121-4.452,10.525h25.683v-0.515c-0.133-4.115-1.307-7.465-3.521-10.051
		C1343.83,320.716,1340.929,319.423,1337.341,319.423z"/>
	<path fill="#EDEDED" stroke="#EDEDED" stroke-width="4" stroke-miterlimit="10" d="M1368.009,316.178l0.157,7.321
		c1.608-2.639,3.615-4.649,6.016-6.035s5.052-2.077,7.954-2.077c4.59,0,8.007,1.292,10.249,3.878s3.377,6.464,3.402,11.634v28.096
		h-4.709v-28.136c-0.025-3.825-0.838-6.674-2.434-8.547c-1.597-1.873-4.148-2.81-7.656-2.81c-2.93,0-5.521,0.917-7.776,2.75
		s-3.925,4.307-5.007,7.419v29.322h-4.709v-42.816L1368.009,316.178L1368.009,316.178z"/>
	<path fill="#EDEDED" stroke="#EDEDED" stroke-width="4" stroke-miterlimit="10" d="M1407.026,369.759l-2.81-2.059
		c2.4-3.219,3.641-6.556,3.72-10.011v-6.134h4.63v4.946C1412.566,361.989,1410.72,366.407,1407.026,369.759z"/>
	<path fill="#EDEDED" stroke="#EDEDED" stroke-width="4" stroke-miterlimit="10" d="M908.304,456.246
		c-0.476-1.345-0.779-3.337-0.91-5.976c-1.662,2.164-3.779,3.833-6.353,5.006c-2.571,1.174-5.297,1.761-8.172,1.761
		c-4.114,0-7.445-1.146-9.991-3.442c-2.546-2.295-3.818-5.197-3.818-8.706c0-4.168,1.734-7.466,5.204-9.894
		c3.469-2.427,8.303-3.641,14.503-3.641h8.587v-4.867c0-3.06-0.943-5.467-2.829-7.222c-1.887-1.754-4.637-2.631-8.251-2.631
		c-3.298,0-6.027,0.845-8.19,2.532c-2.163,1.688-3.245,3.721-3.245,6.095l-4.748-0.04c0-3.403,1.583-6.352,4.748-8.844
		c3.166-2.493,7.057-3.739,11.674-3.739c4.773,0,8.541,1.193,11.298,3.581s4.175,5.718,4.254,9.992v20.261
		c0,4.142,0.437,7.242,1.306,9.299v0.475H908.304L908.304,456.246z M893.424,452.843c3.166,0,5.995-0.766,8.488-2.295
		c2.492-1.53,4.307-3.575,5.44-6.135v-9.418h-8.469c-4.724,0.054-8.415,0.917-11.08,2.593c-2.664,1.676-3.996,3.977-3.996,6.904
		c0,2.401,0.89,4.394,2.671,5.977S890.575,452.843,893.424,452.843z"/>
	<path fill="#EDEDED" stroke="#EDEDED" stroke-width="4" stroke-miterlimit="10" d="M985.191,398.63v39.334
		c-0.025,3.878-0.884,7.255-2.572,10.13c-1.688,2.876-4.068,5.085-7.143,6.628s-6.603,2.314-10.585,2.314
		c-6.067,0-10.929-1.654-14.583-4.966c-3.654-3.311-5.547-7.895-5.679-13.751V398.63h4.828v38.979c0,4.854,1.385,8.62,4.155,11.298
		c2.77,2.679,6.528,4.017,11.277,4.017c4.748,0,8.501-1.346,11.258-4.036c2.756-2.691,4.136-6.438,4.136-11.238v-39.018
		L985.191,398.63L985.191,398.63z"/>
	<path fill="#EDEDED" stroke="#EDEDED" stroke-width="4" stroke-miterlimit="10" d="M1004.7,456.246h-4.866V398.63h4.866V456.246z"
		/>
	<path fill="#EDEDED" stroke="#EDEDED" stroke-width="4" stroke-miterlimit="10" d="M1018.55,461.193h-4.313l24.061-62.563h4.272
		L1018.55,461.193z"/>
	<path fill="#EDEDED" stroke="#EDEDED" stroke-width="4" stroke-miterlimit="10" d="M1092.193,398.63v39.334
		c-0.025,3.878-0.884,7.255-2.572,10.13c-1.688,2.876-4.068,5.085-7.143,6.628s-6.603,2.314-10.585,2.314
		c-6.067,0-10.929-1.654-14.583-4.966c-3.654-3.311-5.547-7.895-5.679-13.751V398.63h4.828v38.979c0,4.854,1.385,8.62,4.155,11.298
		c2.77,2.679,6.528,4.017,11.277,4.017c4.748,0,8.501-1.346,11.258-4.036c2.756-2.691,4.136-6.438,4.136-11.238v-39.018
		L1092.193,398.63L1092.193,398.63z"/>
	<path fill="#EDEDED" stroke="#EDEDED" stroke-width="4" stroke-miterlimit="10" d="M1123.297,423.006l16.225-24.376h5.816
		l-19.073,28.413l19.667,29.203h-5.855l-16.778-25.167l-16.857,25.167h-5.776l19.706-29.203l-19.112-28.413h5.816L1123.297,423.006z
		"/>
	<path fill="#EDEDED" stroke="#EDEDED" stroke-width="4" stroke-miterlimit="10" d="M1175.057,456.246V398.63h16.105
		c4.723,0,8.955,1.074,12.702,3.225c3.745,2.151,6.668,5.23,8.766,9.24s3.146,8.574,3.146,13.691v5.304
		c0,5.144-1.043,9.708-3.127,13.69c-2.084,3.984-5.019,7.059-8.805,9.221c-3.785,2.163-8.132,3.244-13.038,3.244L1175.057,456.246
		L1175.057,456.246z M1179.924,402.745v49.387h10.922c6.066,0,10.935-2.015,14.602-6.04c3.667-4.026,5.501-9.473,5.501-16.336
		v-5.069c0-6.626-1.808-11.933-5.421-15.92c-3.615-3.987-8.377-5.993-14.286-6.021L1179.924,402.745L1179.924,402.745z"/>
	<path fill="#EDEDED" stroke="#EDEDED" stroke-width="4" stroke-miterlimit="10" d="M1243.596,457.037
		c-3.641,0-6.932-0.896-9.873-2.69c-2.942-1.794-5.23-4.293-6.866-7.499c-1.636-3.205-2.453-6.799-2.453-10.783v-1.702
		c0-4.115,0.798-7.82,2.395-11.12c1.597-3.297,3.818-5.889,6.668-7.775c2.85-1.886,5.937-2.829,9.26-2.829
		c5.197,0,9.319,1.773,12.366,5.322c3.048,3.548,4.57,8.396,4.57,14.542v2.65h-30.55v0.91c0,4.854,1.393,8.897,4.175,12.129
		c2.783,3.232,6.285,4.848,10.507,4.848c2.532,0,4.769-0.461,6.708-1.385c1.938-0.923,3.699-2.399,5.282-4.432l2.969,2.256
		C1255.27,454.519,1250.217,457.037,1243.596,457.037z M1242.725,416.675c-3.563,0-6.563,1.306-9.002,3.917
		s-3.925,6.121-4.452,10.525h25.683v-0.515c-0.133-4.115-1.307-7.465-3.521-10.051
		C1249.215,417.968,1246.313,416.675,1242.725,416.675z"/>
	<path fill="#EDEDED" stroke="#EDEDED" stroke-width="4" stroke-miterlimit="10" d="M1294.523,445.364
		c0-2.348-0.943-4.233-2.829-5.659c-1.887-1.425-4.729-2.539-8.526-3.344c-3.799-0.805-6.747-1.728-8.846-2.77
		c-2.098-1.042-3.653-2.315-4.669-3.819c-1.017-1.503-1.523-3.324-1.523-5.461c0-3.376,1.411-6.167,4.233-8.369
		c2.823-2.202,6.438-3.304,10.844-3.304c4.773,0,8.606,1.181,11.496,3.542c2.889,2.36,4.332,5.44,4.332,9.24h-4.748
		c0-2.507-1.05-4.591-3.146-6.252c-2.098-1.662-4.743-2.493-7.936-2.493c-3.112,0-5.612,0.691-7.498,2.078
		c-1.887,1.385-2.829,3.186-2.829,5.4c0,2.137,0.784,3.793,2.354,4.966c1.569,1.175,4.433,2.25,8.587,3.226
		c4.155,0.976,7.269,2.018,9.339,3.126c2.071,1.107,3.607,2.439,4.61,3.997c1.002,1.557,1.504,3.441,1.504,5.659
		c0,3.614-1.458,6.503-4.373,8.666s-6.721,3.244-11.416,3.244c-4.986,0-9.029-1.207-12.129-3.62
		c-3.101-2.414-4.649-5.468-4.649-9.161h4.748c0.186,2.77,1.353,4.927,3.502,6.47c2.15,1.543,4.992,2.314,8.528,2.314
		c3.297,0,5.962-0.726,7.993-2.177C1293.508,449.413,1294.523,447.58,1294.523,445.364z"/>
	<path fill="#EDEDED" stroke="#EDEDED" stroke-width="4" stroke-miterlimit="10" d="M1309.641,401.063
		c0-0.892,0.29-1.645,0.87-2.261s1.372-0.924,2.374-0.924c1.003,0,1.801,0.308,2.395,0.924c0.595,0.616,0.892,1.369,0.892,2.261
		s-0.297,1.639-0.892,2.242c-0.594,0.604-1.392,0.903-2.395,0.903c-1.002,0-1.794-0.301-2.374-0.903
		C1309.931,402.701,1309.641,401.954,1309.641,401.063z M1315.22,456.246h-4.748V413.43h4.748V456.246z"/>
	<path fill="#EDEDED" stroke="#EDEDED" stroke-width="4" stroke-miterlimit="10" d="M1326.181,434.442
		c0-6.701,1.484-12.01,4.452-15.928c2.968-3.917,6.997-5.876,12.089-5.876c5.83,0,10.263,2.322,13.297,6.964l0.237-6.173h4.432
		v41.945c0,5.515-1.543,9.88-4.63,13.099c-3.087,3.218-7.269,4.828-12.544,4.828c-2.98,0-5.824-0.667-8.527-1.999
		c-2.704-1.333-4.834-3.106-6.392-5.322l2.651-2.85c3.35,4.115,7.334,6.173,11.951,6.173c3.957,0,7.043-1.167,9.26-3.502
		c2.216-2.335,3.363-5.574,3.441-9.715v-5.383c-3.033,4.222-7.452,6.332-13.257,6.332c-4.96,0-8.942-1.979-11.949-5.936
		c-3.009-3.957-4.513-9.299-4.513-16.026L1326.181,434.442L1326.181,434.442z M1330.969,435.273c0,5.461,1.095,9.768,3.285,12.92
		c2.188,3.153,5.274,4.729,9.26,4.729c5.83,0,9.958-2.611,12.386-7.835v-19.905c-1.107-2.743-2.704-4.834-4.788-6.272
		c-2.084-1.438-4.591-2.156-7.519-2.156c-3.984,0-7.084,1.563-9.3,4.688C1332.078,424.569,1330.969,429.18,1330.969,435.273z"/>
	<path fill="#EDEDED" stroke="#EDEDED" stroke-width="4" stroke-miterlimit="10" d="M1377.546,413.43l0.157,7.321
		c1.608-2.639,3.614-4.649,6.016-6.035c2.4-1.385,5.052-2.077,7.954-2.077c4.59,0,8.007,1.292,10.249,3.878
		s3.377,6.464,3.402,11.634v28.096h-4.709v-28.136c-0.025-3.825-0.838-6.674-2.434-8.547c-1.598-1.873-4.148-2.81-7.657-2.81
		c-2.929,0-5.521,0.917-7.776,2.75c-2.254,1.833-3.924,4.307-5.006,7.419v29.322h-4.709v-42.816L1377.546,413.43L1377.546,413.43z"
		/>
	<path fill="#EDEDED" stroke="#EDEDED" stroke-width="4" stroke-miterlimit="10" d="M1434.134,457.037
		c-3.642,0-6.933-0.896-9.873-2.69c-2.942-1.794-5.229-4.293-6.866-7.499c-1.636-3.205-2.453-6.799-2.453-10.783v-1.702
		c0-4.115,0.799-7.82,2.395-11.12c1.597-3.297,3.818-5.889,6.668-7.775c2.85-1.886,5.937-2.829,9.26-2.829
		c5.197,0,9.318,1.773,12.366,5.322c3.048,3.548,4.571,8.396,4.571,14.542v2.65h-30.551v0.91c0,4.854,1.393,8.897,4.176,12.129
		c2.782,3.232,6.285,4.848,10.506,4.848c2.533,0,4.769-0.461,6.707-1.385c1.938-0.923,3.701-2.399,5.283-4.432l2.969,2.256
		C1445.808,454.519,1440.755,457.037,1434.134,457.037z M1433.263,416.675c-3.562,0-6.563,1.306-9.002,3.917
		c-2.44,2.611-3.925,6.121-4.452,10.525h25.684v-0.515c-0.134-4.115-1.308-7.465-3.522-10.051
		C1439.752,417.968,1436.851,416.675,1433.263,416.675z"/>
	<path fill="#EDEDED" stroke="#EDEDED" stroke-width="4" stroke-miterlimit="10" d="M1479.205,417.466
		c-1.004-0.186-2.071-0.277-3.205-0.277c-2.955,0-5.455,0.825-7.5,2.473c-2.045,1.649-3.502,4.043-4.373,7.183v29.401h-4.709
		v-42.816h4.631l0.078,6.807c2.508-5.064,6.529-7.598,12.069-7.598c1.319,0,2.361,0.172,3.127,0.514L1479.205,417.466z"/>
	<path fill="#EDEDED" stroke="#EDEDED" stroke-width="4" stroke-miterlimit="10" d="M1481.383,453.397
		c0-0.923,0.297-1.708,0.89-2.354c0.595-0.646,1.418-0.971,2.474-0.971s1.887,0.324,2.494,0.971
		c0.605,0.646,0.909,1.431,0.909,2.354c0,0.924-0.304,1.682-0.909,2.275c-0.607,0.594-1.438,0.89-2.494,0.89
		s-1.879-0.296-2.474-0.89C1481.68,455.078,1481.383,454.321,1481.383,453.397z"/>
</g>
<path fill="#373737" d="M665.855,571.041l42.218,44.815c3.12,3.316,8.337,3.476,11.654,0.356c0.617-0.579,1.142-1.252,1.554-1.993
	l46.759-83.89l-13.061-4.611l-38.417,55.318c0,0-72.12-75.17-82.208-71.452C624.268,513.303,665.855,571.041,665.855,571.041z"/>
<path fill="#373737" d="M601.388,508.025h21.442c23.762,0,43.025,19.263,43.025,43.024v113.712l0,0H542.927l0,0v-98.26
	c-0.009-32.287,26.158-58.468,58.444-58.477C601.377,508.025,601.382,508.025,601.388,508.025z"/>
<path opacity="0.05" fill="#040000" enable-background="new    " d="M544.587,554.169l75.17,71.452h82.977v-10.757l-71.452-20.743
	l-61.118-75.479C570.163,518.643,542.404,535.769,544.587,554.169z"/>
<path fill="#232323" d="M-305.987,420.856l83.97,79.814h92.689v-12.014l-79.815-23.173l-68.272-84.313
	C-277.417,381.17-308.425,400.301-305.987,420.856z"/>
<path fill="#373737" d="M544.587,552.633l75.17,71.451h82.977v-10.755l-71.452-20.745l-61.118-75.479
	C570.163,517.106,542.404,534.232,544.587,552.633z"/>
<path fill="#F3A07B" d="M604.391,481.15L604.391,481.15c8.486,0,15.366,6.88,15.366,15.366v15.366
	c0,8.487-6.88,15.367-15.366,15.367l0,0c-8.486,0-15.366-6.879-15.366-15.367v-15.366C589.025,488.03,595.905,481.15,604.391,481.15
	z"/>
<g opacity="0.7">
	
		<linearGradient id="SVGID_1_" gradientUnits="userSpaceOnUse" x1="72.4741" y1="14.6038" x2="72.4741" y2="-32.2703" gradientTransform="matrix(1 0 0 1 931.1396 610.9102)">
		<stop  offset="0" style="stop-color:#808081;stop-opacity:0.25"/>
		<stop  offset="0.54" style="stop-color:#808081;stop-opacity:0.12"/>
		<stop  offset="1" style="stop-color:#808081;stop-opacity:0.1"/>
	</linearGradient>
	<path fill="url(#SVGID_1_)" d="M1019.097,587.015v-8.375h-41.851v38.715c0,4.507,3.654,8.159,8.16,8.159h25.531
		c4.506,0,8.159-3.653,8.159-8.159v-8.598c6.011,0,10.884-4.872,10.884-10.882s-4.873-10.883-10.884-10.883V587.015z
		 M1019.097,604.593v-13.399c3.699-0.126,6.798,2.771,6.921,6.47c0.128,3.698-2.77,6.798-6.469,6.922
		c-0.15,0.006-0.302,0.006-0.453,0L1019.097,604.593L1019.097,604.593z"/>
</g>
<path fill="#373737" d="M1017.782,588.321c-5.487,0-9.935,4.447-9.935,9.934c0,5.485,4.447,9.934,9.935,9.934
	s9.935-4.448,9.935-9.934l0,0C1027.717,592.768,1023.27,588.321,1017.782,588.321z M1017.782,604.37
	c-3.394,0-6.146-2.753-6.146-6.147c0-3.394,2.753-6.146,6.146-6.146s6.146,2.752,6.146,6.146S1021.176,604.37,1017.782,604.37
	L1017.782,604.37L1017.782,604.37z"/>
<path opacity="0.1" fill="#040000" enable-background="new    " d="M1017.782,588.321c-5.487,0-9.935,4.447-9.935,9.934
	c0,5.485,4.447,9.934,9.935,9.934s9.935-4.448,9.935-9.934l0,0C1027.717,592.768,1023.27,588.321,1017.782,588.321z
	 M1017.782,604.37c-3.394,0-6.146-2.753-6.146-6.147c0-3.394,2.753-6.146,6.146-6.146s6.146,2.752,6.146,6.146
	S1021.176,604.37,1017.782,604.37L1017.782,604.37L1017.782,604.37z"/>
<path fill="#373737" d="M979.536,580.676h38.217l0,0v35.342c0,4.137-3.354,7.49-7.491,7.49l0,0h-23.233
	c-4.137,0-7.492-3.354-7.492-7.49l0,0V580.676L979.536,580.676z"/>
<path opacity="0.1" fill="#040000" enable-background="new    " d="M1010.868,580.676v35.342c0,4.116-3.337,7.451-7.453,7.451l0,0
	h3.842c4.117,0,7.453-3.336,7.453-7.451l0,0v-35.342H1010.868z"/>
<path fill="#EFEEEE" d="M987.052,552.187c-0.665,0.019-1.283,0.336-1.692,0.86c-0.499,0.907,0.409,1.937,1.237,2.558
	c1.538,1.153,3.144,2.305,4.188,3.896c1.044,1.591,1.366,3.841,0.23,5.377c-1.483,2.013-5.033,2.451-5.38,4.924
	c-0.22,1.591,1.153,2.951,2.552,3.75c3.443,1.975,7.885,2.497,10.374,5.585c1.027-2.121,3.342-3.349,5.639-3.841
	c2.296-0.492,4.687-0.484,7.022-0.837c0.78-0.014,1.506-0.404,1.951-1.045c0.653-1.321-1.208-2.912-0.561-4.234
	c0.492-1.014,1.922-0.93,2.966-1.335c1.705-0.662,2.403-2.852,1.921-4.611c-0.485-1.759-1.853-3.142-3.288-4.271
	c-3.842-3.074-8.528-4.832-13.238-6.147c-2.188-0.598-4.764-1.536-7.037-1.628C991.66,551.096,989.248,551.819,987.052,552.187z"/>
<line fill="none" stroke="#E0E0E0" stroke-width="8" stroke-miterlimit="10" x1="718.867" y1="632.504" x2="638.965" y2="881.437"/>
<line fill="none" stroke="#BEBDBD" stroke-width="5" stroke-miterlimit="10" x1="585.183" y1="726.237" x2="522.951" y2="887.58"/>
<line fill="none" stroke="#BEBDBD" stroke-width="5" stroke-miterlimit="10" x1="615.916" y1="726.237" x2="678.149" y2="887.58"/>
<ellipse fill="#B14632" cx="600.55" cy="727.392" rx="72.22" ry="19.592"/>
<ellipse fill="#E85E44" cx="600.55" cy="725.856" rx="72.22" ry="19.592"/>
<line fill="none" stroke="#BEBDBD" stroke-width="5" stroke-miterlimit="10" x1="570.155" y1="761.68" x2="638.296" y2="782.677"/>
<line fill="none" stroke="#BEBDBD" stroke-width="5" stroke-miterlimit="10" x1="630.936" y1="761.68" x2="562.795" y2="782.677"/>
<path fill="#374376" d="M542.927,664.762h122.928l0,0v66.84l0,0h-68.379c-30.127,0-54.549-24.422-54.549-54.551l0,0V664.762
	L542.927,664.762z"/>
<path fill="#F3A07B" d="M702.734,612.312c0,0,49.17,3.355,35.931,11.743h-35.931V612.312z"/>
<path fill="#F3A07B" d="M754.98,525.719c0,0,8.452-66.6,21.353-48.897c12.904,17.703-8.292,53.508-8.292,53.508L754.98,525.719z"/>
<path fill="#F3A07B" d="M756.893,520.949c0,0-12.429-29.278-2.624-25.515c9.806,3.761,10.837,23.546,10.837,23.546L756.893,520.949z
	"/>
<polygon opacity="0.05" fill="#040000" enable-background="new    " points="542.927,664.774 542.927,668.354 665.855,668.616 
	665.855,664.774 "/>
<path fill="#374376" d="M638.55,735.873l82.669,7.535l4.503,168.829l29.602-9.635c0,0,44.276-191.308,2.059-207.442
	c-42.218-16.134-87.856-37.361-115.1-20.052S638.55,735.873,638.55,735.873z"/>
<path opacity="0.1" fill="#040000" enable-background="new    " d="M643.575,683.982c0,0,45.33,23.05,51.475,49.172"/>
<path fill="#374376" d="M595.171,730.849l64.538,52.243l-72.22,116.015l29.963,8.451c0,0,125.233-107.562,99.11-144.44
	c-26.122-36.881-52.243-79.905-84.512-80.672C599.781,681.676,595.171,730.849,595.171,730.849z"/>
<polygon opacity="0.05" fill="#040000" enable-background="new    " points="696.587,561.053 712.721,588.712 716.563,581.029 "/>
<path fill="#333333" d="M587.489,899.107c0,0-23.818,18.44-5.378,24.587c18.439,6.147,56.085,10.755,56.085,10.755
	s6.147-10.755-2.305-15.364c-8.451-4.61-19.976-2.306-19.976-2.306l1.536-9.22L587.489,899.107z"/>
<path fill="#333333" d="M726.413,911.715c0,0-10.463,29.009,8.451,24.479c18.915-4.532,53.291-20.536,53.291-20.536
	s-0.469-12.377-10.082-11.825c-9.61,0.553-18.17,8.604-18.17,8.604l-4.141-10.271L726.413,911.715z"/>
<path opacity="0.05" fill="#040000" enable-background="new    " d="M604.391,482.687c-8.486,0-15.366,6.88-15.366,15.366v5.224
	c9.98,3.284,20.751,3.284,30.732,0v-5.224C619.757,489.566,612.877,482.687,604.391,482.687z"/>
<g opacity="0.7">
	<path fill="#1F1E1D" d="M507.54,766.375c2.592-10.474-1.52-21.461-10.349-27.657c-2.307-1.538-4.826-2.714-6.916-4.491
		c-3.503-2.95-5.509-7.305-6.954-11.66c-3.472-10.435-4.571-22.136-10.663-31.563c-5.548-8.582-16.343-11.095-25.924-11.945
		c-3.488-0.317-7.153-0.478-10.341,0.965c-5.34,2.415-7.883,8.722-8.12,14.6c-0.239,5.878,1.283,11.633,1.667,17.474
		c0.384,5.836-0.66,12.289-4.979,16.239c-4.318,3.95-10.487,4.435-16.21,5.225c-7.494,1.04-14.857,2.869-21.966,5.456
		c-5.969,2.175-12.615,6.093-12.9,12.439c-0.23,5.184,3.958,9.326,7.099,13.452c5.878,7.683,8.814,17.894,6.824,27.383
		c-2.029,9.657-8.813,17.946-10.05,27.74c-0.315,2.491-0.223,5.134,0.984,7.331c0.958,1.549,2.22,2.884,3.711,3.926
		c3.688,2.851,7.805,5.139,11.294,8.229c7.275,6.447,11.217,15.794,14.251,25.029c0.292,0.894,0.553,1.791,0.829,2.685h-7.153
		c-14.591,0.04-26.411,11.857-26.452,26.45l0,0c0.042,14.591,11.861,26.411,26.452,26.454h71.452
		c14.592-0.043,26.411-11.863,26.453-26.454l0,0c-0.017-14.636-11.885-26.494-26.521-26.499h-19.562
		c4.609-6.201,9.466-12.023,16.611-14.414c7.145-2.389,15.788-0.982,21.398-5.968c2.734-2.43,4.187-6.023,4.855-9.619
		c1.184-6.513,0.077-13.235-3.134-19.025c-2.252-4.018-5.54-7.681-6.254-12.215c-0.606-3.89,0.768-7.829,2.698-11.28
		C495.069,784.837,504.626,777.209,507.54,766.375z"/>
</g>
<path fill="#4DAEA5" d="M446.452,684.781c-3.319-0.301-6.808-0.452-9.85,0.921c-5.079,2.307-7.507,8.306-7.736,13.876
	c-0.231,5.569,1.221,11.069,1.583,16.64c0.361,5.572-0.63,11.695-4.74,15.468c-4.111,3.771-9.989,4.217-15.436,4.971
	c-7.138,0.989-14.15,2.731-20.921,5.195c-5.686,2.066-12.017,5.808-12.293,11.845c-0.214,4.942,3.766,8.884,6.762,12.811
	c5.602,7.352,8.391,17.039,6.492,26.074c-1.937,9.22-8.396,17.097-9.566,26.423c-0.299,2.367-0.214,4.887,0.938,6.977
	c0.912,1.474,2.115,2.748,3.534,3.741c3.511,2.711,7.43,4.896,10.757,7.837c6.915,6.146,10.679,15.043,13.569,23.816
	c2.84,8.653,5.066,17.495,6.66,26.462c5.97-3.842,13.685-3.778,20.053-6.915c13.561-6.645,18.125-25.914,32.446-30.731
	c6.776-2.268,15.035-0.938,20.375-5.686c2.604-2.305,3.988-5.731,4.61-9.158c1.126-6.188,0.082-12.573-2.958-18.078
	c-2.144-3.841-5.278-7.3-5.962-11.631c-0.583-3.706,0.768-7.453,2.567-10.757c5.147-9.359,14.252-16.62,17.025-26.938
	c2.484-9.982-1.435-20.463-9.857-26.37c-2.174-1.467-4.61-2.581-6.607-4.271c-3.342-2.811-5.24-6.961-6.623-11.101
	c-3.312-9.935-4.356-21.081-10.157-30.058C465.852,687.985,455.571,685.587,446.452,684.781z"/>
<path opacity="0.6" fill="none" stroke="#525360" stroke-miterlimit="10" enable-background="new    " d="M446.351,685.121
	c0,0,12.6,168.727-20.16,197.729"/>
<path fill="#373737" d="M403.534,863.956h68.019c13.908,0,25.184,11.276,25.184,25.185v0.008c0,13.911-11.275,25.188-25.184,25.188
	h-68.019c-13.908,0-25.184-11.276-25.184-25.188v-0.008C378.349,875.233,389.625,863.956,403.534,863.956z"/>
<path opacity="0.6" fill="none" stroke="#525360" stroke-miterlimit="10" enable-background="new    " d="M377.089,750.609
	c0,0,32.2-3.755,71.514,20.161"/>
<path opacity="0.6" fill="none" stroke="#525360" stroke-miterlimit="10" enable-background="new    " d="M447.972,790.908
	c0,0,17.894-29.598,56.308-35.258"/>
<path opacity="0.6" fill="none" stroke="#525360" stroke-miterlimit="10" enable-background="new    " d="M380.239,819.273
	c0,0,44.631-7.567,65.137,5.03"/>
<path opacity="0.6" fill="none" stroke="#525360" stroke-miterlimit="10" enable-background="new    " d="M442.833,841.593
	c0,0,23.363-10.604,49.648-1.991"/>
<linearGradient id="SVGID_2_" gradientUnits="userSpaceOnUse" x1="-110.3481" y1="73.2029" x2="-110.3481" y2="70.8972" gradientTransform="matrix(1 0 0 1 931.1396 610.9102)">
	<stop  offset="0" style="stop-color:#808081;stop-opacity:0.25"/>
	<stop  offset="0.54" style="stop-color:#808081;stop-opacity:0.12"/>
	<stop  offset="1" style="stop-color:#808081;stop-opacity:0.1"/>
</linearGradient>
<path fill="url(#SVGID_2_)" d="M820.79,684.114c0.639,0,1.154-0.518,1.154-1.153c0-0.635-0.516-1.152-1.154-1.152
	c-0.634,0-1.151,0.518-1.151,1.152C819.639,683.596,820.156,684.114,820.79,684.114z"/>
<line fill="none" stroke="#E0E0E0" stroke-width="8" stroke-miterlimit="10" x1="989.893" y1="632.504" x2="1069.797" y2="916.847"/>
<rect x="638.634" y="624.178" fill="#E0E0E0" width="431.485" height="16.809"/>
<path fill="#525360" d="M749.984,620.212h60.696c2.759,0,4.994,2.235,4.994,4.994l0,0c0,2.76-2.235,4.995-4.994,4.995h-60.696
	c-2.758,0-4.995-2.236-4.995-4.995l0,0C744.989,622.448,747.227,620.212,749.984,620.212z"/>
<g opacity="0.7">
	<path fill="#1F1E1D" d="M809.696,508.854h132.316c11.976,0,21.682,9.707,21.682,21.681v78.106c0,11.974-9.706,21.684-21.682,21.684
		H809.696c-11.975,0-21.681-9.71-21.681-21.684v-78.106C788.016,518.562,797.722,508.854,809.696,508.854z"/>
</g>
<path fill="#3D3F49" d="M811.763,511.091h125.181c11.389,0,20.619,9.233,20.619,20.622v77.983c0,11.388-9.231,20.621-20.619,20.621
	H811.763c-11.389,0-20.621-9.232-20.621-20.621v-77.983C791.143,520.323,800.374,511.091,811.763,511.091z"/>
<path fill="#525360" d="M814.068,511.091h125.178c11.39,0,20.622,9.233,20.622,20.622v77.983c0,11.388-9.232,20.621-20.622,20.621
	H814.068c-11.39,0-20.622-9.232-20.622-20.621v-77.983C793.446,520.323,802.68,511.091,814.068,511.091z"/>
<circle fill="#E0E0E0" cx="884.438" cy="569.889" r="5.379"/>
<ellipse fill="#F3A07B" cx="566.22" cy="454.01" rx="6.448" ry="12.898"/>
<path fill="#F3A07B" d="M568.408,426.992c0,0-5.209,35.805,0,47.445c8.68,12.212,19.965,24.028,38.053,31.302
	c0,0,25.711-7.716,34.592-32.315c0,0,8.349-21.755,2.061-48.628C643.112,424.796,600.998,394.403,568.408,426.992z"/>
<path fill="#F3A07B" d="M-138.864,393.141c0,0-10.069,31.389,0,52.999c12.569,21.61,25.819,27.36,42.507,34.966
	c0,0,28.721-8.619,38.642-36.098c0,0,9.326-24.302,2.302-54.32C-55.415,390.688-102.459,356.737-138.864,393.141z"/>
<polyline fill="none" stroke="#373737" stroke-linecap="round" stroke-miterlimit="10" points="607.017,461.501 605.123,477.754 
	610.201,477.754 "/>
<path fill="none" stroke="#373737" stroke-linecap="round" stroke-miterlimit="10" d="M600.142,489.69c0,0,9.155,3.541,15.32-3.824"
	/>
<g id="圖層_2">
</g>
<g>
	<path fill="#BBE3F4" d="M588.852,445.785c-2.71-0.02-8.046-0.281-10.74,1.74c-2.694,2.021-2.642,7.37-2.036,10.433
		c0.605,3.063,1.765,7.829,7.001,10.045c5.237,2.216,11.053,0.972,14.912-2.969c3.762-3.843,5.915-10.601,3.943-14.288
		C599.959,447.059,591.683,445.807,588.852,445.785z"/>
	<path fill="#323232" d="M640.59,449.004c-1.364-0.249-7.622-2.259-11.51-2.452c-6.09-0.304-8.327,0.099-11.234,0.792
		c-2.908,0.693-4.559,1.763-5.389,1.603c-0.829-0.162-3.07-0.662-4.503-0.733s-3.716,0.204-4.558,0.282s-2.395-1.152-5.219-2.13
		c-2.824-0.979-5.046-1.603-11.136-1.906c-3.889-0.193-10.508,1.177-11.89,1.288c-1.382,0.11-2.746,0.159-2.746,0.159l-0.157,3.164
		c0,0,1.308,0.185,1.541,1.514c0.232,1.328,0.222,7.021,1.479,10.548c1.428,4.001,3.886,7.016,8.301,8.493
		c4.416,1.477,9.189,0.811,12.349-1.122c2.354-1.438,4.612-3.642,6.395-6.804c2.254-3.998,3.016-7.571,3.016-7.571
		s-0.829-0.96-0.283-2.269c0.408-0.977,1.592-1.078,2.786-1.018c1.194,0.059,2.361,0.277,2.67,1.291
		c0.414,1.355-0.508,2.229-0.508,2.229s0.399,3.631,2.245,7.833c1.46,3.322,3.481,5.739,5.68,7.405
		c2.952,2.236,7.621,3.372,12.161,2.341c4.541-1.031,7.256-3.789,9.073-7.628c1.602-3.385,1.949-9.061,2.313-10.359
		c0.364-1.299,1.416-1.367,1.416-1.367l0.158-3.164C643.041,449.422,641.955,449.251,640.59,449.004z M597.989,465.034
		c-3.859,3.941-9.675,5.185-14.912,2.969c-5.236-2.216-6.396-6.982-7.001-10.045c-0.606-3.063-0.659-8.412,2.036-10.433
		c2.694-2.021,8.03-1.76,10.74-1.74c2.832,0.022,11.108,1.273,13.081,4.961C603.904,454.434,601.751,461.191,597.989,465.034z
		 M638.726,461.077c-0.907,2.987-2.535,7.615-7.965,9.3s-11.095-0.13-14.542-4.435c-3.363-4.198-4.833-11.136-2.505-14.609
		c2.328-3.474,10.688-3.897,13.508-3.638c2.699,0.25,8.035,0.52,10.514,2.799C640.217,452.772,639.633,458.09,638.726,461.077z"/>
	<path fill="#BBE3F4" d="M637.736,450.494c-2.479-2.279-7.815-2.549-10.514-2.799c-2.82-0.259-11.18,0.164-13.508,3.638
		c-2.329,3.473-0.858,10.411,2.505,14.609c3.447,4.305,9.111,6.12,14.542,4.435s7.058-6.313,7.965-9.3
		C639.633,458.09,640.217,452.772,637.736,450.494z"/>
</g>
<path fill="#030205" d="M643.488,426.484c0,0-42.667-26.038-70.813,1.042l-0.419,10.071l-2.883,5.148c0,0-1.567,15.218,0,19.694
	c0,0-3.382-6.973-3.146-20.496c0,0-2.726-1.126-4.323,3.327c0,0-10.243-24.935,6.669-44.727c0,0,27.431-12.183,29.893-13.974
	l-0.671,3.357c0,0,18.885-0.807,24.661,4.7c0,0,7.343,5.147,12.043,5.372l-2.238,2.014
	C632.262,402.012,644.948,412.499,643.488,426.484z"/>
<path fill="#030205" d="M601.218,415.306c0,0,6.851,6.241,14.243,8.255l-2.88-7.783c0,0,6.692,5.769,16.54,9.797
	c0,0-2.797-4.052-3.077-6.726S603.53,412.198,601.218,415.306z"/>
</svg>
