<?xml version="1.0" encoding="utf-8"?>
<!-- Generator: Adobe Illustrator 21.0.0, SVG Export Plug-In . SVG Version: 6.00 Build 0)  -->
<svg version="1.1" id="圖層_1" xmlns="http://www.w3.org/2000/svg" xmlns:xlink="http://www.w3.org/1999/xlink" x="0px" y="0px"
	 viewBox="0 0 375 667" style="enable-background:new 0 0 375 667;" xml:space="preserve">
<style type="text/css">
	.st0{fill:#1F1E1D;}
	.st1{fill:#EDEDED;stroke:#EDEDED;stroke-width:2;stroke-miterlimit:10;}
	.st2{fill:#373737;}
	.st3{opacity:5.000000e-02;fill:#040000;enable-background:new    ;}
	.st4{fill:#F3A07B;}
	.st5{opacity:0.7;}
	.st6{fill:url(#SVGID_1_);}
	.st7{opacity:0.1;fill:#040000;enable-background:new    ;}
	.st8{fill:#EFEEEE;}
	.st9{fill:none;stroke:#E0E0E0;stroke-width:8;stroke-miterlimit:10;}
	.st10{fill:none;stroke:#BEBDBD;stroke-width:5;stroke-miterlimit:10;}
	.st11{fill:#B14632;}
	.st12{fill:#E85E44;}
	.st13{fill:#374376;}
	.st14{fill:#333333;}
	.st15{fill:#4DAEA5;}
	.st16{opacity:0.6;fill:none;stroke:#525360;stroke-miterlimit:10;enable-background:new    ;}
	.st17{fill:url(#SVGID_2_);}
	.st18{fill:#E0E0E0;}
	.st19{fill:#525360;}
	.st20{fill:#3D3F49;}
	.st21{fill:none;stroke:#373737;stroke-width:0.5;stroke-linecap:round;stroke-miterlimit:10;}
	.st22{fill:#BBE3F4;}
	.st23{fill:#323232;}
	.st24{fill:#030205;}
</style>
<g id="圖層_3">
	<rect class="st0" width="375" height="667"/>
</g>
<g>
	<path class="st1" d="M112.6,214.4h-1.8v-21h1.8V214.4z"/>
	<path class="st1" d="M117.5,198.5l-1-0.8c0.9-1.2,1.3-2.4,1.3-3.7v-1.9h1.7v1.5C119.6,195.7,118.9,197.3,117.5,198.5z"/>
	<path class="st1" d="M124.4,198.8l0.1,2.5c0.6-0.9,1.3-1.6,2.2-2.1c0.9-0.5,1.8-0.7,2.9-0.7c2.5,0,4,1,4.7,3c0.6-1,1.3-1.7,2.2-2.2
		s2-0.8,3.1-0.8c3.3,0,5.1,1.8,5.1,5.5v10.4h-1.7v-10.3c0-1.4-0.3-2.4-0.9-3.1c-0.6-0.7-1.6-1-2.9-1c-1.2,0-2.3,0.4-3.1,1.2
		c-0.9,0.8-1.3,1.7-1.4,2.9v10.3h-1.7v-10.4c0-1.3-0.3-2.3-0.9-3c-0.6-0.7-1.6-1-2.9-1c-1.1,0-2,0.3-2.8,0.9
		c-0.8,0.6-1.4,1.5-1.7,2.8v10.7h-1.7v-15.6H124.4L124.4,198.8z"/>
	<path class="st1" d="M167.9,208.5h-9.5l-2.2,5.9h-1.9l7.9-21h1.7l7.9,21h-1.8L167.9,208.5z M158.9,207h8.4l-4.2-11.4L158.9,207z"/>
	<path class="st1" d="M176.3,198.8l0.1,2.7c0.6-1,1.3-1.7,2.2-2.2c0.9-0.5,1.8-0.8,2.9-0.8c1.7,0,2.9,0.5,3.7,1.4s1.2,2.4,1.2,4.2
		v10.2h-1.7v-10.3c0-1.4-0.3-2.4-0.9-3.1c-0.6-0.7-1.5-1-2.8-1c-1.1,0-2,0.3-2.8,1s-1.4,1.6-1.8,2.7v10.7h-1.7v-15.6L176.3,198.8
		L176.3,198.8z"/>
	<path class="st1" d="M190.1,206.4c0-2.4,0.5-4.4,1.6-5.8c1.1-1.4,2.5-2.2,4.4-2.2c2.1,0,3.7,0.8,4.8,2.5v-8.8h1.7v22.1h-1.6
		l-0.1-2.1c-1.1,1.6-2.7,2.4-4.9,2.4c-1.8,0-3.2-0.7-4.3-2.2c-1.1-1.4-1.7-3.4-1.7-5.9V206.4z M191.9,206.7c0,2,0.4,3.6,1.2,4.7
		c0.8,1.1,1.9,1.7,3.4,1.7c2.1,0,3.6-0.9,4.5-2.8V203c-0.9-2-2.4-3-4.5-3c-1.5,0-2.6,0.6-3.4,1.7
		C192.3,202.8,191.9,204.5,191.9,206.7z"/>
	<path class="st1" d="M212.2,211.9l4.6-13.1h1.9l-6.7,18.3l-0.3,0.8c-0.9,1.9-2.2,2.8-4,2.8c-0.4,0-0.9-0.1-1.3-0.2l0-1.4l0.9,0.1
		c0.8,0,1.5-0.2,2.1-0.6c0.5-0.4,1-1.1,1.3-2.2l0.8-2.1l-5.9-15.5h1.9L212.2,211.9z"/>
	<path class="st1" d="M243.7,207.8c-0.2,2.2-1,3.9-2.4,5.1c-1.3,1.2-3.1,1.8-5.4,1.8c-1.6,0-2.9-0.4-4.1-1.2
		c-1.2-0.8-2.1-1.9-2.8-3.3c-0.7-1.4-1-3.1-1-4.9v-2.7c0-1.9,0.3-3.5,1-5c0.7-1.4,1.6-2.6,2.8-3.3c1.2-0.8,2.6-1.2,4.2-1.2
		c2.2,0,4,0.6,5.3,1.8c1.3,1.2,2.1,2.9,2.3,5h-1.8c-0.4-3.6-2.4-5.3-5.8-5.3c-1.9,0-3.4,0.7-4.5,2.1c-1.1,1.4-1.7,3.4-1.7,5.9v2.6
		c0,2.4,0.6,4.4,1.7,5.8s2.6,2.2,4.5,2.2c1.9,0,3.3-0.4,4.2-1.3c0.9-0.9,1.5-2.2,1.7-4L243.7,207.8L243.7,207.8z"/>
	<path class="st1" d="M249.3,201.4c0.6-0.9,1.3-1.7,2.2-2.2c0.9-0.5,1.9-0.8,2.9-0.8c1.7,0,2.9,0.5,3.7,1.4s1.2,2.4,1.2,4.2v10.2
		h-1.7v-10.3c0-1.4-0.3-2.4-0.9-3.1c-0.6-0.7-1.5-1-2.8-1c-1.1,0-2,0.3-2.8,1s-1.4,1.6-1.8,2.7v10.7h-1.7v-22.1h1.7L249.3,201.4
		L249.3,201.4z"/>
	<path class="st1" d="M263.7,194.3c0-0.3,0.1-0.6,0.3-0.8c0.2-0.2,0.5-0.3,0.9-0.3c0.4,0,0.7,0.1,0.9,0.3c0.2,0.2,0.3,0.5,0.3,0.8
		c0,0.3-0.1,0.6-0.3,0.8c-0.2,0.2-0.5,0.3-0.9,0.3c-0.4,0-0.7-0.1-0.9-0.3C263.8,194.8,263.7,194.6,263.7,194.3z M265.8,214.4H264
		v-15.6h1.7V214.4z"/>
	<path class="st1" d="M276.5,214.6c-1.3,0-2.5-0.3-3.6-1c-1.1-0.7-1.9-1.6-2.5-2.7c-0.6-1.2-0.9-2.5-0.9-3.9v-0.6
		c0-1.5,0.3-2.8,0.9-4.1c0.6-1.2,1.4-2.1,2.4-2.8c1-0.7,2.2-1,3.4-1c1.9,0,3.4,0.6,4.5,1.9c1.1,1.3,1.7,3.1,1.7,5.3v1h-11.1v0.3
		c0,1.8,0.5,3.2,1.5,4.4c1,1.2,2.3,1.8,3.8,1.8c0.9,0,1.7-0.2,2.4-0.5c0.7-0.3,1.3-0.9,1.9-1.6l1.1,0.8
		C280.7,213.7,278.9,214.6,276.5,214.6z M276.2,199.9c-1.3,0-2.4,0.5-3.3,1.4c-0.9,1-1.4,2.2-1.6,3.8h9.4V205c0-1.5-0.5-2.7-1.3-3.7
		C278.5,200.4,277.5,199.9,276.2,199.9z"/>
	<path class="st1" d="M287.3,198.8l0.1,2.7c0.6-1,1.3-1.7,2.2-2.2c0.9-0.5,1.8-0.8,2.9-0.8c1.7,0,2.9,0.5,3.7,1.4s1.2,2.4,1.2,4.2
		v10.2h-1.7v-10.3c0-1.4-0.3-2.4-0.9-3.1c-0.6-0.7-1.5-1-2.8-1c-1.1,0-2,0.3-2.8,1c-0.8,0.7-1.4,1.6-1.8,2.7v10.7h-1.7v-15.6
		L287.3,198.8L287.3,198.8z"/>
	<path class="st1" d="M301.6,218.3l-1-0.8c0.9-1.2,1.3-2.4,1.4-3.6v-2.2h1.7v1.8C303.6,215.4,302.9,217.1,301.6,218.3z"/>
	<path class="st1" d="M119.9,249.8c-0.2-0.5-0.3-1.2-0.3-2.2c-0.6,0.8-1.4,1.4-2.3,1.8c-0.9,0.4-1.9,0.6-3,0.6
		c-1.5,0-2.7-0.4-3.6-1.3c-0.9-0.8-1.4-1.9-1.4-3.2c0-1.5,0.6-2.7,1.9-3.6c1.3-0.9,3-1.3,5.3-1.3h3.1v-1.8c0-1.1-0.3-2-1-2.6
		c-0.7-0.6-1.7-1-3-1c-1.2,0-2.2,0.3-3,0.9c-0.8,0.6-1.2,1.4-1.2,2.2l-1.7,0c0-1.2,0.6-2.3,1.7-3.2c1.2-0.9,2.6-1.4,4.3-1.4
		c1.7,0,3.1,0.4,4.1,1.3s1.5,2.1,1.5,3.6v7.4c0,1.5,0.2,2.6,0.5,3.4v0.2H119.9L119.9,249.8z M114.4,248.5c1.2,0,2.2-0.3,3.1-0.8
		c0.9-0.6,1.6-1.3,2-2.2V242h-3.1c-1.7,0-3.1,0.3-4,0.9c-1,0.6-1.5,1.4-1.5,2.5c0,0.9,0.3,1.6,1,2.2S113.4,248.5,114.4,248.5z"/>
	<path class="st1" d="M147.9,228.8v14.3c0,1.4-0.3,2.6-0.9,3.7c-0.6,1-1.5,1.9-2.6,2.4c-1.1,0.6-2.4,0.8-3.9,0.8
		c-2.2,0-4-0.6-5.3-1.8c-1.3-1.2-2-2.9-2.1-5v-14.5h1.8V243c0,1.8,0.5,3.1,1.5,4.1c1,1,2.4,1.5,4.1,1.5c1.7,0,3.1-0.5,4.1-1.5
		c1-1,1.5-2.3,1.5-4.1v-14.2L147.9,228.8L147.9,228.8z"/>
	<path class="st1" d="M155,249.8h-1.8v-21h1.8V249.8z"/>
	<path class="st1" d="M160,251.6h-1.6l8.8-22.8h1.6L160,251.6z"/>
	<path class="st1" d="M186.9,228.8v14.3c0,1.4-0.3,2.6-0.9,3.7c-0.6,1-1.5,1.9-2.6,2.4c-1.1,0.6-2.4,0.8-3.9,0.8
		c-2.2,0-4-0.6-5.3-1.8c-1.3-1.2-2-2.9-2.1-5v-14.5h1.8V243c0,1.8,0.5,3.1,1.5,4.1c1,1,2.4,1.5,4.1,1.5c1.7,0,3.1-0.5,4.1-1.5
		c1-1,1.5-2.3,1.5-4.1v-14.2L186.9,228.8L186.9,228.8z"/>
	<path class="st1" d="M198.2,237.7l5.9-8.9h2.1l-6.9,10.4l7.2,10.6h-2.1l-6.1-9.2l-6.1,9.2h-2.1l7.2-10.6l-7-10.4h2.1L198.2,237.7z"
		/>
	<path class="st1" d="M217,249.8v-21h5.9c1.7,0,3.3,0.4,4.6,1.2c1.4,0.8,2.4,1.9,3.2,3.4c0.8,1.5,1.1,3.1,1.1,5v1.9
		c0,1.9-0.4,3.5-1.1,5c-0.8,1.5-1.8,2.6-3.2,3.4c-1.4,0.8-3,1.2-4.8,1.2L217,249.8L217,249.8z M218.8,230.3v18h4
		c2.2,0,4-0.7,5.3-2.2c1.3-1.5,2-3.5,2-6v-1.8c0-2.4-0.7-4.3-2-5.8c-1.3-1.5-3.1-2.2-5.2-2.2L218.8,230.3L218.8,230.3z"/>
	<path class="st1" d="M242,250.1c-1.3,0-2.5-0.3-3.6-1c-1.1-0.7-1.9-1.6-2.5-2.7c-0.6-1.2-0.9-2.5-0.9-3.9v-0.6
		c0-1.5,0.3-2.8,0.9-4.1c0.6-1.2,1.4-2.1,2.4-2.8s2.2-1,3.4-1c1.9,0,3.4,0.6,4.5,1.9c1.1,1.3,1.7,3.1,1.7,5.3v1h-11.1v0.3
		c0,1.8,0.5,3.2,1.5,4.4c1,1.2,2.3,1.8,3.8,1.8c0.9,0,1.7-0.2,2.4-0.5c0.7-0.3,1.3-0.9,1.9-1.6l1.1,0.8
		C246.3,249.2,244.4,250.1,242,250.1z M241.7,235.4c-1.3,0-2.4,0.5-3.3,1.4c-0.9,1-1.4,2.2-1.6,3.8h9.4v-0.2c0-1.5-0.5-2.7-1.3-3.7
		C244.1,235.8,243,235.4,241.7,235.4z"/>
	<path class="st1" d="M260.6,245.8c0-0.9-0.3-1.5-1-2.1c-0.7-0.5-1.7-0.9-3.1-1.2c-1.4-0.3-2.5-0.6-3.2-1c-0.8-0.4-1.3-0.8-1.7-1.4
		c-0.4-0.5-0.6-1.2-0.6-2c0-1.2,0.5-2.2,1.5-3c1-0.8,2.3-1.2,4-1.2c1.7,0,3.1,0.4,4.2,1.3c1.1,0.9,1.6,2,1.6,3.4h-1.7
		c0-0.9-0.4-1.7-1.1-2.3c-0.8-0.6-1.7-0.9-2.9-0.9c-1.1,0-2,0.3-2.7,0.8c-0.7,0.5-1,1.2-1,2c0,0.8,0.3,1.4,0.9,1.8
		c0.6,0.4,1.6,0.8,3.1,1.2c1.5,0.4,2.6,0.7,3.4,1.1c0.8,0.4,1.3,0.9,1.7,1.5c0.4,0.6,0.5,1.3,0.5,2.1c0,1.3-0.5,2.4-1.6,3.2
		s-2.4,1.2-4.2,1.2c-1.8,0-3.3-0.4-4.4-1.3c-1.1-0.9-1.7-2-1.7-3.3h1.7c0.1,1,0.5,1.8,1.3,2.4c0.8,0.6,1.8,0.8,3.1,0.8
		c1.2,0,2.2-0.3,2.9-0.8C260.2,247.3,260.6,246.6,260.6,245.8z"/>
	<path class="st1" d="M266.1,229.7c0-0.3,0.1-0.6,0.3-0.8c0.2-0.2,0.5-0.3,0.9-0.3c0.4,0,0.7,0.1,0.9,0.3c0.2,0.2,0.3,0.5,0.3,0.8
		c0,0.3-0.1,0.6-0.3,0.8c-0.2,0.2-0.5,0.3-0.9,0.3c-0.4,0-0.7-0.1-0.9-0.3C266.2,230.3,266.1,230,266.1,229.7z M268.1,249.8h-1.7
		v-15.6h1.7V249.8z"/>
	<path class="st1" d="M272.1,241.8c0-2.4,0.5-4.4,1.6-5.8c1.1-1.4,2.5-2.1,4.4-2.1c2.1,0,3.7,0.8,4.8,2.5l0.1-2.2h1.6v15.3
		c0,2-0.6,3.6-1.7,4.8c-1.1,1.2-2.6,1.8-4.6,1.8c-1.1,0-2.1-0.2-3.1-0.7c-1-0.5-1.8-1.1-2.3-1.9l1-1c1.2,1.5,2.7,2.2,4.4,2.2
		c1.4,0,2.6-0.4,3.4-1.3c0.8-0.9,1.2-2,1.3-3.5v-2c-1.1,1.5-2.7,2.3-4.8,2.3c-1.8,0-3.3-0.7-4.4-2.2c-1.1-1.4-1.6-3.4-1.6-5.8
		L272.1,241.8L272.1,241.8z M273.8,242.1c0,2,0.4,3.6,1.2,4.7c0.8,1.1,1.9,1.7,3.4,1.7c2.1,0,3.6-1,4.5-2.9v-7.3
		c-0.4-1-1-1.8-1.7-2.3c-0.8-0.5-1.7-0.8-2.7-0.8c-1.5,0-2.6,0.6-3.4,1.7C274.3,238.2,273.8,239.9,273.8,242.1z"/>
	<path class="st1" d="M290.8,234.2l0.1,2.7c0.6-1,1.3-1.7,2.2-2.2c0.9-0.5,1.8-0.8,2.9-0.8c1.7,0,2.9,0.5,3.7,1.4
		c0.8,0.9,1.2,2.4,1.2,4.2v10.2h-1.7v-10.3c0-1.4-0.3-2.4-0.9-3.1c-0.6-0.7-1.5-1-2.8-1c-1.1,0-2,0.3-2.8,1
		c-0.8,0.7-1.4,1.6-1.8,2.7v10.7h-1.7v-15.6L290.8,234.2L290.8,234.2z"/>
	<path class="st1" d="M311.4,250.1c-1.3,0-2.5-0.3-3.6-1c-1.1-0.7-1.9-1.6-2.5-2.7c-0.6-1.2-0.9-2.5-0.9-3.9v-0.6
		c0-1.5,0.3-2.8,0.9-4.1c0.6-1.2,1.4-2.1,2.4-2.8s2.2-1,3.4-1c1.9,0,3.4,0.6,4.5,1.9c1.1,1.3,1.7,3.1,1.7,5.3v1h-11.1v0.3
		c0,1.8,0.5,3.2,1.5,4.4c1,1.2,2.3,1.8,3.8,1.8c0.9,0,1.7-0.2,2.4-0.5c0.7-0.3,1.3-0.9,1.9-1.6l1.1,0.8
		C315.7,249.2,313.8,250.1,311.4,250.1z M311.1,235.4c-1.3,0-2.4,0.5-3.3,1.4c-0.9,1-1.4,2.2-1.6,3.8h9.4v-0.2
		c0-1.5-0.5-2.7-1.3-3.7C313.5,235.8,312.4,235.4,311.1,235.4z"/>
	<path class="st1" d="M327.9,235.7c-0.4-0.1-0.8-0.1-1.2-0.1c-1.1,0-2,0.3-2.7,0.9c-0.7,0.6-1.3,1.5-1.6,2.6v10.7h-1.7v-15.6h1.7
		l0,2.5c0.9-1.8,2.4-2.8,4.4-2.8c0.5,0,0.9,0.1,1.1,0.2L327.9,235.7z"/>
	<path class="st1" d="M328.6,248.7c0-0.3,0.1-0.6,0.3-0.9c0.2-0.2,0.5-0.4,0.9-0.4s0.7,0.1,0.9,0.4c0.2,0.2,0.3,0.5,0.3,0.9
		c0,0.3-0.1,0.6-0.3,0.8c-0.2,0.2-0.5,0.3-0.9,0.3s-0.7-0.1-0.9-0.3C328.8,249.4,328.6,249.1,328.6,248.7z"/>
</g>
<g>
	<path class="st2" d="M146.3,328l12.9,13.7c1,1,2.6,1.1,3.6,0.1c0.2-0.2,0.3-0.4,0.5-0.6l14.3-25.7l-4-1.4l-11.8,16.9
		c0,0-22.1-23-25.2-21.9C133.6,310.3,146.3,328,146.3,328z"/>
	<path class="st2" d="M126.6,308.7h6.6c7.3,0,13.2,5.9,13.2,13.2v34.8l0,0h-37.6l0,0v-30.1C108.7,316.7,116.7,308.7,126.6,308.7
		C126.6,308.7,126.6,308.7,126.6,308.7z"/>
	<path class="st3" d="M109.2,322.8l23,21.9h25.4v-3.3l-21.9-6.4L117,312C117,312,108.5,317.2,109.2,322.8z"/>
	<path class="st2" d="M109.2,322.4l23,21.9h25.4V341l-21.9-6.4L117,311.5C117,311.5,108.5,316.7,109.2,322.4z"/>
	<path class="st4" d="M127.5,300.5L127.5,300.5c2.6,0,4.7,2.1,4.7,4.7v4.7c0,2.6-2.1,4.7-4.7,4.7l0,0c-2.6,0-4.7-2.1-4.7-4.7v-4.7
		C122.8,302.6,124.9,300.5,127.5,300.5z"/>
	<g class="st5">
		
			<linearGradient id="SVGID_1_" gradientUnits="userSpaceOnUse" x1="-681.3882" y1="933.2104" x2="-681.3882" y2="947.5667" gradientTransform="matrix(1 0 0 -1 931.1396 1277.9102)">
			<stop  offset="0" style="stop-color:#808081;stop-opacity:0.25"/>
			<stop  offset="0.54" style="stop-color:#808081;stop-opacity:0.12"/>
			<stop  offset="1" style="stop-color:#808081;stop-opacity:0.1"/>
		</linearGradient>
		<path class="st6" d="M254.5,332.9v-2.6h-12.8v11.9c0,1.4,1.1,2.5,2.5,2.5h7.8c1.4,0,2.5-1.1,2.5-2.5v-2.6c1.8,0,3.3-1.5,3.3-3.3
			C257.8,334.4,256.3,332.9,254.5,332.9L254.5,332.9L254.5,332.9z M254.5,338.3v-4.1c1.1,0,2.1,0.8,2.1,2c0,1.1-0.8,2.1-2,2.1
			C254.6,338.3,254.5,338.3,254.5,338.3L254.5,338.3L254.5,338.3z"/>
	</g>
	<path class="st2" d="M254.1,333.3c-1.7,0-3,1.4-3,3c0,1.7,1.4,3,3,3s3-1.4,3-3l0,0C257.1,334.7,255.8,333.3,254.1,333.3z
		 M254.1,338.2c-1,0-1.9-0.8-1.9-1.9c0-1,0.8-1.9,1.9-1.9s1.9,0.8,1.9,1.9C256,337.4,255.1,338.2,254.1,338.2L254.1,338.2
		L254.1,338.2z"/>
	<path class="st7" d="M254.1,333.3c-1.7,0-3,1.4-3,3c0,1.7,1.4,3,3,3s3-1.4,3-3l0,0C257.1,334.7,255.8,333.3,254.1,333.3z
		 M254.1,338.2c-1,0-1.9-0.8-1.9-1.9c0-1,0.8-1.9,1.9-1.9s1.9,0.8,1.9,1.9C256,337.4,255.1,338.2,254.1,338.2L254.1,338.2
		L254.1,338.2z"/>
	<path class="st2" d="M242.4,331h11.7l0,0v10.8c0,1.3-1,2.3-2.3,2.3l0,0h-7.1c-1.3,0-2.3-1-2.3-2.3l0,0L242.4,331L242.4,331z"/>
	<path class="st7" d="M252,331v10.8c0,1.3-1,2.3-2.3,2.3l0,0h1.2c1.3,0,2.3-1,2.3-2.3l0,0V331H252z"/>
	<path class="st8" d="M244.7,322.2c-0.2,0-0.4,0.1-0.5,0.3c-0.2,0.3,0.1,0.6,0.4,0.8c0.5,0.4,1,0.7,1.3,1.2c0.3,0.5,0.4,1.2,0.1,1.6
		c-0.5,0.6-1.5,0.8-1.6,1.5c-0.1,0.5,0.4,0.9,0.8,1.1c1.1,0.6,2.4,0.8,3.2,1.7c0.3-0.6,1-1,1.7-1.2c0.7-0.2,1.4-0.1,2.2-0.3
		c0.2,0,0.5-0.1,0.6-0.3c0.2-0.4-0.4-0.9-0.2-1.3c0.2-0.3,0.6-0.3,0.9-0.4c0.5-0.2,0.7-0.9,0.6-1.4c-0.1-0.5-0.6-1-1-1.3
		c-1.2-0.9-2.6-1.5-4.1-1.9c-0.7-0.2-1.5-0.5-2.2-0.5C246.1,321.9,245.4,322.1,244.7,322.2z"/>
	<line class="st9" x1="162.5" y1="346.8" x2="138.1" y2="423.1"/>
	<line class="st10" x1="121.6" y1="375.5" x2="102.5" y2="425"/>
	<line class="st10" x1="131" y1="375.5" x2="150.1" y2="425"/>
	<ellipse class="st11" cx="126.3" cy="375.9" rx="22.1" ry="6"/>
	<ellipse class="st12" cx="126.3" cy="375.4" rx="22.1" ry="6"/>
	<line class="st10" x1="117" y1="386.4" x2="137.9" y2="392.8"/>
	<line class="st10" x1="135.6" y1="386.4" x2="114.7" y2="392.8"/>
	<path class="st13" d="M108.7,356.7h37.6l0,0v20.5l0,0h-20.9c-9.2,0-16.7-7.5-16.7-16.7l0,0L108.7,356.7L108.7,356.7z"/>
	<path class="st4" d="M157.6,340.7c0,0,15.1,1,11,3.6h-11V340.7z"/>
	<path class="st4" d="M173.6,314.1c0,0,2.6-20.4,6.5-15c4,5.4-2.5,16.4-2.5,16.4L173.6,314.1z"/>
	<path class="st4" d="M174.2,312.7c0,0-3.8-9-0.8-7.8c3,1.2,3.3,7.2,3.3,7.2L174.2,312.7z"/>
	<polygon class="st3" points="108.7,356.7 108.7,357.8 146.3,357.9 146.3,356.7 	"/>
	<path class="st13" d="M137.9,378.5l25.3,2.3l1.4,51.7l9.1-3c0,0,13.6-58.6,0.6-63.5c-12.9-4.9-26.9-11.4-35.3-6.1
		S137.9,378.5,137.9,378.5z"/>
	<path class="st7" d="M139.5,362.6c0,0,13.9,7.1,15.8,15.1"/>
	<path class="st13" d="M124.7,377l19.8,16l-22.1,35.5l9.2,2.6c0,0,38.4-32.9,30.4-44.2c-8-11.3-16-24.5-25.9-24.7
		C126.1,361.9,124.7,377,124.7,377z"/>
	<polygon class="st3" points="155.7,325 160.7,333.4 161.8,331.1 	"/>
	<path class="st14" d="M122.3,428.5c0,0-7.3,5.6-1.6,7.5c5.6,1.9,17.2,3.3,17.2,3.3s1.9-3.3-0.7-4.7c-2.6-1.4-6.1-0.7-6.1-0.7
		l0.5-2.8L122.3,428.5z"/>
	<path class="st14" d="M164.9,432.4c0,0-3.2,8.9,2.6,7.5c5.8-1.4,16.3-6.3,16.3-6.3s-0.1-3.8-3.1-3.6c-2.9,0.2-5.6,2.6-5.6,2.6
		l-1.3-3.1L164.9,432.4z"/>
	<path class="st3" d="M127.5,301c-2.6,0-4.7,2.1-4.7,4.7v1.6c3.1,1,6.4,1,9.4,0v-1.6C132.2,303.1,130.1,301,127.5,301z"/>
	<g class="st5">
		<path class="st0" d="M97.8,387.8c0.8-3.2-0.5-6.6-3.2-8.5c-0.7-0.5-1.5-0.8-2.1-1.4c-1.1-0.9-1.7-2.2-2.1-3.6
			c-1.1-3.2-1.4-6.8-3.3-9.7c-1.7-2.6-5-3.4-7.9-3.7c-1.1-0.1-2.2-0.1-3.2,0.3c-1.6,0.7-2.4,2.7-2.5,4.5c-0.1,1.8,0.4,3.6,0.5,5.4
			c0.1,1.8-0.2,3.8-1.5,5c-1.3,1.2-3.2,1.4-5,1.6c-2.3,0.3-4.6,0.9-6.7,1.7c-1.8,0.7-3.9,1.9-4,3.8c-0.1,1.6,1.2,2.9,2.2,4.1
			c1.8,2.4,2.7,5.5,2.1,8.4c-0.6,3-2.7,5.5-3.1,8.5c-0.1,0.8-0.1,1.6,0.3,2.2c0.3,0.5,0.7,0.9,1.1,1.2c1.1,0.9,2.4,1.6,3.5,2.5
			c2.2,2,3.4,4.8,4.4,7.7c0.1,0.3,0.2,0.5,0.3,0.8h-2.2c-4.5,0-8.1,3.6-8.1,8.1l0,0c0,4.5,3.6,8.1,8.1,8.1h21.9
			c4.5,0,8.1-3.6,8.1-8.1l0,0c0-4.5-3.6-8.1-8.1-8.1h-6c1.4-1.9,2.9-3.7,5.1-4.4c2.2-0.7,4.8-0.3,6.6-1.8c0.8-0.7,1.3-1.8,1.5-2.9
			c0.4-2,0-4.1-1-5.8c-0.7-1.2-1.7-2.4-1.9-3.7c-0.2-1.2,0.2-2.4,0.8-3.5C94,393.5,96.9,391.2,97.8,387.8z"/>
	</g>
	<path class="st15" d="M79.1,362.9c-1-0.1-2.1-0.1-3,0.3c-1.6,0.7-2.3,2.5-2.4,4.2c-0.1,1.7,0.4,3.4,0.5,5.1
		c0.1,1.7-0.2,3.6-1.5,4.7c-1.3,1.2-3.1,1.3-4.7,1.5c-2.2,0.3-4.3,0.8-6.4,1.6c-1.7,0.6-3.7,1.8-3.8,3.6c-0.1,1.5,1.2,2.7,2.1,3.9
		c1.7,2.3,2.6,5.2,2,8c-0.6,2.8-2.6,5.2-2.9,8.1c-0.1,0.7-0.1,1.5,0.3,2.1c0.3,0.5,0.6,0.8,1.1,1.1c1.1,0.8,2.3,1.5,3.3,2.4
		c2.1,1.9,3.3,4.6,4.2,7.3c0.9,2.7,1.6,5.4,2,8.1c1.8-1.2,4.2-1.2,6.1-2.1c4.2-2,5.6-7.9,9.9-9.4c2.1-0.7,4.6-0.3,6.2-1.7
		c0.8-0.7,1.2-1.8,1.4-2.8c0.3-1.9,0-3.9-0.9-5.5c-0.7-1.2-1.6-2.2-1.8-3.6c-0.2-1.1,0.2-2.3,0.8-3.3c1.6-2.9,4.4-5.1,5.2-8.3
		c0.8-3.1-0.4-6.3-3-8.1c-0.7-0.4-1.4-0.8-2-1.3c-1-0.9-1.6-2.1-2-3.4c-1-3-1.3-6.5-3.1-9.2C85,363.8,81.9,363.1,79.1,362.9z"/>
	<path class="st16" d="M79.1,363c0,0,3.9,51.7-6.2,60.6"/>
	<path class="st2" d="M66,417.7h20.8c4.3,0,7.7,3.5,7.7,7.7v0c0,4.3-3.5,7.7-7.7,7.7H66c-4.3,0-7.7-3.5-7.7-7.7v0
		C58.2,421.2,61.7,417.7,66,417.7z"/>
	<path class="st16" d="M57.9,383c0,0,9.9-1.2,21.9,6.2"/>
	<path class="st16" d="M79.6,395.4c0,0,5.5-9.1,17.2-10.8"/>
	<path class="st16" d="M58.8,404c0,0,13.7-2.3,19.9,1.5"/>
	<path class="st16" d="M78,410.9c0,0,7.2-3.2,15.2-0.6"/>
	
		<linearGradient id="SVGID_2_" gradientUnits="userSpaceOnUse" x1="-737.3816" y1="915.2628" x2="-737.3816" y2="915.9687" gradientTransform="matrix(1 0 0 -1 931.1396 1277.9102)">
		<stop  offset="0" style="stop-color:#808081;stop-opacity:0.25"/>
		<stop  offset="0.54" style="stop-color:#808081;stop-opacity:0.12"/>
		<stop  offset="1" style="stop-color:#808081;stop-opacity:0.1"/>
	</linearGradient>
	<path class="st17" d="M193.8,362.6c0.2,0,0.4-0.2,0.4-0.4c0-0.2-0.2-0.4-0.4-0.4c-0.2,0-0.4,0.2-0.4,0.4
		C193.4,362.5,193.6,362.6,193.8,362.6z"/>
	<line class="st9" x1="245.5" y1="346.8" x2="270" y2="433.9"/>
	<rect x="138" y="344.3" class="st18" width="132.2" height="5.1"/>
	<path class="st19" d="M172.1,343.1h18.6c0.8,0,1.5,0.7,1.5,1.5l0,0c0,0.8-0.7,1.5-1.5,1.5h-18.6c-0.8,0-1.5-0.7-1.5-1.5l0,0
		C170.5,343.8,171.2,343.1,172.1,343.1z"/>
	<g class="st5">
		<path class="st0" d="M190.4,309h40.5c3.7,0,6.6,3,6.6,6.6v23.9c0,3.7-3,6.6-6.6,6.6h-40.5c-3.7,0-6.6-3-6.6-6.6v-23.9
			C183.7,311.9,186.7,309,190.4,309z"/>
	</g>
	<path class="st20" d="M191,309.7h38.3c3.5,0,6.3,2.8,6.3,6.3v23.9c0,3.5-2.8,6.3-6.3,6.3H191c-3.5,0-6.3-2.8-6.3-6.3V316
		C184.7,312.5,187.5,309.7,191,309.7z"/>
	<path class="st19" d="M191.7,309.7H230c3.5,0,6.3,2.8,6.3,6.3v23.9c0,3.5-2.8,6.3-6.3,6.3h-38.3c-3.5,0-6.3-2.8-6.3-6.3V316
		C185.4,312.5,188.2,309.7,191.7,309.7z"/>
	<circle class="st18" cx="213.3" cy="327.7" r="1.6"/>
	<ellipse class="st4" cx="115.8" cy="292.2" rx="2" ry="4"/>
	<path class="st4" d="M116.5,283.9c0,0-1.6,11,0,14.5c2.7,3.7,6.1,7.4,11.7,9.6c0,0,7.9-2.4,10.6-9.9c0,0,2.6-6.7,0.6-14.9
		C139.3,283.2,126.4,273.9,116.5,283.9z"/>
	<polyline class="st21" points="128.3,294.5 127.7,299.4 129.3,299.4 	"/>
	<path class="st21" d="M126.2,303.1c0,0,2.8,1.1,4.7-1.2"/>
	<g>
		<path class="st22" d="M122.7,289.7c-0.8,0-2.5-0.1-3.3,0.5c-0.8,0.6-0.8,2.3-0.6,3.2c0.2,0.9,0.5,2.4,2.1,3.1
			c1.6,0.7,3.4,0.3,4.6-0.9c1.2-1.2,1.8-3.2,1.2-4.4C126.1,290,123.6,289.7,122.7,289.7z"/>
		<path class="st23" d="M138.6,290.6c-0.4-0.1-2.3-0.7-3.5-0.8c-1.9-0.1-2.6,0-3.4,0.2c-0.9,0.2-1.4,0.5-1.7,0.5
			c-0.3,0-0.9-0.2-1.4-0.2c-0.4,0-1.1,0.1-1.4,0.1s-0.7-0.4-1.6-0.7c-0.9-0.3-1.5-0.5-3.4-0.6c-1.2-0.1-3.2,0.4-3.6,0.4
			c-0.4,0-0.8,0-0.8,0l0,1c0,0,0.4,0.1,0.5,0.5c0.1,0.4,0.1,2.2,0.5,3.2c0.4,1.2,1.2,2.1,2.5,2.6c1.4,0.5,2.8,0.2,3.8-0.3
			c0.7-0.4,1.4-1.1,2-2.1c0.7-1.2,0.9-2.3,0.9-2.3s-0.3-0.3-0.1-0.7c0.1-0.3,0.5-0.3,0.9-0.3c0.4,0,0.7,0.1,0.8,0.4
			c0.1,0.4-0.2,0.7-0.2,0.7s0.1,1.1,0.7,2.4c0.4,1,1.1,1.8,1.7,2.3c0.9,0.7,2.3,1,3.7,0.7c1.4-0.3,2.2-1.2,2.8-2.3
			c0.5-1,0.6-2.8,0.7-3.2c0.1-0.4,0.4-0.4,0.4-0.4l0-1C139.3,290.8,139,290.7,138.6,290.6z M125.5,295.5c-1.2,1.2-3,1.6-4.6,0.9
			c-1.6-0.7-2-2.1-2.1-3.1c-0.2-0.9-0.2-2.6,0.6-3.2c0.8-0.6,2.5-0.5,3.3-0.5c0.9,0,3.4,0.4,4,1.5
			C127.3,292.3,126.7,294.4,125.5,295.5z M138,294.3c-0.3,0.9-0.8,2.3-2.4,2.8c-1.7,0.5-3.4,0-4.5-1.4c-1-1.3-1.5-3.4-0.8-4.5
			c0.7-1.1,3.3-1.2,4.1-1.1c0.8,0.1,2.5,0.2,3.2,0.9C138.5,291.8,138.3,293.4,138,294.3z"/>
		<path class="st22" d="M137.7,291.1c-0.8-0.7-2.4-0.8-3.2-0.9c-0.9-0.1-3.4,0.1-4.1,1.1c-0.7,1.1-0.3,3.2,0.8,4.5
			c1.1,1.3,2.8,1.9,4.5,1.4c1.7-0.5,2.2-1.9,2.4-2.8C138.3,293.4,138.5,291.8,137.7,291.1z"/>
	</g>
	<path class="st24" d="M139.5,283.7c0,0-13.1-8-21.7,0.3l-0.1,3.1l-0.9,1.6c0,0-0.5,4.7,0,6c0,0-1-2.1-1-6.3c0,0-0.8-0.3-1.3,1
		c0,0-3.1-7.6,2-13.7c0,0,8.4-3.7,9.2-4.3l-0.2,1c0,0,5.8-0.2,7.6,1.4c0,0,2.2,1.6,3.7,1.6l-0.7,0.6
		C136,276.2,139.9,279.5,139.5,283.7z"/>
	<path class="st24" d="M126.5,280.3c0,0,2.1,1.9,4.4,2.5l-0.9-2.4c0,0,2,1.8,5.1,3c0,0-0.9-1.2-0.9-2.1
		C134,280.6,127.2,279.4,126.5,280.3z"/>
</g>
<g>
</g>
<g>
</g>
<g>
</g>
<g>
</g>
<g>
</g>
<g>
</g>
<g>
</g>
<g>
</g>
<g>
</g>
<g>
</g>
<g>
</g>
<g>
</g>
<g>
</g>
<g>
</g>
<g>
</g>
</svg>
