<svg xmlns="http://www.w3.org/2000/svg" xmlns:xlink="http://www.w3.org/1999/xlink" viewBox="0 0 1920 1075"><defs><style>.a{clip-path:url(#c);}.b{fill:#f6f6f6;}.c,.d{fill-rule:evenodd;}.aq,.d{fill:none;}.d{stroke:#fff;stroke-width:0.5px;}.e{fill:#f4b300;}.f,.q{fill:#707070;}.f,.h,.i{font-size:33px;}.f,.h,.i,.k,.m,.q{font-family:YuGothicUI-Regular, Yu Gothic UI;}.g{fill:#ffd86e;}.h{fill:#5d5d5d;}.i,.o{fill:#fff;}.j{fill:#505050;font-size:71px;font-family:YuGothicUI-Bold, Yu Gothic UI;font-weight:700;}.k{fill:#212121;font-size:40px;}.l{font-family:SegoeUI, Segoe UI;}.m{fill:#414141;font-size:31px;}.n{fill:#dbdbdb;}.p{fill:#323232;}.q{font-size:20px;}.r,.v{fill:#bc6b00;}.r,.s,.w{opacity:0.1;}.t{fill:#f7f7fd;}.u,.z{opacity:0.2;}.x{fill:#ffd037;}.y{fill:#a8a8a8;}.aa{fill:#d38884;}.ab{fill:#4c4981;}.ac{opacity:0.05;}.ad{fill:#ceddf9;}.ae{fill:#cc8294;}.af{fill:#1e1637;}.ag{fill:#ffd2c6;}.ah{fill:#626696;}.ai{fill:#ffcde5;}.aj{fill:#985c7e;}.ak{fill:url(#a);}.al{fill:#db8b8b;}.am{fill:#2e3037;}.an{fill:#474463;}.ao{fill:#fc6681;}.ap{fill:#472727;}.aq{stroke:#565987;stroke-miterlimit:10;}</style><linearGradient id="a" x1="31.936" y1="1" x2="31.936" gradientUnits="objectBoundingBox"><stop offset="0" stop-color="gray" stop-opacity="0.251"/><stop offset="0.54" stop-color="gray" stop-opacity="0.122"/><stop offset="1" stop-color="gray" stop-opacity="0.102"/></linearGradient><clipPath id="c"><rect width="1920" height="1075"/></clipPath></defs><g id="b" class="a"><rect class="o" width="1920" height="1075"/><rect class="b" width="1920" height="1079"/><g transform="translate(261.264 64.85)"><g transform="translate(-168.264 13.15)"><path class="c" d="M34.664,72.529a1.464,1.464,0,0,1-.657-.146L1.968,57.129a1.533,1.533,0,0,1-.867-1.38V8.466a1.52,1.52,0,0,1,.712-1.292,1.5,1.5,0,0,1,1.466-.09L34.664,22.03,66.038,7.084a1.523,1.523,0,0,1,2.178,1.382V55.749a1.535,1.535,0,0,1-.861,1.38L35.318,72.383a1.465,1.465,0,0,1-.654.146ZM4.154,54.788,34.664,69.319,65.171,54.788V10.882L35.318,25.092a1.544,1.544,0,0,1-1.311,0L4.154,10.882V54.788Z" transform="translate(-0.417 5.77)"/><path class="c" d="M34.983,73.526a2.16,2.16,0,0,1-.959-.217L1.994,58.057A2.225,2.225,0,0,1,.736,56.063V8.78A2.217,2.217,0,0,1,1.762,6.911,2.268,2.268,0,0,1,3.9,6.785l31.084,14.8,31.084-14.8a2.243,2.243,0,0,1,2.131.125A2.209,2.209,0,0,1,69.22,8.78V56.063a2.207,2.207,0,0,1-1.257,1.994L35.93,73.313a2.166,2.166,0,0,1-.948.213ZM2.942,7.928a.793.793,0,0,0-.44.131.838.838,0,0,0-.4.721V56.063a.852.852,0,0,0,.478.764L34.62,72.084a.821.821,0,0,0,.725,0L67.381,56.827a.845.845,0,0,0,.478-.764V8.78a.841.841,0,0,0-1.208-.766L34.983,23.1l-.3-.139L3.311,8.014a.873.873,0,0,0-.369-.086ZM34.983,70.382l-.3-.135-30.9-14.71V10.119L34.62,24.792a.873.873,0,0,0,.73,0L66.17,10.119V55.537l-.384.184-30.8,14.662ZM5.15,54.675l29.833,14.2,29.829-14.2V12.269L35.93,26.018a2.242,2.242,0,0,1-1.9,0L5.15,12.269V54.675Z" transform="translate(-0.736 5.457)"/><path class="c" d="M31.823,18.559,5.223,5.9A1.525,1.525,0,1,1,6.538,3.148L31.823,15.184,57.1,3.148A1.524,1.524,0,1,1,58.412,5.9L31.823,18.559" transform="translate(2.424 2.337)"/><path class="c" d="M32.139,19.629l-.3-.139L5.25,6.827A2.2,2.2,0,0,1,4.209,3.89a2.261,2.261,0,0,1,2.94-1.045l24.99,11.9,24.988-11.9a2.248,2.248,0,0,1,2.938,1.043,2.209,2.209,0,0,1-1.041,2.938l-26.885,12.8ZM6.2,4a.843.843,0,0,0-.764.478.853.853,0,0,0,.4,1.131l26.3,12.516L58.436,5.6a.846.846,0,1,0-.728-1.528L32.139,16.254l-.3-.139L6.561,4.076A.849.849,0,0,0,6.2,4Z" transform="translate(2.108 2.024)"/><path class="c" d="M18.206,15.9h3.051V63.187H18.206Z" transform="translate(14.511 13.591)"/><path class="c" d="M17.843,15.532h4.416V64.184H17.843ZM19.2,62.821H20.9V16.892H19.2Z" transform="translate(14.194 13.275)"/><path class="c" d="M64.41,53.267H52.55V30.406h2.676V50.843H64.41Z" transform="translate(44.484 26.256)"/><path class="d" d="M64.41,53.267H52.55V30.406h2.676V50.843H64.41Z" transform="translate(44.484 26.256)"/><path class="c" d="M74.208,42.889H62.685a6.113,6.113,0,0,0,1.463,4.21,5.069,5.069,0,0,0,3.86,1.481,8.023,8.023,0,0,0,5.071-1.818v2.459a9.5,9.5,0,0,1-5.695,1.56,6.9,6.9,0,0,1-5.435-2.223A9.1,9.1,0,0,1,59.973,42.3a8.917,8.917,0,0,1,2.161-6.21,6.925,6.925,0,0,1,5.364-2.4,6.132,6.132,0,0,1,4.955,2.073,8.622,8.622,0,0,1,1.755,5.753v1.371Zm-2.676-2.217a5.322,5.322,0,0,0-1.094-3.521,3.713,3.713,0,0,0-2.987-1.26,4.212,4.212,0,0,0-3.141,1.326,5.988,5.988,0,0,0-1.6,3.455Z" transform="translate(50.963 29.124)"/><path class="d" d="M74.208,42.889H62.685a6.113,6.113,0,0,0,1.463,4.21,5.069,5.069,0,0,0,3.86,1.481,8.023,8.023,0,0,0,5.071-1.818v2.459a9.5,9.5,0,0,1-5.695,1.56,6.9,6.9,0,0,1-5.435-2.223A9.1,9.1,0,0,1,59.973,42.3a8.917,8.917,0,0,1,2.161-6.21,6.925,6.925,0,0,1,5.364-2.4,6.132,6.132,0,0,1,4.955,2.073,8.622,8.622,0,0,1,1.755,5.753v1.371Zm-2.676-2.217a5.322,5.322,0,0,0-1.094-3.521,3.713,3.713,0,0,0-2.987-1.26,4.212,4.212,0,0,0-3.141,1.326,5.988,5.988,0,0,0-1.6,3.455Z" transform="translate(50.963 29.124)"/><path class="c" d="M81.937,50.4H79.318V47.846h-.062a5.476,5.476,0,0,1-5.021,2.935,5.365,5.365,0,0,1-3.82-1.292,4.474,4.474,0,0,1-1.376-3.427q0-4.573,5.388-5.322l4.892-.687q0-4.16-3.363-4.161A8.037,8.037,0,0,0,70.633,37.9V35.222a10.111,10.111,0,0,1,5.547-1.53q5.756,0,5.757,6.09V50.4Zm-2.618-8.257-3.937.543a6.4,6.4,0,0,0-2.742.9,2.6,2.6,0,0,0-.923,2.287,2.491,2.491,0,0,0,.854,1.953,3.292,3.292,0,0,0,2.272.757,4.2,4.2,0,0,0,3.21-1.36,4.887,4.887,0,0,0,1.266-3.453V42.142Z" transform="translate(58.875 29.124)"/><path class="d" d="M81.937,50.4H79.318V47.846h-.062a5.476,5.476,0,0,1-5.021,2.935,5.365,5.365,0,0,1-3.82-1.292,4.474,4.474,0,0,1-1.376-3.427q0-4.573,5.388-5.322l4.892-.687q0-4.16-3.363-4.161A8.037,8.037,0,0,0,70.633,37.9V35.222a10.111,10.111,0,0,1,5.547-1.53q5.756,0,5.757,6.09V50.4Zm-2.618-8.257-3.937.543a6.4,6.4,0,0,0-2.742.9,2.6,2.6,0,0,0-.923,2.287,2.491,2.491,0,0,0,.854,1.953,3.292,3.292,0,0,0,2.272.757,4.2,4.2,0,0,0,3.21-1.36,4.887,4.887,0,0,0,1.266-3.453V42.142Z" transform="translate(58.875 29.124)"/><path class="c" d="M87.068,36.676a3.2,3.2,0,0,0-1.976-.524,3.331,3.331,0,0,0-2.8,1.577,7.28,7.28,0,0,0-1.126,4.3v8.322H78.555V34.03h2.614v3.365h.064a5.674,5.674,0,0,1,1.708-2.687,3.893,3.893,0,0,1,2.567-.964,4.263,4.263,0,0,1,1.56.225v2.708Z" transform="translate(67.18 29.168)"/><path class="d" d="M87.068,36.676a3.2,3.2,0,0,0-1.976-.524,3.331,3.331,0,0,0-2.8,1.577,7.28,7.28,0,0,0-1.126,4.3v8.322H78.555V34.03h2.614v3.365h.064a5.674,5.674,0,0,1,1.708-2.687,3.893,3.893,0,0,1,2.567-.964,4.263,4.263,0,0,1,1.56.225v2.708Z" transform="translate(67.18 29.168)"/><path class="c" d="M98.132,50.4H95.52V41.089q0-5.2-3.8-5.2a4.119,4.119,0,0,0-3.245,1.476A5.469,5.469,0,0,0,87.2,41.089V50.4H84.583V34.074H87.2v2.708h.067a5.884,5.884,0,0,1,5.354-3.09,4.991,4.991,0,0,1,4.1,1.73,7.717,7.717,0,0,1,1.42,5V50.4Z" transform="translate(72.441 29.124)"/><path class="d" d="M98.132,50.4H95.52V41.089q0-5.2-3.8-5.2a4.119,4.119,0,0,0-3.245,1.476A5.469,5.469,0,0,0,87.2,41.089V50.4H84.583V34.074H87.2v2.708h.067a5.884,5.884,0,0,1,5.354-3.09,4.991,4.991,0,0,1,4.1,1.73,7.717,7.717,0,0,1,1.42,5V50.4Z" transform="translate(72.441 29.124)"/><path class="c" d="M117.94,53.267h-2.661V37.929q0-1.815.223-4.446h-.064a14.182,14.182,0,0,1-.685,2.217l-7.811,17.566h-1.305l-7.8-17.441a13.681,13.681,0,0,1-.685-2.343h-.066q.129,1.371.131,4.48v15.3H94.636V30.406h3.539l7.012,15.941a21.037,21.037,0,0,1,1.054,2.742h.1c.459-1.253.822-2.189,1.1-2.805l7.154-15.877h3.348V53.267Z" transform="translate(81.215 26.256)"/><path class="d" d="M117.94,53.267h-2.661V37.929q0-1.815.223-4.446h-.064a14.182,14.182,0,0,1-.685,2.217l-7.811,17.566h-1.305l-7.8-17.441a13.681,13.681,0,0,1-.685-2.343h-.066q.129,1.371.131,4.48v15.3H94.636V30.406h3.539l7.012,15.941a21.037,21.037,0,0,1,1.054,2.742h.1c.459-1.253.822-2.189,1.1-2.805l7.154-15.877h3.348V53.267Z" transform="translate(81.215 26.256)"/><path class="c" d="M117.447,50.781a7.564,7.564,0,0,1-5.779-2.288,8.465,8.465,0,0,1-2.161-6.064A8.836,8.836,0,0,1,111.754,36a8.091,8.091,0,0,1,6.075-2.309,7.319,7.319,0,0,1,5.7,2.247,8.915,8.915,0,0,1,2.049,6.232,8.772,8.772,0,0,1-2.208,6.259,7.741,7.741,0,0,1-5.922,2.35Zm.189-14.89a4.963,4.963,0,0,0-3.983,1.715,7.023,7.023,0,0,0-1.468,4.725,6.659,6.659,0,0,0,1.481,4.575,5.038,5.038,0,0,0,3.97,1.674,4.776,4.776,0,0,0,3.9-1.642,7.11,7.11,0,0,0,1.365-4.669,7.239,7.239,0,0,0-1.365-4.719,4.76,4.76,0,0,0-3.9-1.659Z" transform="translate(94.193 29.124)"/><path class="d" d="M117.447,50.781a7.564,7.564,0,0,1-5.779-2.288,8.465,8.465,0,0,1-2.161-6.064A8.836,8.836,0,0,1,111.754,36a8.091,8.091,0,0,1,6.075-2.309,7.319,7.319,0,0,1,5.7,2.247,8.915,8.915,0,0,1,2.049,6.232,8.772,8.772,0,0,1-2.208,6.259,7.741,7.741,0,0,1-5.922,2.35Zm.189-14.89a4.963,4.963,0,0,0-3.983,1.715,7.023,7.023,0,0,0-1.468,4.725,6.659,6.659,0,0,0,1.481,4.575,5.038,5.038,0,0,0,3.97,1.674,4.776,4.776,0,0,0,3.9-1.642,7.11,7.11,0,0,0,1.365-4.669,7.239,7.239,0,0,0-1.365-4.719,4.76,4.76,0,0,0-3.9-1.659Z" transform="translate(94.193 29.124)"/><path class="c" d="M134.77,53.877h-2.614V51.1h-.064a6.032,6.032,0,0,1-5.609,3.157,6.1,6.1,0,0,1-4.92-2.191,9,9,0,0,1-1.841-5.972,9.787,9.787,0,0,1,2.039-6.487A6.727,6.727,0,0,1,127.2,37.17a5.229,5.229,0,0,1,4.893,2.648h.064V29.707h2.614v24.17Zm-2.614-7.384v-2.4a4.667,4.667,0,0,0-1.305-3.347,4.382,4.382,0,0,0-3.318-1.373,4.517,4.517,0,0,0-3.76,1.753,7.692,7.692,0,0,0-1.369,4.847,6.9,6.9,0,0,0,1.313,4.455,4.3,4.3,0,0,0,3.532,1.635,4.464,4.464,0,0,0,3.547-1.577,5.88,5.88,0,0,0,1.361-3.989Z" transform="translate(103.108 25.646)"/><path class="d" d="M134.77,53.877h-2.614V51.1h-.064a6.032,6.032,0,0,1-5.609,3.157,6.1,6.1,0,0,1-4.92-2.191,9,9,0,0,1-1.841-5.972,9.787,9.787,0,0,1,2.039-6.487A6.727,6.727,0,0,1,127.2,37.17a5.229,5.229,0,0,1,4.893,2.648h.064V29.707h2.614v24.17Zm-2.614-7.384v-2.4a4.667,4.667,0,0,0-1.305-3.347,4.382,4.382,0,0,0-3.318-1.373,4.517,4.517,0,0,0-3.76,1.753,7.692,7.692,0,0,0-1.369,4.847,6.9,6.9,0,0,0,1.313,4.455,4.3,4.3,0,0,0,3.532,1.635,4.464,4.464,0,0,0,3.547-1.577,5.88,5.88,0,0,0,1.361-3.989Z" transform="translate(103.108 25.646)"/><path class="c" d="M144.223,42.889H132.7a6.106,6.106,0,0,0,1.468,4.21,5.062,5.062,0,0,0,3.858,1.481,8.014,8.014,0,0,0,5.07-1.818v2.459a9.494,9.494,0,0,1-5.693,1.56,6.9,6.9,0,0,1-5.433-2.223,9.1,9.1,0,0,1-1.978-6.257,8.933,8.933,0,0,1,2.157-6.21,6.938,6.938,0,0,1,5.367-2.4,6.135,6.135,0,0,1,4.955,2.073,8.632,8.632,0,0,1,1.755,5.753v1.371Zm-2.678-2.217a5.331,5.331,0,0,0-1.09-3.521,3.725,3.725,0,0,0-2.993-1.26,4.21,4.21,0,0,0-3.137,1.326,5.977,5.977,0,0,0-1.6,3.455Z" transform="translate(112.068 29.124)"/><path class="d" d="M144.223,42.889H132.7a6.106,6.106,0,0,0,1.468,4.21,5.062,5.062,0,0,0,3.858,1.481,8.014,8.014,0,0,0,5.07-1.818v2.459a9.494,9.494,0,0,1-5.693,1.56,6.9,6.9,0,0,1-5.433-2.223,9.1,9.1,0,0,1-1.978-6.257,8.933,8.933,0,0,1,2.157-6.21,6.938,6.938,0,0,1,5.367-2.4,6.135,6.135,0,0,1,4.955,2.073,8.632,8.632,0,0,1,1.755,5.753v1.371Zm-2.678-2.217a5.331,5.331,0,0,0-1.09-3.521,3.725,3.725,0,0,0-2.993-1.26,4.21,4.21,0,0,0-3.137,1.326,5.977,5.977,0,0,0-1.6,3.455Z" transform="translate(112.068 29.124)"/><path class="c" d="M66.97.363l1.708,4.114A88.994,88.994,0,0,1,59.6,5.65l.213,2.513h8.225v3.629h-8.01l.161,2.886h7.849v3.845H60.455l.212,3.257H92.552l.266-3.257H85.769V14.679h7.313l.215-2.672H85.769V8.377h7.851l.213-2.884H85.34V1.169H98.691L97.249,21.78h3.581V32.408H95.917V26H57.462v6.407H52.55V21.78h3.418L54.8,1.912A81.014,81.014,0,0,0,66.97.363ZM61.629,28.992H92.713v4a90.047,90.047,0,0,1-12.6,4.541h20.4v4.272H79.791V46.4a4.083,4.083,0,0,1-.966,2.616,4.253,4.253,0,0,1-3.1,1.335H66.97V46.081q2.832.1,6.034.107,1.655,0,1.654-1.176v-3.2H53.509V37.536H74.658V35.61a86.91,86.91,0,0,0,9.776-2.774h-22.8V28.992ZM81.016.363l3.257,2.03a26.757,26.757,0,0,1-3.311,2.94c.854.712,1.674,1.386,2.455,2.03L80.591,10.19c-.858-.854-1.852-1.74-2.991-2.671a49.834,49.834,0,0,1-6.57,3.1L68.89,7.1a32.358,32.358,0,0,0,5.345-2.03q-1.714-1.177-3.637-2.4L73.165.15q2.4,1.444,4.54,2.884A28.285,28.285,0,0,0,81.016.363Zm.64,10.04,3.257,2.03a35.075,35.075,0,0,1-3.9,3.581q1.657,1.281,3.045,2.455L81.227,21.3A40.373,40.373,0,0,0,77.7,18.2a50.852,50.852,0,0,1-6.034,2.884l-2.139-3.526a28.522,28.522,0,0,0,4.805-1.869q-1.6-1.07-3.307-2.137l2.56-2.511c1.5.893,2.865,1.783,4.114,2.671A28.626,28.626,0,0,0,81.656,10.4Z" transform="translate(44.484 -0.15)"/><path class="c" d="M99.645,22.842V5.536H81.809V.835h22.75v22Zm8.811,2.882h18V47.088H86.294V25.724h22.162ZM97.615,13.012l1.283,4.54a60.94,60.94,0,0,1-15.062,8.278l-2.026-4.646a69.837,69.837,0,0,0,15.806-8.171ZM86.187,6.386a43.806,43.806,0,0,1,8.223,5.075l-2.832,4.328a35.772,35.772,0,0,0-7.847-5.716l2.455-3.687Zm5.234,27.883h29.906V30.207H91.422Zm0,8.328h29.906V38.325H91.422ZM106.589.835h22.857V24.121H124.32V5.536H106.589V.835Zm16.076,11.75,1.23,4.378A75.452,75.452,0,0,1,108.939,22.2l-1.921-4.489a86.225,86.225,0,0,0,15.647-5.126Zm-11.7-6.626a41.8,41.8,0,0,1,7.8,4.437l-2.832,4.326a32.37,32.37,0,0,0-7.424-5.073l2.457-3.689Z" transform="translate(70.02 0.448)"/><path class="c" d="M111.752,2.921h15.167V39.987H111.752Zm4.914,32.365h5.339V7.407h-5.339Zm40.91-33.537V28.664H136.212v12.6q0,1.708,2.028,1.708H151.11a3.586,3.586,0,0,0,2.727-.908q1.014-.854,1.337-8.279h4.966c-.536,5.91-1.408,11-2.62,12.074-1.036,1.069-2.936,1.6-5.716,1.6H136.266a5.3,5.3,0,0,1-3.742-1.285,4.654,4.654,0,0,1-1.388-3.525V1.749ZM136.212,23.963h5.658V6.446h-5.658Zm10.572,0h5.663V6.446h-5.663Z" transform="translate(96.152 1.246)"/></g></g><path class="e" d="M7559.133,0H8152.4V1079H6969.5S7102.24,680.2,7469.2,501.637,7559.133,0,7559.133,0Z" transform="translate(-6230.596)"/><text class="f" transform="translate(1534 114)"><tspan x="0" y="0">登入</tspan></text><g transform="translate(335 -20)"><rect class="g" width="193.585" height="70.422" rx="35.211" transform="translate(1304 84.578)"/><text class="h" transform="translate(1368 134)"><tspan x="0" y="0">註冊</tspan></text></g><g transform="translate(-46)"><rect class="e" width="339.585" height="89.422" rx="44.711" transform="translate(288 806.578)"/><text class="i" transform="translate(392.08 865.348)"><tspan x="0" y="0">開始使用</tspan></text></g><text class="j" transform="translate(184 345)"><tspan x="0" y="0">專為國中小學生設計的線上教育平台</tspan></text><text class="k" transform="translate(184 420)"><tspan x="0" y="0">全國唯一，整合學習內容</tspan><tspan class="l" y="0">+</tspan><tspan y="0">學習工具</tspan></text><text class="m" transform="translate(343 943)"><tspan x="0" y="0">完全免費！</tspan></text><g transform="translate(2749 1811) rotate(180)"><circle class="e" cx="43" cy="43" r="43" transform="translate(1746 794)"/><g transform="translate(1774 744.797)"><path class="n" d="M29.951,95.781,17.143,82.953a2.522,2.522,0,0,0-1.793-.729,2.414,2.414,0,0,0-1.773.729L.749,95.781A2.446,2.446,0,0,0,0,97.574a2.342,2.342,0,0,0,.749,1.773l1.478,1.478A2.343,2.343,0,0,0,4,101.574a2.343,2.343,0,0,0,1.773-.749l9.576-9.557,9.576,9.557a2.342,2.342,0,0,0,1.774.749,2.447,2.447,0,0,0,1.793-.749l1.478-1.478a2.414,2.414,0,0,0,.729-1.773A2.444,2.444,0,0,0,29.951,95.781Z" transform="translate(0)"/></g></g><g transform="translate(-247.536 49)"><rect class="o" width="312.714" height="44" rx="20" transform="translate(1411 29)"/><path class="p" d="M22.843,22.1l-6.4-6.66a9.058,9.058,0,1,0-.637.581l6.42,6.676a.431.431,0,1,0,.621-.6ZM10.034,17.239a8.189,8.189,0,1,1,8.189-8.189A8.2,8.2,0,0,1,10.034,17.239Z" transform="translate(1681.217 39.028)"/><text class="q" transform="translate(1437.714 57.286)"><tspan x="0" y="0">你想學什麼呢？</tspan></text></g><g transform="translate(993.243 403.741)"><path class="r" d="M589.246,144.443c-36.8,25.764-84.531,24.1-126.359,10.694s-80.251-37.277-121-54.24A393.224,393.224,0,0,0,235.566,73.184c-51.941-5.944-109.945,1.3-146.131,42.966C49.134,162.529,52.229,246.2,95.8,288.808c22.175,21.658,51.209,32.288,76.527,49.2S221.1,382.975,218.944,415.6c-2,30.235-25.207,53.4-49.228,67.958-18.563,11.243-41.422,23.52-43.658,46.809-2.164,22.533,17.059,40.189,35.415,50.23a201.157,201.157,0,0,0,193.346-.8c21.276-11.9,40.817-27.681,63.136-36.895,58.6-24.284,123.177.167,185.23,9.1A370.286,370.286,0,0,0,760.727,540.54c30.728-9.078,61.576-22.955,83.163-48.806,15.571-18.642,25.27-42.226,34.373-65.531q14.561-37.261,28-75.055c5.371-15.118,10.662-30.538,12.054-46.721,2.514-29.32-8.084-58.306-22.517-83.051-34.269-58.8-91.986-100.11-154.494-110.605s-128.635,10-177.114,54.853" transform="translate(-61.06 -71.37)"/><g class="s" transform="translate(427.145 81.294)"><path d="M600.932,174.519,597.9,350.361s109.738,0,203.109,30.315l1.814-177.64S653.071,167.239,600.932,174.519Z" transform="translate(-597.9 -173.542)"/></g><path class="t" d="M597.932,170.519,594.9,346.361s109.738,0,203.109,30.315l1.814-177.64S650.071,163.239,597.932,170.519Z" transform="translate(-170.142 -91.431)"/><g class="s" transform="translate(173.193 86.34)"><path d="M480.621,180.851l3.031,175.841s-109.738,0-203.1,30.315l-1.822-177.64S428.482,173.611,480.621,180.851Z" transform="translate(-278.73 -179.884)"/></g><path class="t" d="M483.621,175.851l3.031,175.841s-109.738,0-203.1,30.315l-1.822-177.64S431.482,168.611,483.621,175.851Z" transform="translate(-106.15 -92.522)"/><g class="u" transform="translate(219.906 103.322)"><path class="v" d="M445.714,201.747l1.631,94.294s-58.879,0-108.926,16.255l-.979-95.265S417.754,197.864,445.714,201.747Z" transform="translate(-337.44 -201.227)"/></g><g class="s" transform="translate(696.747 146.951)"><path d="M936.74,256.06v174s35.8-4.249,110.955,88.517l6.668-174S976.149,260.3,936.74,256.06Z" transform="translate(-936.74 -256.06)"/></g><path class="t" d="M934.74,253.06v174s35.8-4.249,110.955,88.517l6.668-174S974.149,257.3,934.74,253.06Z" transform="translate(-239.585 -108.496)"/><g class="s" transform="translate(0.407 147.746)"><path d="M179.185,257.06v174s-35.773-4.249-110.907,88.517l-6.707-174S139.776,261.3,179.185,257.06Z" transform="translate(-61.57 -257.06)"/></g><path class="t" d="M182.185,253.06v174s-35.773-4.249-110.907,88.517l-6.707-174S142.776,257.3,182.185,253.06Z" transform="translate(-61.776 -108.496)"/><g class="u" transform="translate(457.109 115.665)"><path class="v" d="M574.5,145.37l74.339,13.3v10.829L574.5,155.22Z" transform="translate(-574.5 -145.37)"/></g><path class="o" d="M375.411,276.87l-74.331,13.3v10.829l74.331-14.274Z" transform="translate(-61.521 -56.575)"/><path class="o" d="M575.74,170.74,711.607,198.8v10.829L575.74,180.59Z" transform="translate(-117.644 -34.889)"/><path class="o" d="M575.74,196.11l135.867,28.055V235L575.74,205.952Z" transform="translate(-117.644 -40.073)"/><g class="u" transform="translate(726.839 200.753)"><path class="v" d="M913.5,252.31v9.556l29.145,23.679,1.369-8.2Z" transform="translate(-913.5 -252.31)"/></g><path class="o" d="M913.5,368.31v9.556l29.145,23.679,1.369-8.2Z" transform="translate(-186.661 -75.26)"/><path class="o" d="M913.962,272.91l-.462,9.564,55.1,51.9-.907-10.924Z" transform="translate(-186.661 -55.766)"/><path class="o" d="M913.5,295.23v9.1l55.1,52.824V345.317Z" transform="translate(-186.661 -60.327)"/><g class="u" transform="translate(33.626 202.822)"><path class="v" d="M96.9,254.91l.454,9.564-55.092,51.9.907-10.924Z" transform="translate(-42.26 -254.91)"/></g><g class="u" transform="translate(33.626 220.581)"><path class="v" d="M97.352,277.23v9.1L42.26,339.156V327.317Z" transform="translate(-42.26 -277.23)"/></g><ellipse class="r" cx="45.353" cy="8.163" rx="45.353" ry="8.163" transform="translate(117.449 486.643)"/><path class="v" d="M127.4,636.84s4.368,5.713-2.021,14.322-11.656,15.913-9.548,21.292c0,0,9.635-16.025,17.5-16.247S136.031,646.515,127.4,636.84Z" transform="translate(-72.154 -186.917)"/><path class="w" d="M127.466,636.84a6.865,6.865,0,0,1,.891,1.79c7.654,8.991,11.736,17.385,4.376,17.6-6.851.191-15.118,12.452-17.043,15.547.064.231.143.469.231.7,0,0,9.635-16.025,17.5-16.247S136.1,646.515,127.466,636.84Z" transform="translate(-72.222 -186.917)"/><path class="x" d="M140.44,645.668c0,2.013-.223,3.644-.5,3.644s-.509-1.631-.509-3.644.286-1.066.565-1.066S140.44,643.647,140.44,645.668Z" transform="translate(-77.073 -188.457)"/><path class="x" d="M143.323,648.647c-1.766.963-3.31,1.544-3.445,1.3s1.193-1.225,2.96-2.188,1.066-.263,1.2,0S145.089,647.692,143.323,648.647Z" transform="translate(-77.162 -189.049)"/><path class="v" d="M98.948,636.84s-4.352,5.7,2.013,14.346,11.656,15.913,9.548,21.292c0,0-9.635-16.025-17.5-16.247S90.323,646.515,98.948,636.84Z" transform="translate(-66.794 -186.917)"/><path class="w" d="M98.945,636.84a7.16,7.16,0,0,0-.891,1.79c-7.654,8.991-11.736,17.385-4.376,17.6,6.859.191,15.118,12.452,17.043,15.547a6,6,0,0,1-.231.7s-9.635-16.025-17.5-16.247S90.32,646.515,98.945,636.84Z" transform="translate(-66.791 -186.917)"/><path class="x" d="M91.26,645.668c0,2.013.223,3.644.5,3.644s.509-1.631.509-3.644-.286-1.066-.565-1.066S91.26,643.647,91.26,645.668Z" transform="translate(-67.23 -188.457)"/><path class="x" d="M87.483,648.647c1.766.963,3.3,1.544,3.437,1.3s-1.193-1.225-2.96-2.188-1.066-.263-1.2,0S85.717,647.692,87.483,648.647Z" transform="translate(-66.238 -189.049)"/><path class="y" d="M93,678.994s12.221-.374,15.913-3,18.794-5.753,19.709-1.544,18.364,20.918,4.567,21.029-32.057-2.148-35.733-4.392S93,678.994,93,678.994Z" transform="translate(-67.585 -194.182)"/><path class="z" d="M133.438,695.708c-13.8.111-32.057-2.148-35.733-4.392-2.8-1.7-3.915-7.821-4.289-10.646H93.01s.8,9.858,4.448,12.094,21.936,4.5,35.733,4.392c3.978,0,5.363-1.448,5.283-3.549C137.925,694.888,136.405,695.684,133.438,695.708Z" transform="translate(-67.587 -195.873)"/><ellipse class="r" cx="74.792" cy="12.81" rx="74.792" ry="12.81" transform="translate(403.004 361.716)"/><path class="aa" d="M638.328,324.2a10.419,10.419,0,0,0-.8,2.443q-.072.318-.143.668c-.477,2.435-.8,5.5-.963,7.28-.079.891-.119,1.464-.119,1.464S619.049,334.9,622.04,332a6.366,6.366,0,0,0,1.591-2.864c.087-.31.159-.621.223-.939a16.141,16.141,0,0,0,.278-2.188v-.557a22.559,22.559,0,0,0-.167-3.573s5.609,0,9.842.454C636.657,322.66,638.877,323.225,638.328,324.2Z" transform="translate(-175.617 -122.559)"/><path class="aa" d="M603.82,414.113c-5.88-.191-1.544-12.436-.867-14.083s-1-5.681-1-5.681-1.989-11.664-1.989-12.428a31.15,31.15,0,0,0-.668-4.726,7.957,7.957,0,0,1,.8-4.631c.676-1.058.573-5.3.573-5.3v-5.49l1.313-1.735,3.35,3.183.931.875,1.639,6.143-.581,8.8L607,387.61l2.029,11.855S609.74,414.312,603.82,414.113Z" transform="translate(-171.026 -130.356)"/><path class="w" d="M544.993,293.311l-5.013-2.085v-.812l1.3-1.735,3.358,3.167Z" transform="translate(-110.337 -58.989)"/><path class="ab" d="M603.745,350.11a23.124,23.124,0,0,0-1.392,4.917,21.8,21.8,0,0,1-1.313,4.718l5.57,2.315Z" transform="translate(-171.397 -128.327)"/><path class="ac" d="M603.745,350.11a23.124,23.124,0,0,0-1.392,4.917,21.8,21.8,0,0,1-1.313,4.718l5.57,2.315Z" transform="translate(-171.397 -128.327)"/><path class="aa" d="M655.292,492.863l-.461.987s-.5,3.27-.5,3.35-1.448,2.26-1.448,2.26l-3.636.8-1.544-.191a21.7,21.7,0,0,0-.414-2.673c-.056-.247-.111-.5-.183-.756a20.432,20.432,0,0,0-2.538-5.761s-2.7-6.652-3.66-7.519-4.631-9.643-4.241-11.76a61.735,61.735,0,0,0-.151-8.307c-.159-2.65-.334-4.877-.334-4.877L645.338,453l1.066,1.679.636.995a4.563,4.563,0,0,1-.04.509v.119a16.983,16.983,0,0,1-.8,3.978s-.684,4.917,0,5.784,2.864,12.46,3.35,17.823v.485a10.761,10.761,0,0,0,3.254,6.27h0c.1.111.2.215.3.318A20.992,20.992,0,0,0,655.292,492.863Z" transform="translate(-178.578 -149.352)"/><path class="w" d="M650.511,509.657l1.544.191,3.636-.8s1.448-2.188,1.448-2.26.5-3.35.5-3.35l.461-.987.056-.119a19.324,19.324,0,0,1-2.5-2.061h0c-.088-.08-.175-.159-.255-.247s.517,3.183-2.252,4.607c-1.345.692-2.451,1.225-3.222,1.591Z" transform="translate(-181.387 -158.961)"/><path class="ad" d="M658.781,503.089l-.517,1.106s-.5,3.27-.5,3.35-1.448,2.26-1.448,2.26l-3.636.8-2.093-.247a13.835,13.835,0,0,0-.175-1.742c-.064-.438-.151-.923-.271-1.448.8-.358,2.029-.947,3.612-1.766A4.511,4.511,0,0,0,656,500.79a21.944,21.944,0,0,0,1.9,1.687C658.288,502.747,658.6,502.962,658.781,503.089Z" transform="translate(-181.43 -159.117)"/><path class="w" d="M658.85,503.523l-.517,1.106s-.5,3.27-.5,3.35-1.448,2.26-1.448,2.26l-3.636.8-2.093-.247a13.835,13.835,0,0,0-.175-1.742,7.251,7.251,0,0,1,1.321.183s4.965,1.058,5.2-2.872c.143-2.228.6-3.1.971-3.445C658.357,503.181,658.667,503.4,658.85,503.523Z" transform="translate(-181.5 -159.55)"/><path class="ae" d="M658.192,502.64s-1.233-.271-1.48,3.652-5.2,2.872-5.2,2.872-2.435-.6-2.459.406a9.452,9.452,0,0,0,.652,2.721s.143,2.339.6,2.9.167,2.626.167,2.626.191,1.544,4.026,0c0,0,3.421-.708,6.262-4.965.1-.143-.334-.581,2.148-1.472s9.548-6.6,9.039-9.4a2.387,2.387,0,0,0-1.687-2.005,2.9,2.9,0,0,0-2.22.3,17.574,17.574,0,0,1-2.077.955,10.192,10.192,0,0,1-2.96.708,11.384,11.384,0,0,0-2.3.438,4.774,4.774,0,0,1-2.514.263Z" transform="translate(-181.207 -158.93)"/><path class="aa" d="M618.612,468.417a6.748,6.748,0,0,0-1.4,1.591c-1.4,2.14-2.244,5.132-3.183,6.421a12.7,12.7,0,0,0-1.591,4.917c-.326,2.132-4.846,13.526-6.071,15.547a50.738,50.738,0,0,0-2.928,7.519,5.934,5.934,0,0,0-.875,4.169.837.837,0,0,0,.048.374.142.142,0,0,1,0,.151v.056L600.94,512l-5.315-.74L592.88,509.4a9.338,9.338,0,0,0,.6-1.138,50.288,50.288,0,0,0,2.514-9.134s1.48-6.684,1.369-8.243a62.466,62.466,0,0,1,.438-6.365s4.185-12.77,5.522-14.839a5.952,5.952,0,0,0,1-2.745,2.308,2.308,0,0,0,0-.6l1.8-1.79S620.919,466.579,618.612,468.417Z" transform="translate(-169.73 -151.712)"/><path class="w" d="M602.681,519.76v.629l-1.671,2.84-5.315-.74-2.745-1.862a9.338,9.338,0,0,0,.6-1.138c1.337-.382,4.392.7,4.392.7s3.3.629,4.694-.382A.085.085,0,0,1,602.681,519.76Z" transform="translate(-169.744 -162.921)"/><path class="ad" d="M600.894,527.493l-5.395,1.289-4.949-3.66.255-2.061a3.556,3.556,0,0,0,.907-.8,3.261,3.261,0,0,0,.716-1.48c.286-1.52,4.989.143,4.989.143s3.437.652,4.774-.438a8.387,8.387,0,0,0,.255,2.976,2.22,2.22,0,0,0,.8,1.185C604.617,525.6,600.894,527.493,600.894,527.493Z" transform="translate(-169.254 -163.072)"/><path class="w" d="M600.894,528.038l-5.395,1.289-4.949-3.66.255-2.061a3.556,3.556,0,0,0,.907-.8h1.082c.8.08,2.785,3.62,2.785,3.62,4.885.326,6.365-1.273,6.867-2.451a2.22,2.22,0,0,0,.8,1.186C604.617,526.144,600.894,528.038,600.894,528.038Z" transform="translate(-169.254 -163.617)"/><path class="ae" d="M594.353,527.168s-1.957-3.541-2.785-3.612a18.724,18.724,0,0,0-2.1,0s-2.164,5.132-2.96,5.57-1.957,2.9-1.957,2.9,5.729,5.57,11.266,4.48a11.482,11.482,0,0,1,5.076,1.265c2.562,1.337,13.264.326,14.568-2.021.971-1.766,1.361-3.047.5-3.978a2.323,2.323,0,0,0-2.013-.684,7.577,7.577,0,0,1-7.018-3.1s-4.885-4.472-5.283-4.48S601.975,527.677,594.353,527.168Z" transform="translate(-168.028 -163.758)"/><path class="w" d="M647.049,456.254l-.04.048c-.334.366-2.689,2.952-3.405,3.135a34.018,34.018,0,0,0-3.469,1.536s-1.448,1.934-2.6,2.029a4.544,4.544,0,0,0-1.018.271c-.159-2.65-.334-4.877-.334-4.877L645.338,453l1.066,1.679c.239.676.509,1.3.6,1.5Z" transform="translate(-178.578 -149.352)"/><path class="ad" d="M607.593,409.83s-3.565,4.647,0,10.813a36.018,36.018,0,0,0,7.328,9.254l12.142,25.159s3.183-1.735,4.344-1.83,2.6-2.021,2.6-2.021a33.7,33.7,0,0,1,3.469-1.544c.8-.191,3.445-3.183,3.445-3.183s-1.329-2.888-1.034-3.66-.867-2.705-.867-2.705a15.912,15.912,0,0,1-.8-2.984,7.832,7.832,0,0,0-1.257-2.6,8.239,8.239,0,0,1-1.249-2.992c0-1.058-1.87-5.235-1.87-5.235l-.485-18.3Z" transform="translate(-172.412 -140.157)"/><path class="ac" d="M640.872,446.478s-2.673,2.984-3.445,3.183a33.7,33.7,0,0,0-3.469,1.544s-1.448,1.926-2.6,2.021a9.23,9.23,0,0,0-2.387.851c-1.034.469-1.965.979-1.965.979L614.853,429.9a26.314,26.314,0,0,1-2.952-3.024,41.753,41.753,0,0,1-4.376-6.23,10.432,10.432,0,0,1-1.384-7.5,8.632,8.632,0,0,1,1.384-3.3l8.641-.613L633.376,408l.143,5.418.318,12.882s.278.645.629,1.5a16.351,16.351,0,0,1,1.2,3.708,8.172,8.172,0,0,0,1.249,2.992,8.087,8.087,0,0,1,1.257,2.6,16.135,16.135,0,0,0,.8,2.992s1.162,1.926.875,2.689S640.872,446.478,640.872,446.478Z" transform="translate(-172.4 -140.157)"/><path class="w" d="M621.542,468.4a6.749,6.749,0,0,0-1.4,1.591c-5.243.382-11.338-2.387-12.922-3.119a2.3,2.3,0,0,0,0-.6l1.8-1.79S623.849,466.567,621.542,468.4Z" transform="translate(-172.66 -151.7)"/><path class="ad" d="M636.911,415.071s-.8,2.7-1.058,3.851-.867,6.851-.867,6.851l-.334,1.591-5.506,26.257-1.2,5.7c-2.116,1.162-7.416-1.933-7.416-1.933-6.174.684-13.789-3.27-13.789-3.27s1.249-4.05.963-6.071,1.735-3.668,1.735-3.668c-.477-1.83,1.249-9.834,1.249-9.834s.39-2.984,1.838-3.756-.191-1.926-.581-2.61a2.952,2.952,0,0,1,.135-1.766,13.1,13.1,0,0,1,.446-1.313c-3.676-3.676-4.241-9.421-4.249-12.611a20.367,20.367,0,0,1,.1-2.331l7.957-1.392,17.385-3.039,1.774,5.458h0l.446,1.369Z" transform="translate(-172.562 -139.693)"/><path class="w" d="M638.912,324.193a10.415,10.415,0,0,0-.8,2.443q-.072.318-.143.668c-1.679,1.09-2.713,1.1-4.861,1.1-.74,0-1.154-1.416-1.854-1.591,0,0-1.05-3.787-1.345-.6-2.021-.414-3.763,1.162-5.2-.215h0v-.557a22.566,22.566,0,0,0-.167-3.573s5.609,0,9.842.453C637.241,322.658,639.461,323.223,638.912,324.193Z" transform="translate(-176.201 -122.557)"/><path class="aa" d="M642.086,313.873a10.757,10.757,0,0,1-12.9,10.527h0a10.741,10.741,0,1,1,11.521-15.8A10.551,10.551,0,0,1,642.086,313.873Z" transform="translate(-175.397 -118.729)"/><path class="w" d="M636.426,336.45c-.08.891-.119,1.464-.119,1.464s-17.258-1.154-14.266-4.05A6.365,6.365,0,0,0,623.632,331l7.487,1.225s2.116,1.639,3.755,3.183A6.8,6.8,0,0,0,636.426,336.45Z" transform="translate(-175.617 -124.423)"/><path class="w" d="M635.841,413.1a5.569,5.569,0,0,1-2.268-.167,4.6,4.6,0,0,1-.915-.406c-1.448-.867-6.262.2-6.262.2s-13.112.867-13.693,0c-.326-.5-2.642-.43-4.535-.278-.8.064-1.472.143-1.957.191a8.633,8.633,0,0,1,1.384-3.3l8.641-.613,17.385-3.039,1.774,5.458h0A19.607,19.607,0,0,0,635.841,413.1Z" transform="translate(-172.454 -139.682)"/><path class="ab" d="M627.212,332.874l-9.4-1.544a2.8,2.8,0,0,1-1.774,1.544c-1.249.286-6.843,3.183-9.349,6.652L604.177,343s-2.029,2.506-1.353,4.527a76.426,76.426,0,0,1,1.448,8.872l.963,7.615s1.83,5.5,1.257,7.909.286,12.532.286,12.532l-1.926,12.532s6.548-.867,7.161,0,13.693,0,13.693,0,4.774-1.066,6.262-.2a5.235,5.235,0,0,0,3.183.581s-1.154-3.978-.485-6.166a24.723,24.723,0,0,0,.485-6.27s.963-5.88.477-6.938,1.066-4.917,1.066-4.917l5.108-26.893s-.621-4.822-3.35-6.461-5.808-2.124-7.447-3.66S627.212,332.874,627.212,332.874Z" transform="translate(-171.734 -124.49)"/><path class="aa" d="M639,366.03v3.183l2.968,8,1.074,7.424s1.933,5.3,1.933,7.161,4.718,10.7,4.718,10.7,1.289,2.992.644,3.565-6.23,13.3.8,12.922,4.822-13.685,4.822-13.685l-.963-5.784S653.64,385.054,653.64,384c0,0-1.734-6.166-1.926-7.519s-1.448-8.2-1.448-8.2l-1.058-4.432Z" transform="translate(-179.154 -131.135)"/><path class="w" d="M570.163,307.82l-10.479,6-3.254,4.917,4.336-4.408Z" transform="translate(-113.698 -62.9)"/><path class="w" d="M627.045,393.63s-4.774,3.111-7.018,3.111-7.447,5.347-7.447,5.347,7.376-4.774,7.957-4.623S627.045,393.63,627.045,393.63Z" transform="translate(-173.755 -137.22)"/><path class="w" d="M614.5,395.72s-4.48,4.05-3.326,4.488,7.161-4.488,7.161-4.488Z" transform="translate(-173.428 -137.647)"/><path class="w" d="M639.609,377.55s-3.469,4.7-2.53,4.631,3.612-2.753,3.612-2.753Z" transform="translate(-178.728 -133.934)"/><path class="w" d="M640,383.37s-3.755,4.265-3.612,5.347S640,383.37,640,383.37Z" transform="translate(-178.619 -135.124)"/><path class="w" d="M641.679,386.05s-2.53,4.519-1.448,5.458S641.679,386.05,641.679,386.05Z" transform="translate(-179.35 -135.671)"/><path class="w" d="M637.74,371.46s-1.886,3.183-.509,3.4,1.512,0,1.512,0Z" transform="translate(-178.689 -132.69)"/><path class="w" d="M637.973,356.83a33.213,33.213,0,0,1-1.925,5.673,26.314,26.314,0,0,1-.748-2.841,19.384,19.384,0,0,1,2.673-2.833Z" transform="translate(-178.398 -129.701)"/><path class="w" d="M640.711,308.6a4.679,4.679,0,0,1-.724,1.122,8.307,8.307,0,0,0-1.3,1.5,8.029,8.029,0,0,0-.47,2.554c-.143.859-.684,1.814-1.591,1.838a3.232,3.232,0,0,1-1.273-.382,1.3,1.3,0,0,0-1.265.04,1.416,1.416,0,0,0-.406.955,12.63,12.63,0,0,0-.127,2.26,5.678,5.678,0,0,0,.048.9,5.053,5.053,0,0,1-.167,2.864,3.469,3.469,0,0,1-1.782,1.432,11.02,11.02,0,0,1-2.5.7h0a27.468,27.468,0,0,1-4.925.159,1.218,1.218,0,0,1-.446-.072.629.629,0,0,1-.191-.119,15.061,15.061,0,0,0,.294-2.745,10.741,10.741,0,1,1,16.828-13Z" transform="translate(-175.399 -118.732)"/><path class="af" d="M635.034,298.567a9.336,9.336,0,0,0-2.888.637c-2,.438-4.042-.469-6.095-.461a11.314,11.314,0,0,0-5.013,1.5,12.1,12.1,0,0,0-3.342,2.339,5.451,5.451,0,0,0-1.591,3.676,6.023,6.023,0,0,1-.072,2.387,6.724,6.724,0,0,1-.732,1.114,3.31,3.31,0,0,0-.342,2.761,9.161,9.161,0,0,0,1.647,2.467c1.321,1.695,2.148,3.724,3.334,5.522a17.191,17.191,0,0,0,1.734,2.2,1.226,1.226,0,0,0,.374.294,1.147,1.147,0,0,0,.438.064c2.514.072,5.116.127,7.431-.859a3.4,3.4,0,0,0,1.782-1.432,5.053,5.053,0,0,0,.175-2.864,13.123,13.123,0,0,1,.072-3.183,1.4,1.4,0,0,1,.406-.947,1.273,1.273,0,0,1,1.273-.04,3.47,3.47,0,0,0,1.265.382c.867,0,1.416-.987,1.591-1.846a4.328,4.328,0,0,1,1.774-4.05,6.127,6.127,0,0,0,1.09-5.434C638.774,301,637.023,298.766,635.034,298.567Z" transform="translate(-174.209 -117.792)"/><path class="w" d="M649.3,353.235a12.525,12.525,0,0,0,0,3.978c-.1,1.066,0,6.946,0,6.946-3.183-.971-11.275.963-11.275.963l-.963-2.888a7.161,7.161,0,0,1-1.209-2.387A26.456,26.456,0,0,1,635.11,357a59.073,59.073,0,0,1-.947-6.055c-.406-3.063,4.153-6.365,7.607-8.2s6.477,5.975,6.477,5.975S649.687,351.724,649.3,353.235Z" transform="translate(-178.16 -126.766)"/><path class="ab" d="M649.3,352.543a12.563,12.563,0,0,0,0,3.978c-.1,1.058,0,6.938,0,6.938-3.183-.963-11.275.963-11.275.963l-.963-2.888a7.081,7.081,0,0,1-1.209-2.387,26.3,26.3,0,0,1-.748-2.841,59.418,59.418,0,0,1-.947-6.055c-.406-3.071,4.153-6.365,7.607-8.2s6.477,5.975,6.477,5.975S649.687,351,649.3,352.543Z" transform="translate(-178.16 -126.623)"/><path class="z" d="M639.243,303.482a6.367,6.367,0,0,0-.708-1.552c.048.135.1.263.135.4a6.127,6.127,0,0,1-1.09,5.434,4.328,4.328,0,0,0-1.774,4.05c-.135.859-.684,1.806-1.591,1.838a3.23,3.23,0,0,1-1.273-.382,1.3,1.3,0,0,0-1.265.04,1.416,1.416,0,0,0-.406.955,13.044,13.044,0,0,0-.072,3.183,5.149,5.149,0,0,1-.175,2.872,3.541,3.541,0,0,1-1.782,1.432c-2.315.987-4.917.931-7.432.859a1.154,1.154,0,0,1-.438-.072,1.026,1.026,0,0,1-.374-.294,15.435,15.435,0,0,1-1.734-2.2c-1.186-1.8-2.013-3.819-3.334-5.522a16.187,16.187,0,0,1-1.09-1.4v.1a8.807,8.807,0,0,0,1.647,2.467c1.313,1.695,2.148,3.724,3.326,5.522a16.578,16.578,0,0,0,1.742,2.2,1.192,1.192,0,0,0,.366.294,1.169,1.169,0,0,0,.438.064c2.514.072,5.124.127,7.431-.859a3.4,3.4,0,0,0,1.782-1.432,5.052,5.052,0,0,0,.175-2.864,13.983,13.983,0,0,1,.072-3.183,1.472,1.472,0,0,1,.406-.947,1.273,1.273,0,0,1,1.273-.04,3.467,3.467,0,0,0,1.265.382c.875,0,1.416-.987,1.591-1.846a7.814,7.814,0,0,1,.47-2.554,8.006,8.006,0,0,1,1.3-1.5A6.143,6.143,0,0,0,639.243,303.482Z" transform="translate(-174.217 -118.482)"/><path class="ag" d="M736.612,304.452l-6.875,14.608s-1.01,2.745-1.663,3.254-3.541,9.182-3.541,9.182l-7.376,11.362h0l-.5.8-2.888-.8-2.029-7.575.119-2.2v-.278s4.551-4.774,5.57-5.132c0,0,.8.1,2.307-3.6s2.9-4.5,2.9-4.5l.8-2.673,8.537-13.6s7.161-10.256,9.11-5.7S736.612,304.452,736.612,304.452Z" transform="translate(-194.017 -117.36)"/><path class="ag" d="M702.091,435.847a1.648,1.648,0,0,1-.231.7c-.8,1.162-5.275,24.8-5.275,24.8.358,1.591-.652,4.774-1.3,6.222s-2.1,8.959-2.1,8.959-.358,16.2-1.289,18.73.294,7.957.294,7.957c-.088,2.49,1.408,5.132,2.3,6.469l.175.255c.286.414.477.652.477.652a3.851,3.851,0,0,0,1.01,1.249l.207.159a11.68,11.68,0,0,0,4.05,1.711h.143c.573.127.955.183.955.183l.358,1.957-3.827.8-7.3.5s-8.609.66-6.652-3.183a6.1,6.1,0,0,0,.35-.8h0q.114-.281.2-.573a19.8,19.8,0,0,0,.382-8.163l-1.663-13.081c-2.745-12.15,2.156-25.668,2.156-25.668s-.422-1.082.517-3.827,0-8.752,0-8.752-.5-7.734-1.154-11.561a23.44,23.44,0,0,1-.262-4.877,24.284,24.284,0,0,1,.263-2.848l16.478-2.188A12.393,12.393,0,0,1,702.091,435.847Z" transform="translate(-188.045 -144.985)"/><path class="w" d="M702.189,535.831l-3.827.8-7.3.5s-8.609.66-6.652-3.183a6.1,6.1,0,0,0,.35-.8h0a6.045,6.045,0,0,0,.2-.573,13.528,13.528,0,0,1,4.36.875c2.451.947,4.3-1.52,4.3-1.52l1.193-2.276.175-.326c.286.414.477.652.477.652a3.978,3.978,0,0,0,1.217,1.408l-.207.422-1.154,2.435s1.48.151,3.5.477a1.591,1.591,0,0,0,1.91-1.042h.143c.573.127.955.183.955.183Z" transform="translate(-188.373 -164.949)"/><path class="ah" d="M705.569,537.774c-.286,1.3-8.346,1.7-8.346,1.7s-4.488-.43-5.745.613-4.957.8-5.1.8-2.093-.072-2.856-3.573.995-3.978,1.074-4.034h0a13.2,13.2,0,0,1,4.559.883c2.451.947,4.3-1.52,4.3-1.52l1.369-2.6c.286.414.477.652.477.652a3.978,3.978,0,0,0,1.217,1.408l-1.361,2.856s1.48.151,3.5.469a1.679,1.679,0,0,0,2.053-1.591,1.926,1.926,0,0,0,0-.215s1.257.366,2.817.8a2.9,2.9,0,0,1,2.045,3.358Z" transform="translate(-188.212 -165.094)"/><path class="ag" d="M725.735,452.589c-.191,1.154-.39,4.145-.39,4.145.676,2.506-1.058,8.458-1.058,8.458l-.867,3.4c.382,4.336-2.387,14.943-2.387,14.943s-1.854,9.834-2.817,14.075a11.64,11.64,0,0,0,.5,7.089l.072.175a1.293,1.293,0,0,0,.056.239,2.456,2.456,0,0,0,.111.342,5.084,5.084,0,0,0,.947,1.591,4.684,4.684,0,0,0,.517.533h0a10.51,10.51,0,0,0,3.071,1.894h0l.485.191a14.994,14.994,0,0,0,1.536.477h.175l-.39,2.276L720.19,511.1l-6.843-2.22-3.318-1.862a2.12,2.12,0,0,1,.1-.533.173.173,0,0,0,0-.064,3.444,3.444,0,0,1,.1-.533c.525-2.984,1.83-11.33,1.178-17.5-.8-7.615,2.387-18.125,3.127-20.624a12.468,12.468,0,0,0,.581-4.44c-1.257-1.83-1.544-9.158-1.544-9.158s-2.315-4.726-4.225-9.739a24.882,24.882,0,0,1-1.377-5.068,17.171,17.171,0,0,1-.278-3.7s15.523-14.171,17.226-.453c.056.469.111.907.167,1.345C726.6,449.16,725.918,451.467,725.735,452.589Z" transform="translate(-193.189 -144.493)"/><path class="w" d="M726.336,529.627l-.39,2.276-5.108-1.313L714,528.37l-3.366-1.925a2.12,2.12,0,0,1,.1-.533.173.173,0,0,0,0-.064,3.444,3.444,0,0,1,.1-.533h.477a6.285,6.285,0,0,1,2.864.39c1.114.414,2.578.891,2.872.692a3.629,3.629,0,0,1,1.639-.286l.708-1.591.111-.239a5,5,0,0,0,.947,1.591,6.128,6.128,0,0,0,.549.565v.549l-.04.8a9.963,9.963,0,0,0,2.459,1.13,1.416,1.416,0,0,0,.684,0h0l.485.191a15,15,0,0,0,1.536.477h0Z" transform="translate(-193.79 -163.917)"/><path class="ah" d="M723.632,534.666c-1.424-.406-4.861-1.066-5.418-.557s-5.323,0-5.323,0a2.9,2.9,0,0,1-2.459-1.44c-.995-1.544-.191-6.532-.191-6.532h.35l.589-.064h0a6.365,6.365,0,0,1,2.864.382c1.114.422,2.578.9,2.872.7a3.556,3.556,0,0,1,1.639-.294l.8-1.79a5.084,5.084,0,0,0,.947,1.591,5.2,5.2,0,0,0,.549.557l-.072,1.329a10.178,10.178,0,0,0,2.459,1.138,1,1,0,0,0,1.178-.374.952.952,0,0,0,.087-.2h0a8.8,8.8,0,0,0,2.021.668h0a3.692,3.692,0,0,1,3.978,2.833C731.255,534.833,725.057,535.071,723.632,534.666Z" transform="translate(-193.648 -164.078)"/><path class="w" d="M702.631,435.847l-.883.271a12.337,12.337,0,0,1-2.124.446c-4.567.644-12.086.255-14.473.1a24.311,24.311,0,0,1,.263-2.848l16.478-2.188A12.457,12.457,0,0,1,702.631,435.847Z" transform="translate(-188.584 -144.985)"/><path class="ah" d="M716.638,426.072s-6.047.939-10.972,2.013c-1.639.358-3.183.74-4.289,1.1a13.074,13.074,0,0,1-2.124.454c-5.482.8-15.221.056-15.221.056-2.673-8.673,3.246-19.6,3.246-19.6-.135-.867,1.233-3.533,1.233-3.533v-.088l.843-3.1h22.477l.279,1.329.573,2.705,3.533,16.765Z" transform="translate(-188.214 -139.213)"/><path class="w" d="M725.107,436.631l-.135.056-2.634,1.17c-2.849,1.313-11.37,1.591-14.322,1.591a17.174,17.174,0,0,1-.279-3.7s15.523-14.171,17.226-.454C725,435.755,725.051,436.225,725.107,436.631Z" transform="translate(-193.197 -144.512)"/><path class="ah" d="M721.915,429.987l-.549.247-2.634,1.17c-2.9,1.337-11.7,1.591-14.513,1.591h-.74a3.351,3.351,0,0,1-2.6-1.591c0-.175-.135-1.034-.247-1.766-.1-.589-.183-1.1-.183-1.1a69.586,69.586,0,0,1-8.752-4.527c-2.2-1.5-1.647-12.19-1.225-17.56.151-1.854.286-3.071.286-3.071l22.756,1.329,3.183.183,1.822.406.485.1s1.313,9.548,1.957,10.344.223,3.469.143,5a9.081,9.081,0,0,1-.215,1.949,12.036,12.036,0,0,1,.724,4.169,8.329,8.329,0,0,0,.3,3.127Z" transform="translate(-189.592 -139.213)"/><circle class="ag" cx="9.325" cy="9.325" r="9.325" transform="translate(498.635 192.884)"/><path class="ag" d="M691.78,330.383s.644,8.832-1.162,10.861a82.24,82.24,0,0,1-6.508,5.856l1.448,6,8.172.939,9.548-10.192-2.172-2.634s-1.663-5.641-.294-8.458S691.78,330.383,691.78,330.383Z" transform="translate(-188.371 -124.291)"/><path class="w" d="M717.158,352.05h0l-.5.8-2.888-.8-2.029-7.575.119-2.2.6-.859s3.183.072,3.047,2.968C715.368,346.918,716.816,351.087,717.158,352.05Z" transform="translate(-194.017 -126.552)"/><path class="w" d="M718.971,406.557s-2.3.509-4.933.851-5.673.525-6.922-.207c-2.093-1.241-13.431-.883-16.709-.756h-.557l.843-3.1h22.477l.278,1.329,3.183.183,1.822.406C718.788,406.047,718.971,406.557,718.971,406.557Z" transform="translate(-189.544 -139.206)"/><path class="ai" d="M704.5,342.13s3.183.072,3.039,2.968,1.734,7.877,1.734,7.877l-.724,1.663s-1.01,4.05-.215,5.06,3.684,1.01,2.021,9.325c0,0-.358,6.222.509,8.243s.867,6.867,2.164,8.9a48.012,48.012,0,0,1,3.039,6.723s-9.4,2.093-11.855.652-17.568-.724-17.568-.724.072-2.53,0-2.825a2.339,2.339,0,0,1,.358-1.838c.509-.692,1.3-1.846.867-2.856s1.082-2.506.286-4.074-1.758-1.878-1.591-2.737a3.685,3.685,0,0,0-.891-2.737c-.573-.724-4.479-8.362-4.479-8.362l-.652-3.565s-5.029-3.684-4.933-5.418,1.9-4.145,1.9-4.145l4.838-4.774s2.681,2.888,5.283,1.878,8.2-5.856,8.2-5.856,2-1.082,2.14-1.878,1.376-.072,1.376-.072,1.806-.995,2.164-.645a6.364,6.364,0,0,0,1.957.645Z" transform="translate(-186.634 -126.697)"/><path class="ag" d="M671.6,361.06l-1.536,1.209a20.33,20.33,0,0,0-1.934,7.877,103.884,103.884,0,0,1-1.949,12.205l-3.039,5.434s-4.989,10.479-5.641,13.264-3.612,7.487-3.612,7.487-10.049,9.031-3.039,10.662,7.233-7.161,7.233-7.161a10.338,10.338,0,0,0,1.9-3.039c.31-1.233,9.158-16.956,9.158-16.956s3.111-4.233,2.459-6.477c0,0,4.05-9.548,4.05-11.935A41.949,41.949,0,0,0,675,367.68l.653-4.989Z" transform="translate(-181.068 -130.565)"/><path class="w" d="M701.524,386.11s-7.081,3.708-8.458,3.907,6-.8,6-.8Z" transform="translate(-190.166 -135.684)"/><path class="w" d="M707.526,389.74s-9.4,3.183-13.526,2.61C694,392.334,704.28,394.3,707.526,389.74Z" transform="translate(-190.392 -136.425)"/><path class="w" d="M708.287,391.05s-8.466,5.323-13.447,4.456c0,0,11.641,2.315,13.447,1.082l-5.2-1.44S708.86,392.084,708.287,391.05Z" transform="translate(-190.564 -136.693)"/><path class="w" d="M692.748,304.815a8.8,8.8,0,0,0-7.161,1.345c-1.448,1.138-2.387,2.88-4.042,3.732a21.65,21.65,0,0,1-2.642.931,7.631,7.631,0,0,0-4.655,8.211c.255,1.432.923,2.753,1.257,4.169.589,2.522.064,5.164-.573,7.678a80.939,80.939,0,0,1-8.036,19.931,2.117,2.117,0,0,0-.4,1.337,1.965,1.965,0,0,0,.493.851c3.342,3.859,8.752,5.188,13.884,5.363a10.726,10.726,0,0,0,5.506-.915,8.338,8.338,0,0,0,2.681-2.459,13.064,13.064,0,0,0,2.5-8.4c-.135-2.427-.947-4.877-.334-7.225a1.844,1.844,0,0,1,.43-.883c.549-.565,1.464-.414,2.244-.509,2.124-.247,3.493-2.482,3.748-4.607s-.278-4.257-.294-6.365a13.416,13.416,0,0,1,2.522-7.869,8.676,8.676,0,0,0,1.846-3.143c.3-1.528-.581-2.65-1.345-3.851-1.186-1.878-1.766-4.066-3.573-5.5a9.635,9.635,0,0,0-4.058-1.822Z" transform="translate(-184.772 -119.02)"/><path class="aj" d="M692.03,304.086a8.752,8.752,0,0,0-7.113,1.345c-1.448,1.146-2.387,2.888-4.05,3.74a23.073,23.073,0,0,1-2.642.923,7.631,7.631,0,0,0-4.655,8.2c.255,1.432.923,2.753,1.257,4.169a16.289,16.289,0,0,1-.573,7.678,80.794,80.794,0,0,1-8.028,19.892,2.037,2.037,0,0,0-.4,1.337,1.838,1.838,0,0,0,.485.851c3.342,3.867,8.752,5.188,13.884,5.363a10.781,10.781,0,0,0,5.506-.907,8.45,8.45,0,0,0,2.681-2.467,13.073,13.073,0,0,0,2.49-8.4c-.143-2.387-.955-4.877-.342-7.225a2,2,0,0,1,.43-.883c.557-.565,1.464-.414,2.252-.5,2.116-.247,3.485-2.49,3.74-4.607s-.278-4.257-.286-6.365a13.336,13.336,0,0,1,2.522-7.861,8.756,8.756,0,0,0,1.846-3.183c.294-1.528-.589-2.642-1.353-3.851-1.186-1.87-1.766-4.066-3.573-5.5a9.636,9.636,0,0,0-4.082-1.742Z" transform="translate(-184.635 -118.872)"/><path class="w" d="M694.84,417.76s1.854,8.681,4.941,11.036Z" transform="translate(-190.564 -142.151)"/><g class="s" transform="translate(481.178 193.847)"><path d="M676.166,324.2c-.1-.334-.207-.676-.326-1.01C675.967,323.532,676.047,323.835,676.166,324.2Z" transform="translate(-667.859 -316.674)"/><path d="M700.493,315a3.184,3.184,0,0,1,0,.8,8.459,8.459,0,0,1-1.846,3.143,13.438,13.438,0,0,0-2.522,7.869c0,2.14.541,4.273.286,6.365s-1.591,4.36-3.74,4.6c-.8.1-1.695-.056-2.244.509a2.012,2.012,0,0,0-.438.883c-.613,2.347.207,4.774.342,7.225a13.072,13.072,0,0,1-2.53,8.394,8.25,8.25,0,0,1-2.681,2.459,10.685,10.685,0,0,1-5.5.915c-5.021-.167-10.344-1.464-13.717-5.18a1.321,1.321,0,0,0-.08.7,1.838,1.838,0,0,0,.485.851c3.342,3.867,8.752,5.188,13.884,5.363a10.782,10.782,0,0,0,5.506-.907,8.449,8.449,0,0,0,2.681-2.467,13.073,13.073,0,0,0,2.49-8.4c-.143-2.387-.955-4.877-.342-7.225a2,2,0,0,1,.43-.883c.557-.565,1.464-.414,2.252-.5,2.116-.247,3.485-2.49,3.74-4.607s-.279-4.257-.286-6.365a13.335,13.335,0,0,1,2.522-7.861,8.756,8.756,0,0,0,1.846-3.183A3.573,3.573,0,0,0,700.493,315Z" transform="translate(-665.81 -315)"/></g><ellipse class="r" cx="16.836" cy="1.703" rx="16.836" ry="1.703" transform="translate(85.949 396.208)"/><path class="v" d="M194.078,536.09s-21.96,11.346-10.614,24.666a4.217,4.217,0,0,0,4.153,2.7s-.621-1.122,1.742-2.021a11.48,11.48,0,0,0,2.387-1.257,5.569,5.569,0,0,0,2.124-2.841h0s4.5-6.007,1.01-17.123c0,0,.454-3.183.056-3.652l-2.665,3.652s2.761,1.854,3.079,4.575c0,0-2.872-4.567-3.5-4.042-.127.1-1.321,2-1.321,2s4.774,3.246,5.132,7.455c0,0-2.689-5.9-5.57-6.739l-1.639,2.968s5.22,3.183,5.808,7.957c0,0-3.031-6.063-6.127-7.28l-1.217,3.135s5.029,3.183,5.49,7.161c0,0-4.209-6.652-5.721-6.437a15.194,15.194,0,0,0-.8,3.851s3.565,2.387,3.628,4.718c0,0-3.286-4.153-3.8-3.875,0,0-.207,4.169.8,6.365a12.651,12.651,0,0,1-1.456-6.365,6.914,6.914,0,0,0-2.1,3.39s-.947-2.3,2.164-4.4c0,0,.294-3.246.652-3.644,0,0-3.366,1.639-4.774,3.66,0,0,.525-3.008,5.092-4.5l1.162-3.183s-4.567,1.933-5.983,3.636c0,0,1.018-2.984,6.365-4.416l1.591-2.928a25.867,25.867,0,0,0-6.039,2.928s1.536-2.57,6.524-3.748l1.289-1.838s-2.952,1.058-3.771,1.432-.987.191-.987.191a10.567,10.567,0,0,1,5.283-2.387S194.277,536.289,194.078,536.09Z" transform="translate(-85.406 -166.33)"/><path class="ak" d="M224.493,531.253c2.3,1.361,5.9,2.244,10.423-.676l-.048,6.453c.326,4.432,5.792,20.552,5.792,20.552l3.859,13.272a103.778,103.778,0,0,1,4.249,28.859A27.577,27.577,0,0,0,250,608.8c2.053,5.57-.8,12.731-2.053,15.38a64.242,64.242,0,0,1-6.365,1.79,4.364,4.364,0,0,0-.573.175v-.04s-5.792,2.3-8.37,1.981c-1.918-.239-3.119,2.156-1.591,3.915a11.672,11.672,0,0,1-3.859.509c-2.578-.318-3.859,4.114.963,5.379s32.193,0,32.193,0a3.883,3.883,0,0,0,2.061-4.289c2.1-.079,3.413-.143,3.413-.143s4.83-2.212,0-8.219l-.255.2L264.53,622.4v-4.114s6.119-29.439,4.185-32.877-2.9-21.181-2.9-21.181l.645-19.287c1.742-3.6,2.642-9.246,3.1-13.661a29.1,29.1,0,0,0,1.233-6.485c.072-1.034.135-2.124.175-3.254a21.842,21.842,0,0,0-1.17-7.28,71.964,71.964,0,0,1,7.288-9.158,9.381,9.381,0,0,0,2.9-8.219l-1.591-10.749-3.867-18.3c.485-5.092-.573-8.02-1.75-9.675.278-1.639.541-3.286.74-4.933a63.138,63.138,0,0,0-1.13-21.483,14.575,14.575,0,0,0-3.039-6.843c-1.957-2.109-5.124-3.4-5.848-6.158a20.052,20.052,0,0,0-.446-2.077c-.708-1.814-2.944-2.467-4.9-2.705-3.485-.422-8.522-.748-11.871.621a14.4,14.4,0,0,0-6.835,6.413,5.5,5.5,0,0,0-.8,3.978,5.219,5.219,0,0,0,.557,1.345,12.11,12.11,0,0,0-.8,4.241A12.341,12.341,0,0,0,246.286,442c.072.239.143.477.207.716a11.934,11.934,0,0,1,.31,1.719c-.056,1.122-.127,2.244-.183,3.358a3.771,3.771,0,0,1-.119.454,82.578,82.578,0,0,0-8.092,4.129c1.933,2.841-.318,14.855-.318,14.855-4.83,2.848-9.659,10.121-4.511,17.7a18.741,18.741,0,0,1,2.252,15.714l-.8,12.365h0l-.159,2.467h.064l-.064.939h.135v1.01a14.83,14.83,0,0,0-7.535,5.57,19.959,19.959,0,0,1-3.374,4.137,2.482,2.482,0,0,0,.39,4.121Zm38.868-32.845a11.736,11.736,0,0,1,1.146-6.214h2.276c.08.533.167,1.042.278,1.5.652,2.817-1.957,4.145-3.7,4.71Z" transform="translate(-94.186 -141.299)"/><path class="al" d="M267.882,673.563l1.241,3.716-4.01,4.026-13.319,3.1-9.6-.931.621-3.405h0a4.1,4.1,0,0,1,3.047-3c3.978-.931,11.473-3.039,13.057-5.983Z" transform="translate(-98.071 -193.914)"/><path class="w" d="M267.882,673.563l1.241,3.716-4.01,4.026-13.319,3.1-9.6-.931.621-3.405h0a4.1,4.1,0,0,1,3.047-3c3.978-.931,11.473-3.039,13.057-5.983Z" transform="translate(-98.071 -193.914)"/><path class="am" d="M243.425,683.9l1.862-2.482-1.862-2.864s-5.57,2.244-8.052,1.933-3.716,4.034.931,5.267,30.975,0,30.975,0,4.647-2.164,0-8.052l-4.01,3.1s-6.819,3.724-10.224,3.1Z" transform="translate(-96.226 -195.266)"/><path class="al" d="M235.55,688.926l9.6.923,13.319-3.1,4.026-4.026-.326-.987-.461-1.384-.446-1.345-8.983-2.482a5.569,5.569,0,0,1-1.822,1.83c-2.92,1.989-8.164,3.429-11.235,4.153l-.39.111a4.081,4.081,0,0,0-2.7,2.888Z" transform="translate(-96.714 -195.027)"/><path class="w" d="M235.55,690.265l9.6.923,13.319-3.1,4.026-4.026-.326-.987-3.7,2.841s-6.811,3.724-10.224,3.1h-9.6l1.854-2.482-1.671-2.578a4.082,4.082,0,0,0-2.7,2.888Z" transform="translate(-96.714 -196.366)"/><path class="am" d="M236.812,689.348l1.854-2.482L236.812,684s-5.57,2.244-8.06,1.933-3.716,4.034.931,5.267,30.975,0,30.975,0,4.647-2.164,0-8.052l-4.026,3.063s-6.811,3.724-10.224,3.1Z" transform="translate(-94.873 -196.38)"/><path class="al" d="M249.18,460.922s14.871,1.544,12.731-4.647a11.259,11.259,0,0,1-.461-5.474,15.2,15.2,0,0,1,2.634-6.3l-13.94,2.172a17.584,17.584,0,0,1,1.886,4.472C253.66,457.716,249.18,460.922,249.18,460.922Z" transform="translate(-99.499 -147.615)"/><path class="an" d="M276.47,553.9s-.31,13.319-3.405,19.828l-.652,18.889s.931,17.345,2.785,20.759-4.026,32.216-4.026,32.216v4.949s-9.906,3.724-12.731-.613l2.833-36.863-1.217-51.129Z" transform="translate(-101.391 -169.969)"/><path class="w" d="M276.47,553.9s-.31,13.319-3.405,19.828l-.652,18.889s.931,17.345,2.785,20.759-4.026,32.216-4.026,32.216v4.949s-9.906,3.724-12.731-.613l2.833-36.863-1.217-51.129Z" transform="translate(-101.391 -169.969)"/><path class="ao" d="M285.31,500.17l1.854,4.957,1.552,10.535a9.309,9.309,0,0,1-2.785,8.052c-3.716,3.716-8.673,11.466-8.673,11.466l-5.888-17.64s5.888-.931,4.957-4.957-.621-11.466-.621-11.466Z" transform="translate(-104.033 -158.99)"/><path class="ac" d="M285.31,500.17l1.854,4.957,1.552,10.535a9.309,9.309,0,0,1-2.785,8.052c-3.716,3.716-8.673,11.466-8.673,11.466l-5.888-17.64s5.888-.931,4.957-4.957-.621-11.466-.621-11.466Z" transform="translate(-104.033 -158.99)"/><path class="w" d="M254.29,678.36c3.978,6.254,10.153,2.705,11.251,2l-.446-1.345-8.983-2.482a5.569,5.569,0,0,1-1.822,1.83Z" transform="translate(-100.543 -195.027)"/><path class="an" d="M238.67,560.249c.31,4.336,5.57,20.138,5.57,20.138l3.716,13a103.093,103.093,0,0,1,4.082,28.278,27.848,27.848,0,0,0,1.217,8.9c2.482,6.811-2.475,16.1-2.475,16.1,4.336,7.742,11.768,2.482,11.768,2.482V644.2s5.888-26.949,4.336-32.216-2.164-19.518-2.164-19.518V566.757a29.217,29.217,0,0,0,8.466-18.507c.08-1.01.135-2.077.175-3.183.255-6.994-4.527-15.181-6.365-18.109-.446-.7-.724-1.1-.724-1.1l-27.387,10.853h-.064v3.405Z" transform="translate(-97.351 -164.24)"/><path class="w" d="M250.35,446.672a17.585,17.585,0,0,1,1.886,4.472,12.054,12.054,0,0,0,9.421-.342,15.2,15.2,0,0,1,2.634-6.3Z" transform="translate(-99.738 -147.615)"/><circle class="al" cx="12.078" cy="12.078" r="12.078" transform="translate(144.724 279.548)"/><path class="w" d="M238.67,540.114h.127c12.993,2.665,29.3-10.869,29.3-10.869a16.6,16.6,0,0,1-1.13-2.307c-.446-.7-.724-1.1-.724-1.1l-27.355,10.869-.072,1.082Z" transform="translate(-97.351 -164.236)"/><path class="ao" d="M241.246,462.889s17.345-10.535,22.923-6.2l7.742,9.914s4.957,1.544,4.026,11.458l3.716,17.966-11.139,2.793s-6.58,6.19-1.289,15.189c0,0-16.415,13.63-29.44,10.845l.923-14.561a18.839,18.839,0,0,0-2.164-15.484c-4.957-7.431-.31-14.561,4.336-17.353C240.9,477.41,243.068,465.674,241.246,462.889Z" transform="translate(-96.482 -149.892)"/><path class="al" d="M238.275,544.17s-6.5,1.233-9.6,6.19a19.132,19.132,0,0,1-3.238,4.05,2.459,2.459,0,0,0,.382,3.923c2.459,1.472,6.469,2.387,11.529-1.774C246.017,549.429,238.275,544.17,238.275,544.17Z" transform="translate(-94.482 -167.981)"/><path class="w" d="M251.145,472.08s6.2-.621,7.742,15.492,4.026,19.828,4.026,19.828,1.552,8.362-2.164,13.319S249.9,536.2,249.9,536.2s-7.742,2.172-9.293-5.57l9.6-17.966s1.552-6.19-2.164-10.527S241.541,468.985,251.145,472.08Z" transform="translate(-97.748 -153.203)"/><path class="ao" d="M250.365,470.94s6.2-.621,7.742,15.484,4.034,19.828,4.034,19.828,1.544,8.362-2.172,13.319-10.845,15.484-10.845,15.484-7.742,2.172-9.293-5.57l9.6-17.966s1.552-6.2-2.164-10.535S240.761,467.821,250.365,470.94Z" transform="translate(-97.588 -152.969)"/><path class="w" d="M246.635,485.57s-.621,9.6,2.164,14.871,2.793,12.078,0,15.8" transform="translate(-98.967 -156.007)"/><path class="w" d="M244.7,469.427s2.482-2.474,9.6-2.785,10.224-2.482,10.224-2.482" transform="translate(-98.583 -151.632)"/><path class="w" d="M261.624,418.171c1.878.231,4.034.875,4.71,2.65a19.7,19.7,0,0,1,.43,2.037c.7,2.705,3.748,3.978,5.625,6.039,1.663,1.822,2.387,4.3,2.928,6.7a63.008,63.008,0,0,1,1.09,21.045c-.6,5.14-1.838,10.2-2.188,15.356s.286,10.59,3.111,14.927c1.209,1.862,2.809,3.5,3.668,5.57-1.774,1.44-4.225,1.647-6.509,1.727q-3.978.127-7.957,0a8.514,8.514,0,0,1-4.066-.843,6.214,6.214,0,0,1-2.132-2.292,16.406,16.406,0,0,1-1.846-8.7c.064-3.008.541-5.983.6-8.983a8.078,8.078,0,0,0-1.034-4.71,15.269,15.269,0,0,0-2.6-2.387c-3.31-2.936-4.448-7.654-4.559-12.078s.613-8.864.239-13.28c-.143-1.727-.8-3.8-2.49-4.137a10.793,10.793,0,0,1-1.591-.207c-1.369-.525-1.233-2.451-1.591-3.859-.438-1.591-1.782-2.8-2.164-4.4-.891-3.748,3.875-8.219,7-9.548S258.266,417.758,261.624,418.171Z" transform="translate(-98.273 -142.164)"/><path class="ap" d="M262,417.395c1.878.239,4.026.883,4.71,2.65a19.419,19.419,0,0,1,.43,2.045c.7,2.705,3.748,3.978,5.625,6.031,1.663,1.822,2.387,4.3,2.928,6.7a63.007,63.007,0,0,1,1.09,21.045c-.6,5.14-1.838,10.2-2.188,15.356s.286,10.59,3.111,14.927c1.209,1.862,2.809,3.5,3.668,5.57-1.774,1.44-4.225,1.647-6.509,1.727q-3.978.127-8,0a8.514,8.514,0,0,1-4.066-.843,6.254,6.254,0,0,1-2.132-2.284,16.375,16.375,0,0,1-1.846-8.7c.064-3.008.541-5.983.6-8.983a8.092,8.092,0,0,0-1.034-4.71,15.6,15.6,0,0,0-2.6-2.387c-3.31-2.936-4.456-7.646-4.567-12.078s.621-8.864.247-13.28c-.143-1.727-.8-3.8-2.49-4.137a10.805,10.805,0,0,1-1.591-.207c-1.369-.525-1.233-2.451-1.591-3.859-.438-1.591-1.782-2.8-2.164-4.4-.891-3.74,3.875-8.219,7-9.548S258.646,417.013,262,417.395Z" transform="translate(-98.343 -142.008)"/><ellipse class="r" cx="19.096" cy="2.626" rx="19.096" ry="2.626" transform="translate(745.648 548.505)"/><ellipse class="r" cx="19.096" cy="2.626" rx="19.096" ry="2.626" transform="translate(672.495 555.929)"/><ellipse class="r" cx="19.096" cy="2.626" rx="19.096" ry="2.626" transform="translate(586.333 545.888)"/><ellipse class="r" cx="13.574" cy="1.862" rx="13.574" ry="1.862" transform="translate(707.297 577.81)"/><ellipse class="r" cx="13.574" cy="1.862" rx="13.574" ry="1.862" transform="translate(631.375 575.94)"/><path class="v" d="M908.865,735.383s26.782-87.793-4.193-122.962c-23.17-26.3-49.466-23.162-61.266-19.892a21.777,21.777,0,0,0-14.051,11.68c-4.114,8.88-3.374,23.3,25.7,40.133,48.671,28.174,51.718,66.836,51.718,66.836Z" transform="translate(-217.68 -177.425)"/><path class="aq" d="M852.77,608.71s78.954,24.666,61.266,130.417" transform="translate(-222.835 -181.169)"/><path class="aq" d="M908.651,619.84s-10.877,7.32-7.416,18.3" transform="translate(-232.599 -183.443)"/><path class="aq" d="M862.72,626.933s6.652-6.763,14.736-3.031" transform="translate(-224.868 -184.044)"/><path class="aq" d="M902,670.185s11.664-5.92,14.68,1.5" transform="translate(-232.895 -193.274)"/><path class="aq" d="M935.949,686.269s-8.752-.7-8.919,3.493" transform="translate(-238.009 -197.008)"/><path class="v" d="M918.956,757.466s-31.365-63.812-39.982-62.412c-4.09.66-5.975,4.686-6.835,8.752a25.676,25.676,0,0,0,1.711,15.531C878.29,729.53,890.225,748.921,918.956,757.466Z" transform="translate(-226.689 -198.808)"/><path class="aq" d="M881.15,710.28s32.925,47.74,39.29,49.84" transform="translate(-228.634 -201.924)"/><line class="aq" x2="7.686" transform="translate(649.484 515.812)"/><line class="aq" x2="12.046" y2="0.517" transform="translate(658.69 533.276)"/><line class="aq" x1="1.305" y2="6.278" transform="translate(664.713 519.305)"/><line class="aq" x1="0.231" y2="5.705" transform="translate(678.598 538.401)"/><path class="v" d="M929.94,757.466s31.365-63.812,39.982-62.412c4.1.66,5.983,4.686,6.835,8.752a25.676,25.676,0,0,1-1.711,15.531C970.567,729.53,958.632,748.921,929.94,757.466Z" transform="translate(-238.604 -198.808)"/><path class="aq" d="M969.812,710.28s-32.924,47.74-39.282,49.84" transform="translate(-238.724 -201.924)"/><line class="aq" x1="7.686" transform="translate(726.425 515.812)"/><line class="aq" x1="12.046" y2="0.517" transform="translate(712.859 533.276)"/><line class="aq" x2="1.305" y2="6.278" transform="translate(717.577 519.305)"/><line class="aq" x2="0.231" y2="5.705" transform="translate(704.767 538.401)"/><path class="v" d="M861.772,790.015a5.418,5.418,0,0,1-1.782-2.7,2.387,2.387,0,0,1,1.249-2.745c1.146-.438,2.387.358,3.294,1.162s1.989,1.719,3.183,1.552a4.909,4.909,0,0,1-1.512-4.575,1.926,1.926,0,0,1,.422-.923c.636-.684,1.79-.39,2.554.143,2.387,1.7,3.1,5,3.111,7.957a15.04,15.04,0,0,0,0-3.278,3.366,3.366,0,0,1,1.233-2.9,3.7,3.7,0,0,1,1.878-.445,3.9,3.9,0,0,1,3.047.867,3.03,3.03,0,0,1-.119,3.74,11.653,11.653,0,0,1-3.183,2.522,7.082,7.082,0,0,0-2.252,2.148,2.771,2.771,0,0,0-.167.382H865.91A18.843,18.843,0,0,1,861.772,790.015Z" transform="translate(-224.294 -216.454)"/><path class="v" d="M1011.992,757.725a5.419,5.419,0,0,1-1.782-2.7,2.387,2.387,0,0,1,1.241-2.737c1.146-.446,2.387.35,3.3,1.154s1.989,1.719,3.183,1.591a4.909,4.909,0,0,1-1.512-4.575,1.925,1.925,0,0,1,.422-.923c.637-.684,1.79-.39,2.554.143,2.387,1.7,3.1,5,3.111,7.957a15.032,15.032,0,0,0,0-3.278,3.366,3.366,0,0,1,1.233-2.9,3.7,3.7,0,0,1,1.878-.446,3.867,3.867,0,0,1,3.039.867,3.019,3.019,0,0,1-.119,3.74,11.619,11.619,0,0,1-3.183,2.522,7.08,7.08,0,0,0-2.252,2.148,2.785,2.785,0,0,0-.167.382h-6.819A18.845,18.845,0,0,1,1011.992,757.725Z" transform="translate(-254.99 -209.864)"/><path class="v" d="M961.93,790.015a5.434,5.434,0,0,1-1.79-2.7,2.387,2.387,0,0,1,1.249-2.745c1.146-.438,2.387.358,3.3,1.162s1.989,1.719,3.183,1.552a4.877,4.877,0,0,1-1.512-4.575,1.854,1.854,0,0,1,.422-.923c.637-.684,1.782-.39,2.546.143,2.387,1.7,3.1,5,3.111,7.957a15.03,15.03,0,0,0,.048-3.278,3.358,3.358,0,0,1,1.225-2.9,3.723,3.723,0,0,1,1.878-.446,3.891,3.891,0,0,1,3.047.867,3.03,3.03,0,0,1-.119,3.74,11.736,11.736,0,0,1-3.183,2.522,6.922,6.922,0,0,0-2.252,2.148,2.057,2.057,0,0,0-.167.382h-6.827A18.8,18.8,0,0,1,961.93,790.015Z" transform="translate(-244.759 -216.454)"/><path class="v" d="M818.944,726.94s-2.562,3.342,1.178,8.394,6.827,9.317,5.57,12.468c0,0-5.641-9.381-10.232-9.548S813.892,732.557,818.944,726.94Z" transform="translate(-214.749 -205.328)"/><path class="w" d="M818.946,726.94a3.978,3.978,0,0,0-.525,1.05c-4.48,5.259-6.867,10.176-2.562,10.3,4.018.119,8.832,7.3,9.978,9.1a2.5,2.5,0,0,1-.135.414s-5.641-9.381-10.232-9.548S813.893,732.557,818.946,726.94Z" transform="translate(-214.75 -205.328)"/><path class="x" d="M814.44,732.107c0,1.178.135,2.132.294,2.132s.294-.955.294-2.132-.159-.621-.326-.621S814.44,730.929,814.44,732.107Z" transform="translate(-215.003 -206.23)"/><path class="x" d="M812.228,733.861c1.034.557,1.933.9,2.013.756s-.692-.716-1.727-1.281-.629-.151-.708,0S811.194,733.3,812.228,733.861Z" transform="translate(-214.422 -206.576)"/><path class="v" d="M835.6,726.94s2.554,3.342-1.186,8.394-6.819,9.317-5.57,12.468c0,0,5.641-9.381,10.24-9.548S840.655,732.557,835.6,726.94Z" transform="translate(-217.889 -205.328)"/><path class="w" d="M835.638,726.94a4.106,4.106,0,0,1,.517,1.05c4.488,5.259,6.875,10.177,2.562,10.3-3.978.119-8.824,7.3-9.978,9.1a1.329,1.329,0,0,0,.135.414s5.641-9.381,10.24-9.548S840.691,732.557,835.638,726.94Z" transform="translate(-217.925 -205.328)"/><path class="x" d="M843.229,732.107c0,1.178-.127,2.132-.294,2.132s-.294-.955-.294-2.132.167-.621.326-.621S843.229,730.929,843.229,732.107Z" transform="translate(-220.765 -206.23)"/><path class="x" d="M844.922,733.861c-1.034.557-1.941.9-2.013.756s.692-.716,1.727-1.281.629-.151.708,0S845.956,733.3,844.922,733.861Z" transform="translate(-220.819 -206.576)"/><path class="y" d="M835.524,751.617s-7.161-.223-9.309-1.758-11-3.366-11.537-.9S803.92,761.205,812,761.269s18.762-1.257,20.918-2.57S835.524,751.617,835.524,751.617Z" transform="translate(-213.872 -209.581)"/><path class="z" d="M811.853,761.4c8.084.064,18.77-1.257,20.926-2.57,1.631-.995,2.292-4.575,2.506-6.23h.239s-.454,5.769-2.6,7.081-12.842,2.634-20.918,2.57c-2.331,0-3.143-.851-3.1-2.077C809.236,760.923,810.119,761.384,811.853,761.4Z" transform="translate(-213.872 -210.571)"/><ellipse class="r" cx="27.625" cy="4.082" rx="27.625" ry="4.082" transform="translate(105.482 557.727)"/><ellipse class="r" cx="27.625" cy="4.082" rx="27.625" ry="4.082" transform="translate(172.373 594.367)"/><ellipse class="r" cx="18.292" cy="2.045" rx="18.292" ry="2.045" transform="translate(476.818 500.933)"/><ellipse class="r" cx="18.292" cy="2.045" rx="18.292" ry="2.045" transform="translate(391.308 559.764)"/><ellipse class="r" cx="18.292" cy="2.045" rx="18.292" ry="2.045" transform="translate(352.758 596.404)"/></g></g></svg>