<svg id="圖層_1" data-name="圖層 1" xmlns="http://www.w3.org/2000/svg" xmlns:xlink="http://www.w3.org/1999/xlink" viewBox="0 0 260 852"><defs><style>.cls-1{fill:none;}.cls-2{clip-path:url(#clip-path);}.cls-3{fill:#fff;}.cls-4{fill:#e2e1e1;}.cls-5{fill:#fb0;}.cls-6,.cls-9{isolation:isolate;}.cls-7,.cls-9{fill:#707070;}.cls-8,.cls-9{opacity:0.61;}</style><clipPath id="clip-path"><rect class="cls-1" y="-81" width="260" height="933"/></clipPath></defs><title>newIA</title><g class="cls-2"><g id="preview_1" data-name="preview 1"><rect class="cls-3" y="-81" width="260" height="933"/><rect id="Rectangle_18" data-name="Rectangle 18" class="cls-4" width="262" height="853"/><rect id="Rectangle_24" data-name="Rectangle 24" class="cls-5" y="124" width="262" height="70"/><g id="Group_47" data-name="Group 47"><g id="搜尋" class="cls-6"><g class="cls-6"><path class="cls-7" d="M74.69,97.27q.82.07,1.49.07a.76.76,0,0,0,.62-.19,1,1,0,0,0,.15-.64V92.18l-.88.3a3,3,0,0,0-.85.37.61.61,0,0,1-.35.16c-.13,0-.22-.1-.27-.3a14.6,14.6,0,0,1-.39-2.22,13,13,0,0,0,2.09-.42l.65-.19V85.4h-.3l-2,0c-.11,0-.18,0-.2,0a.53.53,0,0,1,0-.24V83.49q0-.26.24-.26l2,.06H77V82a28.3,28.3,0,0,0-.17-3.25q1.28,0,2.38.16c.23,0,.35.11.35.24a1.35,1.35,0,0,1-.15.48A10.07,10.07,0,0,0,79.23,82v1.31l1.58-.06c.13,0,.21,0,.24,0a.33.33,0,0,1,0,.21v1.67q0,.2-.06.25a.44.44,0,0,1-.22,0h-.49l-1.09,0v3.71l1.86-.81q0,.26-.1,1.63a1.21,1.21,0,0,1-.13.61,1.64,1.64,0,0,1-.53.29L80,91c-.32.15-.57.25-.73.31v1.22l.07,4.32a2.84,2.84,0,0,1-.72,2.3,4.32,4.32,0,0,1-2.44.51c-.37,0-.6,0-.66-.1a1.5,1.5,0,0,1-.21-.59A6.39,6.39,0,0,0,74.69,97.27Zm19.23-4.92a.44.44,0,0,1-.26.37,2,2,0,0,0-.55.53,13.91,13.91,0,0,1-3,3,28.54,28.54,0,0,0,5.4,1.17,7.06,7.06,0,0,0-.82,1.66q-.22.55-.46.55a3.24,3.24,0,0,1-.53-.09,24.51,24.51,0,0,1-5.78-1.91,23.76,23.76,0,0,1-6.06,2,3.34,3.34,0,0,1-.49.08q-.25,0-.47-.55A5.42,5.42,0,0,0,80,97.64a27.75,27.75,0,0,0,5.72-1.38A12.5,12.5,0,0,1,82.86,93l-1.47,0c-.13,0-.2,0-.22,0a.39.39,0,0,1,0-.2V91.28c0-.12,0-.19,0-.21a.43.43,0,0,1,.21,0l3,0H86.9V89.53H85.19l-3,0a.38.38,0,0,1-.24,0,.42.42,0,0,1,0-.21l0-2.49v-4q0-1.54-.09-2.49a8.49,8.49,0,0,1,1.58.44,6.7,6.7,0,0,0,1.21-.53,5.13,5.13,0,0,0,.81-.55,12.92,12.92,0,0,1,1.3,1.4l.15.27a24,24,0,0,0-.12-2.62q1.18,0,2.22.16.37.08.37.24a1.37,1.37,0,0,1-.15.46,7.3,7.3,0,0,0-.16,2.09v6h3V85.79h-.92l-.94,0c-.12,0-.19,0-.21,0a.42.42,0,0,1,0-.21v-1.4c0-.15.08-.22.25-.22l.94,0h.92V82.22h-.88l-1,0a.35.35,0,0,1-.22,0,.38.38,0,0,1,0-.2V80.57c0-.13,0-.22.06-.25a.35.35,0,0,1,.2,0l1.36,0h1.08l1.4,0c.12,0,.19,0,.22.06a.45.45,0,0,1,0,.22l0,2.25V87l0,2.31a.19.19,0,0,1-.26.26l-3.05,0H89.07v1.55h2.59a1.24,1.24,0,0,0,.46-.09l.37-.11q.2,0,.77.57T93.92,92.35Zm-7.3-10.66a2.6,2.6,0,0,0-.75.21q-.64.27-1.82.66V84h.73l1,0a.2.2,0,0,1,.22.22v1.4c0,.17-.07.26-.22.26l-1,0H84v1.88H86.9V81.49Q86.87,81.66,86.62,81.69ZM90.56,93h-5.2a8.93,8.93,0,0,0,2.57,2.26A9.08,9.08,0,0,0,90.56,93Z"/><path class="cls-7" d="M100.56,95.43l-2.85,0a.2.2,0,0,1-.22-.22V93.68q0-.25.22-.25l2.85,0h10.77V92.25h-.26l-2.48,0c-.12,0-.19,0-.21,0a.39.39,0,0,1,0-.2l0-1.47V89.16l0-1.47a.38.38,0,0,1,0-.24.37.37,0,0,1,.2,0l2.48,0h3.18l2.48,0q.2,0,.25.06a.42.42,0,0,1,0,.21l0,1.47v1.41L117,92c0,.11,0,.18,0,.21a.43.43,0,0,1-.24,0l-2.48,0h-.64v1.22H115l2.88,0q.24,0,.24.25v1.57c0,.15-.08.22-.24.22l-2.87,0h-1.35l0,2.24a1.7,1.7,0,0,1-.85,1.67,6.92,6.92,0,0,1-3,.44,1.23,1.23,0,0,1-.7-.11,1.28,1.28,0,0,1-.2-.61,5.22,5.22,0,0,0-.57-1.52q1.27.08,2.09.08a1.2,1.2,0,0,0,.79-.18.83.83,0,0,0,.16-.58V95.43Zm6.33-8c.12,0,.19,0,.21.06a.42.42,0,0,1,0,.21V89c0,.13,0,.2,0,.22a.37.37,0,0,1-.2,0l-2.52,0h-.53v1.3q2-.21,3.5-.44a9.56,9.56,0,0,0-.08,1.25c0,.24,0,.39-.12.44a1.48,1.48,0,0,1-.56.13q-4.09.58-7,.88a2.63,2.63,0,0,0-.8.19.64.64,0,0,1-.33.07c-.14,0-.23-.09-.27-.26Q98,92,97.78,90.87h.54q.66,0,1.64-.06l1.68-.09V89.22h-.51l-2.52,0c-.12,0-.19,0-.21,0a.42.42,0,0,1,0-.21V87.74a.38.38,0,0,1,0-.24.37.37,0,0,1,.2,0l2.52,0h3.23Zm6-6.19h-9.2l-3.16,0c-.12,0-.19,0-.21,0a.38.38,0,0,1,0-.2V79.73a.19.19,0,0,1,.25-.27l3.16,0h7.55l3.73,0c.12,0,.19,0,.21.06a.45.45,0,0,1,0,.22l0,2.07v2.33l0,2.07c0,.13,0,.2,0,.22a.4.4,0,0,1-.2,0l-3.73,0h-7.68l-3,0a.38.38,0,0,1-.24,0,.39.39,0,0,1,0-.2V84.93c0-.12,0-.19,0-.21a.44.44,0,0,1,.22,0l3,0h9.33V83.8h-8.58l-3.08,0a.35.35,0,0,1-.22,0,.39.39,0,0,1,0-.2V82.38c0-.12,0-.19.06-.21a.35.35,0,0,1,.2,0l3.08,0h8.58Zm-8.67,14.29a19.61,19.61,0,0,1,2.07,2.24.33.33,0,0,1,.09.18c0,.07-.07.15-.22.25l-1.61,1.07a.76.76,0,0,1-.28.13s-.1-.06-.2-.18a23.55,23.55,0,0,0-1.94-2.39.41.41,0,0,1-.13-.24s.09-.13.26-.25l1.45-.83a.7.7,0,0,1,.27-.1A.47.47,0,0,1,104.17,95.56Zm10.6-4.9V89.09h-4.26v1.57Z"/></g></g><path id="_001-search" data-name=" 001-search" class="cls-7" d="M56.46,99.22l-6-6.23a8.48,8.48,0,1,0-.6.54l6,6.25a.4.4,0,1,0,.58-.56Zm-12-4.55A7.66,7.66,0,1,1,52.13,87h0A7.67,7.67,0,0,1,44.47,94.68Z"/></g><g id="Group_26" data-name="Group 26"><g id="預習" class="cls-6"><g class="cls-6"><path class="cls-3" d="M76.47,152.82a14.28,14.28,0,0,1,1.52,1,22.41,22.41,0,0,0,1.8-2h-3l-2.52,0c-.15,0-.22-.08-.22-.25V149.9c0-.17.07-.25.22-.25l2.52,0h3.77a1,1,0,0,0,.44-.07.56.56,0,0,1,.29-.09q.27,0,1,.66t.7,1a.53.53,0,0,1-.3.44,4.63,4.63,0,0,0-.69.8,27,27,0,0,1-2.39,2.74l.13.15a3.28,3.28,0,0,0,.3.29.28.28,0,0,1,.1.17c0,.07-.07.17-.22.31l-.48.42h1.86a.87.87,0,0,0,.46-.1l.28,0q.26,0,.88.55t.66.83a.81.81,0,0,1-.22.51,4.16,4.16,0,0,0-.35.59,18.47,18.47,0,0,1-1.18,2.35q-.3.48-.46.48a1.55,1.55,0,0,1-.53-.27,4.67,4.67,0,0,0-1.19-.57,9.63,9.63,0,0,0,1.26-2.19H79.26v4.94l0,3.41a2.68,2.68,0,0,1-.76,2.18,4.61,4.61,0,0,1-2.55.46q-.56,0-.66-.11a1.78,1.78,0,0,1-.19-.64,5.07,5.07,0,0,0-.55-1.64,16.61,16.61,0,0,0,1.71.09.62.62,0,0,0,.69-.71v-8h-.46l-2.66,0c-.13,0-.2,0-.22,0a.39.39,0,0,1,0-.2V156.7a.38.38,0,0,1,0-.24.41.41,0,0,1,.21,0l2.66,0h1.43a19.26,19.26,0,0,0-2.87-2.33c-.09,0-.13-.09-.13-.15s.06-.14.18-.25l.94-.9a.47.47,0,0,1,.22-.13A.54.54,0,0,1,76.47,152.82Zm9.27,12.63a11,11,0,0,1,1.53,1q.25.21.25.37c0,.14-.09.24-.28.29a2.76,2.76,0,0,0-.66.44,15.66,15.66,0,0,1-3.75,2.26,3.81,3.81,0,0,1-.55.16q-.19,0-.51-.53a5,5,0,0,0-.94-1.15A13.58,13.58,0,0,0,85,166.2,4.52,4.52,0,0,0,85.74,165.45Zm.61-13.67-2.94,0c-.16,0-.24-.08-.24-.25v-1.71a.38.38,0,0,1,0-.24s.09,0,.19,0l2.94,0h5.22l2.94,0q.17,0,.2.06a.61.61,0,0,1,0,.21v1.71c0,.17-.07.25-.22.25l-2.94,0H89.81a15.23,15.23,0,0,1-.73,1.65H90.6l2.76,0c.12,0,.19,0,.21.06a.45.45,0,0,1,0,.22l0,2.66v6l0,2.67a.34.34,0,0,1,0,.21.34.34,0,0,1-.21,0l-2.76,0h-4l-2.76,0c-.12,0-.19,0-.21,0a.39.39,0,0,1,0-.2l0-2.67v-6l0-2.66a.41.41,0,0,1,0-.25.38.38,0,0,1,.2,0l2.76,0h.19a15.52,15.52,0,0,0,.64-1.65Zm4.92,3.4h-5.4v1.54h5.4Zm-5.4,4.88h5.4v-1.61h-5.4Zm5.4,3.31v-1.61h-5.4v1.61ZM95.17,168a5.44,5.44,0,0,0-.92,1.25q-.29.55-.48.55a2,2,0,0,1-.57-.24,14.88,14.88,0,0,1-3.68-2.71q-.13-.11-.13-.19t.22-.27l1-.81a.62.62,0,0,1,.29-.12.35.35,0,0,1,.19.08A12.28,12.28,0,0,0,95.17,168Z"/><path class="cls-3" d="M103.27,154.31q0,.33,0,1.38c0,.13,0,.23,0,.29a.58.58,0,0,1-.13.44,4.87,4.87,0,0,1-.52.29l-.21.11,1,0a.93.93,0,0,0,.65-.17.7.7,0,0,0,.13-.48v-4.76H100l-2.57,0c-.12,0-.19,0-.22-.06a.42.42,0,0,1,0-.21v-1.57a.38.38,0,0,1,0-.24.42.42,0,0,1,.21,0l2.57,0h3.59l2.62,0c.13,0,.2,0,.22.06a.45.45,0,0,1,0,.22l0,1.7v3l.07,2.38a2.08,2.08,0,0,1-.51,1.56,20.2,20.2,0,0,1,2.25.44q.3.11.3.3a.52.52,0,0,1-.25.39,1.18,1.18,0,0,0-.37.45l-.16.26H111l3.19,0c.13,0,.2,0,.22.06a.45.45,0,0,1,0,.22l0,2.56v2.37l0,4.19a.36.36,0,0,1,0,.22.4.4,0,0,1-.2,0H112.4c-.13,0-.21,0-.24,0a.33.33,0,0,1,0-.21v-.6h-9.84v.71c0,.13,0,.2,0,.22a.41.41,0,0,1-.21,0h-1.89c-.12,0-.19,0-.21,0a.42.42,0,0,1,0-.21l0-4.26v-2.09l0-2.89a.42.42,0,0,1,0-.25.4.4,0,0,1,.2,0l3.2,0h2q0-.09.18-.46a6,6,0,0,0,.37-1.29,5.11,5.11,0,0,1-2.72.48h-.26a.43.43,0,0,1-.38-.13,2.14,2.14,0,0,1-.17-.54,5.64,5.64,0,0,0-.39-1.18q-1.47.75-3,1.36a2.22,2.22,0,0,0-.71.37.61.61,0,0,1-.35.16c-.14,0-.24-.09-.3-.28q-.2-.54-.57-2a12.09,12.09,0,0,0,1.77-.44A27.92,27.92,0,0,0,103.27,154.31Zm-3.86-2.55a12.65,12.65,0,0,1,2.65,1.49q.16.12.16.21s-.06.12-.17.22l-1.06.94q-.22.21-.29.21a.36.36,0,0,1-.19-.1A13.43,13.43,0,0,0,98,153.14c-.1,0-.15-.09-.15-.13s.06-.12.17-.24l.94-.92a.48.48,0,0,1,.27-.15A.51.51,0,0,1,99.41,151.76ZM102.28,162v1.5h9.84V162Zm0,5h9.84V165.3h-9.84Zm11.11-12.84c0,.3,0,.62,0,1,0,.14,0,.29,0,.44v.25a.63.63,0,0,1-.13.47,3.84,3.84,0,0,1-.53.29l-.42.2q.46,0,1.21,0a1.09,1.09,0,0,0,.71-.17.64.64,0,0,0,.15-.47v-4.76h-4.21l-2.57,0c-.12,0-.19,0-.22-.06a.42.42,0,0,1,0-.21v-1.57c0-.13,0-.21.06-.24a.35.35,0,0,1,.2,0l2.57,0h3.55l2.64,0c.13,0,.2,0,.22.06a.45.45,0,0,1,0,.22l0,1.7v3l0,2.37a2,2,0,0,1-.57,1.63,5.59,5.59,0,0,1-2.76.5H113q-.29,0-.37-.12a2.09,2.09,0,0,1-.15-.48,5.24,5.24,0,0,0-.46-1.33q-.81.37-2.57,1.12a7.86,7.86,0,0,0-.76.33l-.22.12a.36.36,0,0,1-.17.06c-.13,0-.22-.08-.29-.25q-.33-1-.53-2a12.56,12.56,0,0,0,1.83-.39A29.26,29.26,0,0,0,113.39,154.18Zm-4-2.42a13.89,13.89,0,0,1,2.63,1.58c.1.08.16.15.16.19s-.06.14-.17.22l-1.12,1c-.14.12-.24.18-.28.18a.33.33,0,0,1-.18-.09,12.11,12.11,0,0,0-2.5-1.72q-.17-.09-.17-.16s.06-.12.17-.24l1-.83a.48.48,0,0,1,.3-.16A.7.7,0,0,1,109.43,151.76Z"/></g></g><g id="_002-book" data-name=" 002-book" class="cls-8"><g id="Group_2" data-name="Group 2"><path id="Path_1" data-name="Path 1" class="cls-3" d="M57.83,151.64H56.16v-.57a.49.49,0,0,0-.35-.49,13.83,13.83,0,0,0-3.54-.45,9.13,9.13,0,0,0-6.62,2.45A9,9,0,0,0,39,150.13a13.83,13.83,0,0,0-3.54.45.49.49,0,0,0-.35.49v.56H33.49a.49.49,0,0,0-.49.49h0v15.68a.49.49,0,0,0,.73.43,17.31,17.31,0,0,1,11.81-1h.24a17,17,0,0,1,11.81,1,.49.49,0,0,0,.74-.42V152.13a.49.49,0,0,0-.49-.49ZM34,167v-14.4h1.17v12.31a.49.49,0,0,0,.49.5h.08a21.48,21.48,0,0,1,3.07-.25,12.73,12.73,0,0,1,4.19.63A18,18,0,0,0,34,167Zm4.8-2.82a21.6,21.6,0,0,0-2.67.17V151.46a13.54,13.54,0,0,1,2.91-.32,8,8,0,0,1,6.13,2.4l0,12.23a11.47,11.47,0,0,0-6.38-1.57Zm7.36-10.66a8.09,8.09,0,0,1,6.13-2.4,13.6,13.6,0,0,1,2.91.32v12.91a21.59,21.59,0,0,0-2.66-.18,11.57,11.57,0,0,0-6.38,1.57ZM57.34,167a18,18,0,0,0-9-1.21,12.76,12.76,0,0,1,4.21-.63,21.48,21.48,0,0,1,3.09.24.49.49,0,0,0,.56-.49v-12.3h1.17Z"/></g></g></g><g id="Group_28" data-name="Group 28"><g id="複習" class="cls-6"><g class="cls-6"><path class="cls-7" d="M73.66,301.15a16,16,0,0,0,5-6.72H76.74l-2.16,0c-.12,0-.19,0-.21,0a.6.6,0,0,1,0-.21v-1.7a.41.41,0,0,1,0-.22.35.35,0,0,1,.2,0l2.16,0v-.82a19.69,19.69,0,0,0-.13-2.72q1.29,0,2.32.16.37,0,.37.26a1.36,1.36,0,0,1-.15.48,6.23,6.23,0,0,0-.13,1.79v.85h.62a.7.7,0,0,0,.39-.09.54.54,0,0,1,.28-.09q.2,0,.75.55t.55.88q0,.16-.24.35a2.58,2.58,0,0,0-.47.86,25.16,25.16,0,0,1-1.84,3.36,10.21,10.21,0,0,0,.79,1,8.45,8.45,0,0,0,.88-1.32,6,6,0,0,0,.38-.88,16,16,0,0,1,1.39.9q.2.13.2.27c0,.07-.06.14-.18.21a1.21,1.21,0,0,0-.44.44q-.57.82-1.11,1.47.58.47,1.29.94a3.64,3.64,0,0,0-.92,1.21c-.14.23-.25.35-.33.35s-.23-.12-.46-.35a20.51,20.51,0,0,1-1.56-1.8v6.38l0,2.66a.36.36,0,0,1,0,.22.4.4,0,0,1-.2,0H76.92c-.12,0-.19,0-.21,0a.42.42,0,0,1,0-.21l0-2.66v-5.66q-.89,1-1.58,1.67a.71.71,0,0,1-.42.26c-.16,0-.28-.15-.35-.44A5,5,0,0,0,73.66,301.15Zm6.55,3.62a12.94,12.94,0,0,0,4.28-3,5.74,5.74,0,0,0,.76-1l-1.17,0h-.39c-.12,0-.19,0-.21,0a.5.5,0,0,1,0-.2l0-1.93v-3.28q-.37.44-.55.44c-.12,0-.3-.11-.53-.33a4.85,4.85,0,0,0-1.31-.81,12.67,12.67,0,0,0,2.74-4.35,7.41,7.41,0,0,0,.42-1.67q.16,0,2.09.36.39.12.39.28v.06a.52.52,0,0,1-.19.34,4,4,0,0,0-.51,1.06h5.9l2.83,0c.1,0,.17,0,.19.06a.42.42,0,0,1,0,.21v1.53c0,.17-.07.25-.22.25l-2.83,0H85.15q-.17.35-.6,1.1h5.92l2.82,0c.13,0,.2,0,.22.06a.46.46,0,0,1,0,.22l0,1.91v2.71l0,1.93a.34.34,0,0,1,0,.21.37.37,0,0,1-.22,0l-2.82,0H86.61l.35.12.34.11c.13,0,.2.12.2.22s-.07.2-.22.3a1.06,1.06,0,0,0-.33.35h4.37a1.29,1.29,0,0,0,.54-.09,1.08,1.08,0,0,1,.27-.07q.26,0,.81.59t.6.83q0,.24-.33.42a2.72,2.72,0,0,0-.69.64,14.92,14.92,0,0,1-2.28,2.17,21.28,21.28,0,0,0,5.27,1,4.17,4.17,0,0,0-.71,1.45,2.21,2.21,0,0,1-.21.56.38.38,0,0,1-.31.11l-.39,0a17.92,17.92,0,0,1-5.79-1.79,21.49,21.49,0,0,1-6.29,1.93l-.45.06a.36.36,0,0,1-.3-.15,4.49,4.49,0,0,1-.24-.46,4.42,4.42,0,0,0-.77-1.22,25.81,25.81,0,0,0,6.1-1.45,12,12,0,0,1-1.82-1.77,12.91,12.91,0,0,1-2.23,1.47,2.22,2.22,0,0,1-.55.24c-.11,0-.27-.18-.46-.53A3.57,3.57,0,0,0,80.21,304.77Zm5.53-9.3v1.1h5.47v-1.1Zm5.47,3.65v-1.06H85.74v1.06Zm-3.05,6.27a13.88,13.88,0,0,0,2.18-1.82H86A8.6,8.6,0,0,0,88.15,305.38Z"/><path class="cls-7" d="M103.75,294.31q0,.33,0,1.38c0,.13,0,.23,0,.29a.58.58,0,0,1-.13.44,4.87,4.87,0,0,1-.52.29l-.21.11,1,0a.93.93,0,0,0,.65-.17.7.7,0,0,0,.13-.48v-4.76h-4.23l-2.57,0c-.12,0-.19,0-.22-.06a.42.42,0,0,1,0-.21v-1.57a.38.38,0,0,1,0-.24.42.42,0,0,1,.21,0l2.57,0h3.59l2.62,0c.13,0,.2,0,.22.06a.45.45,0,0,1,0,.22l0,1.7v3l.07,2.38a2.08,2.08,0,0,1-.51,1.56,20.2,20.2,0,0,1,2.25.44q.3.11.3.3a.52.52,0,0,1-.25.39,1.18,1.18,0,0,0-.37.45l-.16.26h3.3l3.19,0c.13,0,.2,0,.22.06a.45.45,0,0,1,0,.22l0,2.56v2.37l0,4.19a.36.36,0,0,1,0,.22.4.4,0,0,1-.2,0h-1.84c-.13,0-.21,0-.24,0a.33.33,0,0,1,0-.21v-.6h-9.84v.71c0,.13,0,.2,0,.22a.41.41,0,0,1-.21,0h-1.89c-.12,0-.19,0-.21,0a.42.42,0,0,1,0-.21l0-4.26v-2.09l0-2.89a.42.42,0,0,1,0-.25.4.4,0,0,1,.2,0l3.2,0h2q0-.09.18-.46a6,6,0,0,0,.37-1.29,5.11,5.11,0,0,1-2.72.48h-.26a.43.43,0,0,1-.38-.13,2.14,2.14,0,0,1-.17-.54,5.64,5.64,0,0,0-.39-1.18q-1.47.75-3,1.36a2.22,2.22,0,0,0-.71.37.61.61,0,0,1-.35.16c-.14,0-.24-.09-.3-.28q-.2-.54-.57-2a12.09,12.09,0,0,0,1.77-.44A27.92,27.92,0,0,0,103.75,294.31Zm-3.86-2.55a12.65,12.65,0,0,1,2.65,1.49q.16.12.16.21s-.06.12-.17.22l-1.06.94q-.22.21-.29.21a.36.36,0,0,1-.19-.1,13.43,13.43,0,0,0-2.53-1.61c-.1,0-.15-.09-.15-.13s.06-.12.17-.24l.94-.92a.48.48,0,0,1,.27-.15A.51.51,0,0,1,99.89,291.76ZM102.76,302v1.5h9.84V302Zm0,5h9.84V305.3h-9.84Zm11.11-12.84c0,.3,0,.62,0,1,0,.14,0,.29,0,.44v.25a.63.63,0,0,1-.13.47,3.84,3.84,0,0,1-.53.29l-.42.2q.46,0,1.21,0a1.09,1.09,0,0,0,.71-.17.64.64,0,0,0,.15-.47v-4.76h-4.21l-2.57,0c-.12,0-.19,0-.22-.06a.42.42,0,0,1,0-.21v-1.57c0-.13,0-.21.06-.24a.35.35,0,0,1,.2,0l2.57,0h3.55l2.64,0c.13,0,.2,0,.22.06a.45.45,0,0,1,0,.22l0,1.7v3l0,2.37a2,2,0,0,1-.57,1.63,5.59,5.59,0,0,1-2.76.5h-.27q-.29,0-.37-.12a2.09,2.09,0,0,1-.15-.48,5.24,5.24,0,0,0-.46-1.33q-.81.37-2.57,1.12a7.86,7.86,0,0,0-.76.33l-.22.12a.36.36,0,0,1-.17.06c-.13,0-.22-.08-.29-.25q-.33-1-.53-2a12.56,12.56,0,0,0,1.83-.39A29.26,29.26,0,0,0,113.87,294.18Zm-4-2.42a13.89,13.89,0,0,1,2.63,1.58c.1.08.16.15.16.19s-.06.14-.17.22l-1.12,1c-.14.12-.24.18-.28.18a.33.33,0,0,1-.18-.09,12.11,12.11,0,0,0-2.5-1.72q-.17-.09-.17-.16s.06-.12.17-.24l1-.83a.48.48,0,0,1,.3-.16A.7.7,0,0,1,109.92,291.76Z"/></g></g><path id="_003-vision" data-name=" 003-vision" class="cls-9" d="M59.55,299.55h-1a5.6,5.6,0,0,0-11-.2,2.27,2.27,0,0,0-3,0,5.6,5.6,0,0,0-11.07.66h-1a.47.47,0,0,0,0,.93h1a5.6,5.6,0,0,0,11.18-.31,1.53,1.53,0,0,1,2.82,0,5.6,5.6,0,0,0,11.2-.15h.93a.47.47,0,1,0,0-.93h0ZM39,305.15a4.67,4.67,0,0,1,0-9.34h0a4.67,4.67,0,0,1,0,9.34Zm14,0a4.67,4.67,0,0,1,0-9.34h0a4.67,4.67,0,0,1,0,9.34Z"/></g><g id="Group_27" data-name="Group 27"><g id="上課" class="cls-6"><g class="cls-6"><path class="cls-7" d="M77.53,238.53l-2.92,0c-.13,0-.2,0-.22,0a.38.38,0,0,1,0-.2v-2.1c0-.12,0-.19,0-.21a.43.43,0,0,1,.21,0l2.92,0h4.85v-13a27,27,0,0,0-.19-3.84q1.71,0,2.7.16c.28,0,.42.13.42.3a2.24,2.24,0,0,1-.17.53,8.88,8.88,0,0,0-.16,2.2V226h4.5l2.83,0a.36.36,0,0,1,.22,0,.39.39,0,0,1,0,.2v2.1c0,.12,0,.19-.06.21s-.09,0-.2,0l-2.83,0H85V236h6.28l2.92,0c.12,0,.19,0,.21,0a.39.39,0,0,1,0,.2v2.1a.19.19,0,0,1-.25.25l-2.92,0Z"/><path class="cls-7" d="M99.67,222.79h2.41l2.46,0c.12,0,.19,0,.21,0a.39.39,0,0,1,0,.2v1.64a.38.38,0,0,1,0,.24.37.37,0,0,1-.2,0l-2.46,0H99.67l-2.46,0c-.13,0-.2,0-.22-.06a.42.42,0,0,1,0-.21V223c0-.12,0-.19,0-.21a.41.41,0,0,1,.21,0Zm4.66,16.37q0,.26-.22.26h-1.66c-.12,0-.19,0-.21,0a.42.42,0,0,1,0-.21v-.62H100v1.05a.35.35,0,0,1,0,.22.41.41,0,0,1-.21,0H98.12a.41.41,0,0,1-.25,0,.42.42,0,0,1,0-.21l.06-3.47v-1.47l-.06-2.16c0-.13,0-.2.06-.22a.47.47,0,0,1,.22,0l2.09,0H102l2.11,0q.22,0,.22.26l0,1.76v2.46A14.87,14.87,0,0,0,109,232.5h-.75l-3.09,0c-.12,0-.19,0-.21,0a.39.39,0,0,1,0-.2v-1.62c0-.12,0-.19,0-.21a.37.37,0,0,1,.2,0l3.09,0h2v-1.63h-1.16l-2.85,0c-.12,0-.19,0-.21,0a.42.42,0,0,1,0-.21l0-2.29v-4.19l0-2.29a.42.42,0,0,1,0-.25.4.4,0,0,1,.2,0l2.85,0h4.6l2.86,0c.13,0,.2,0,.22.06a.45.45,0,0,1,0,.22l0,2.29v4.19l0,2.29c0,.13,0,.2,0,.22a.42.42,0,0,1-.21,0l-2.86,0h-1.29v1.63h2.23l3.1,0a.35.35,0,0,1,.22,0,.39.39,0,0,1,0,.2v1.62a.34.34,0,0,1,0,.21.37.37,0,0,1-.22,0l-3.1,0h-1a14.1,14.1,0,0,0,4.89,3.9,7,7,0,0,0-1,1.49q-.25.48-.38.48a2.5,2.5,0,0,1-.51-.3,15.29,15.29,0,0,1-4.21-4.35q0,1.78.07,4,0,1.73,0,1.82a.36.36,0,0,1,0,.22.4.4,0,0,1-.2,0h-1.77c-.12,0-.19,0-.21-.06s0-.09,0-.2,0-.44,0-1.06q.07-2.76.09-4.67a16.63,16.63,0,0,1-4.14,4.41,1.08,1.08,0,0,1-.51.3c-.09,0-.24-.16-.46-.48a9.91,9.91,0,0,0-.88-1Zm-4.07-19.52H102l2.08,0a.38.38,0,0,1,.24,0,.39.39,0,0,1,0,.2v1.54c0,.13,0,.2,0,.22a.47.47,0,0,1-.22,0l-2.08,0h-1.7l-2.09,0c-.13,0-.2,0-.22,0a.42.42,0,0,1,0-.21v-1.54c0-.12,0-.19,0-.21a.41.41,0,0,1,.21,0Zm.09,6.43h1.54l1.93,0a.41.41,0,0,1,.25,0,.42.42,0,0,1,0,.21v1.47c0,.12,0,.19-.06.21a.45.45,0,0,1-.22,0l-1.93,0h-1.54l-2,0a.35.35,0,0,1-.22,0,.38.38,0,0,1,0-.2V226.3c0-.13,0-.2.06-.22a.35.35,0,0,1,.2,0Zm0,3.09h1.54l1.93-.06a.41.41,0,0,1,.25,0,.42.42,0,0,1,0,.21v1.47c0,.13,0,.2-.06.22a.44.44,0,0,1-.22,0l-1.93,0h-1.54l-2,0a.35.35,0,0,1-.22,0,.42.42,0,0,1,0-.21v-1.47c0-.12,0-.19.06-.22a.35.35,0,0,1,.2,0Zm1.84,5H100v2.44h2.19Zm5.91-10.76h2.19v-1.93H108.1Zm0,3.58h2.19v-1.87H108.1Zm6.56-5.51h-2.32v1.93h2.32Zm0,5.51v-1.87h-2.32V227Z"/></g></g><g id="_004-teacher" data-name=" 004-teacher" class="cls-8"><g id="Group_4" data-name="Group 4"><g id="Group_3" data-name="Group 3"><path id="Path_2" data-name="Path 2" class="cls-7" d="M40.69,221a2.56,2.56,0,0,0-2.53,2.57,2.53,2.53,0,0,0,5.05,0A2.56,2.56,0,0,0,40.69,221Zm0,3.83a1.28,1.28,0,1,1,1.26-1.33s0,0,0,.07A1.27,1.27,0,0,1,40.69,224.78Z"/></g></g><g id="Group_6" data-name="Group 6"><g id="Group_5" data-name="Group 5"><path id="Path_3" data-name="Path 3" class="cls-7" d="M54.67,221H45.74a1.9,1.9,0,0,0-1.89,1.9v4.31l-.56-.55a1.88,1.88,0,0,0-1.34-.55H38.16A3.16,3.16,0,0,0,35,229.2V233a1.9,1.9,0,0,0,2.53,1.79v5.84A1.89,1.89,0,0,0,40.68,242a1.89,1.89,0,0,0,3.16-1.41v-8.37a1.9,1.9,0,0,0,1.48-.09l2.13-1.06h7.22a1.9,1.9,0,0,0,1.89-1.89v-6.36A1.9,1.9,0,0,0,54.67,221Zm-7.38,8.82L44.76,231a.63.63,0,0,1-.73-.12l-.37-.37a.63.63,0,0,0-1.08.44v9.63a.63.63,0,0,1-1.26,0v-6.36a.63.63,0,0,0-1.26,0v6.36a.63.63,0,0,1-1.26,0V229.2a.63.63,0,0,0-1.26-.05s0,0,0,.05V233a.63.63,0,0,1-1.26.05s0,0,0-.05V229.2a1.9,1.9,0,0,1,1.89-1.9h3.79a.63.63,0,0,1,.45.19l1.88,1.88a.63.63,0,0,0,.73.12l1.71-.86a.63.63,0,0,1,.56,1.13Zm8-.56a.63.63,0,0,1-.63.63H48.79v0a1.89,1.89,0,0,0,.08-.83l3.45-1.73a.63.63,0,0,0-.57-1.13l-3.45,1.73a1.89,1.89,0,0,0-2.16-.33l-1,.52v-5.19a.63.63,0,0,1,.63-.63h8.93a.63.63,0,0,1,.63.63Z"/></g></g></g></g><g id="Group_25" data-name="Group 25"><g id="設定" class="cls-6"><g class="cls-6"><path class="cls-7" d="M75.86,773.79h3l2.46,0a.35.35,0,0,1,.22,0,.39.39,0,0,1,0,.2v1.64c0,.13,0,.21-.06.24s-.09,0-.2,0l-2.46,0h-3l-2.44,0c-.13,0-.2,0-.22-.06a.42.42,0,0,1,0-.21V774c0-.12,0-.19,0-.21a.41.41,0,0,1,.21,0Zm18.37,14.66a7.38,7.38,0,0,0-1,1.62q-.29.62-.46.62a2.64,2.64,0,0,1-.53-.16,17.07,17.07,0,0,1-4.67-2.67,17.55,17.55,0,0,1-4.69,2.79,1.45,1.45,0,0,1-.53.16c-.13,0-.29-.19-.48-.57a4.33,4.33,0,0,0-1.08-1.36q0,.57,0,1c0,.19,0,.3,0,.31s0,.19,0,.21a.39.39,0,0,1-.2,0H79c-.13,0-.2,0-.22,0a.38.38,0,0,1,0-.2v-.76H76.22v1.19c0,.13,0,.2,0,.22a.41.41,0,0,1-.21,0H74.34a.41.41,0,0,1-.25,0,.42.42,0,0,1,0-.21l.06-3.47v-1.47l-.06-2.16c0-.13,0-.2.06-.22a.47.47,0,0,1,.22,0l2.1,0h2l2.12,0c.12,0,.19,0,.21,0a.42.42,0,0,1,0,.21l0,1.76v3.57a15.7,15.7,0,0,0,5.13-2.58,14.11,14.11,0,0,1-2.72-4.78l-1,0c-.12,0-.19,0-.22-.06a.42.42,0,0,1,0-.21v-1.62c0-.15.09-.22.26-.22l2.81,0h5.36a1.41,1.41,0,0,0,.51-.09.93.93,0,0,1,.35-.11q.22,0,.86.64t.72,1a.47.47,0,0,1-.26.42A1.65,1.65,0,0,0,92,782a16.68,16.68,0,0,1-2.73,4.28A15.2,15.2,0,0,0,94.24,788.45Zm-17.76-17.8h2.09l2.08,0a.38.38,0,0,1,.24,0,.39.39,0,0,1,0,.2v1.54c0,.13,0,.2,0,.22a.47.47,0,0,1-.22,0l-2.08,0H76.48l-2.09,0c-.13,0-.2,0-.22,0a.42.42,0,0,1,0-.21v-1.54c0-.12,0-.19,0-.21a.41.41,0,0,1,.21,0Zm.09,6.43h1.82l1.93,0c.13,0,.21,0,.24,0s0,.09,0,.19v1.49c0,.12,0,.19-.06.21a.45.45,0,0,1-.22,0l-1.93,0H76.57l-2,0a.35.35,0,0,1-.22,0,.38.38,0,0,1,0-.2v-1.49c0-.16.09-.24.26-.24Zm0,3.09h1.82l1.93-.06c.13,0,.21,0,.24,0a.33.33,0,0,1,0,.21v1.47c0,.13,0,.2-.06.22a.44.44,0,0,1-.22,0l-1.93,0H76.57l-2,0a.35.35,0,0,1-.22,0,.42.42,0,0,1,0-.21v-1.47c0-.12,0-.19.06-.22a.35.35,0,0,1,.2,0Zm2.15,5H76.22v2.3h2.49Zm2.58-7.76a5.13,5.13,0,0,0,1.85-2.09,7,7,0,0,0,.54-2.92l0-1.71c0-.12,0-.19.06-.21a.45.45,0,0,1,.22,0l2,0h2.3l2.07,0c.13,0,.2,0,.22,0a.39.39,0,0,1,0,.2l0,1.86V775a1.27,1.27,0,0,0,.16.79,1,1,0,0,0,.65.13.69.69,0,0,0,.62-.33,6.84,6.84,0,0,0,.22-2.07,6.43,6.43,0,0,0,1.36.62,1.39,1.39,0,0,1,.46.21.51.51,0,0,1,.08.33s0,.13,0,.29a3.34,3.34,0,0,1-.83,2.46,3.59,3.59,0,0,1-2.34.53,4,4,0,0,1-2-.33,1.76,1.76,0,0,1-.62-1.58v-3.38H85.93a9.45,9.45,0,0,1-.71,3.72,6.73,6.73,0,0,1-1.55,2.14c-.25.25-.43.37-.55.37s-.3-.15-.55-.44A4.25,4.25,0,0,0,81.3,777.44Zm8.43,4H85.48a10.87,10.87,0,0,0,2.09,3.34A11.37,11.37,0,0,0,89.73,781.45Z"/><path class="cls-7" d="M103.33,778.66l-3.1,0a.41.41,0,0,1-.25,0,.42.42,0,0,1,0-.21v-1.68c0-.12,0-.19.06-.21a.47.47,0,0,1,.22,0l3.1,0h6.49l3.1,0a.35.35,0,0,1,.22,0,.39.39,0,0,1,0,.2v1.68a.36.36,0,0,1,0,.22.42.42,0,0,1-.21,0l-3.1,0h-2v3.05h2.81l2.64,0c.13,0,.21,0,.24,0a.31.31,0,0,1,0,.2v1.68c0,.11,0,.17,0,.19a.49.49,0,0,1-.24,0l-2.64,0h-2.81v3.93a40.16,40.16,0,0,0,4.44.2q1.74,0,4.46-.2a6.45,6.45,0,0,0-.44,1.65q-.07.55-.2.65a1.63,1.63,0,0,1-.62.13q-1.31.07-2.72.07-6.11,0-8.56-1.12a7.53,7.53,0,0,1-3.1-2.87,13.36,13.36,0,0,1-2.81,3.93c-.24.26-.41.39-.51.39s-.24-.15-.46-.44A5,5,0,0,0,96,788.91a10.76,10.76,0,0,0,4.14-7.27,14.06,14.06,0,0,0,.13-1.47q1,.15,2.19.44.44.09.44.31a.75.75,0,0,1-.21.44,2.08,2.08,0,0,0-.3.72,16.25,16.25,0,0,1-.42,1.81,8,8,0,0,0,1.47,2.12,5.49,5.49,0,0,0,2,1.17v-8.52Zm9.61-6.54,3,0c.17,0,.26.07.26.22l0,1.2v1l0,2.53c0,.12,0,.19-.06.21a.35.35,0,0,1-.2,0h-1.89c-.12,0-.19,0-.21,0a.38.38,0,0,1,0-.2v-2.79H99.29V777c0,.12,0,.19-.06.21a.45.45,0,0,1-.22,0H97.15c-.12,0-.19,0-.21,0a.38.38,0,0,1,0-.2l0-2.53v-.79l0-1.4c0-.15.08-.22.25-.22l3.07,0h4.92v-.2a10,10,0,0,0-.17-2.19q1.16,0,2.46.11c.23,0,.35.11.35.24a1.48,1.48,0,0,1-.13.44,5.51,5.51,0,0,0-.09,1.38v.22Z"/></g></g><g id="settings"><path id="Path_8" data-name="Path 8" class="cls-7" d="M57.95,776.64H55.39a1,1,0,0,1-.7-1.68l1.81-1.81a1.41,1.41,0,0,0,0-2l-2.3-2.31a1.44,1.44,0,0,0-2,0l-1.81,1.81a1,1,0,0,1-1.68-.69v-2.56A1.41,1.41,0,0,0,47.31,766H44a1.41,1.41,0,0,0-1.41,1.41V770a1,1,0,0,1-1.68.7l-1.81-1.81a1.44,1.44,0,0,0-2,0l-2.31,2.31a1.41,1.41,0,0,0,0,2L36.66,775a1,1,0,0,1-.7,1.68H33.41A1.41,1.41,0,0,0,32,778v3.26a1.41,1.41,0,0,0,1.41,1.41H36a1,1,0,0,1,.7,1.68l-1.81,1.8a1.41,1.41,0,0,0,0,2l2.31,2.31a1.44,1.44,0,0,0,2,0L41,788.69a1,1,0,0,1,1.68.7v2.56A1.41,1.41,0,0,0,44,793.36h3.26a1.41,1.41,0,0,0,1.41-1.41v-2.56a1,1,0,0,1,1.68-.7l1.81,1.81a1.44,1.44,0,0,0,2,0l2.31-2.3a1.41,1.41,0,0,0,0-2l-1.81-1.81a1,1,0,0,1,.7-1.68H58a1.41,1.41,0,0,0,1.41-1.41V778a1.41,1.41,0,0,0-1.41-1.41Zm.4,4.67a.4.4,0,0,1-.4.4H55.39A2,2,0,0,0,54,785.12l1.81,1.81a.4.4,0,0,1,0,.56l-2.31,2.31a.4.4,0,0,1-.56,0L51.11,788a2,2,0,0,0-3.41,1.41V792a.4.4,0,0,1-.4.4H44a.4.4,0,0,1-.4-.4v-2.56a2,2,0,0,0-1.23-1.84,2,2,0,0,0-.78-.16,2,2,0,0,0-1.4.59l-1.81,1.81a.4.4,0,0,1-.56,0l-2.3-2.31a.4.4,0,0,1,0-.56l1.81-1.81A2,2,0,0,0,36,781.71H33.41a.4.4,0,0,1-.4-.4V778a.4.4,0,0,1,.4-.4H36a2,2,0,0,0,1.41-3.4l-1.81-1.81a.4.4,0,0,1,0-.56l2.31-2.31a.4.4,0,0,1,.56,0l1.81,1.81A2,2,0,0,0,43.65,770v-2.56a.4.4,0,0,1,.4-.4h3.26a.4.4,0,0,1,.4.4V770a2,2,0,0,0,3.41,1.41l1.8-1.81a.4.4,0,0,1,.56,0l2.31,2.31a.4.4,0,0,1,0,.56L54,774.24a2,2,0,0,0,1.41,3.41h2.56a.4.4,0,0,1,.4.4Z"/><path id="Path_9" data-name="Path 9" class="cls-7" d="M45.68,775.12a4.56,4.56,0,1,0,4.56,4.56h0A4.56,4.56,0,0,0,45.68,775.12Zm0,8.11a3.55,3.55,0,1,1,3.55-3.55h0A3.55,3.55,0,0,1,45.68,783.22Z"/></g></g><g id="Group_24" data-name="Group 24"><g id="其他" class="cls-6"><g class="cls-6"><path class="cls-7" d="M76.23,714.53l-2.85,0q-.22,0-.22-.25v-1.62c0-.17.07-.25.22-.25l2.85,0h1.62v-8.84H77.2l-3,0c-.12,0-.19,0-.21,0a.39.39,0,0,1,0-.2v-1.59a.39.39,0,0,1,0-.24.4.4,0,0,1,.2,0l3,0h.65v-.48a16.29,16.29,0,0,0-.11-2.39q1.55.06,2.38.13c.2,0,.3.1.3.21a1.48,1.48,0,0,1-.13.44,6.49,6.49,0,0,0-.11,1.61v.48h6.57v-.48a14.93,14.93,0,0,0-.13-2.39q1.52.06,2.38.13c.2,0,.3.09.3.21a.74.74,0,0,1,0,.22c0,.1,0,.17,0,.21a5.8,5.8,0,0,0-.13,1.61v.48h.77l3,0c.12,0,.19,0,.21.06a.42.42,0,0,1,0,.21v1.59c0,.12,0,.19,0,.21a.4.4,0,0,1-.2,0l-3,0h-.77v8.84h1.77l2.82,0c.16,0,.24.08.24.25v1.62q0,.25-.24.25l-2.82,0Zm3.52.2a16.56,16.56,0,0,1,1.8,1q.33.2.33.37t-.33.33a5.39,5.39,0,0,0-.9.55,17.35,17.35,0,0,1-4.81,2.67,2,2,0,0,1-.53.13q-.18,0-.53-.53a6.33,6.33,0,0,0-1.12-1.36,17.54,17.54,0,0,0,5.1-2.28A5.51,5.51,0,0,0,79.75,714.73Zm.43-9.36h6.57v-1.71H80.18Zm0,3.54h6.57v-1.7H80.18Zm0,3.59h6.57v-1.75H80.18Zm13.2,5.27a5.25,5.25,0,0,0-1.06,1.4q-.31.55-.54.55a2.33,2.33,0,0,1-.55-.13,16.15,16.15,0,0,1-5.79-3.41c-.09-.07-.13-.13-.13-.18s.08-.16.25-.26L86.9,715a1,1,0,0,1,.3-.11.34.34,0,0,1,.2.09A16,16,0,0,0,93.37,717.78Z"/><path class="cls-7" d="M95.66,707.88a20.41,20.41,0,0,0,4.41-7.41,7.86,7.86,0,0,0,.42-1.67q1.67.46,2.18.66c.25.09.37.21.37.35a.71.71,0,0,1-.26.42,2.44,2.44,0,0,0-.49.94q-.47,1.32-1.31,3.1V716l0,3.49c0,.16-.08.24-.25.24H98.85c-.16,0-.25-.08-.25-.24l0-3.49v-5.2q0-1.77,0-2.74a21.51,21.51,0,0,1-1.45,1.84c-.18.2-.32.3-.42.3s-.23-.13-.29-.39A5.92,5.92,0,0,0,95.66,707.88Zm19,5.59a8.63,8.63,0,0,0,1.82.73,2.08,2.08,0,0,1,.48.19.34.34,0,0,1,.09.27c0,.06,0,.16,0,.3q-.25,2.67-1.27,3.4a5,5,0,0,1-2.25.74,28.35,28.35,0,0,1-3.68.18,14.57,14.57,0,0,1-4.62-.44,2.17,2.17,0,0,1-1.36-2.28v-7.36l-1.47.48-.17,0c-.07,0-.13-.08-.16-.22l-.37-1.72a1.43,1.43,0,0,1,0-.17c0-.06.07-.11.21-.16q.73-.18,2-.55v-2.76a21.09,21.09,0,0,0-.13-2.64q1.13,0,2.31.11.44.07.44.27a1.05,1.05,0,0,1-.13.44,3.64,3.64,0,0,0-.13,1.27v2.57l2.25-.71v-3.11a22.7,22.7,0,0,0-.18-3.26q1.3,0,2.41.16c.25,0,.37.11.37.25a1.49,1.49,0,0,1-.11.48,10.25,10.25,0,0,0-.17,2.56v2.2l1.82-.57q1.38-.43,2.31-.76l.48-.17.17-.06h.06q.22,0,.22.27l-.06,2.09a34.25,34.25,0,0,1-.51,6.14,1.93,1.93,0,0,1-2,1.63,10.2,10.2,0,0,1-1.06-.07q-.38,0-.45-.15a2,2,0,0,1-.15-.59,5.66,5.66,0,0,0-.46-1.49,6.44,6.44,0,0,0,1.28.15q.61,0,.76-.88a29.87,29.87,0,0,0,.26-4.19l-2.7.88v3.86l0,3.47a.37.37,0,0,1,0,.22.34.34,0,0,1-.21,0h-1.9a.39.39,0,0,1-.24,0,.42.42,0,0,1,0-.21l0-3.47v-3.1l-2.25.73v7.24a1,1,0,0,0,.71,1.13A15.88,15.88,0,0,0,110,717q3,0,3.84-.6T114.63,713.47Z"/></g></g><g id="mode-circular-button"><g id="Group_23" data-name="Group 23"><path id="Path_13" data-name="Path 13" class="cls-7" d="M46,697a12,12,0,1,0,12,12A12,12,0,0,0,46,697Zm0,23.22A11.2,11.2,0,1,1,57.23,709,11.2,11.2,0,0,1,46,720.18Z"/><circle id="Ellipse_2" data-name="Ellipse 2" class="cls-7" cx="41.64" cy="708.91" r="0.9"/><path id="Path_14" data-name="Path 14" class="cls-7" d="M46.22,708.08a.9.9,0,1,0,.9.9.9.9,0,0,0-.9-.9Z"/><circle id="Ellipse_3" data-name="Ellipse 3" class="cls-7" cx="50.79" cy="708.98" r="0.9"/></g></g></g><g id="Group_48" data-name="Group 48"><g id="info"><path id="Path_30" data-name="Path 30" class="cls-7" d="M46.24,629a12.24,12.24,0,1,0,12.24,12.24h0A12.26,12.26,0,0,0,46.24,629Zm0,23.54a11.3,11.3,0,1,1,11.3-11.3h0A11.31,11.31,0,0,1,46.24,652.54Z"/><path id="Path_31" data-name="Path 31" class="cls-7" d="M46.24,646.42a.47.47,0,0,0-.47.47h0v.94a.47.47,0,0,0,.94,0h0v-.94a.47.47,0,0,0-.47-.47Z"/><path id="Path_32" data-name="Path 32" class="cls-7" d="M46.3,633.24h-.05A3.77,3.77,0,0,0,42.48,637a.47.47,0,0,0,.94,0,2.82,2.82,0,0,1,2.82-2.83h0A2.88,2.88,0,0,1,49.07,637a2.81,2.81,0,0,1-1.3,2.42,4.49,4.49,0,0,0-2,3.82v1.34a.47.47,0,0,0,.94,0h0V643.2a3.6,3.6,0,0,1,1.57-3A3.75,3.75,0,0,0,50,637,3.79,3.79,0,0,0,46.3,633.24Z"/></g><g id="幫助" class="cls-6"><g class="cls-6"><path class="cls-7" d="M84.5,642.15h2.37l3.17,0a.35.35,0,0,1,.22,0,.42.42,0,0,1,0,.21l0,1.58v1.5l0,1.58a.19.19,0,0,1-.26.26l-3.17,0H84.5V648h4.39l3.23,0a.35.35,0,0,1,.22,0,.42.42,0,0,1,0,.21l0,.52v.15l0,1.37a1.7,1.7,0,0,1-.57,1.43,2.29,2.29,0,0,1-1,.37,14.83,14.83,0,0,1-2,.11c-.35,0-.56,0-.62-.1a1.3,1.3,0,0,1-.17-.56,3.13,3.13,0,0,0-.44-1.2q1,.09,1.82.09a.64.64,0,0,0,.47-.12.54.54,0,0,0,.1-.38v-.22H84.5v1.1l0,2c0,.13,0,.2,0,.22a.41.41,0,0,1-.21,0H82.35c-.12,0-.19,0-.21,0a.42.42,0,0,1,0-.21l0-2v-1.1H77.3v1.19l0,1c0,.12,0,.19,0,.21a.41.41,0,0,1-.21,0H75.16c-.12,0-.19,0-.21,0a.39.39,0,0,1,0-.2l0-1.31v-1l0-1.35c0-.13,0-.2,0-.22a.37.37,0,0,1,.2,0l3.25,0h3.75v-.72h-2l-3.18,0c-.12,0-.19,0-.21,0a.42.42,0,0,1,0-.21l0-1.58v-1.5l0-1.58c0-.13,0-.2,0-.22a.4.4,0,0,1,.2,0l3.18,0h2.07q.16-.37.3-.81l.07-.2q-3.09.38-7.59.71a2.67,2.67,0,0,0-.81.17,1.45,1.45,0,0,1-.42.09.3.3,0,0,1-.31-.26q-.15-.56-.33-1.76h.94q.63,0,1.29,0l1.16-.06,1,0V639h-.71l-2.58,0c-.12,0-.19,0-.21,0a.39.39,0,0,1,0-.2v-1.13c0-.12,0-.19,0-.21a.4.4,0,0,1,.2,0l2.58,0h.71v-.83H76.33l-2.83,0a.35.35,0,0,1-.22,0,.39.39,0,0,1,0-.2v-1.13c0-.12,0-.19,0-.21a.42.42,0,0,1,.21,0l2.83,0h1.24v-.88h-.64l-2.53,0a.35.35,0,0,1-.22,0,.38.38,0,0,1,0-.2v-.92c0-.13,0-.2,0-.22a.43.43,0,0,1,.21,0l2.53,0h.64a8.67,8.67,0,0,0-.16-1.33q.94,0,2.23.13.37,0,.37.25a1.07,1.07,0,0,1-.15.35,1.44,1.44,0,0,0-.11.6h.44l2.53,0a.35.35,0,0,1,.22,0,.42.42,0,0,1,0,.21V634c0,.12,0,.19-.06.21a.35.35,0,0,1-.2,0l-2.53,0h-.44v.88h1l2.83,0c.13,0,.21,0,.22.07V634c0-.13,0-.2,0-.22a.43.43,0,0,1,.21,0l2.79,0h2.5v-.07a11.46,11.46,0,0,0-.19-2.28q1.18,0,2.41.15.39,0,.39.2a1,1,0,0,1-.16.44,4.27,4.27,0,0,0-.13,1.47v.09l2.16,0a.35.35,0,0,1,.22,0,.42.42,0,0,1,0,.21v1.35c0,.13,0,.2-.06.22s-.09,0-.2,0l-2.16,0v.79l0,3.05a1.56,1.56,0,0,1-.83,1.47,7,7,0,0,1-3.16.44,1.16,1.16,0,0,1-.64-.1,1.57,1.57,0,0,1-.2-.58,4.34,4.34,0,0,0-.53-1.31q.89.09,2.16.09a.87.87,0,0,0,.69-.21.88.88,0,0,0,.15-.57v-3.05h-2.5l-2.79,0q-.21,0-.24-.07v.9c0,.12,0,.19,0,.21a.37.37,0,0,1-.2,0l-2.83,0h-1v.83h.53l2.57,0a.35.35,0,0,1,.22,0,.39.39,0,0,1,0,.2v1.13c0,.12,0,.19,0,.21a.42.42,0,0,1-.21,0l-2.57,0h-.53v.79q1.89-.16,4.13-.46l-.09.53-.09.48,1.2.13q.44.07.44.26a.41.41,0,0,1-.19.33,1.3,1.3,0,0,0-.37.48ZM79,643.44v.66h9v-.66ZM79,646h9v-.68H79ZM88,637.87a.28.28,0,0,1,.07.16c0,.05-.06.1-.17.16l-1.47.67a.43.43,0,0,1-.18.06c-.06,0-.11-.05-.16-.16a10.08,10.08,0,0,0-1.56-2,.24.24,0,0,1-.1-.16s0-.08.13-.11l1.43-.61.17,0a.35.35,0,0,1,.25.13A15.36,15.36,0,0,1,88,637.87Z"/><path class="cls-7" d="M106.23,646.08q0,.37,0,.65t0,.64c0,.19,0,.31,0,.37a.47.47,0,0,1-.15.39,2.84,2.84,0,0,1-.49.22q-3.84,1.38-7.73,2.37a3.12,3.12,0,0,0-1,.42.55.55,0,0,1-.31.16c-.16,0-.27-.09-.33-.28q-.3-1.11-.55-2.3.9-.09,1.8-.27V637l0-3.64c0-.12,0-.19,0-.21a.45.45,0,0,1,.22,0l2.3,0h2.64l2.28,0a.41.41,0,0,1,.25,0,.39.39,0,0,1,0,.2l0,3.27v9.78ZM103,635.33H99.8V638H103Zm-3.19,7.32H103V640H99.8Zm3.19,4.48v-2.46H99.8V648Q101.41,647.6,103,647.14Zm11-8.07h-2.56a25.88,25.88,0,0,1-1,6.49,15,15,0,0,1-4.6,6.85q-.4.35-.55.35t-.51-.42a4.25,4.25,0,0,0-1.54-1.09,12.26,12.26,0,0,0,4.94-6.3,22.77,22.77,0,0,0,.94-5.88l-2.57,0c-.13,0-.21,0-.24,0s0-.08,0-.18v-1.73c0-.13,0-.2.06-.22a.47.47,0,0,1,.22,0l2.66.06q0-.61,0-1.87a25.83,25.83,0,0,0-.17-3.25q1.29,0,2.43.16.35.07.35.28a2.19,2.19,0,0,1-.15.55,11.6,11.6,0,0,0-.12,2.33q0,1.19,0,1.8h1.8l2.74-.06a.25.25,0,0,1,.28.28q0,.77,0,2.18a70.06,70.06,0,0,1-.65,10.48,3,3,0,0,1-1,2,3.08,3.08,0,0,1-1.91.52q-.51,0-1.43,0c-.35,0-.56-.08-.62-.16a1.72,1.72,0,0,1-.19-.63,5.62,5.62,0,0,0-.53-1.63,17.15,17.15,0,0,0,2.26.18,1,1,0,0,0,.83-.29,2.43,2.43,0,0,0,.36-1.09A64.35,64.35,0,0,0,114,639.06Z"/></g></g></g><g id="Group_133" data-name="Group 133"><g id="Group_130" data-name="Group 130"><g id="測驗" class="cls-6"><g class="cls-6"><path class="cls-7" d="M75.53,364.66a17.92,17.92,0,0,1,3,2.26.3.3,0,0,1,.09.2.59.59,0,0,1-.13.3l-1,1.43c-.08.15-.16.22-.25.22s-.12,0-.21-.13a16.11,16.11,0,0,0-3-2.42c-.09-.06-.13-.12-.13-.18a.5.5,0,0,1,.13-.26l1-1.31c.1-.13.19-.19.25-.19A.46.46,0,0,1,75.53,364.66ZM74.1,378a9.2,9.2,0,0,0,1.13-1.82,41.78,41.78,0,0,0,2-5.22,8.56,8.56,0,0,0,1.26,1.11q.51.35.51.57a3.11,3.11,0,0,1-.11.53,39.24,39.24,0,0,1-1.93,4.94,3.57,3.57,0,0,0-.35.9q0,.33-.27.33a.87.87,0,0,1-.42-.13A13.58,13.58,0,0,1,74.1,378Zm2.28-19a17.85,17.85,0,0,1,2.9,2.32.31.31,0,0,1,.11.19.68.68,0,0,1-.16.29l-1.08,1.4c-.13.15-.21.22-.26.22s-.1,0-.18-.13a14.78,14.78,0,0,0-2.83-2.48c-.09-.07-.13-.13-.13-.18a.56.56,0,0,1,.13-.26l1.06-1.28c.1-.12.19-.18.25-.18A.4.4,0,0,1,76.38,359Zm4.78,15.46a12.86,12.86,0,0,1,1.7.94c.17.1.26.2.26.29A.32.32,0,0,1,83,376a3.22,3.22,0,0,0-.53.71,14.79,14.79,0,0,1-2.12,2.53q-.39.37-.55.37t-.42-.39a4,4,0,0,0-1.12-1.08,10.89,10.89,0,0,0,2.5-2.71A9.15,9.15,0,0,0,81.17,374.46Zm3.25-14.57,2.11,0c.13,0,.2,0,.22,0a.42.42,0,0,1,0,.21l0,3.08v7.57l0,3.08a.19.19,0,0,1-.26.26l-2.11,0H82.3l-2.11,0c-.13,0-.2,0-.22,0a.42.42,0,0,1,0-.21l0-3.08v-7.57l0-3.08c0-.13,0-.2,0-.22a.43.43,0,0,1,.21,0l2.11,0Zm.28,1.89H82V364h2.67ZM82,368.06h2.67v-2.2H82Zm2.67,4.14v-2.35H82v2.35Zm1,2.48a15.08,15.08,0,0,0,2.49,3,6.8,6.8,0,0,0-1.29,1q-.38.41-.48.42c-.07,0-.24-.15-.48-.44a29.24,29.24,0,0,1-2-2.92.38.38,0,0,1-.07-.17c0-.07.08-.15.25-.25l1.22-.71a.47.47,0,0,1,.22-.1C85.57,374.52,85.63,374.57,85.69,374.69Zm2.47-14,2.19.16q.33,0,.33.28a.79.79,0,0,1-.07.28,1.31,1.31,0,0,0-.09.25,22.08,22.08,0,0,0-.07,2.44v6.28l0,3a.37.37,0,0,1,0,.22.34.34,0,0,1-.21,0H88.54a.38.38,0,0,1-.24,0,.42.42,0,0,1,0-.21l0-3v-6.26A29.06,29.06,0,0,0,88.16,360.68Zm1.13,16.09q1,.1,2,.1.79,0,.79-.88V362.24a22.91,22.91,0,0,0-.18-3.25q1.46,0,2.35.15c.23,0,.35.1.35.25a1.14,1.14,0,0,1-.12.46,10.53,10.53,0,0,0-.13,2.35V372l0,4.58a2.67,2.67,0,0,1-.83,2.3,5.31,5.31,0,0,1-2.76.53q-.55,0-.65-.11a1.41,1.41,0,0,1-.17-.6A6.13,6.13,0,0,0,89.3,376.78Z"/><path class="cls-7" d="M98,372.21l.67.22q.31.12.31.35a21.65,21.65,0,0,1-.75,5.22q-.08.2-.15.2a.49.49,0,0,1-.27-.13l-.67-.48c-.17-.13-.26-.23-.26-.3a.54.54,0,0,1,0-.16,20.05,20.05,0,0,0,.73-4.76c0-.15.06-.22.12-.22A.79.79,0,0,1,98,372.21Zm10.24.69a16.14,16.14,0,0,1,1.86.58q.25.1.25.27a.59.59,0,0,1-.2.37,1.86,1.86,0,0,0-.35.62l-.09.24a9.92,9.92,0,0,0,1.65,1.47,12.82,12.82,0,0,0-.9,1.21c-.15.25-.27.37-.36.37s-.27-.12-.48-.37a8.12,8.12,0,0,1-.79-.92,10.61,10.61,0,0,1-1.84,2.46q-.34.37-.48.37c-.07,0-.23-.12-.46-.35a5.19,5.19,0,0,0-1-.92,2,2,0,0,1-2,1.25,7.87,7.87,0,0,1-1,0c-.2,0-.33-.07-.37-.15a2.57,2.57,0,0,1-.13-.6,7,7,0,0,0-.46-1.49,14.66,14.66,0,0,0,1.54.17.88.88,0,0,0,.92-.57,23.12,23.12,0,0,0,.55-5.53h-3.71l-2.3,0c-.12,0-.19,0-.21-.06a.46.46,0,0,1,0-.22l0-2.8V362.5l0-2.83c0-.13,0-.2,0-.22a.39.39,0,0,1,.2,0l2.3,0h3.55l1.89,0a.19.19,0,0,1,.27.25v1.48c0,.11,0,.17,0,.19a.45.45,0,0,1-.22,0l-1.89,0h-.42v1.56l1.7,0a.35.35,0,0,1,.22,0,.42.42,0,0,1,0,.21v1.2a12.32,12.32,0,0,0,4.63-4.29,7.32,7.32,0,0,0,.64-1.36,16.54,16.54,0,0,1,2,.3q.35.09.35.28c0,.08-.09.18-.28.29a13,13,0,0,0,5.77,4.54,6.19,6.19,0,0,0-.71,1.43q-.22.57-.37.57a1.72,1.72,0,0,1-.55-.2,16.8,16.8,0,0,1-2.21-1.49v1.28c0,.16-.08.24-.25.24l-1.77,0h-1.65l-1.8,0c-.17,0-.26-.08-.26-.24v-1.17a15.56,15.56,0,0,1-2,1.47,1.55,1.55,0,0,1-.51.26q-.16,0-.44-.55a6.22,6.22,0,0,0-.64-1,.75.75,0,0,1-.21,0h-.51l-1.17,0v1.52l1.7,0a.35.35,0,0,1,.22,0,.42.42,0,0,1,0,.21v1.3c0,.13,0,.2,0,.22a.42.42,0,0,1-.21,0h-.52l-1.18,0v1.7h.31l1.89,0c.19,0,.28.1.28.3s-.05.76-.09,1.61q-.12,3-.28,4.32a11.8,11.8,0,0,1-.51,2.41,9.25,9.25,0,0,0,2.83-4A5.52,5.52,0,0,0,108.27,372.89Zm-8.15-.57.2,0c.07,0,.11.06.12.19a33.91,33.91,0,0,1,.44,4.17.4.4,0,0,1-.28.37l-.62.22a.69.69,0,0,1-.22.08c-.05,0-.08-.06-.08-.18a35.09,35.09,0,0,0-.27-4.38.62.62,0,0,1,0-.12c0-.08.08-.13.25-.18Zm-.29-9.43h1.8v-1.56h-1.8Zm0,3.22h1.8v-1.52h-1.8Zm0,3.42h1.8v-1.7h-1.8Zm1.72,2.63a.61.61,0,0,1,.19-.06c.06,0,.1.06.13.19a28.79,28.79,0,0,1,.55,3.36.94.94,0,0,1,0,.11.3.3,0,0,1-.21.28l-.44.2a.74.74,0,0,1-.21.08s-.07-.06-.09-.17a25,25,0,0,0-.53-3.54,1.18,1.18,0,0,1,0-.16c0-.05.06-.1.19-.15Zm1.29-.24.17,0s.08,0,.11.13a15.25,15.25,0,0,1,.69,2.49.94.94,0,0,1,0,.11c0,.08-.06.16-.19.22l-.42.21a.34.34,0,0,1-.15,0c-.07,0-.11-.06-.12-.18a12.89,12.89,0,0,0-.6-2.54.43.43,0,0,1,0-.15s.06-.09.17-.15Zm7-4.78,1.52,0c.13,0,.2,0,.22.06a.45.45,0,0,1,0,.22L111.5,369v1.71l.06,1.66a.32.32,0,0,1,0,.19.42.42,0,0,1-.22,0l-1.52,0h-1.34l-1.54,0a.42.42,0,0,1-.22,0,.32.32,0,0,1,0-.19l0-1.66V369l0-1.61a.41.41,0,0,1,0-.25.42.42,0,0,1,.21,0l1.54,0Zm-1.43,1.57V371h1.52v-2.27Zm1.21-4.74q.26,0,1.5,0h1.65l1.54,0a15.15,15.15,0,0,1-2.5-2.74A13.47,13.47,0,0,1,109.57,364Zm4.1,8.94a16.93,16.93,0,0,1,1.86.51c.16.08.25.17.25.28a.72.72,0,0,1-.18.35,2.14,2.14,0,0,0-.33.64l-.09.26a9.23,9.23,0,0,0,3.22,2.66,8.35,8.35,0,0,0-.94,1.4c-.16.28-.29.42-.37.42a1.34,1.34,0,0,1-.46-.3,15.77,15.77,0,0,1-2.28-2.35,11.53,11.53,0,0,1-1.72,2.44c-.23.23-.39.35-.48.35s-.22-.12-.46-.37a5.29,5.29,0,0,0-1.07-.93,8.32,8.32,0,0,0,2.79-4.12A6.61,6.61,0,0,0,113.67,372.91Zm1.82-5.77,1.56,0c.13,0,.2,0,.22.06a.45.45,0,0,1,0,.22l0,1.61v1.73l0,1.66a.32.32,0,0,1,0,.19.42.42,0,0,1-.22,0l-1.56,0H114.2l-1.56,0a.49.49,0,0,1-.25,0,.32.32,0,0,1,0-.19l.06-1.66V369l-.06-1.63c0-.13,0-.22.06-.25a.45.45,0,0,1,.22,0l1.56,0ZM114,368.71V371h1.54v-2.27Z"/></g></g></g><g id="exam" class="cls-8"><g id="Group_132" data-name="Group 132"><g id="Group_131" data-name="Group 131"><path id="Path_409" data-name="Path 409" class="cls-7" d="M53.74,363.47v-.05a0,0,0,0,0,0,0s0,0,0,0l0,0h0v0h0L50,358.5h0l0,0h0l0,0h0l0,0h0l0,0H37.41a.41.41,0,0,0-.41.41v19.11a.41.41,0,0,0,.41.41H53.33a.41.41,0,0,0,.41-.41V363.5h0Zm-1.23-.34H50.07V360Zm.42,14.32H37.82V359.16H49.25v4.39a.41.41,0,0,0,.41.41h3.26Z"/><path id="Path_410" data-name="Path 410" class="cls-7" d="M39.54,365.81a.41.41,0,0,0,.41.41H50.82a.41.41,0,1,0,0-.82H40A.41.41,0,0,0,39.54,365.81Z"/><path id="Path_411" data-name="Path 411" class="cls-7" d="M40,363.73h7.1a.41.41,0,1,0,0-.82H40a.41.41,0,0,0,0,.82Z"/><path id="Path_412" data-name="Path 412" class="cls-7" d="M40,368.71H50.82a.41.41,0,1,0,0-.82H40a.41.41,0,0,0,0,.82Z"/><path id="Path_413" data-name="Path 413" class="cls-7" d="M47.05,371.2a.41.41,0,1,0,0-.82H40a.41.41,0,1,0,0,.82Z"/><path id="Path_414" data-name="Path 414" class="cls-7" d="M50.55,371.72l-3.44,3-1-1.33a.41.41,0,0,0-.65.49h0l1.26,1.68a.4.4,0,0,0,.29.16h0a.4.4,0,0,0,.27-.11l3.77-3.33a.41.41,0,1,0-.52-.63l0,0Z"/></g></g></g></g></g></g></svg>