<?xml version="1.0" encoding="utf-8"?>
<!-- Generator: Adobe Illustrator 16.0.0, SVG Export Plug-In . SVG Version: 6.00 Build 0)  -->
<!DOCTYPE svg PUBLIC "-//W3C//DTD SVG 1.1//EN" "http://www.w3.org/Graphics/SVG/1.1/DTD/svg11.dtd">
<svg version="1.1" id="圖層_1" xmlns="http://www.w3.org/2000/svg" xmlns:xlink="http://www.w3.org/1999/xlink" x="0px" y="0px"
	 width="1920px" height="1080px" viewBox="0 0 1920 1080" enable-background="new 0 0 1920 1080" xml:space="preserve">
<image overflow="visible" width="846" height="572" xlink:href="preview.png"  transform="matrix(1.3806 0 0 1.3806 376 210.5459)">
</image>
<g>
	<g>
		<path d="M1592.114,431.424c-1.419,2.365-3.054,4.558-4.645,6.149c-0.645-0.688-1.978-2.021-2.795-2.666
			c2.709-2.451,5.16-6.106,6.579-9.804l3.569,0.989c-0.302,0.774-0.646,1.505-0.989,2.279h10.836v3.053h-7.654
			c1.204,0.946,2.494,2.193,3.182,2.967l-2.536,2.322c-0.817-1.032-2.408-2.623-3.698-3.741l1.849-1.548H1592.114z
			 M1590.824,451.763h10.836v12.169h-3.698v-1.548h-7.138v2.408h-3.741v-26.187h3.526c0.602-1.204,1.203-2.623,1.591-3.655
			l4.085,0.774c-0.56,1.032-1.032,1.978-1.548,2.881h6.234v10.277h-10.147V451.763z M1597.23,441.787h-6.406v3.956h6.406V441.787z
			 M1590.824,454.901v4.3h7.138v-4.3H1590.824z M1602.648,437.057h21.156v3.354h-8.858v3.225h7.654v13.373
			c0,1.677-0.258,2.709-1.333,3.268c-1.118,0.602-2.666,0.602-4.773,0.602c-0.086-0.989-0.516-2.408-0.945-3.397
			c1.29,0.043,2.321,0.043,2.752,0.043c0.43,0,0.516-0.129,0.516-0.516V446.99h-3.87v17.888h-3.697V446.99h-3.956v14.018h-3.569
			v-17.372h7.525v-3.225h-8.601V437.057z M1624.105,428.371v3.053h-7.611c1.161,1.032,2.408,2.322,3.054,3.182l-2.709,2.365
			c-0.731-1.118-2.279-2.838-3.526-4.085l1.849-1.462h-4.729c-0.989,1.72-2.236,3.225-3.44,4.429
			c-0.645-0.645-2.149-1.806-3.01-2.365c2.322-2.021,4.3-5.203,5.375-8.385l3.655,0.86c-0.258,0.817-0.603,1.591-0.903,2.408
			H1624.105z"/>
		<path d="M1638.597,446.044c-0.688,3.698-1.806,7.481-3.354,10.621c0.859,0.473,1.763,1.204,3.354,2.15
			c2.924,1.806,6.88,2.064,11.911,2.064c5.246,0,12.513-0.387,17.242-0.989c-0.473,1.075-1.117,3.053-1.16,4.128
			c-3.312,0.215-11.224,0.473-16.254,0.473c-5.676,0-9.331-0.473-12.427-2.279c-1.764-0.989-3.312-2.494-4.257-2.494
			c-0.946,0-2.451,2.795-3.569,5.418l-2.752-3.698c1.161-1.505,2.279-2.795,3.354-3.741l-0.043-0.043
			c1.678-2.365,3.011-5.762,3.784-9.03h-5.418c1.075-2.537,2.322-6.02,3.397-9.374h-4.3v-3.612h9.287
			c-0.945,3.053-2.149,6.579-3.225,9.546h1.505l0.602-0.129L1638.597,446.044z M1633.05,433.961c-0.602-1.935-1.763-5.031-2.58-7.31
			l3.612-0.989c0.859,2.279,2.063,5.246,2.666,7.095L1633.05,433.961z M1651.066,453.999c-2.235,2.107-5.719,4.171-8.6,5.547
			c-0.688-0.731-2.064-1.892-2.967-2.451c2.967-1.075,6.02-2.623,7.955-4.214h-8.644v-3.053h7.138v-3.397h-5.504v-3.01h5.504v-2.709
			h3.655v2.709h5.978v-2.709h3.697v2.709h5.633v3.01h-5.633v3.397h7.396v3.053h-9.245c3.01,1.419,6.277,3.311,8.17,4.773
			l-3.483,1.72c-1.763-1.462-4.815-3.44-7.653-4.902l2.235-1.591h-8.9L1651.066,453.999z M1651.453,436.154
			c-0.301,0.903-0.559,2.193-0.688,2.881c-8.428,1.419-9.761,1.72-10.492,2.107c-0.215-0.817-0.859-2.322-1.333-3.01
			c0.56-0.301,1.204-0.989,1.204-2.58v-8.557h11.696v7.654h-8.514v2.709L1651.453,436.154z M1643.327,429.575v2.451h5.159v-2.451
			H1643.327z M1649.604,449.828h5.978v-3.397h-5.978V449.828z M1657.774,440.024c-3.311,0-4.128-1.247-4.128-4.429v-8.557h11.868
			v7.654h-8.644v0.946c0,1.161,0.13,1.591,1.118,1.591h4.988c0.816,0,2.149-0.086,2.795-0.258c0.086,0.86,0.172,2.064,0.301,2.795
			c-0.602,0.215-1.806,0.258-2.967,0.258H1657.774z M1656.871,429.618v2.451h5.203v-2.451H1656.871z"/>
		<path d="M1698.969,446.646c3.139,2.365,7.396,4.3,11.609,5.289c-0.859,0.731-1.978,2.236-2.494,3.182
			c-0.688-0.215-1.29-0.43-1.978-0.645v10.191h-3.827v-0.903h-6.536v1.118h-3.654v-13.244h8.041
			c-2.365-1.419-4.516-3.139-6.235-4.988h-7.783c-1.677,1.763-3.697,3.483-6.02,4.988h8.471v13.029h-3.827v-0.903h-6.063v1.118
			h-3.655v-10.492c-0.773,0.387-1.548,0.731-2.407,1.075c-0.431-0.946-1.419-2.408-2.15-3.096c4.214-1.548,7.611-3.526,10.32-5.719
			h-9.46v-3.526h13.028c1.032-1.29,1.936-2.623,2.58-3.913h-12.728v-11.911h13.932v11.395l3.096,0.602
			c-0.602,1.29-1.376,2.58-2.192,3.827h10.534c-1.333-0.86-3.053-1.677-4.558-2.236l1.763-1.677h-4.515v-11.911h14.447v11.911
			h-8.557c1.979,0.817,4.128,1.892,5.332,2.881l-1.075,1.032h7.311v3.526H1698.969z M1684.349,430.693h-6.579v5.117h6.579V430.693z
			 M1684.735,455.117h-6.063v5.203h6.063V455.117z M1702.279,460.319v-5.203h-6.536v5.203H1702.279z M1695.916,435.81h6.966v-5.117
			h-6.966V435.81z"/>
		<path d="M1719.136,435.079c0-2.107,1.634-3.612,3.612-3.612c1.978,0,3.611,1.505,3.611,3.612c0,2.107-1.634,3.569-3.611,3.569
			C1720.77,438.648,1719.136,437.186,1719.136,435.079z M1719.136,455.934c0-2.15,1.634-3.612,3.612-3.612
			c1.978,0,3.611,1.462,3.611,3.612c0,2.064-1.634,3.526-3.611,3.526C1720.77,459.459,1719.136,457.998,1719.136,455.934z"/>
		<path d="M1623.633,484.013h-5.117v27.175c0,2.58-0.646,3.913-2.451,4.515c-1.849,0.731-4.859,0.774-9.159,0.774
			c-0.215-1.161-1.031-3.139-1.677-4.3c3.269,0.172,6.837,0.129,7.869,0.129c0.946-0.043,1.247-0.301,1.247-1.204v-27.089h-28.896
			v-3.999h38.184V484.013z M1593.533,505.813v3.354h-3.87v-19.521h17.716v16.167H1593.533z M1593.533,493.43v8.6h9.89v-8.6H1593.533
			z"/>
		<path d="M1638.597,497.644c-0.688,3.698-1.806,7.482-3.354,10.621c0.859,0.473,1.763,1.204,3.354,2.15
			c2.924,1.806,6.88,2.064,11.911,2.064c5.246,0,12.513-0.387,17.242-0.989c-0.473,1.075-1.117,3.053-1.16,4.128
			c-3.312,0.215-11.224,0.473-16.254,0.473c-5.676,0-9.331-0.473-12.427-2.279c-1.764-0.989-3.312-2.494-4.257-2.494
			c-0.946,0-2.451,2.795-3.569,5.418l-2.752-3.698c1.161-1.505,2.279-2.795,3.354-3.741l-0.043-0.043
			c1.678-2.365,3.011-5.762,3.784-9.03h-5.418c1.075-2.537,2.322-6.02,3.397-9.374h-4.3v-3.612h9.287
			c-0.945,3.053-2.149,6.579-3.225,9.546h1.505l0.602-0.129L1638.597,497.644z M1633.05,485.561c-0.602-1.935-1.763-5.031-2.58-7.31
			l3.612-0.989c0.859,2.279,2.063,5.246,2.666,7.095L1633.05,485.561z M1651.066,505.599c-2.235,2.107-5.719,4.171-8.6,5.547
			c-0.688-0.731-2.064-1.892-2.967-2.451c2.967-1.075,6.02-2.623,7.955-4.214h-8.644v-3.053h7.138v-3.397h-5.504v-3.01h5.504v-2.709
			h3.655v2.709h5.978v-2.709h3.697v2.709h5.633v3.01h-5.633v3.397h7.396v3.053h-9.245c3.01,1.419,6.277,3.311,8.17,4.773
			l-3.483,1.72c-1.763-1.462-4.815-3.44-7.653-4.902l2.235-1.591h-8.9L1651.066,505.599z M1651.453,487.754
			c-0.301,0.903-0.559,2.193-0.688,2.881c-8.428,1.419-9.761,1.72-10.492,2.107c-0.215-0.817-0.859-2.322-1.333-3.01
			c0.56-0.301,1.204-0.989,1.204-2.58v-8.557h11.696v7.654h-8.514v2.709L1651.453,487.754z M1643.327,481.175v2.451h5.159v-2.451
			H1643.327z M1649.604,501.428h5.978v-3.397h-5.978V501.428z M1657.774,491.624c-3.311,0-4.128-1.247-4.128-4.429v-8.557h11.868
			v7.654h-8.644v0.946c0,1.161,0.13,1.591,1.118,1.591h4.988c0.816,0,2.149-0.086,2.795-0.258c0.086,0.86,0.172,2.064,0.301,2.795
			c-0.602,0.215-1.806,0.258-2.967,0.258H1657.774z M1656.871,481.218v2.451h5.203v-2.451H1656.871z"/>
		<path d="M1683.747,498.719c-1.376,0.473-2.795,0.903-4.171,1.333v11.911c0,1.978-0.388,3.096-1.548,3.655
			c-1.161,0.688-2.839,0.774-5.591,0.774c-0.086-0.946-0.559-2.666-1.074-3.698c1.72,0.086,3.311,0.043,3.783,0.043
			c0.56-0.043,0.774-0.172,0.774-0.774v-10.707l-4.429,1.376l-0.946-3.87c1.505-0.387,3.354-0.946,5.375-1.548v-8.084h-4.858v-3.698
			h4.858v-8.299h3.655v8.299h4.085v3.698h-4.085v7.052l3.654-1.118L1683.747,498.719z M1709.934,510.931h-11.223v5.59h-3.741v-5.59
			h-11.309v-3.01h11.309v-2.623h-9.804v-3.053h5.16c-0.302-0.946-0.688-2.15-1.161-3.053l2.709-0.602h-7.568v-3.139h10.664v-2.537
			h-8.858v-2.924h8.858v-2.15h-9.374v-9.288h23.22v9.288h-10.104v2.15h9.33v2.924h-9.33v2.537h10.663v3.139h-6.708l2.709,0.688
			c-0.559,1.032-1.117,2.064-1.677,2.967h4.688v3.053h-9.675v2.623h11.223V510.931z M1692.132,481.347h-3.354v3.698h3.354V481.347z
			 M1692.519,498.59c0.603,1.161,1.204,2.709,1.462,3.655h6.063c0.559-1.161,1.16-2.58,1.548-3.655H1692.519z M1695.271,485.045
			h3.526v-3.698h-3.526V485.045z M1701.936,485.045h3.612v-3.698h-3.612V485.045z"/>
		<path d="M1740.636,483.497c0,0.301,0,0.645-0.086,1.032c2.321,2.365,6.923,3.827,12.599,4.171
			c-0.774,0.817-1.763,2.236-2.15,3.268c-4.901-0.688-8.814-2.236-11.523-4.73c-1.548,1.978-4.945,3.827-12.341,4.859
			c-0.387-0.903-1.29-2.236-2.021-2.967h-10.922v-3.139h12.47v2.838c9.33-1.204,10.319-3.612,10.319-5.461v-0.559h-3.568
			c-0.946,1.548-2.021,2.924-3.14,3.999c-0.645-0.559-2.106-1.591-3.01-2.021c2.236-1.935,3.999-4.902,4.945-7.912l3.568,0.774
			c-0.258,0.731-0.516,1.419-0.816,2.15h13.415l0.56-0.172l2.752,0.903c-1.075,2.279-2.537,4.773-3.741,6.364l-3.139-1.118
			c0.559-0.774,1.204-1.892,1.806-2.967h-5.977V483.497z M1740.292,509.555c4.429,1.462,9.201,3.268,12.125,4.687l-3.611,2.193
			c-2.623-1.419-7.138-3.354-11.567-4.859l2.494-2.021h-12.856l3.568,1.634c-3.482,2.107-8.857,4.171-13.157,5.375
			c-0.688-0.817-2.107-2.279-2.967-3.01c4.386-0.86,9.417-2.322,12.384-3.999h-6.923v-17.286h28.035v17.286H1740.292z
			 M1725.629,482.422h-10.535v-3.01h10.535V482.422z M1723.65,497.257h20.167v-2.451h-20.167V497.257z M1723.65,502.073h20.167
			v-2.408h-20.167V502.073z M1723.65,507.018h20.167v-2.494h-20.167V507.018z"/>
		<path d="M1763.727,496.268c-1.591-1.204-4.772-3.182-7.095-4.515l2.322-2.881c2.235,1.204,5.461,3.01,7.181,4.171
			L1763.727,496.268z M1766.866,502.245c-1.678,4.472-3.87,9.632-5.849,13.674l-3.611-2.15c1.806-3.354,4.386-8.858,6.277-13.76
			L1766.866,502.245z M1765.748,485.002c-1.591-1.247-4.773-3.268-7.052-4.73l2.364-2.795c2.193,1.247,5.461,3.139,7.139,4.343
			L1765.748,485.002z M1773.358,490.936c0,7.482-0.773,18.36-5.805,25.456c-0.688-0.645-2.408-1.677-3.354-2.107
			c4.815-6.708,5.245-16.383,5.245-23.349v-11.739h26.316v3.612h-22.403V490.936z M1780.152,505.298
			c-1.376,3.096-3.439,6.579-5.203,8.729c-0.73-0.516-2.278-1.462-3.182-1.935c1.85-2.021,3.698-5.031,4.816-7.783L1780.152,505.298
			z M1786.474,502.202v10.363c0,1.806-0.301,2.795-1.591,3.311c-1.247,0.602-3.14,0.645-5.935,0.602
			c-0.129-0.989-0.645-2.451-1.031-3.44c1.806,0.086,3.568,0.043,4.085,0.043c0.516,0,0.688-0.172,0.688-0.645v-10.234h-7.267
			v-15.05h6.148c0.431-1.333,0.903-2.924,1.161-4.085l4.472,0.817c-0.559,1.161-1.16,2.236-1.677,3.268h8.815v15.05H1786.474z
			 M1778.991,493.258h11.61v-3.096h-11.61V493.258z M1778.991,499.235h11.61v-3.139h-11.61V499.235z M1792.063,503.922
			c1.591,2.58,3.612,6.063,4.558,8.17l-3.654,1.591c-0.903-2.15-2.795-5.762-4.344-8.471L1792.063,503.922z"/>
		<path d="M1807.114,491.495c-1.118,2.838-3.226,5.934-5.375,7.568c-0.56-0.817-1.591-1.978-2.365-2.537
			c2.063-1.247,4.171-3.698,5.289-5.934L1807.114,491.495z M1815.843,514.671c-1.462-1.29-4.042-3.182-6.407-4.773
			c-1.333,2.365-3.697,4.601-7.868,6.364c-0.388-0.86-1.376-2.193-2.064-2.924c5.461-2.279,7.267-5.203,7.869-8.083h-7.181v-3.311
			h7.396v-3.741h3.483v3.741h3.998c-0.645-0.946-1.634-2.021-2.493-2.924l2.235-1.462c1.118,0.989,2.408,2.451,3.01,3.397
			l-1.376,0.989h2.451v3.311h-7.998c-0.043,0.516-0.129,1.075-0.258,1.548c2.537,1.591,5.719,3.698,7.396,5.074L1815.843,514.671z
			 M1807.845,489.517h-7.61v-3.225h7.61v-9.03h3.483v9.03h7.267v3.225h-7.267v7.826h-3.483V489.517z M1803.287,484.873
			c-0.301-1.462-1.247-3.569-2.279-5.203l2.752-1.075c1.075,1.591,2.107,3.698,2.451,5.074L1803.287,484.873z M1813.649,490.807
			c1.118,0.688,4.73,3.526,5.633,4.343l-2.235,2.58c-1.075-1.376-4.128-4.3-5.418-5.418L1813.649,490.807z M1818.208,479.67
			c-1.032,1.935-2.064,3.956-2.924,5.332l-2.666-0.903c0.816-1.462,1.763-3.827,2.235-5.375L1818.208,479.67z M1828.184,510.845
			c-1.979,2.193-5.289,4.558-8.041,5.848c-0.645-0.731-1.763-1.935-2.623-2.58c2.752-1.247,5.762-3.483,7.267-5.289
			L1828.184,510.845z M1825.646,485.905c0.301-1.118,0.559-2.408,0.774-3.526h-7.354v-3.44h19.909v3.44h-8.256
			c-0.431,1.204-0.86,2.451-1.29,3.526h8.041v22.36h-16.899v-22.36H1825.646z M1833.688,488.958h-9.503v3.44h9.503V488.958z
			 M1833.688,495.279h-9.503v3.483h9.503V495.279z M1833.688,501.643h-9.503v3.526h9.503V501.643z M1832.612,508.91
			c2.408,1.591,5.547,3.87,7.181,5.504l-3.053,2.193c-1.462-1.634-4.601-4.042-7.052-5.719L1832.612,508.91z"/>
		<path d="M1881.719,511.36v3.698h-38.441v-3.698h17.285v-4.558h-12.899v-3.655h12.899v-3.354h-3.225v-8.729h-4.816
			c-0.602,3.612-2.278,7.31-6.578,9.804c-0.517-0.731-1.893-2.236-2.623-2.795c3.482-1.978,4.858-4.472,5.418-7.009h-4.859v-3.569
			h5.203v-5.246h-3.741v-3.526h19.264v3.526h-3.525v5.246h4.472v3.569h-4.472v7.955h3.611v4.128h12.642v3.655h-12.642v4.558
			H1881.719z M1857.338,487.496v-5.246h-4.558v5.246H1857.338z M1871.484,493.86h-3.654v-14.319h3.654V493.86z M1879.482,496.096
			c0,2.021-0.387,3.01-1.806,3.612c-1.376,0.559-3.483,0.645-6.536,0.645c-0.172-1.032-0.688-2.623-1.204-3.612
			c2.193,0.086,4.3,0.086,4.902,0.043c0.688,0,0.859-0.172,0.859-0.731v-18.619h3.784V496.096z"/>
	</g>
</g>
<g>
	<path d="M639.875,107.159c-3.741,2.193-9.503,4.472-14.061,5.719c-0.646-0.86-1.85-2.236-2.752-3.053
		c4.515-1.204,10.319-3.483,13.286-5.332L639.875,107.159z M639.444,82.52c0.259-1.032,0.517-2.193,0.688-3.311H624.61v-3.655
		h35.603v3.655h-15.479c-0.344,1.161-0.73,2.279-1.075,3.311h13.416v21.887h-28.552V82.52H639.444z M652.731,85.659h-20.038v3.225
		h20.038V85.659z M652.731,91.808h-20.038v3.268h20.038V91.808z M652.731,98h-20.038v3.311h20.038V98z M648.088,104.708
		c4.944,1.634,10.448,3.87,13.76,5.504l-3.87,2.709c-2.924-1.634-7.955-3.913-12.771-5.59L648.088,104.708z"/>
	<path d="M672.898,78.779c-1.332,1.72-2.795,3.225-4.257,4.429c-0.516-0.688-1.892-2.064-2.666-2.709
		c2.494-1.849,4.902-4.601,6.321-7.439l3.526,1.118c-0.345,0.688-0.731,1.29-1.118,1.978h10.448v2.623h-6.664
		c1.16,0.946,2.536,2.193,3.225,3.053l-3.182,1.677c-0.688-0.989-2.236-2.537-3.483-3.612l2.236-1.118H672.898z M703.084,94.775
		c-1.246,4.084-3.096,7.697-5.59,10.792c0.989,2.236,2.107,3.483,3.354,3.483c0.816,0,1.161-0.989,1.333-3.913
		c0.816,0.774,1.978,1.419,2.881,1.763c-0.56,4.515-1.677,5.719-4.472,5.719c-2.322,0-4.171-1.548-5.634-4.214
		c-1.892,1.806-4.041,3.354-6.449,4.73c-0.474-0.731-1.591-1.978-2.322-2.537l0.646-0.387c-7.225,0.645-14.577,1.118-19.995,1.462
		l-0.473-3.01c2.021-0.086,4.515-0.215,7.224-0.344v-2.279h-6.063v-2.322h6.063v-2.064h-5.16v-2.193h5.16v-1.935h-5.504v-2.279
		h5.504v-2.193h-7.396v-2.924h3.268c-0.516-0.602-1.376-1.505-1.978-1.978c2.795-1.247,4.729-3.268,5.417-5.977l3.097,0.43
		c-0.172,0.688-0.431,1.376-0.731,2.021c1.333,1.118,2.838,2.494,3.612,3.569c2.365-1.247,3.87-3.225,4.472-5.719l3.096,0.344
		c-0.172,0.731-0.387,1.419-0.645,2.064c1.419,1.161,3.053,2.623,3.827,3.741l-2.064,1.505h3.312
		c-0.173-2.279-0.259-4.687-0.302-7.181h3.741c0,2.494,0.086,4.902,0.215,7.181h10.277v2.924h-10.063
		c0.345,3.311,0.86,6.235,1.462,8.643c1.635-2.365,2.838-5.031,3.655-7.826L703.084,94.775z M676.425,90.088
		c-0.516-0.86-1.591-2.021-2.666-3.053c-1.075,1.247-2.322,2.279-3.741,3.096h10.535c-0.516-0.602-1.29-1.333-1.849-1.763
		L676.425,90.088z M676.812,108.147l3.44-0.172V93.055h-3.44V108.147z M687.003,90.131c-0.646-0.817-1.634-1.806-2.58-2.752
		c-0.817,1.075-1.763,1.978-2.881,2.752H687.003z M689.109,108.835c1.634-1.118,3.096-2.365,4.386-3.741
		c-1.117-3.225-1.892-7.353-2.364-12.04h-7.654v2.193h5.59v2.236h-5.59v1.935h5.246v2.193h-5.246v1.935h5.891v2.322h-5.891v1.892
		l5.676-0.301L689.109,108.835z M691.131,78.779c-1.118,1.634-2.408,3.053-3.698,4.214c-0.645-0.688-2.15-1.849-3.01-2.408
		c2.365-1.849,4.429-4.601,5.547-7.482l3.655,0.946c-0.259,0.731-0.56,1.419-0.946,2.107h12.298v2.623h-8.17
		c0.946,0.86,2.106,1.935,2.666,2.752l-3.269,1.591c-0.559-0.86-1.677-2.15-2.666-3.053l2.839-1.29H691.131z M699.042,82.993
		c1.549,1.376,3.312,3.354,4.171,4.73l-2.967,1.677c-0.73-1.376-2.493-3.483-3.956-4.945L699.042,82.993z"/>
	<path d="M714.136,83.079c0-2.107,1.634-3.612,3.612-3.612c1.978,0,3.611,1.505,3.611,3.612c0,2.107-1.634,3.569-3.611,3.569
		C715.77,86.648,714.136,85.186,714.136,83.079z M714.136,103.934c0-2.15,1.634-3.612,3.612-3.612c1.978,0,3.611,1.462,3.611,3.612
		c0,2.064-1.634,3.526-3.611,3.526C715.77,107.459,714.136,105.998,714.136,103.934z"/>
	<path d="M661.633,132.013h-5.117v27.175c0,2.58-0.646,3.913-2.451,4.515c-1.849,0.731-4.859,0.774-9.159,0.774
		c-0.215-1.161-1.031-3.139-1.677-4.3c3.269,0.172,6.837,0.129,7.869,0.129c0.946-0.043,1.247-0.301,1.247-1.204v-27.089h-28.896
		v-3.999h38.184V132.013z M631.533,153.813v3.354h-3.87v-19.521h17.716v16.167H631.533z M631.533,141.43v8.6h9.89v-8.6H631.533z"/>
	<path d="M676.597,145.644c-0.688,3.698-1.806,7.482-3.354,10.621c0.859,0.473,1.763,1.204,3.354,2.15
		c2.924,1.806,6.88,2.064,11.911,2.064c5.246,0,12.513-0.387,17.242-0.989c-0.473,1.075-1.117,3.053-1.16,4.128
		c-3.312,0.215-11.224,0.473-16.254,0.473c-5.676,0-9.331-0.473-12.427-2.279c-1.764-0.989-3.312-2.494-4.257-2.494
		c-0.946,0-2.451,2.795-3.569,5.418l-2.752-3.698c1.161-1.505,2.279-2.795,3.354-3.741l-0.043-0.043
		c1.678-2.365,3.011-5.762,3.784-9.03h-5.418c1.075-2.537,2.322-6.02,3.397-9.374h-4.3v-3.612h9.287
		c-0.945,3.053-2.149,6.579-3.225,9.546h1.505l0.602-0.129L676.597,145.644z M671.05,133.561c-0.602-1.935-1.763-5.031-2.58-7.31
		l3.612-0.989c0.859,2.279,2.063,5.246,2.666,7.095L671.05,133.561z M689.066,153.599c-2.235,2.107-5.719,4.171-8.6,5.547
		c-0.688-0.731-2.064-1.892-2.967-2.451c2.967-1.075,6.02-2.623,7.955-4.214h-8.644v-3.053h7.138v-3.397h-5.504v-3.01h5.504v-2.709
		h3.655v2.709h5.978v-2.709h3.697v2.709h5.633v3.01h-5.633v3.397h7.396v3.053h-9.245c3.01,1.419,6.277,3.311,8.17,4.773l-3.483,1.72
		c-1.763-1.462-4.815-3.44-7.653-4.902l2.235-1.591h-8.9L689.066,153.599z M689.453,135.754c-0.301,0.903-0.559,2.193-0.688,2.881
		c-8.428,1.419-9.761,1.72-10.492,2.107c-0.215-0.817-0.859-2.322-1.333-3.01c0.56-0.301,1.204-0.989,1.204-2.58v-8.557h11.696
		v7.654h-8.514v2.709L689.453,135.754z M681.327,129.175v2.451h5.159v-2.451H681.327z M687.604,149.428h5.978v-3.397h-5.978V149.428
		z M695.774,139.624c-3.311,0-4.128-1.247-4.128-4.429v-8.557h11.868v7.654h-8.644v0.946c0,1.161,0.13,1.591,1.118,1.591h4.988
		c0.816,0,2.149-0.086,2.795-0.258c0.086,0.86,0.172,2.064,0.301,2.795c-0.602,0.215-1.806,0.258-2.967,0.258H695.774z
		 M694.871,129.218v2.451h5.203v-2.451H694.871z"/>
	<path d="M721.747,146.719c-1.376,0.473-2.795,0.903-4.171,1.333v11.911c0,1.978-0.388,3.096-1.548,3.655
		c-1.161,0.688-2.839,0.774-5.591,0.774c-0.086-0.946-0.559-2.666-1.074-3.698c1.72,0.086,3.311,0.043,3.783,0.043
		c0.56-0.043,0.774-0.172,0.774-0.774v-10.707l-4.429,1.376l-0.946-3.87c1.505-0.387,3.354-0.946,5.375-1.548v-8.084h-4.858v-3.698
		h4.858v-8.299h3.655v8.299h4.085v3.698h-4.085v7.052l3.654-1.118L721.747,146.719z M747.934,158.931h-11.223v5.59h-3.741v-5.59
		h-11.309v-3.01h11.309v-2.623h-9.804v-3.053h5.16c-0.302-0.946-0.688-2.15-1.161-3.053l2.709-0.602h-7.568v-3.139h10.664v-2.537
		h-8.858v-2.924h8.858v-2.15h-9.374v-9.288h23.22v9.288h-10.104v2.15h9.33v2.924h-9.33v2.537h10.663v3.139h-6.708l2.709,0.688
		c-0.559,1.032-1.117,2.064-1.677,2.967h4.688v3.053h-9.675v2.623h11.223V158.931z M730.132,129.347h-3.354v3.698h3.354V129.347z
		 M730.519,146.59c0.603,1.161,1.204,2.709,1.462,3.655h6.063c0.559-1.161,1.16-2.58,1.548-3.655H730.519z M733.271,133.045h3.526
		v-3.698h-3.526V133.045z M739.936,133.045h3.612v-3.698h-3.612V133.045z"/>
	<path d="M767.714,135.41h-15.867v-3.182h7.74c-0.602-1.591-1.892-4.042-3.053-5.805l3.096-1.548
		c1.204,1.763,2.537,4.042,3.225,5.59l-3.182,1.763h8.041V135.41z M782.807,150.417c2.235,3.526,5.762,7.181,8.9,9.073
		c-0.902,0.688-2.106,2.021-2.752,3.01c-2.709-2.064-5.719-5.504-7.998-9.116v11.137h-3.869v-10.75
		c-2.322,3.741-5.375,7.009-8.471,8.987c-0.474-0.731-1.247-1.677-2.021-2.451v1.72h-9.589v1.935h-3.439v-14.534h13.028v9.89
		c3.354-1.978,6.665-5.375,8.729-8.901h-7.825v-3.612h9.589v-3.096h-8.127v-16.942h20.425v16.942h-8.429v3.096h9.589v3.612H782.807z
		 M766.338,141.086H753.61v-3.139h12.728V141.086z M753.61,143.623h12.728v3.096H753.61V143.623z M763.113,152.696h-6.106v6.106
		h6.106V152.696z M772.529,133.647h4.773v-3.655h-4.773V133.647z M772.529,140.484h4.773v-3.698h-4.773V140.484z M785.688,129.992
		h-4.945v3.655h4.945V129.992z M785.688,136.786h-4.945v3.698h4.945V136.786z"/>
	<path d="M807.962,151.965c-0.56-1.333-1.849-3.698-3.01-5.762v18.361h-3.784v-17.845c-1.419,4.128-3.182,8.127-5.074,10.707
		c-0.301-1.118-1.247-2.881-1.849-3.913c2.236-2.924,4.601-8.041,5.977-12.599h-5.332v-3.698h6.278v-6.106
		c-1.591,0.301-3.182,0.559-4.687,0.774c-0.173-0.86-0.603-2.236-1.075-3.096c4.3-0.817,9.158-2.021,12.126-3.44l2.235,3.268
		c-1.419,0.602-3.096,1.075-4.815,1.548v7.052h5.202v3.698h-5.202v0.903c1.161,1.376,4.515,5.805,5.245,6.88L807.962,151.965z
		 M833.977,160.005v3.569h-24.596v-3.569h10.664v-4.945h-8.385v-3.44h8.385v-4.429c-2.408,0.258-4.859,0.43-7.096,0.516
		c-0.043-0.86-0.559-2.236-0.945-3.096c6.02-0.387,13.114-1.161,17.199-2.365l2.537,3.01c-2.192,0.602-4.901,1.075-7.739,1.462
		v4.902h8.256v3.44h-8.256v4.945H833.977z M831.783,141.129h-19.822v-14.018h19.822V141.129z M827.913,130.508h-12.212v7.224h12.212
		V130.508z"/>
	<path d="M851.994,151.707c-0.646-1.204-2.064-3.225-3.354-4.988v17.716h-3.87v-17.372c-1.591,3.913-3.568,7.611-5.504,10.019
		c-0.387-1.118-1.333-2.752-1.935-3.698c2.537-2.924,5.289-8.041,6.923-12.599h-6.105v-3.784h6.621v-5.848
		c-1.978,0.43-3.955,0.731-5.805,0.989c-0.172-0.903-0.688-2.236-1.161-3.096c4.773-0.774,10.191-2.021,13.416-3.44l2.752,3.053
		c-1.548,0.602-3.396,1.161-5.332,1.677v6.665h5.031v3.784h-5.031v1.978c1.247,1.075,4.902,4.816,5.676,5.805L851.994,151.707z
		 M877.406,160.479v3.225h-25.671v-3.225h11.353v-2.795h-8.944v-3.096h8.944v-2.58h-8.558v-13.932h8.558v-2.408h-10.148v-3.182
		h10.148v-2.408c-2.967,0.172-5.892,0.301-8.644,0.344c-0.086-0.817-0.516-2.193-0.902-2.967c7.095-0.258,15.651-0.946,20.554-1.935
		l2.364,2.924c-2.666,0.602-5.977,1.032-9.503,1.333v2.709h9.589v3.182h-9.589v2.408h8.815v13.932h-8.815v2.58h8.944v3.096h-8.944
		v2.795H877.406z M858.057,143.795h5.031v-2.881h-5.031V143.795z M863.088,149.17v-2.881h-5.031v2.881H863.088z M866.957,140.914
		v2.881h5.16v-2.881H866.957z M872.117,146.289h-5.16v2.881h5.16V146.289z"/>
	<path d="M888.114,139.495c-1.118,2.838-3.226,5.934-5.375,7.568c-0.56-0.817-1.591-1.978-2.365-2.537
		c2.063-1.247,4.171-3.698,5.289-5.934L888.114,139.495z M896.843,162.671c-1.462-1.29-4.042-3.182-6.407-4.773
		c-1.333,2.365-3.697,4.601-7.868,6.364c-0.388-0.86-1.376-2.193-2.064-2.924c5.461-2.279,7.267-5.203,7.869-8.083h-7.181v-3.311
		h7.396v-3.741h3.483v3.741h3.998c-0.645-0.946-1.634-2.021-2.493-2.924l2.235-1.462c1.118,0.989,2.408,2.451,3.01,3.397
		l-1.376,0.989h2.451v3.311h-7.998c-0.043,0.516-0.129,1.075-0.258,1.548c2.537,1.591,5.719,3.698,7.396,5.074L896.843,162.671z
		 M888.845,137.517h-7.61v-3.225h7.61v-9.03h3.483v9.03h7.267v3.225h-7.267v7.826h-3.483V137.517z M884.287,132.873
		c-0.301-1.462-1.247-3.569-2.279-5.203l2.752-1.075c1.075,1.591,2.107,3.698,2.451,5.074L884.287,132.873z M894.649,138.807
		c1.118,0.688,4.73,3.526,5.633,4.343l-2.235,2.58c-1.075-1.376-4.128-4.3-5.418-5.418L894.649,138.807z M899.208,127.67
		c-1.032,1.935-2.064,3.956-2.924,5.332l-2.666-0.903c0.816-1.462,1.763-3.827,2.235-5.375L899.208,127.67z M909.184,158.845
		c-1.979,2.193-5.289,4.558-8.041,5.848c-0.645-0.731-1.763-1.935-2.623-2.58c2.752-1.247,5.762-3.483,7.267-5.289L909.184,158.845z
		 M906.646,133.905c0.301-1.118,0.559-2.408,0.774-3.526h-7.354v-3.44h19.909v3.44h-8.256c-0.431,1.204-0.86,2.451-1.29,3.526h8.041
		v22.36h-16.899v-22.36H906.646z M914.688,136.958h-9.503v3.44h9.503V136.958z M914.688,143.279h-9.503v3.483h9.503V143.279z
		 M914.688,149.643h-9.503v3.526h9.503V149.643z M913.612,156.91c2.408,1.591,5.547,3.87,7.181,5.504l-3.053,2.193
		c-1.462-1.634-4.601-4.042-7.052-5.719L913.612,156.91z"/>
	<path d="M925.825,147.665c0-8.471,2.364-15.479,6.363-21.972l3.097,1.333c-3.698,6.192-5.418,13.459-5.418,20.64
		c0,7.224,1.72,14.491,5.418,20.64l-3.097,1.376C928.189,163.145,925.825,156.222,925.825,147.665z"/>
	<path d="M974.07,130.766v33.625h-4.214v-2.15h-21.758v2.322H944.1v-33.797h10.836c0.602-1.849,1.118-4.085,1.419-5.762l4.772,0.559
		c-0.688,1.806-1.376,3.655-2.106,5.203H974.07z M948.099,134.593v5.504h21.758v-5.504H948.099z M948.099,143.795v5.504h21.758
		v-5.504H948.099z M969.856,158.543v-5.547h-21.758v5.547H969.856z"/>
	<path d="M1011.695,159.662c4.429,0,5.074-1.118,5.547-7.525c1.118,0.645,2.924,1.333,4.085,1.591
		c-0.817,7.826-2.365,9.933-9.632,9.933H996.56c-7.31,0-9.675-1.29-9.675-6.665v-15.652h24.939v-9.718h-25.499v-4.085h29.713v20.296
		h-4.214v-2.58h-20.812v11.696c0,2.279,0.859,2.709,5.461,2.709H1011.695z"/>
	<path d="M1035.861,145.644c-0.688,3.698-1.806,7.482-3.354,10.621c0.859,0.473,1.763,1.204,3.354,2.15
		c2.924,1.806,6.88,2.064,11.911,2.064c5.246,0,12.513-0.387,17.242-0.989c-0.473,1.075-1.117,3.053-1.161,4.128
		c-3.311,0.215-11.223,0.473-16.253,0.473c-5.676,0-9.331-0.473-12.427-2.279c-1.764-0.989-3.312-2.494-4.257-2.494
		c-0.946,0-2.451,2.795-3.569,5.418l-2.752-3.698c1.161-1.505,2.279-2.795,3.354-3.741l-0.043-0.043
		c1.678-2.365,3.011-5.762,3.784-9.03h-5.418c1.075-2.537,2.322-6.02,3.397-9.374h-4.3v-3.612h9.287
		c-0.945,3.053-2.149,6.579-3.225,9.546h1.505l0.602-0.129L1035.861,145.644z M1030.314,133.561c-0.602-1.935-1.763-5.031-2.58-7.31
		l3.612-0.989c0.86,2.279,2.063,5.246,2.666,7.095L1030.314,133.561z M1048.331,153.599c-2.235,2.107-5.719,4.171-8.6,5.547
		c-0.688-0.731-2.064-1.892-2.967-2.451c2.967-1.075,6.02-2.623,7.955-4.214h-8.644v-3.053h7.139v-3.397h-5.504v-3.01h5.504v-2.709
		h3.654v2.709h5.977v-2.709h3.698v2.709h5.633v3.01h-5.633v3.397h7.396v3.053h-9.245c3.01,1.419,6.277,3.311,8.17,4.773l-3.483,1.72
		c-1.763-1.462-4.815-3.44-7.653-4.902l2.235-1.591h-8.9L1048.331,153.599z M1048.719,135.754c-0.302,0.903-0.56,2.193-0.688,2.881
		c-8.428,1.419-9.761,1.72-10.492,2.107c-0.215-0.817-0.859-2.322-1.333-3.01c0.56-0.301,1.204-0.989,1.204-2.58v-8.557h11.696
		v7.654h-8.514v2.709L1048.719,135.754z M1040.592,129.175v2.451h5.159v-2.451H1040.592z M1046.869,149.428h5.977v-3.397h-5.977
		V149.428z M1055.039,139.624c-3.311,0-4.128-1.247-4.128-4.429v-8.557h11.868v7.654h-8.644v0.946c0,1.161,0.13,1.591,1.118,1.591
		h4.988c0.816,0,2.149-0.086,2.795-0.258c0.086,0.86,0.172,2.064,0.301,2.795c-0.602,0.215-1.806,0.258-2.967,0.258H1055.039z
		 M1054.136,129.218v2.451h5.203v-2.451H1054.136z"/>
	<path d="M1079.679,126.294c-0.946,2.795-2.064,5.633-3.312,8.385v29.798h-3.783v-22.79c-1.118,1.763-2.236,3.354-3.44,4.773
		c-0.344-0.989-1.419-3.225-2.021-4.214c3.568-4.171,6.88-10.535,8.857-16.985L1079.679,126.294z M1103.672,132.787
		c-1.376,2.666-3.182,4.945-5.332,6.88c2.795,1.505,6.149,2.666,10.063,3.354c-0.688,0.817-1.721,2.279-2.193,3.268
		c-4.214-0.946-7.783-2.537-10.75-4.429c-3.01,2.064-6.536,3.612-10.362,4.773c-0.388-0.731-1.376-2.021-2.107-2.838v13.631h-3.482
		V130.25h3.482v5.719c3.096-2.752,5.805-6.75,7.353-10.965l3.655,0.903c-0.473,1.247-1.032,2.451-1.677,3.655h14.706v3.225H1103.672
		z M1082.989,143.451c3.526-0.86,6.751-2.107,9.503-3.784c-1.591-1.333-2.881-2.752-3.956-4.214
		c-1.032,1.29-2.106,2.408-3.182,3.397c-0.517-0.473-1.548-1.29-2.365-1.892V143.451z M1107.198,154.674
		c-4.3,5.074-12.126,8.041-21.027,9.632c-0.43-0.946-1.289-2.322-2.063-3.139c8.299-1.204,15.91-3.698,19.65-7.912L1107.198,154.674
		z M1099.071,145.73c-2.666,2.666-6.966,4.816-10.965,6.106c-0.517-0.688-1.419-1.72-2.193-2.322
		c3.698-1.032,7.912-2.881,10.148-5.031L1099.071,145.73z M1103.113,149.686c-3.312,3.655-8.987,6.235-14.749,7.783
		c-0.473-0.774-1.29-1.892-1.978-2.58c5.332-1.204,10.922-3.44,13.76-6.407L1103.113,149.686z M1090.472,132.787l-0.043,0.043
		c1.16,1.72,2.752,3.397,4.815,4.902c1.72-1.419,3.139-3.053,4.257-4.945H1090.472z"/>
	<path d="M1149.252,131.712c0,0,0,1.376-0.043,1.892c-0.602,19.393-1.118,26.058-2.838,28.208c-1.075,1.419-2.107,1.806-3.741,2.021
		c-1.505,0.172-4.042,0.129-6.492,0c-0.087-1.075-0.56-2.752-1.29-3.87c2.752,0.215,5.245,0.258,6.32,0.258
		c0.86,0,1.333-0.129,1.807-0.731c1.375-1.419,1.935-7.912,2.493-24.123h-10.147c-1.204,2.752-2.537,5.246-3.913,7.224
		c-0.645-0.602-2.149-1.677-3.139-2.236v19.737h-11.653v3.268h-3.654v-31.432h4.815c0.603-2.064,1.247-4.902,1.505-6.966
		l4.343,0.731c-0.73,2.15-1.548,4.429-2.235,6.235h6.88v8.126c2.838-3.698,5.117-9.417,6.406-15.093l3.87,0.903
		c-0.516,1.978-1.074,3.956-1.763,5.848H1149.252z M1116.615,135.41v8.17h7.998v-8.17H1116.615z M1124.613,156.565v-9.502h-7.998
		v9.502H1124.613z M1138.933,153.212c-1.204-2.623-3.999-6.837-6.278-9.933l3.139-1.763c2.279,2.967,5.203,7.052,6.493,9.589
		L1138.933,153.212z"/>
	<path d="M1169.979,135.41h-15.867v-3.182h7.74c-0.602-1.591-1.892-4.042-3.053-5.805l3.096-1.548
		c1.204,1.763,2.537,4.042,3.225,5.59l-3.182,1.763h8.041V135.41z M1185.071,150.417c2.235,3.526,5.762,7.181,8.9,9.073
		c-0.902,0.688-2.106,2.021-2.752,3.01c-2.709-2.064-5.719-5.504-7.997-9.116v11.137h-3.87v-10.75
		c-2.322,3.741-5.375,7.009-8.471,8.987c-0.474-0.731-1.247-1.677-2.021-2.451v1.72h-9.589v1.935h-3.439v-14.534h13.028v9.89
		c3.354-1.978,6.665-5.375,8.729-8.901h-7.825v-3.612h9.589v-3.096h-8.127v-16.942h20.425v16.942h-8.428v3.096h9.588v3.612H1185.071
		z M1168.603,141.086h-12.728v-3.139h12.728V141.086z M1155.875,143.623h12.728v3.096h-12.728V143.623z M1165.378,152.696h-6.106
		v6.106h6.106V152.696z M1174.794,133.647h4.773v-3.655h-4.773V133.647z M1174.794,140.484h4.773v-3.698h-4.773V140.484z
		 M1187.952,129.992h-4.945v3.655h4.945V129.992z M1187.952,136.786h-4.945v3.698h4.945V136.786z"/>
	<path d="M1217.149,157.77c-6.45,1.505-13.459,2.967-18.446,4.042l-0.774-4.085c4.729-0.817,11.997-2.322,18.877-3.741
		L1217.149,157.77z M1234.005,139.194c-1.806,5.676-4.257,10.707-7.396,15.007c1.376,3.87,3.01,6.192,4.687,6.192
		c1.032,0,1.548-2.236,1.806-7.783c0.86,0.903,2.322,1.892,3.44,2.322c-0.688,7.654-2.107,9.675-5.676,9.675
		c-3.01,0-5.461-2.537-7.31-6.622c-2.365,2.623-5.074,4.859-8.041,6.708c-0.603-0.817-2.193-2.365-3.097-3.139
		c3.655-2.021,6.88-4.73,9.589-7.955c-1.548-4.988-2.493-11.309-3.01-18.06h-20.854v-3.913h20.597
		c-0.129-2.15-0.172-4.343-0.215-6.493h4.3c0,2.193,0,4.386,0.129,6.493h8.514c-1.591-1.333-4.171-3.01-6.406-4.085l2.364-2.451
		c2.451,1.075,5.504,2.881,7.053,4.257l-2.064,2.279h3.139v3.913h-12.384c0.431,5.074,1.075,9.761,1.979,13.631
		c2.021-3.268,3.654-6.966,4.901-10.965L1234.005,139.194z M1215.645,138.893v13.158h-15.222v-13.158H1215.645z M1211.774,142.29
		h-7.697v6.364h7.697V142.29z"/>
	<path d="M1262.17,159.833c1.333,0.129,2.838,0.172,4.387,0.172c1.892,0.043,10.491,0,13.028-0.043
		c-0.559,0.903-1.161,2.666-1.376,3.784h-11.868c-8.213,0-13.674-1.204-17.199-6.665c-1.591,3.096-3.741,5.633-6.364,7.525
		c-0.602-0.731-2.106-2.193-2.967-2.838c4.386-2.795,7.052-7.525,8.127-13.502l3.999,0.559c-0.301,1.419-0.646,2.795-1.075,4.042
		c1.548,3.483,3.956,5.375,7.31,6.278v-12.04h-17.199v-3.526h37.667v3.526h-16.469v4.085h13.674v3.483h-13.674V159.833z
		 M1274.167,141.086h-28.938v-14.448h28.938V141.086z M1270.125,129.605h-21.026v2.881h21.026V129.605z M1270.125,135.281h-21.026
		v2.881h21.026V135.281z"/>
	<path d="M1321.897,156.394h-16.728v4.128c0,1.892-0.43,2.838-1.935,3.354c-1.548,0.559-3.741,0.559-7.095,0.559
		c-0.215-1.032-0.774-2.451-1.29-3.397c2.365,0.086,4.858,0.086,5.504,0.086c0.688,0,0.903-0.172,0.903-0.731v-3.999h-17.63v-3.268
		h17.63v-1.548c1.892-0.774,3.998-1.806,5.805-2.924h-15.394v-2.924h19.479l0.859-0.215l2.279,2.064
		c-2.494,1.935-5.848,3.784-9.116,5.203v0.344h16.728V156.394z M1288.271,148.525h-3.784v-8.213h3.269l-0.774-12.728
		c2.494-0.43,6.192-1.505,8.428-2.193l1.721,2.365c-1.85,0.688-4.171,1.29-6.321,1.677l0.129,1.72h5.891v2.58h-5.762l0.129,1.978
		H1297v2.537c1.204-0.559,2.494-1.247,3.612-2.021c-0.903-0.559-1.892-1.118-2.795-1.548l1.935-1.677
		c0.946,0.473,2.021,1.032,3.011,1.634c0.773-0.688,1.419-1.376,1.935-2.107l2.709,0.86c-0.688,0.903-1.462,1.763-2.365,2.623
		c1.161,0.774,2.107,1.505,2.838,2.193l-2.021,1.849c-0.688-0.688-1.677-1.462-2.881-2.279c-1.247,0.989-2.623,1.806-3.87,2.537
		h15.007c0.043-0.645,0.129-1.29,0.215-1.978h-5.719v-2.623h5.891l0.172-1.978h-5.848v-2.58h6.02l0.086-1.935h-6.32v-2.623h10.233
		c-0.215,4.343-0.602,9.847-0.945,13.717h3.268v8.213h-3.956v-5.203h-28.938V148.525z M1291.496,140.312h7.354
		c-0.431-0.559-1.419-1.548-2.021-1.978h-5.418L1291.496,140.312z M1305.729,132.4c-0.646-0.645-1.591-1.333-2.666-2.021
		c-1.204,0.903-2.494,1.763-3.698,2.365c-0.473-0.43-1.505-1.419-2.192-1.849c1.203-0.516,2.45-1.204,3.525-1.978
		c-0.86-0.516-1.806-1.032-2.709-1.419l1.936-1.677c0.902,0.43,1.935,0.946,2.881,1.505c0.73-0.602,1.333-1.29,1.806-1.892
		l2.709,0.731c-0.646,0.86-1.376,1.72-2.236,2.537c1.032,0.645,1.936,1.29,2.623,1.892L1305.729,132.4z"/>
	<path d="M1338.797,150.46c-0.56-1.462-1.764-3.999-2.838-6.192v20.21h-3.655v-19.264c-1.29,4.558-2.967,8.944-4.773,11.739
		c-0.387-1.118-1.247-2.924-1.935-3.913c2.494-3.483,4.859-9.933,6.02-15.522h-4.644v-3.698h5.332v-8.729h3.655v8.771h4.558v3.655
		h-4.558v1.548c1.074,1.505,4.429,7.095,5.202,8.428L1338.797,150.46z M1360.339,144.096c-1.161,3.956-2.838,7.396-5.03,10.363
		c2.838,2.795,6.406,4.945,10.577,6.192c-0.902,0.817-2.106,2.451-2.709,3.569c-4.128-1.462-7.61-3.741-10.491-6.708
		c-2.881,2.881-6.364,5.203-10.535,7.009c-0.516-0.817-1.677-2.408-2.537-3.053c4.214-1.763,7.74-4.042,10.492-6.923
		c-2.15-2.924-3.913-6.235-5.246-9.933c-0.731,0.688-1.462,1.376-2.15,2.021c-0.645-0.774-1.892-1.849-2.752-2.451
		c2.709-2.193,5.461-5.719,7.053-8.686l3.525,1.634c-1.376,2.322-3.182,4.73-5.117,6.794l2.752-0.688
		c1.075,3.053,2.58,5.848,4.43,8.256c1.763-2.451,3.096-5.246,3.912-8.385L1360.339,144.096z M1365.069,134.894h-23.478v-3.698
		h10.233c-0.602-1.505-1.892-3.569-3.053-5.074l3.482-1.376c1.419,1.591,2.795,3.741,3.44,5.246l-2.752,1.204h12.126V134.894z
		 M1357.673,135.195c2.752,2.58,6.021,6.192,7.482,8.686l-2.967,2.537c-1.333-2.537-4.516-6.321-7.268-9.03L1357.673,135.195z"/>
	<path d="M1379.732,126.81h3.44l-11.954,42.053h-3.44L1379.732,126.81z"/>
	<path d="M1417.271,159.876c2.967,0,3.44-0.817,3.784-5.461c0.946,0.688,2.709,1.29,3.87,1.505
		c-0.646,6.106-1.979,7.611-7.439,7.611h-11.738c-6.407,0-8.17-1.161-8.17-5.547v-7.611c-3.053,1.634-6.106,3.096-9.245,4.343
		c-0.645-0.86-2.021-2.623-2.924-3.483c5.848-2.107,11.523-4.859,16.598-8.17h-15.608v-3.655h14.061v-5.203h-10.277v-3.612h10.277
		v-5.504h3.999v5.504h10.104v2.064c1.763-1.892,3.354-3.87,4.816-5.934l3.783,1.892c-2.838,3.913-6.105,7.525-9.804,10.792h11.396
		v3.655h-15.781c-2.322,1.763-4.729,3.397-7.224,4.945v1.075h18.188v3.569h-18.188v5.246c0,1.677,0.645,1.978,4.128,1.978H1417.271z
		 M1407.167,139.409c2.106-1.634,4.085-3.397,5.891-5.203h-8.9v5.203H1407.167z"/>
	<path d="M1434.128,147.106h9.933v13.201h-9.933v2.838h-3.568v-31.733h3.568c0.646-2.021,1.247-4.515,1.548-6.407l4.386,0.516
		c-0.73,1.978-1.548,4.128-2.364,5.891h5.977v12.255h-9.546V147.106z M1440.105,134.808h-5.978v5.461h5.978V134.808z
		 M1434.128,150.546v6.364h6.364v-6.364H1434.128z M1458.38,130.809v4.644h8.428v18.705c0,1.677-0.258,2.752-1.333,3.354
		c-1.118,0.559-2.58,0.602-4.816,0.602c-0.129-0.989-0.559-2.494-1.031-3.44c1.333,0.043,2.537,0.043,2.924,0
		c0.43,0,0.559-0.129,0.559-0.559v-15.093h-4.729v25.413h-3.741v-25.413h-4.343v19.005h-3.655v-22.574h7.998v-4.644h-9.503v-3.655
		h22.876v3.655H1458.38z"/>
	<path d="M1510.797,158.415v4.042h-38.484v-4.042h15.694v-32.766h4.3v12.771h15.522v3.999h-15.522v15.996H1510.797z"/>
	<path d="M1553.022,131.712c0,0,0,1.376-0.043,1.892c-0.602,19.393-1.118,26.058-2.838,28.208c-1.075,1.419-2.107,1.806-3.741,2.021
		c-1.505,0.172-4.042,0.129-6.492,0c-0.087-1.075-0.56-2.752-1.29-3.87c2.752,0.215,5.245,0.258,6.32,0.258
		c0.86,0,1.333-0.129,1.806-0.731c1.377-1.419,1.936-7.912,2.494-24.123h-10.147c-1.204,2.752-2.537,5.246-3.913,7.224
		c-0.645-0.602-2.149-1.677-3.139-2.236v19.737h-11.653v3.268h-3.654v-31.432h4.815c0.603-2.064,1.247-4.902,1.505-6.966
		l4.343,0.731c-0.73,2.15-1.548,4.429-2.235,6.235h6.88v8.126c2.838-3.698,5.117-9.417,6.406-15.093l3.87,0.903
		c-0.516,1.978-1.075,3.956-1.763,5.848H1553.022z M1520.386,135.41v8.17h7.998v-8.17H1520.386z M1528.384,156.565v-9.502h-7.998
		v9.502H1528.384z M1542.703,153.212c-1.204-2.623-3.999-6.837-6.278-9.933l3.139-1.763c2.279,2.967,5.203,7.052,6.493,9.589
		L1542.703,153.212z"/>
	<path d="M1573.749,135.41h-15.867v-3.182h7.74c-0.602-1.591-1.892-4.042-3.053-5.805l3.096-1.548
		c1.204,1.763,2.537,4.042,3.225,5.59l-3.182,1.763h8.041V135.41z M1588.842,150.417c2.235,3.526,5.762,7.181,8.9,9.073
		c-0.902,0.688-2.106,2.021-2.752,3.01c-2.709-2.064-5.719-5.504-7.998-9.116v11.137h-3.869v-10.75
		c-2.322,3.741-5.375,7.009-8.471,8.987c-0.474-0.731-1.247-1.677-2.021-2.451v1.72h-9.589v1.935h-3.439v-14.534h13.028v9.89
		c3.354-1.978,6.665-5.375,8.729-8.901h-7.825v-3.612h9.589v-3.096h-8.127v-16.942h20.425v16.942h-8.429v3.096h9.589v3.612H1588.842
		z M1572.373,141.086h-12.728v-3.139h12.728V141.086z M1559.646,143.623h12.728v3.096h-12.728V143.623z M1569.148,152.696h-6.106
		v6.106h6.106V152.696z M1578.564,133.647h4.773v-3.655h-4.773V133.647z M1578.564,140.484h4.773v-3.698h-4.773V140.484z
		 M1591.723,129.992h-4.945v3.655h4.945V129.992z M1591.723,136.786h-4.945v3.698h4.945V136.786z"/>
	<path d="M1601.011,168.304c3.698-6.149,5.418-13.416,5.418-20.64c0-7.181-1.72-14.448-5.418-20.64l3.097-1.333
		c4.042,6.493,6.406,13.501,6.406,21.972c0,8.557-2.364,15.48-6.406,22.016L1601.011,168.304z"/>
</g>
<g>
	<path d="M113.832,826.563c-3.827,2.321-9.632,4.729-14.19,6.192c-0.602-0.86-1.763-2.236-2.623-3.054
		c4.559-1.247,10.363-3.698,13.33-5.719L113.832,826.563z M135.546,823.64H97.492v-3.698h7.567v-18.274h-6.32v-3.655h6.32v-4.601
		h3.956v4.601h14.878v-4.601h4.042v4.601h6.579v3.655h-6.579v18.274h7.61V823.64z M109.016,801.667v3.612h14.878v-3.612H109.016z
		 M109.016,812.546h14.878v-3.87h-14.878V812.546z M109.016,819.941h14.878v-4.042h-14.878V819.941z M122.045,824.328
		c4.901,1.676,10.362,4.041,13.631,5.719l-3.698,2.623c-2.924-1.721-7.869-4.086-12.771-5.849L122.045,824.328z"/>
	<path d="M152.876,794.658c-1.161,3.182-2.709,6.32-4.386,9.33v28.768h-3.784v-22.919c-1.161,1.591-2.365,3.053-3.569,4.3
		c-0.387-0.989-1.548-3.139-2.192-4.042c4.042-3.999,7.868-10.276,10.19-16.555L152.876,794.658z M172.483,828.842
		c2.537,0,2.967-1.117,3.354-6.063c0.945,0.645,2.493,1.29,3.568,1.506c-0.602,6.105-1.806,8.126-6.708,8.126h-10.577
		c-5.504,0-7.053-1.333-7.053-6.622v-13.071l-3.783,1.462l-1.592-3.525l5.375-2.107v-10.664h3.741v9.202l5.504-2.15v-11.438h3.569
		v10.019l6.449-2.537l0.56-0.43l3.01,0.989l-0.129,0.688c-0.172,6.149-0.646,14.233-1.462,19.351l-3.312-0.904
		c0.474-3.783,0.731-9.932,0.86-15.393l-5.977,2.364v15.437h-3.569V809.02l-5.504,2.193v14.619c0,2.494,0.517,3.01,3.483,3.01
		H172.483z"/>
	<path d="M188.136,802.957c0-2.107,1.634-3.612,3.612-3.612c1.978,0,3.611,1.505,3.611,3.612s-1.634,3.568-3.611,3.568
		C189.77,806.525,188.136,805.064,188.136,802.957z M188.136,823.812c0-2.149,1.634-3.612,3.612-3.612
		c1.978,0,3.611,1.463,3.611,3.612c0,2.063-1.634,3.526-3.611,3.526C189.77,827.338,188.136,825.875,188.136,823.812z"/>
	<path d="M109.188,865.736c-0.129,0.817-0.215,1.635-0.387,2.451c2.15,2.107,7.095,7.697,8.342,9.116l-2.752,3.44
		c-1.419-2.15-4.3-5.849-6.579-8.472c-1.419,4.429-3.956,8.729-8.514,12.04c-0.559-0.859-2.021-2.451-2.838-3.053
		c6.063-4.301,8.041-10.148,8.686-15.523h-8.17v-3.783h8.429v-1.291v-6.406h-2.623c-0.903,2.365-2.021,4.516-3.183,6.234
		c-0.73-0.688-2.321-1.762-3.268-2.321c2.451-3.14,4.128-8.17,5.117-13.2l3.826,0.73c-0.344,1.634-0.73,3.268-1.16,4.816h11.738
		v3.74h-6.407v6.45c0,0.387,0,0.817,0,1.247h7.611v3.783H109.188z M134.041,848.623v34.055h-4.042v-2.752h-7.825v3.226h-3.87
		v-34.528H134.041z M129.999,876.186v-23.779h-7.825v23.779H129.999z"/>
	<path d="M140.32,852.105h12.125v3.226H140.32V852.105z M151.586,881.99h-7.009v1.893h-2.924v-14.448h9.933V881.99z
		 M151.543,861.007h-9.847v-3.14h9.847V861.007z M141.696,863.587h9.847v3.139h-9.847V863.587z M145.996,851.891
		c-0.474-1.505-1.72-3.912-2.795-5.719l2.795-1.117c1.161,1.719,2.408,4.041,2.967,5.504L145.996,851.891z M144.577,872.574v6.277
		h4.042v-6.277H144.577z M178.116,864.533c-1.29,3.869-3.053,7.396-5.117,10.491c0.603,2.881,1.333,4.558,2.15,4.601
		c0.645,0,1.032-1.935,1.247-5.289c0.602,0.731,2.021,1.807,2.666,2.15c-0.946,6.235-2.58,7.697-3.999,7.697
		c-2.064,0-3.569-2.064-4.687-5.633c-1.85,2.193-3.87,4.127-5.935,5.59c-0.559-0.645-1.548-1.592-2.321-2.15
		c1.074-0.73,2.063-1.548,3.01-2.494h-2.58v-1.117h-5.074v3.053h-3.225v-18.232h11.609v15.609c1.247-1.247,2.451-2.666,3.526-4.214
		c-0.688-3.655-1.204-8.256-1.548-13.459h-15.222v-3.397h3.096c-0.172-1.375-0.517-3.182-0.946-4.601l2.838-0.43
		c0.517,1.505,0.946,3.569,1.161,5.03h2.107c0.387-1.547,0.902-3.611,1.117-5.073l3.14,0.517c-0.474,1.547-0.946,3.225-1.376,4.557
		h3.87c-0.216-3.998-0.345-8.256-0.431-12.77h3.526c0.043,4.471,0.172,8.771,0.387,12.77h7.568v3.397h-7.354
		c0.215,3.354,0.517,6.364,0.86,8.944c1.118-2.193,2.106-4.559,2.795-7.053L178.116,864.533z M166.205,852.45h-12.856v-3.14h5.289
		c-0.43-1.074-0.989-2.364-1.591-3.354l3.139-0.902c0.774,1.289,1.548,2.967,2.021,4.256h3.998V852.45z M157.477,865.994v3.354
		h5.074v-3.354H157.477z M162.551,875.584v-3.44h-5.074v3.44H162.551z M174.806,856.063c-0.474-1.936-1.85-5.074-3.097-7.482
		l2.968-1.161c1.333,2.279,2.795,5.375,3.354,7.31L174.806,856.063z"/>
	<path d="M193.038,852.794c-0.903,5.719-2.967,10.062-8.041,12.856c-0.43-0.988-1.548-2.365-2.408-3.053
		c4.128-2.193,5.848-5.461,6.622-9.804h-5.719v-3.483h6.148c0.129-1.332,0.215-2.838,0.258-4.342h3.827
		c-0.086,1.504-0.172,2.967-0.258,4.342h8.814c0,0-0.043,0.989-0.086,1.506c-0.43,7.653-0.816,10.793-1.849,11.996
		c-0.773,0.817-1.505,1.118-2.666,1.247c-0.903,0.173-2.623,0.173-4.386,0.086c-0.086-1.075-0.473-2.579-0.989-3.526
		c1.505,0.13,2.881,0.173,3.526,0.173c0.602,0,0.945-0.086,1.247-0.431c0.559-0.602,0.902-2.623,1.204-7.567H193.038z
		 M197.424,873.992c-2.58,3.569-6.923,6.924-10.75,8.987c-0.773-0.774-2.408-2.063-3.396-2.666c3.956-1.72,7.954-4.558,10.19-7.61
		L197.424,873.992z M204.476,871.498v12.986h-4.128v-12.986h-16.727v-3.525h16.727v-3.697h4.128v3.697h16.512v3.525H204.476z
		 M220.257,863.242h-15.395v-14.963h15.395V863.242z M210.065,872.574c3.956,2.149,9.159,5.461,11.782,7.868l-3.14,2.709
		c-2.407-2.364-7.438-5.891-11.48-8.17L210.065,872.574z M216.258,851.762h-7.654v8.041h7.654V851.762z"/>
	<path d="M238.532,870.768c-0.56-1.376-1.807-3.74-2.925-5.762v19.35h-3.697v-18.189c-1.29,4.086-2.881,7.869-4.602,10.32
		c-0.387-1.074-1.333-2.58-1.892-3.439c2.537-3.526,4.988-9.891,6.149-15.352h-5.246v-3.697h5.59v-9.072h3.697v9.072h4.602v3.697
		h-4.602v2.537c1.204,1.592,4.387,6.45,5.074,7.611L238.532,870.768z M265.621,877.519h-2.537v2.838
		c0,1.806-0.387,2.709-1.634,3.312c-1.247,0.473-3.182,0.516-5.934,0.516c-0.172-0.946-0.646-2.322-1.075-3.225
		c1.806,0.086,3.655,0.086,4.214,0.043c0.517,0,0.688-0.172,0.688-0.688v-2.795h-13.459v6.665h-3.655v-6.665h-2.752v-3.01h2.752
		v-10.75h8.428v-2.106h-10.448v-2.967h5.633v-2.408h-3.784v-2.795h3.784v-2.365h-4.688v-2.881h4.688v-3.311h3.741v3.311h5.891
		v-3.311h3.741v3.311h5.116v2.881h-5.116v2.365h4.472v2.795h-4.472v2.408h5.977v2.967H254.27v2.106h8.814v10.75h2.537V877.519z
		 M245.885,866.64v2.451h4.772v-2.451H245.885z M245.885,874.509h4.772v-2.666h-4.772V874.509z M249.583,853.482h5.891v-2.365
		h-5.891V853.482z M249.583,858.686h5.891v-2.408h-5.891V858.686z M254.27,866.64v2.451h5.074v-2.451H254.27z M259.344,874.509
		v-2.666h-5.074v2.666H259.344z"/>
	<path d="M108.199,897.729h3.611v15.094h-8.814v1.117c0,1.075,0,2.15-0.043,3.269h8.643v18.747h-3.612v-15.178h-5.159
		c-0.302,5.59-1.161,11.266-3.354,15.521c-0.645-0.773-1.935-1.891-2.795-2.407c2.451-5.504,2.752-13.545,2.752-19.952v-17.156
		h3.569v12.513h5.203V897.729z M135.159,910.027c-1.032,6.836-3.053,12.383-5.891,16.813c2.021,2.451,4.472,4.429,7.353,5.762
		c-0.902,0.73-2.106,2.236-2.752,3.268c-2.709-1.418-4.987-3.396-6.966-5.762c-2.106,2.494-4.472,4.473-7.181,6.02
		c-0.559-1.031-1.634-2.537-2.494-3.268c2.752-1.376,5.246-3.482,7.354-6.148c-2.279-3.827-3.999-8.471-5.16-13.674v1.289
		c0,7.01-0.474,15.867-3.956,21.93c-0.731-0.688-2.193-1.719-3.182-2.192c3.053-5.547,3.396-13.717,3.396-19.78V899.02h19.092v3.611
		h-15.351v6.751h12.556l0.688-0.129L135.159,910.027z M122.861,913.037c0.946,3.783,2.236,7.267,3.999,10.32
		c1.72-3.011,3.053-6.451,3.913-10.32H122.861z"/>
	<path d="M166.033,909.253c2.968,6.794,7.869,13.157,13.373,16.512c-0.989,0.817-2.451,2.365-3.139,3.526
		c-1.85-1.291-3.612-2.881-5.203-4.688v3.741h-9.503v7.61h-4.214v-7.61h-9.503v-3.827c-1.72,1.893-3.482,3.525-5.332,4.902
		c-0.688-1.032-1.978-2.451-2.967-3.268c5.418-3.44,10.277-9.977,13.201-16.899h-11.868v-4.042h16.469v-8.686h4.214v8.686h16.684
		v4.042H166.033z M157.348,924.303v-15.05h-0.559c-2.107,5.633-5.16,10.922-8.815,15.05H157.348z M170.764,924.303
		c-3.612-4.128-6.622-9.46-8.729-15.05h-0.473v15.05H170.764z"/>
	<path d="M221.848,911.445h-3.741v19.823c0,2.235-0.516,3.312-1.892,3.956s-3.483,0.773-6.923,0.773
		c-0.216-1.031-0.817-2.795-1.376-3.783c2.407,0.086,4.644,0.043,5.331,0.043c0.731-0.043,0.989-0.258,0.989-0.989v-19.823h-9.761
		v-2.45h-6.321l3.354,1.204c-0.86,1.634-1.763,3.311-2.58,4.772h4.343v3.312h-7.524v3.697h6.751v3.268h-6.751v3.828
		c2.881-0.302,5.805-0.646,8.686-1.033l0.086,3.526c-7.481,1.032-15.437,1.978-20.94,2.709l-0.56-3.741
		c2.494-0.258,5.634-0.602,9.03-1.031v-4.258h-6.622v-3.268h6.622v-3.697h-7.567v-3.312h5.159c-0.559-1.376-1.849-3.311-3.053-4.687
		l2.408-1.29h-5.848v-3.312h6.191v-2.106l-2.106,1.419c-0.646-1.505-2.236-3.827-3.698-5.418l2.451-1.634
		c1.247,1.247,2.536,2.924,3.354,4.343v-5.719h3.182v9.115h2.709v-9.115h3.226v6.02c1.161-1.419,2.45-3.225,3.225-4.558l3.182,1.763
		c-1.634,1.893-3.396,3.956-4.815,5.289l-1.591-0.945v1.547h6.063v2.021h9.718v-11.094h3.87v11.094h3.741V911.445z M195.316,914.972
		c0.946-1.72,2.107-4.214,2.709-5.977h-8.428c1.204,1.419,2.537,3.225,3.053,4.515l-2.536,1.462H195.316z M208.775,925.248
		c-0.301-2.493-1.806-6.578-3.439-9.674l3.311-1.161c1.763,3.053,3.354,7.009,3.741,9.589L208.775,925.248z"/>
	<path d="M225.89,934.537c1.807-2.107,3.999-5.633,5.418-8.772l3.827,1.032c-1.462,3.225-3.568,6.966-5.418,9.416L225.89,934.537z
		 M231.652,925.076h-3.741v-26.788h12.899v24.725h-9.158V925.076z M231.652,901.857v6.621h5.461v-6.621H231.652z M237.113,919.443
		v-7.438h-5.461v7.438H237.113z M242.144,926.711c0.517,2.752,0.989,6.363,1.032,8.514l-3.913,0.645
		c-0.043-2.192-0.387-5.891-0.86-8.729L242.144,926.711z M253.022,901.729c-0.946,4.901-3.311,8.342-9.89,10.319
		c-0.344-0.903-1.333-2.278-2.107-2.967c5.332-1.462,7.225-3.827,8.041-7.353h-6.665v-3.526h21.457c0,0,0,0.903-0.043,1.419
		c-0.387,6.02-0.817,8.643-1.72,9.632c-0.731,0.774-1.548,1.075-2.709,1.161c-0.989,0.129-2.881,0.129-4.816,0.043
		c-0.086-1.032-0.473-2.365-1.032-3.268c1.721,0.172,3.354,0.172,4.042,0.172c0.603,0,0.989-0.043,1.247-0.387
		c0.474-0.474,0.774-1.893,1.032-5.246H253.022z M262.611,924.389h-18.92V912.22h18.92V924.389z M258.698,915.445h-11.266v5.719
		h11.266V915.445z M251.217,926.324c1.118,2.666,2.235,6.277,2.623,8.514l-3.956,0.902c-0.344-2.236-1.333-5.934-2.408-8.729
		L251.217,926.324z M259.816,925.421c1.892,2.752,4.257,6.493,5.289,8.944l-3.827,1.676c-0.946-2.364-3.182-6.32-5.074-9.158
		L259.816,925.421z"/>
	<path d="M306.213,920.046c-2.45,1.935-5.417,3.956-7.997,5.547c2.795,2.537,6.191,4.515,10.276,5.676
		c-0.859,0.86-2.021,2.408-2.58,3.483c-8.814-2.967-14.49-9.288-17.802-18.189c-1.72,1.85-3.869,3.612-6.148,5.203v8.514
		l9.847-2.838c0.086,1.075,0.43,2.666,0.688,3.526c-11.997,3.698-13.717,4.257-14.835,5.03c-0.301-1.031-1.075-2.795-1.721-3.611
		c0.774-0.387,1.85-1.29,1.85-3.053v-4.945c-2.236,1.247-4.472,2.279-6.665,3.096c-0.602-0.945-1.763-2.408-2.666-3.225
		c5.117-1.591,10.707-4.602,14.62-7.912h-13.244v-3.439h16.555v-3.225h-12.642v-3.226h12.642v-3.01h-14.792v-3.44h14.792v-3.439
		h3.999v3.439h15.308v3.44H290.39v3.01h13.545v3.226H290.39v3.225h16.684v3.439H291.98c1.032,2.494,2.322,4.773,3.956,6.794
		c2.451-1.634,5.246-3.784,6.966-5.547L306.213,920.046z"/>
	<path d="M114.949,975.43c-5.848,2.666-12.168,5.375-16.941,7.396l-1.462-4.171c1.634-0.602,3.655-1.376,5.848-2.236l-0.816-25.842
		l4.171-0.172l0.73,24.337c2.494-1.032,5.031-2.106,7.525-3.182L114.949,975.43z M133.311,987.512
		c-1.85-2.881-5.461-7.138-8.901-10.878c-3.225,4.772-7.739,8.385-13.975,11.051c-0.559-0.86-2.192-2.709-3.225-3.526
		c14.275-5.289,18.747-15.652,20.511-33.754l4.386,0.43c-0.989,9.029-2.58,16.254-5.461,22.016
		c3.655,3.784,7.955,8.385,10.019,11.438L133.311,987.512z M117.014,965.625c-1.118-2.924-3.87-7.396-6.536-10.534l3.655-1.763
		c2.795,3.096,5.504,7.267,6.751,10.233L117.014,965.625z"/>
	<path d="M177.3,963.174c-1.764,6.838-4.859,12.04-8.987,15.996c3.139,2.107,6.837,3.741,11.094,4.688
		c-0.946,0.902-2.149,2.666-2.752,3.827c-4.558-1.29-8.428-3.226-11.695-5.763c-3.827,2.795-8.299,4.73-13.158,6.149
		c-0.473-1.161-1.548-2.881-2.322-3.741c4.516-1.032,8.729-2.795,12.341-5.289c-3.354-3.568-5.934-7.911-7.782-13.071h-1.204
		c-0.903,6.966-3.483,14.662-10.363,20.94c-0.602-1.032-2.021-2.666-2.881-3.397c8.815-7.997,9.589-18.661,9.589-25.972v-3.611
		h-7.224v-3.87h26.659c-0.816,3.913-1.806,8.601-2.709,12.126h7.74l0.773-0.215L177.3,963.174z M153.306,957.584
		c0,1.463-0.043,3.011-0.129,4.602h8.299c0.731-2.451,1.419-5.418,2.064-8.256h-10.234V957.584z M157.906,965.97
		c1.635,4.042,3.999,7.567,7.053,10.491c3.01-2.838,5.418-6.277,6.966-10.491H157.906z"/>
	<path d="M199.832,981.363c-3.827,2.322-9.632,4.729-14.19,6.191c-0.602-0.859-1.763-2.235-2.623-3.053
		c4.559-1.247,10.363-3.697,13.33-5.719L199.832,981.363z M221.546,978.439h-38.054v-3.698h7.567v-18.274h-6.32v-3.655h6.32v-4.601
		h3.956v4.601h14.878v-4.601h4.042v4.601h6.579v3.655h-6.579v18.274h7.61V978.439z M195.016,956.467v3.611h14.878v-3.611H195.016z
		 M195.016,967.346h14.878v-3.87h-14.878V967.346z M195.016,974.741h14.878v-4.042h-14.878V974.741z M208.045,979.127
		c4.901,1.678,10.362,4.042,13.631,5.719l-3.698,2.623c-2.924-1.72-7.869-4.085-12.771-5.848L208.045,979.127z"/>
	<path d="M238.876,949.458c-1.161,3.182-2.709,6.321-4.386,9.331v28.766h-3.784v-22.918c-1.161,1.591-2.365,3.053-3.569,4.3
		c-0.387-0.989-1.548-3.14-2.192-4.042c4.042-3.999,7.868-10.277,10.19-16.555L238.876,949.458z M258.483,983.643
		c2.537,0,2.967-1.118,3.354-6.063c0.945,0.646,2.493,1.29,3.568,1.505c-0.602,6.106-1.806,8.127-6.708,8.127h-10.577
		c-5.504,0-7.053-1.333-7.053-6.622v-13.071l-3.783,1.462l-1.592-3.526l5.375-2.106v-10.664h3.741v9.202l5.504-2.15v-11.438h3.569
		v10.019l6.449-2.536l0.56-0.431l3.01,0.989l-0.129,0.688c-0.172,6.148-0.646,14.233-1.462,19.35l-3.312-0.902
		c0.474-3.784,0.731-9.934,0.86-15.395l-5.977,2.365v15.437h-3.569v-14.061l-5.504,2.193v14.619c0,2.494,0.517,3.011,3.483,3.011
		H258.483z"/>
	<path d="M286.09,975.344c-5.762,1.677-11.911,3.396-16.469,4.687l-0.989-4.171c1.806-0.344,4.085-0.903,6.536-1.548v-17.544h-5.977
		v-3.783h15.78v3.783h-5.848v16.512l6.45-1.72L286.09,975.344z M307.245,959.477c-0.645,17.458-1.118,23.692-2.752,25.671
		c-0.988,1.29-1.978,1.72-3.482,1.892c-1.419,0.172-3.827,0.172-6.192,0.043c-0.086-1.118-0.559-2.838-1.29-3.913
		c2.451,0.172,4.73,0.215,5.719,0.215c0.774,0,1.247-0.129,1.721-0.688c1.161-1.29,1.763-6.923,2.278-21.284h-7.353
		c-0.688,11.395-3.182,20.769-12.771,26.272c-0.56-1.075-1.85-2.494-2.838-3.226c8.771-4.729,11.008-12.899,11.609-23.047h-6.45
		v-3.828h6.622c0.086-2.838,0.086-5.719,0.086-8.771h4.042c0,3.01-0.043,5.934-0.129,8.771h11.18V959.477z"/>
	<path d="M330.079,983.6c0,1.806-0.388,2.709-1.592,3.268c-1.246,0.516-3.139,0.559-5.805,0.559
		c-0.172-0.902-0.73-2.321-1.247-3.182c1.807,0.086,3.569,0.086,4.128,0.043c0.56,0,0.731-0.172,0.731-0.688v-5.72
		c-2.58,1.678-5.117,3.269-7.354,4.645l-1.117-2.838c-0.474,2.881-1.333,5.805-3.054,8.041c-0.516-0.774-2.021-2.236-2.795-2.752
		c2.408-3.269,2.623-7.869,2.623-11.524v-10.104h15.48V983.6z M327.456,951.264c1.978,3.01,4.343,7.052,5.375,9.589l-3.44,1.462
		c-0.258-0.773-0.688-1.763-1.247-2.795c-11.266,1.032-12.899,1.29-14.018,1.721c-0.215-0.818-0.817-2.666-1.247-3.656
		c0.688-0.172,1.419-0.816,2.279-1.719c0.816-0.903,3.568-4.301,5.289-7.697l4.085,1.203c-1.678,2.666-3.741,5.332-5.72,7.525
		l7.697-0.559c-0.774-1.333-1.548-2.709-2.279-3.87L327.456,951.264z M318.297,973.494c0,1.677-0.086,3.526-0.344,5.418
		c2.235-0.989,5.246-2.537,8.342-4.085v-1.591l-1.893,1.892c-1.376-1.246-4.084-3.225-6.105-4.601l2.064-1.893
		c1.935,1.205,4.472,2.968,5.934,4.129v-6.063h-7.998V973.494z M339.151,966.701c-4.386,0-5.547-1.506-5.547-5.634v-12.856h3.956
		v5.547h11.094v3.439h-11.094v3.956c0,1.548,0.301,2.107,1.677,2.107h7.224c1.075,0,2.796-0.087,3.698-0.259
		c0.086,1.033,0.215,2.537,0.387,3.397c-0.816,0.258-2.45,0.302-3.998,0.302H339.151z M345.902,983.771
		c1.591,0,1.936-0.774,2.107-5.117c0.816,0.645,2.407,1.29,3.525,1.462c-0.473,5.633-1.548,7.138-5.289,7.138h-6.966
		c-4.515,0-5.676-1.161-5.676-5.16v-14.018h3.956v4.73h11.48v3.568h-11.48v5.676c0,1.462,0.344,1.721,2.236,1.721H345.902z"/>
</g>
<line stroke="#000000" stroke-width="3" stroke-miterlimit="10" x1="665" y1="399.523" x2="665" y2="191"/>
<line stroke="#000000" stroke-width="3" stroke-miterlimit="10" x1="439" y1="837" x2="313" y2="837"/>
<line stroke="#000000" stroke-width="3" stroke-miterlimit="10" x1="1467" y1="447" x2="1571" y2="447"/>
<g>
</g>
<g>
</g>
<g>
</g>
<g>
</g>
<g>
</g>
<g>
</g>
</svg>
