<svg xmlns="http://www.w3.org/2000/svg" xmlns:xlink="http://www.w3.org/1999/xlink" viewBox="0 0 1920 2218"><defs><style>.a{fill:#e9e9e9;}.b{clip-path:url(#c);}.c,.h,.m{fill:#fff;}.d{fill:#f6f6f6;}.e{fill:#e2e1e1;}.f,.o{fill:#323232;}.g,.n{fill:none;}.h,.m,.n{fill-rule:evenodd;}.h{opacity:0.54;}.i,.j,.p,.z{fill:#dbdbdb;}.j,.k{font-size:14px;}.am,.j,.q,.r{font-family:SegoeUI, Segoe UI;}.ab,.ac,.ad,.am,.ap,.aq,.ar,.k,.r,.u,.v,.w,.y{fill:#707070;}.aa,.an,.ar,.k,.p{font-family:YuGothicUI-Regular, Yu Gothic UI;}.l{fill:#f4b300;}.n{stroke:#fff;stroke-width:0.5px;}.o{stroke:#707070;}.p,.r{font-size:20px;}.s{clip-path:url(#a);}.t{fill:#fb0;}.u,.w,.z{font-size:23px;}.ab,.ac,.ad,.ap,.aq,.u,.w,.z{font-family:YuGothicUI-Bold, Yu Gothic UI;font-weight:700;}.w{opacity:0.9;}.x,.y{opacity:0.61;}.aa{fill:#949494;}.aa,.ab{font-size:16px;}.ac{font-size:73px;}.ad{font-size:50px;}.ae{fill:#bf392c;}.af{fill:#e2574c;}.ag{fill:#ed9d5d;}.ah{fill:#d58d54;}.ai{fill:#e4e7e7;}.aj{fill:#cdcfcf;}.ak{fill:#efc75e;}.al{fill:#d7b354;}.am{font-size:33px;}.ao{font-family:SegoeUISymbol, Segoe UI Symbol;}.ap{font-size:54px;}.aq{font-size:45px;}.ar{font-size:35px;}.as{stroke:none;}</style><clipPath id="a"><rect class="a" width="247" height="853" transform="translate(0 81)"/></clipPath><clipPath id="c"><rect width="1920" height="2218"/></clipPath></defs><g id="b" class="b"><rect class="c" width="1920" height="2218"/><rect class="c" width="1658" height="998" transform="translate(262 81)"/><rect class="d" width="1658" height="998" transform="translate(262 1079)"/><rect class="e" width="262" height="2787" transform="translate(0 81)"/><rect class="f" width="1920" height="81"/><g transform="translate(-718 -53)"><rect class="g" width="18.868" height="18.868" transform="translate(745 78)"/><path class="h" d="M3,31.408H41.112V27.173H3v4.235ZM3,20.821H41.112V16.587H3v4.235ZM3,6v4.235H41.112V6Z" transform="translate(744.358 76.717)"/></g><g transform="translate(1758.423 26.388)"><g transform="translate(0)"><path class="i" d="M116.047,12.836a6.184,6.184,0,0,0,4.538-1.88,6.183,6.183,0,0,0,1.88-4.538,6.184,6.184,0,0,0-1.88-4.538,6.417,6.417,0,0,0-9.076,0,6.184,6.184,0,0,0-1.88,4.538,6.183,6.183,0,0,0,1.88,4.538A6.184,6.184,0,0,0,116.047,12.836Z" transform="translate(-104.281)"/><path class="i" d="M41.742,208.839a17.11,17.11,0,0,0-.234-1.822,14.173,14.173,0,0,0-.443-1.813,8.6,8.6,0,0,0-.719-1.63,5.87,5.87,0,0,0-1.036-1.354,4.364,4.364,0,0,0-1.429-.894,5.024,5.024,0,0,0-1.864-.334,2.043,2.043,0,0,0-.7.359q-.551.359-1.245.8a7.906,7.906,0,0,1-1.805.8,7.1,7.1,0,0,1-4.463,0,7.9,7.9,0,0,1-1.805-.8q-.694-.443-1.245-.8a2.043,2.043,0,0,0-.7-.359,5.021,5.021,0,0,0-1.864.334,4.363,4.363,0,0,0-1.429.894,5.878,5.878,0,0,0-1.036,1.354A8.613,8.613,0,0,0,19,205.2a14.174,14.174,0,0,0-.443,1.813,17.009,17.009,0,0,0-.234,1.822q-.058.844-.058,1.73a4.166,4.166,0,0,0,1.22,3.167,4.509,4.509,0,0,0,3.243,1.161H37.338a4.509,4.509,0,0,0,3.242-1.161,4.164,4.164,0,0,0,1.22-3.167Q41.8,209.683,41.742,208.839Z" transform="translate(-18.268 -189.226)"/></g></g><text class="j" transform="translate(1795 44)"><tspan x="0" y="0">Andy Chien</tspan></text><path class="i" d="M1691.8-51.869h9.463l-4.891,7.549Z" transform="translate(183 88.869)"/><g transform="translate(56 -2)"><rect class="c" width="199" height="28" rx="14" transform="translate(1411 29)"/><path class="f" d="M14.894,14.062,10.819,9.824a5.764,5.764,0,1,0-.405.37L14.5,14.442a.274.274,0,1,0,.4-.38ZM6.743,10.971A5.211,5.211,0,1,1,11.954,5.76,5.217,5.217,0,0,1,6.743,10.971Z" transform="translate(1582.599 35.381)"/><text class="k" transform="translate(1428 48)"><tspan x="0" y="0">全站搜尋</tspan></text></g><g transform="translate(0 1)"><g transform="translate(1708.479 25.388)"><g transform="translate(0)"><path class="i" d="M64.822,22.5l-1.908-3.181a9.448,9.448,0,0,1-1.347-4.861V11.669A7.789,7.789,0,0,0,56.01,4.217V2.223a2.223,2.223,0,0,0-4.445,0V4.217a7.789,7.789,0,0,0-5.557,7.451v2.786a9.453,9.453,0,0,1-1.346,4.86L42.754,22.5a.557.557,0,0,0,.476.842H64.345a.556.556,0,0,0,.477-.841Z" transform="translate(-42.675 0)"/></g><g transform="translate(7.613 24.449)"><path class="i" d="M188.815,469.333a3.866,3.866,0,0,0,7,0Z" transform="translate(-188.815 -469.333)"/></g></g><ellipse class="l" cx="3.467" cy="3.467" rx="3.467" ry="3.467" transform="translate(1722.956 28.875)"/></g><g transform="translate(270.264 10.85)"><g transform="translate(-168.264 13.15)"><path class="m" d="M16.328,36.693a.664.664,0,0,1-.3-.066L1.494,29.706A.7.7,0,0,1,1.1,29.08V7.629a.69.69,0,0,1,.323-.586A.678.678,0,0,1,2.089,7l14.239,6.781L30.562,7a.691.691,0,0,1,.988.627V29.08a.7.7,0,0,1-.391.626l-14.534,6.92a.665.665,0,0,1-.3.066ZM2.486,28.644l13.842,6.592,13.84-6.592V8.725L16.624,15.172a.7.7,0,0,1-.595,0L2.486,8.725V28.644Z" transform="translate(-0.791 -1.17)"/><path class="m" d="M16.273,36.949a.98.98,0,0,1-.435-.1L1.307,29.931a1.009,1.009,0,0,1-.571-.9V7.575A1.006,1.006,0,0,1,1.2,6.727a1.029,1.029,0,0,1,.969-.057l14.1,6.715,14.1-6.715a1.018,1.018,0,0,1,.967.057,1,1,0,0,1,.464.848V29.026a1,1,0,0,1-.57.9L16.7,36.852a.983.983,0,0,1-.43.1ZM1.737,7.188a.36.36,0,0,0-.2.059.38.38,0,0,0-.184.327V29.026a.386.386,0,0,0,.217.347l14.538,6.922a.373.373,0,0,0,.329,0l14.534-6.922a.383.383,0,0,0,.217-.347V7.575a.381.381,0,0,0-.548-.347L16.273,14.069l-.135-.063L1.9,7.227a.4.4,0,0,0-.167-.039ZM16.273,35.522l-.135-.061L2.12,28.787V8.182l13.988,6.657a.4.4,0,0,0,.331,0L30.422,8.182v20.6l-.174.083L16.273,35.522ZM2.739,28.4l13.534,6.443L29.806,28.4V9.158L16.7,15.4a1.017,1.017,0,0,1-.862,0L2.739,9.158V28.4Z" transform="translate(-0.736 -1.116)"/><path class="m" d="M16.817,10.059,4.749,4.315a.692.692,0,1,1,.6-1.248l11.472,5.46,11.468-5.46a.691.691,0,1,1,.595,1.248L16.817,10.059" transform="translate(-1.28 -0.579)"/><path class="m" d="M16.763,10.348l-.135-.063L4.564,4.54a1,1,0,0,1-.472-1.332,1.026,1.026,0,0,1,1.334-.474l11.337,5.4L28.1,2.734a1.02,1.02,0,0,1,1.333.473A1,1,0,0,1,28.96,4.54l-12.2,5.808ZM4.994,3.255a.382.382,0,0,0-.347.217.387.387,0,0,0,.183.513L16.763,9.663l11.93-5.678a.384.384,0,1,0-.331-.693l-11.6,5.525-.135-.063L5.159,3.292a.385.385,0,0,0-.165-.037Z" transform="translate(-1.226 -0.525)"/><path class="m" d="M18.206,15.9H19.59V37.35H18.206Z" transform="translate(-3.363 -2.518)"/><path class="m" d="M17.843,15.532h2V37.6h-2Zm.618,21.454h.767V16.149h-.767Z" transform="translate(-3.309 -2.463)"/><path class="m" d="M57.931,40.777H52.55V30.406h1.214v9.272h4.167Z" transform="translate(-8.528 -4.7)"/><path class="n" d="M57.931,40.777H52.55V30.406h1.214v9.272h4.167Z" transform="translate(-8.528 -4.7)"/><path class="m" d="M66.431,37.864H61.2a2.773,2.773,0,0,0,.664,1.91,2.3,2.3,0,0,0,1.751.672,3.64,3.64,0,0,0,2.3-.825v1.116a4.31,4.31,0,0,1-2.584.708,3.131,3.131,0,0,1-2.466-1.008,4.129,4.129,0,0,1-.9-2.839,4.046,4.046,0,0,1,.98-2.817,3.142,3.142,0,0,1,2.433-1.088,2.782,2.782,0,0,1,2.248.941,3.912,3.912,0,0,1,.8,2.61v.622Zm-1.214-1.006a2.415,2.415,0,0,0-.5-1.6,1.684,1.684,0,0,0-1.355-.572,1.911,1.911,0,0,0-1.425.6,2.717,2.717,0,0,0-.724,1.568Z" transform="translate(-9.644 -5.194)"/><path class="n" d="M66.431,37.864H61.2a2.773,2.773,0,0,0,.664,1.91,2.3,2.3,0,0,0,1.751.672,3.64,3.64,0,0,0,2.3-.825v1.116a4.31,4.31,0,0,1-2.584.708,3.131,3.131,0,0,1-2.466-1.008,4.129,4.129,0,0,1-.9-2.839,4.046,4.046,0,0,1,.98-2.817,3.142,3.142,0,0,1,2.433-1.088,2.782,2.782,0,0,1,2.248.941,3.912,3.912,0,0,1,.8,2.61v.622Zm-1.214-1.006a2.415,2.415,0,0,0-.5-1.6,1.684,1.684,0,0,0-1.355-.572,1.911,1.911,0,0,0-1.425.6,2.717,2.717,0,0,0-.724,1.568Z" transform="translate(-9.644 -5.194)"/><path class="m" d="M74.89,41.271H73.7V40.113h-.028A2.484,2.484,0,0,1,71.4,41.445a2.434,2.434,0,0,1-1.733-.586,2.03,2.03,0,0,1-.624-1.555q0-2.075,2.444-2.415l2.219-.312q0-1.887-1.526-1.888a3.646,3.646,0,0,0-2.415.912V34.386a4.587,4.587,0,0,1,2.517-.694q2.611,0,2.612,2.763v4.816ZM73.7,37.525l-1.786.246a2.9,2.9,0,0,0-1.244.408,1.18,1.18,0,0,0-.419,1.037,1.13,1.13,0,0,0,.387.886,1.494,1.494,0,0,0,1.031.343,1.9,1.9,0,0,0,1.456-.617,2.217,2.217,0,0,0,.574-1.567v-.737Z" transform="translate(-11.008 -5.194)"/><path class="n" d="M74.89,41.271H73.7V40.113h-.028A2.484,2.484,0,0,1,71.4,41.445a2.434,2.434,0,0,1-1.733-.586,2.03,2.03,0,0,1-.624-1.555q0-2.075,2.444-2.415l2.219-.312q0-1.887-1.526-1.888a3.646,3.646,0,0,0-2.415.912V34.386a4.587,4.587,0,0,1,2.517-.694q2.611,0,2.612,2.763v4.816ZM73.7,37.525l-1.786.246a2.9,2.9,0,0,0-1.244.408,1.18,1.18,0,0,0-.419,1.037,1.13,1.13,0,0,0,.387.886,1.494,1.494,0,0,0,1.031.343,1.9,1.9,0,0,0,1.456-.617,2.217,2.217,0,0,0,.574-1.567v-.737Z" transform="translate(-11.008 -5.194)"/><path class="m" d="M82.417,35.074a1.452,1.452,0,0,0-.9-.238,1.511,1.511,0,0,0-1.269.715,3.3,3.3,0,0,0-.511,1.952v3.776H78.555V33.873h1.186V35.4h.029a2.574,2.574,0,0,1,.775-1.219,1.766,1.766,0,0,1,1.165-.438,1.934,1.934,0,0,1,.708.1v1.229Z" transform="translate(-12.439 -5.202)"/><path class="n" d="M82.417,35.074a1.452,1.452,0,0,0-.9-.238,1.511,1.511,0,0,0-1.269.715,3.3,3.3,0,0,0-.511,1.952v3.776H78.555V33.873h1.186V35.4h.029a2.574,2.574,0,0,1,.775-1.219,1.766,1.766,0,0,1,1.165-.438,1.934,1.934,0,0,1,.708.1v1.229Z" transform="translate(-12.439 -5.202)"/><path class="m" d="M90.73,41.271H89.545V37.048q0-2.358-1.722-2.359a1.869,1.869,0,0,0-1.472.669,2.481,2.481,0,0,0-.582,1.689v4.223H84.583V33.865h1.185v1.229H85.8a2.67,2.67,0,0,1,2.429-1.4,2.264,2.264,0,0,1,1.858.785,3.5,3.5,0,0,1,.644,2.268v4.527Z" transform="translate(-13.345 -5.194)"/><path class="n" d="M90.73,41.271H89.545V37.048q0-2.358-1.722-2.359a1.869,1.869,0,0,0-1.472.669,2.481,2.481,0,0,0-.582,1.689v4.223H84.583V33.865h1.185v1.229H85.8a2.67,2.67,0,0,1,2.429-1.4,2.264,2.264,0,0,1,1.858.785,3.5,3.5,0,0,1,.644,2.268v4.527Z" transform="translate(-13.345 -5.194)"/><path class="m" d="M105.209,40.777H104V33.819q0-.823.1-2.017h-.029a6.434,6.434,0,0,1-.311,1.006l-3.544,7.969h-.592l-3.538-7.912a6.207,6.207,0,0,1-.311-1.063h-.03q.059.622.059,2.032v6.943H94.636V30.406h1.606l3.181,7.232a9.544,9.544,0,0,1,.478,1.244h.043c.208-.568.373-.993.5-1.273l3.246-7.2h1.519V40.777Z" transform="translate(-14.857 -4.7)"/><path class="n" d="M105.209,40.777H104V33.819q0-.823.1-2.017h-.029a6.434,6.434,0,0,1-.311,1.006l-3.544,7.969h-.592l-3.538-7.912a6.207,6.207,0,0,1-.311-1.063h-.03q.059.622.059,2.032v6.943H94.636V30.406h1.606l3.181,7.232a9.544,9.544,0,0,1,.478,1.244h.043c.208-.568.373-.993.5-1.273l3.246-7.2h1.519V40.777Z" transform="translate(-14.857 -4.7)"/><path class="m" d="M113.109,41.445a3.432,3.432,0,0,1-2.622-1.038,3.84,3.84,0,0,1-.98-2.751,4.009,4.009,0,0,1,1.02-2.916,3.671,3.671,0,0,1,2.756-1.048,3.32,3.32,0,0,1,2.585,1.02,4.044,4.044,0,0,1,.929,2.828,3.98,3.98,0,0,1-1,2.839,3.512,3.512,0,0,1-2.686,1.066Zm.086-6.755a2.252,2.252,0,0,0-1.807.778,3.186,3.186,0,0,0-.666,2.144,3.021,3.021,0,0,0,.672,2.076,2.285,2.285,0,0,0,1.8.76,2.167,2.167,0,0,0,1.768-.745,3.226,3.226,0,0,0,.619-2.118,3.284,3.284,0,0,0-.619-2.141,2.159,2.159,0,0,0-1.768-.753Z" transform="translate(-17.093 -5.194)"/><path class="n" d="M113.109,41.445a3.432,3.432,0,0,1-2.622-1.038,3.84,3.84,0,0,1-.98-2.751,4.009,4.009,0,0,1,1.02-2.916,3.671,3.671,0,0,1,2.756-1.048,3.32,3.32,0,0,1,2.585,1.02,4.044,4.044,0,0,1,.929,2.828,3.98,3.98,0,0,1-1,2.839,3.512,3.512,0,0,1-2.686,1.066Zm.086-6.755a2.252,2.252,0,0,0-1.807.778,3.186,3.186,0,0,0-.666,2.144,3.021,3.021,0,0,0,.672,2.076,2.285,2.285,0,0,0,1.8.76,2.167,2.167,0,0,0,1.768-.745,3.226,3.226,0,0,0,.619-2.118,3.284,3.284,0,0,0-.619-2.141,2.159,2.159,0,0,0-1.768-.753Z" transform="translate(-17.093 -5.194)"/><path class="m" d="M126.549,40.672h-1.186V39.413h-.029a2.737,2.737,0,0,1-2.545,1.432,2.766,2.766,0,0,1-2.232-.994,4.084,4.084,0,0,1-.835-2.709,4.44,4.44,0,0,1,.925-2.943,3.052,3.052,0,0,1,2.466-1.106,2.372,2.372,0,0,1,2.22,1.2h.029V29.707h1.186V40.672Zm-1.186-3.35V36.231a2.118,2.118,0,0,0-.592-1.518,1.988,1.988,0,0,0-1.506-.623,2.049,2.049,0,0,0-1.706.8,3.49,3.49,0,0,0-.621,2.2,3.132,3.132,0,0,0,.6,2.021,1.949,1.949,0,0,0,1.6.742,2.025,2.025,0,0,0,1.609-.715,2.668,2.668,0,0,0,.618-1.81Z" transform="translate(-18.629 -4.595)"/><path class="n" d="M126.549,40.672h-1.186V39.413h-.029a2.737,2.737,0,0,1-2.545,1.432,2.766,2.766,0,0,1-2.232-.994,4.084,4.084,0,0,1-.835-2.709,4.44,4.44,0,0,1,.925-2.943,3.052,3.052,0,0,1,2.466-1.106,2.372,2.372,0,0,1,2.22,1.2h.029V29.707h1.186V40.672Zm-1.186-3.35V36.231a2.118,2.118,0,0,0-.592-1.518,1.988,1.988,0,0,0-1.506-.623,2.049,2.049,0,0,0-1.706.8,3.49,3.49,0,0,0-.621,2.2,3.132,3.132,0,0,0,.6,2.021,1.949,1.949,0,0,0,1.6.742,2.025,2.025,0,0,0,1.609-.715,2.668,2.668,0,0,0,.618-1.81Z" transform="translate(-18.629 -4.595)"/><path class="m" d="M136.446,37.864h-5.229a2.77,2.77,0,0,0,.666,1.91,2.3,2.3,0,0,0,1.75.672,3.636,3.636,0,0,0,2.3-.825v1.116a4.307,4.307,0,0,1-2.583.708,3.128,3.128,0,0,1-2.465-1.008,4.13,4.13,0,0,1-.9-2.839,4.052,4.052,0,0,1,.979-2.817,3.147,3.147,0,0,1,2.435-1.088,2.783,2.783,0,0,1,2.248.941,3.916,3.916,0,0,1,.8,2.61v.622Zm-1.215-1.006a2.419,2.419,0,0,0-.494-1.6,1.69,1.69,0,0,0-1.358-.572,1.91,1.91,0,0,0-1.423.6,2.711,2.711,0,0,0-.724,1.568Z" transform="translate(-20.173 -5.194)"/><path class="n" d="M136.446,37.864h-5.229a2.77,2.77,0,0,0,.666,1.91,2.3,2.3,0,0,0,1.75.672,3.636,3.636,0,0,0,2.3-.825v1.116a4.307,4.307,0,0,1-2.583.708,3.128,3.128,0,0,1-2.465-1.008,4.13,4.13,0,0,1-.9-2.839,4.052,4.052,0,0,1,.979-2.817,3.147,3.147,0,0,1,2.435-1.088,2.783,2.783,0,0,1,2.248.941,3.916,3.916,0,0,1,.8,2.61v.622Zm-1.215-1.006a2.419,2.419,0,0,0-.494-1.6,1.69,1.69,0,0,0-1.358-.572,1.91,1.91,0,0,0-1.423.6,2.711,2.711,0,0,0-.724,1.568Z" transform="translate(-20.173 -5.194)"/><path class="m" d="M59.092.247l.775,1.867a40.375,40.375,0,0,1-4.12.532l.1,1.14h3.732V5.432H55.942l.073,1.309h3.561V8.486H56.136l.1,1.477H70.7l.121-1.477h-3.2V6.741h3.318l.1-1.212H67.621V3.882h3.562l.1-1.308H67.426V.612h6.057l-.654,9.351h1.624v4.822H72.225V11.878H54.779v2.907H52.55V9.963H54.1L53.569.949a36.754,36.754,0,0,0,5.523-.7ZM56.669,13.235h14.1v1.816a40.853,40.853,0,0,1-5.718,2.06h9.253v1.938h-9.4v2.084a1.852,1.852,0,0,1-.438,1.187,1.929,1.929,0,0,1-1.405.606H59.092V20.988q1.285.047,2.737.048.751,0,.75-.534V19.049H52.985V17.111H62.58v-.873a39.429,39.429,0,0,0,4.435-1.258H56.669V13.235ZM65.464.247l1.477.921A12.139,12.139,0,0,1,65.44,2.5c.387.323.76.629,1.114.921L65.271,4.7c-.389-.387-.84-.789-1.357-1.212A22.609,22.609,0,0,1,60.934,4.9l-.971-1.6a14.68,14.68,0,0,0,2.425-.921q-.777-.534-1.65-1.09L61.9.15q1.088.655,2.059,1.308a12.833,12.833,0,0,0,1.5-1.212ZM65.755,4.8l1.477.921a15.912,15.912,0,0,1-1.768,1.624q.752.581,1.381,1.114L65.56,9.746a18.317,18.317,0,0,0-1.6-1.405,23.071,23.071,0,0,1-2.737,1.308l-.97-1.6a12.94,12.94,0,0,0,2.18-.848q-.725-.486-1.5-.969L62.1,5.092c.68.405,1.3.809,1.867,1.212a12.987,12.987,0,0,0,1.793-1.5Z" transform="translate(-8.528 -0.15)"/><path class="m" d="M89.9,10.819V2.968H81.809V.835H92.13v9.98Zm4,1.308h8.167v9.692H83.844V12.126H93.9ZM88.98,6.359l.582,2.059a27.647,27.647,0,0,1-6.833,3.755l-.919-2.108A31.683,31.683,0,0,0,88.98,6.359ZM83.8,3.353a19.874,19.874,0,0,1,3.731,2.3L86.241,7.619a16.229,16.229,0,0,0-3.56-2.593L83.8,3.353ZM86.17,16H99.738V14.16H86.17Zm0,3.778H99.738V17.844H86.17ZM93.051.835h10.37V11.4H101.1V2.968H93.051V.835Zm7.293,5.331.558,1.986a34.231,34.231,0,0,1-6.785,2.376l-.872-2.037a39.118,39.118,0,0,0,7.1-2.325ZM95.038,3.16a18.965,18.965,0,0,1,3.538,2.013L97.291,7.135a14.685,14.685,0,0,0-3.368-2.3L95.038,3.16Z" transform="translate(-12.928 -0.253)"/><path class="m" d="M111.752,2.281h6.881V19.1h-6.881Zm2.229,14.683H116.4V4.316h-2.422Zm18.56-15.215V13.96h-9.692v5.718q0,.775.92.775h5.839a1.627,1.627,0,0,0,1.237-.412q.46-.387.607-3.756H133.7c-.243,2.681-.639,4.992-1.189,5.477a3.578,3.578,0,0,1-2.593.726h-7.049a2.406,2.406,0,0,1-1.7-.583,2.112,2.112,0,0,1-.63-1.6V1.749Zm-9.692,10.078h2.567V3.88h-2.567Zm4.8,0h2.569V3.88h-2.569Z" transform="translate(-17.431 -0.39)"/></g></g><g transform="translate(0 -791)"><g class="o" transform="translate(0 2868)"><rect class="as" width="1920" height="146"/><rect class="g" x="0.5" y="0.5" width="1919" height="145"/></g><text class="p" transform="translate(495 2912)"><tspan x="0" y="22">關於我們</tspan><tspan class="q" y="22" xml:space="preserve">  </tspan><tspan y="22">｜</tspan><tspan class="q" y="22" xml:space="preserve">  </tspan><tspan y="22">合作夥伴</tspan><tspan class="q" y="22" xml:space="preserve">  </tspan><tspan y="22">｜</tspan><tspan class="q" y="22" xml:space="preserve">  </tspan><tspan y="22">服務條款</tspan><tspan class="q" y="22" xml:space="preserve">  </tspan><tspan y="22">｜</tspan><tspan class="q" y="22" xml:space="preserve">  </tspan><tspan y="22">智財權政策</tspan><tspan class="q" y="22" xml:space="preserve">  </tspan><tspan y="22">｜</tspan><tspan class="q" y="22" xml:space="preserve">  </tspan><tspan y="22">隱私權政策</tspan><tspan class="q" y="22" xml:space="preserve">  </tspan><tspan y="22">｜</tspan><tspan class="q" y="22" xml:space="preserve">  </tspan><tspan y="22">常見問答</tspan><tspan class="q" y="22" xml:space="preserve">  </tspan><tspan y="22">｜</tspan><tspan class="q" y="22" xml:space="preserve">  </tspan><tspan y="22">聯絡我們</tspan></text><text class="r" transform="translate(644 2956)"><tspan x="0" y="22">© 2017 Dopod International Corp. Ltd. All Rights Reserved</tspan></text></g><rect class="t" width="262" height="70" transform="translate(0 536)"/><g transform="translate(-11)"><text class="u" transform="translate(84.233 179)"><tspan x="0" y="0">搜尋</tspan></text><path class="v" d="M21.44,20.68l-5.993-6.233a8.477,8.477,0,1,0-.6.544l6.008,6.248a.4.4,0,1,0,.582-.559ZM9.453,16.133A7.663,7.663,0,1,1,17.116,8.47,7.672,7.672,0,0,1,9.453,16.133Z" transform="translate(46.017 159.545)"/></g><g transform="translate(-11)"><text class="w" transform="translate(83.61 249)"><tspan x="0" y="0">預習</tspan></text><g class="x" transform="translate(44 231.13)"><g transform="translate(0 0)"><path class="v" d="M24.832,59.815H23.163v-.569a.491.491,0,0,0-.353-.491,13.826,13.826,0,0,0-3.539-.452,9.128,9.128,0,0,0-6.617,2.454A9.032,9.032,0,0,0,6.037,58.3a13.826,13.826,0,0,0-3.539.452.491.491,0,0,0-.353.491v.564H.491A.491.491,0,0,0,0,60.3V75.979a.49.49,0,0,0,.731.427,17.306,17.306,0,0,1,11.81-.982h.118a.492.492,0,0,0,.118,0,17.013,17.013,0,0,1,11.81.982.491.491,0,0,0,.736-.422V60.306A.491.491,0,0,0,24.832,59.815ZM.982,75.2V60.8H2.155v12.31a.491.491,0,0,0,.564.491,21.481,21.481,0,0,1,3.068-.245,12.732,12.732,0,0,1,4.192.633A18.045,18.045,0,0,0,.982,75.2Zm4.805-2.822a21.6,21.6,0,0,0-2.67.172V59.634a13.538,13.538,0,0,1,2.911-.324,8.014,8.014,0,0,1,6.126,2.405l.015,12.227A11.474,11.474,0,0,0,5.787,72.376ZM13.15,61.715a8.087,8.087,0,0,1,6.126-2.405,13.6,13.6,0,0,1,2.911.324V72.548a21.592,21.592,0,0,0-2.655-.177,11.57,11.57,0,0,0-6.381,1.566ZM24.336,75.2a18.048,18.048,0,0,0-9.017-1.212,12.762,12.762,0,0,1,4.211-.633,21.475,21.475,0,0,1,3.087.241.491.491,0,0,0,.564-.491V60.8h1.173Z" transform="translate(0 -58.303)"/></g></g></g><g transform="translate(-11)"><text class="w" transform="translate(84.092 389)"><tspan x="0" y="0">複習</tspan></text><path class="y" d="M27.554,22.67H26.536a5.6,5.6,0,0,0-11.009-.2,2.266,2.266,0,0,0-3.032,0,5.6,5.6,0,0,0-11.07.664H.467a.467.467,0,1,0,0,.934h.958A5.6,5.6,0,0,0,12.6,23.758a1.775,1.775,0,0,1,1.409-.932,1.776,1.776,0,0,1,1.409.932,5.6,5.6,0,0,0,11.2-.154h.934a.467.467,0,1,0,0-.934Zm-20.515,5.6a4.67,4.67,0,1,1,0-9.34,4.67,4.67,0,0,1,0,9.34Zm14.011,0a4.67,4.67,0,1,1,0-9.34,4.67,4.67,0,0,1,0,9.34Z" transform="translate(43 357.883)"/></g><g transform="translate(-11)"><text class="w" transform="translate(83.847 319)"><tspan x="0" y="0">上課</tspan></text><g class="x" transform="translate(46 301.95)"><g transform="translate(3.158)"><path class="v" d="M77.527,0A2.561,2.561,0,0,0,75,2.569a2.527,2.527,0,0,0,5.053,0A2.561,2.561,0,0,0,77.527,0Zm0,3.832a1.265,1.265,0,0,1-1.263-1.263,1.264,1.264,0,1,1,2.527,0A1.265,1.265,0,0,1,77.527,3.832Z" transform="translate(-75)"/></g><path class="v" d="M19.665,0H10.738A1.9,1.9,0,0,0,8.843,1.895v4.31L8.288,5.65A1.882,1.882,0,0,0,6.948,5.1H3.158A3.162,3.162,0,0,0,0,8.253v3.79A1.9,1.9,0,0,0,2.527,13.83v5.835a1.894,1.894,0,0,0,3.158,1.411,1.894,1.894,0,0,0,3.158-1.411V11.3a1.9,1.9,0,0,0,1.479-.092l2.127-1.063h7.216A1.9,1.9,0,0,0,21.56,8.253V1.895A1.9,1.9,0,0,0,19.665,0ZM12.283,8.818,9.758,10.081a.631.631,0,0,1-.73-.118l-.37-.37a.632.632,0,0,0-1.078.445v9.627a.632.632,0,0,1-1.263,0V13.306a.632.632,0,0,0-1.263,0v6.358a.632.632,0,0,1-1.263,0V8.253a.632.632,0,1,0-1.263,0v3.79a.632.632,0,1,1-1.263,0c0-.476,0-3.4,0-3.79A1.9,1.9,0,0,1,3.158,6.358h3.79a.627.627,0,0,1,.447.185L9.277,8.426a.632.632,0,0,0,.729.118l1.713-.856a.632.632,0,0,1,.565,1.13ZM20.3,8.253a.632.632,0,0,1-.632.632H13.787l.012-.032a1.888,1.888,0,0,0,.083-.834l3.454-1.727a.632.632,0,0,0-.565-1.13L13.318,6.889a1.893,1.893,0,0,0-2.164-.331l-1.047.524V1.895a.632.632,0,0,1,.632-.632h8.927a.632.632,0,0,1,.632.632Z"/></g></g><g transform="translate(-14 33)"><text class="u" transform="translate(86 837)"><tspan x="0" y="0">設定</tspan></text><g transform="translate(46 814)"><path class="v" d="M25.949,10.639H23.39a.983.983,0,0,1-.7-1.677L24.5,7.152a1.41,1.41,0,0,0,0-1.993L22.2,2.853a1.442,1.442,0,0,0-1.993,0L18.4,4.662a.982.982,0,0,1-1.677-.695V1.408A1.41,1.41,0,0,0,15.31,0H12.047a1.41,1.41,0,0,0-1.408,1.408V3.968a.982.982,0,0,1-1.677.695L7.152,2.853a1.442,1.442,0,0,0-1.993,0L2.853,5.16a1.41,1.41,0,0,0,0,1.993l1.81,1.809a.983.983,0,0,1-.7,1.677H1.408A1.41,1.41,0,0,0,0,12.047V15.31a1.41,1.41,0,0,0,1.408,1.409H3.968a.983.983,0,0,1,.7,1.677L2.853,20.2a1.41,1.41,0,0,0,0,1.993L5.16,24.5a1.441,1.441,0,0,0,1.993,0l1.809-1.81a.983.983,0,0,1,1.677.7v2.559a1.41,1.41,0,0,0,1.408,1.408H15.31a1.41,1.41,0,0,0,1.408-1.408V23.39a.983.983,0,0,1,1.677-.7L20.2,24.5a1.442,1.442,0,0,0,1.993,0L24.5,22.2a1.41,1.41,0,0,0,0-1.993L22.694,18.4a.983.983,0,0,1,.7-1.677h2.559a1.41,1.41,0,0,0,1.408-1.408V12.047A1.41,1.41,0,0,0,25.949,10.639Zm.4,4.671a.4.4,0,0,1-.4.4H23.39a2,2,0,0,0-1.411,3.408l1.81,1.809a.4.4,0,0,1,0,.559l-2.307,2.307a.4.4,0,0,1-.559,0l-1.809-1.81a2,2,0,0,0-3.408,1.411v2.559a.4.4,0,0,1-.4.4H12.047a.4.4,0,0,1-.4-.4V23.39a1.965,1.965,0,0,0-1.232-1.844,2.019,2.019,0,0,0-.777-.158,1.968,1.968,0,0,0-1.4.59l-1.809,1.81a.4.4,0,0,1-.559,0L3.57,21.481a.4.4,0,0,1,0-.559l1.81-1.809a2,2,0,0,0-1.411-3.407H1.408a.4.4,0,0,1-.4-.4V12.047a.4.4,0,0,1,.4-.4H3.968A2,2,0,0,0,5.379,8.245L3.57,6.436a.4.4,0,0,1,0-.559L5.876,3.57a.4.4,0,0,1,.559,0L8.245,5.379a2,2,0,0,0,3.408-1.411V1.408a.4.4,0,0,1,.4-.4H15.31a.4.4,0,0,1,.4.4V3.968a2,2,0,0,0,3.408,1.411L20.922,3.57a.4.4,0,0,1,.559,0l2.307,2.307a.4.4,0,0,1,0,.559l-1.81,1.809a2,2,0,0,0,1.411,3.408h2.559a.4.4,0,0,1,.4.395Z"/><path class="v" d="M22.56,18a4.56,4.56,0,1,0,4.56,4.56A4.564,4.564,0,0,0,22.56,18Zm0,8.106a3.546,3.546,0,1,1,3.546-3.546A3.551,3.551,0,0,1,22.56,26.106Z" transform="translate(-8.881 -8.881)"/></g></g><g transform="translate(-14 19)"><text class="u" transform="translate(86 780)"><tspan x="0" y="0">其他</tspan></text><g transform="translate(48 758.959)"><g transform="translate(0 0.002)"><path class="v" d="M12.02,0a12.019,12.019,0,1,0,12.02,12.02A12.034,12.034,0,0,0,12.02,0Zm0,23.224A11.2,11.2,0,1,1,23.225,12.021,11.218,11.218,0,0,1,12.02,23.226Z" transform="translate(0 -0.002)"/><circle class="v" cx="0.902" cy="0.902" r="0.902" transform="translate(6.74 11.046)"/><path class="v" d="M47.5,45.778a.9.9,0,1,0,.9.9A.9.9,0,0,0,47.5,45.778Z" transform="translate(-35.279 -34.663)"/><circle class="v" cx="0.902" cy="0.902" r="0.902" transform="translate(15.888 11.115)"/></g></g></g><g transform="translate(-14 -152)"><g transform="translate(48 710)"><path class="i" d="M12.243,0A12.243,12.243,0,1,0,24.485,12.243,12.256,12.256,0,0,0,12.243,0Zm0,23.543a11.3,11.3,0,1,1,11.3-11.3A11.314,11.314,0,0,1,12.243,23.543Z"/><path class="i" d="M25.471,37a.47.47,0,0,0-.471.471v.942a.471.471,0,1,0,.942,0v-.942A.47.47,0,0,0,25.471,37Z" transform="translate(-13.228 -19.578)"/><path class="i" d="M21.82,9h-.054A3.767,3.767,0,0,0,18,12.767a.471.471,0,0,0,.942,0,2.825,2.825,0,0,1,2.866-2.825,2.879,2.879,0,0,1,2.784,2.784,2.812,2.812,0,0,1-1.3,2.416,4.491,4.491,0,0,0-2,3.82V20.3a.471.471,0,1,0,.942,0V18.963a3.6,3.6,0,0,1,1.569-3.029,3.748,3.748,0,0,0,1.727-3.221A3.793,3.793,0,0,0,21.82,9Z" transform="translate(-9.524 -4.762)"/></g><text class="z" transform="translate(86 732)"><tspan x="0" y="0">幫助</tspan></text></g><text class="aa" transform="translate(75 674.981)"><tspan x="0" y="0">等級系統說明</tspan></text><text class="aa" transform="translate(75 706.981)"><tspan x="0" y="0">課程系統說明</tspan></text><text class="ab" transform="translate(75 643)"><tspan x="0" y="0">徽章系統說明</tspan></text><text class="ac" transform="translate(378 206)"><tspan x="0" y="0">徽章系統說明</tspan></text><text class="ad" transform="translate(599 406)"><tspan x="0" y="0">一起來獲得徽章，往成為知識大師之路邁進！</tspan></text><g transform="translate(691.5 621.151)"><path class="ae" d="M157.558,0H121.909L70.415,75.259h35.649Z" transform="translate(-50.61)"/><path class="af" d="M23.472,0H59.121l51.493,75.259H74.965Z" transform="translate(-23.472)"/><path class="ag" d="M95.209,93.887a43.571,43.571,0,1,1-43.571,43.571A43.446,43.446,0,0,1,95.209,93.887Z" transform="translate(-39.755 -54.277)"/><path class="ah" d="M111.492,122.053a31.688,31.688,0,1,0,31.688,31.688A31.782,31.782,0,0,0,111.492,122.053Zm0,55.454a23.766,23.766,0,1,1,23.766-23.766A23.836,23.836,0,0,1,111.492,177.507Z" transform="translate(-56.038 -70.56)"/></g><g transform="translate(1043.666 621.151)"><path class="ae" d="M157.558,0H121.909L70.415,75.259h35.649Z" transform="translate(-50.61)"/><path class="af" d="M23.472,0H59.121l51.493,75.259H74.965Z" transform="translate(-23.472)"/><path class="ai" d="M95.209,93.887a43.571,43.571,0,1,1-43.571,43.571A43.446,43.446,0,0,1,95.209,93.887Z" transform="translate(-39.755 -54.277)"/><path class="aj" d="M111.492,122.053a31.688,31.688,0,1,0,31.688,31.688A31.782,31.782,0,0,0,111.492,122.053Zm0,55.454a23.766,23.766,0,1,1,23.766-23.766A23.836,23.836,0,0,1,111.492,177.507Z" transform="translate(-56.038 -70.56)"/></g><g transform="translate(1360.229 621.151)"><path class="ae" d="M157.558,0H121.909L70.415,75.259h35.649Z" transform="translate(-50.61)"/><path class="af" d="M23.472,0H59.121l51.493,75.259H74.965Z" transform="translate(-23.472)"/><path class="ak" d="M95.209,93.887a43.571,43.571,0,1,1-43.571,43.571A43.446,43.446,0,0,1,95.209,93.887Z" transform="translate(-39.755 -54.277)"/><path class="al" d="M111.492,122.053a31.688,31.688,0,1,0,31.688,31.688A31.782,31.782,0,0,0,111.492,122.053Zm0,55.454a23.766,23.766,0,1,1,23.766-23.766A23.836,23.836,0,0,1,111.492,177.507Z" transform="translate(-56.038 -70.56)"/></g><text class="am" transform="translate(515.795 1301)"><tspan x="0" y="0"></tspan><tspan x="0" y="62"></tspan><tspan class="an"><tspan x="0" y="124">每天登入：</tspan><tspan class="q" y="124"></tspan><tspan x="0" y="186">完成一堂課：</tspan><tspan class="q" y="186"></tspan><tspan x="0" y="248">完成一張考卷：</tspan><tspan class="q" y="248"></tspan><tspan x="0" y="310">完成一門課：</tspan><tspan class="q" y="310"></tspan><tspan x="0" y="372">問一個問題：</tspan><tspan class="q" y="372"></tspan><tspan x="0" y="434">回答一個問題：</tspan><tspan class="q" y="434"></tspan></tspan><tspan x="0" y="496"></tspan><tspan x="0" y="558"></tspan><tspan class="ao"><tspan x="0" y="620">※</tspan><tspan class="an" y="620">老師也可自行指定任務與獎勵</tspan></tspan></text><g transform="translate(751 1381.271)"><path class="ae" d="M105.049,0H90.881L70.415,29.911H84.584Z" transform="translate(-62.544)"/><path class="af" d="M23.472,0H37.641L58.106,29.911H43.938Z" transform="translate(-23.472)"/><path class="ag" d="M68.955,93.887A17.317,17.317,0,1,1,51.638,111.2,17.267,17.267,0,0,1,68.955,93.887Z" transform="translate(-46.915 -78.144)"/><path class="ah" d="M92.4,122.053a12.594,12.594,0,1,0,12.594,12.594A12.631,12.631,0,0,0,92.4,122.053Zm0,22.04a9.446,9.446,0,1,1,9.446-9.446A9.474,9.474,0,0,1,92.4,144.093Z" transform="translate(-70.358 -101.587)"/></g><g transform="translate(751 1635.149)"><path class="ae" d="M105.049,0H90.881L70.415,29.911H84.584Z" transform="translate(-62.544)"/><path class="af" d="M23.472,0H37.641L58.106,29.911H43.938Z" transform="translate(-23.472)"/><path class="ag" d="M68.955,93.887A17.317,17.317,0,1,1,51.638,111.2,17.267,17.267,0,0,1,68.955,93.887Z" transform="translate(-46.915 -78.144)"/><path class="ah" d="M92.4,122.053a12.594,12.594,0,1,0,12.594,12.594A12.631,12.631,0,0,0,92.4,122.053Zm0,22.04a9.446,9.446,0,1,1,9.446-9.446A9.474,9.474,0,0,1,92.4,144.093Z" transform="translate(-70.358 -101.587)"/></g><g transform="translate(751 1448.122)"><path class="ae" d="M105.049,0H90.881L70.415,29.911H84.584Z" transform="translate(-62.544)"/><path class="af" d="M23.472,0H37.641L58.106,29.911H43.938Z" transform="translate(-23.472)"/><path class="ag" d="M68.955,93.887A17.317,17.317,0,1,1,51.638,111.2,17.267,17.267,0,0,1,68.955,93.887Z" transform="translate(-46.915 -78.144)"/><path class="ah" d="M92.4,122.053a12.594,12.594,0,1,0,12.594,12.594A12.631,12.631,0,0,0,92.4,122.053Zm0,22.04a9.446,9.446,0,1,1,9.446-9.446A9.474,9.474,0,0,1,92.4,144.093Z" transform="translate(-70.358 -101.587)"/></g><g transform="translate(810.489 1448.122)"><path class="ae" d="M105.049,0H90.881L70.415,29.911H84.584Z" transform="translate(-62.544)"/><path class="af" d="M23.472,0H37.641L58.106,29.911H43.938Z" transform="translate(-23.472)"/><path class="ag" d="M68.955,93.887A17.317,17.317,0,1,1,51.638,111.2,17.267,17.267,0,0,1,68.955,93.887Z" transform="translate(-46.915 -78.144)"/><path class="ah" d="M92.4,122.053a12.594,12.594,0,1,0,12.594,12.594A12.631,12.631,0,0,0,92.4,122.053Zm0,22.04a9.446,9.446,0,1,1,9.446-9.446A9.474,9.474,0,0,1,92.4,144.093Z" transform="translate(-70.358 -101.587)"/></g><g transform="translate(751 1514.522)"><path class="ae" d="M105.049,0H90.881L70.415,29.911H84.584Z" transform="translate(-62.544)"/><path class="af" d="M23.472,0H37.641L58.106,29.911H43.938Z" transform="translate(-23.472)"/><path class="ai" d="M68.955,93.887A17.317,17.317,0,1,1,51.638,111.2,17.267,17.267,0,0,1,68.955,93.887Z" transform="translate(-46.915 -78.144)"/><path class="aj" d="M92.4,122.053a12.594,12.594,0,1,0,12.594,12.594A12.631,12.631,0,0,0,92.4,122.053Zm0,22.04a9.446,9.446,0,1,1,9.446-9.446A9.474,9.474,0,0,1,92.4,144.093Z" transform="translate(-70.358 -101.587)"/></g><g transform="translate(751 1701.55)"><path class="ae" d="M105.049,0H90.881L70.415,29.911H84.584Z" transform="translate(-62.544)"/><path class="af" d="M23.472,0H37.641L58.106,29.911H43.938Z" transform="translate(-23.472)"/><path class="ai" d="M68.955,93.887A17.317,17.317,0,1,1,51.638,111.2,17.267,17.267,0,0,1,68.955,93.887Z" transform="translate(-46.915 -78.144)"/><path class="aj" d="M92.4,122.053a12.594,12.594,0,1,0,12.594,12.594A12.631,12.631,0,0,0,92.4,122.053Zm0,22.04a9.446,9.446,0,1,1,9.446-9.446A9.474,9.474,0,0,1,92.4,144.093Z" transform="translate(-70.358 -101.587)"/></g><g transform="translate(751 1574.923)"><path class="ae" d="M105.049,0H90.881L70.415,29.911H84.584Z" transform="translate(-62.544)"/><path class="af" d="M23.472,0H37.641L58.106,29.911H43.938Z" transform="translate(-23.472)"/><path class="ak" d="M68.955,93.887A17.317,17.317,0,1,1,51.638,111.2,17.267,17.267,0,0,1,68.955,93.887Z" transform="translate(-46.915 -78.144)"/><path class="al" d="M92.4,122.053a12.594,12.594,0,1,0,12.594,12.594A12.631,12.631,0,0,0,92.4,122.053Zm0,22.04a9.446,9.446,0,1,1,9.446-9.446A9.474,9.474,0,0,1,92.4,144.093Z" transform="translate(-70.358 -101.587)"/></g><text class="ap" transform="translate(492 1278)"><tspan x="0" y="0">任務與獎勵獲得說明</tspan></text><text class="aq" transform="translate(698.995 825.537)"><tspan x="0" y="0">銅牌</tspan></text><text class="aq" transform="translate(1051.274 825.537)"><tspan x="0" y="0">銀牌</tspan></text><text class="aq" transform="translate(1375.445 825.537)"><tspan x="0" y="0">金牌</tspan></text><text class="ar" transform="translate(683 474)"><tspan x="0" y="0">只要達成指定的任務，就能獲得銅、銀、金三種徽章！</tspan></text><text class="am" transform="translate(1209 1272)"><tspan x="0" y="0"></tspan><tspan x="0" y="59"></tspan><tspan class="an"><tspan x="0" y="118">共七個階級，每個階級有</tspan><tspan class="q" y="118">LV.1~LV.10</tspan></tspan><tspan x="0" y="177">1.</tspan><tspan class="an" y="177">初學者</tspan><tspan y="177"></tspan><tspan x="0" y="236">2.</tspan><tspan class="an" y="236">小聰明</tspan><tspan y="236"></tspan><tspan x="0" y="295">3.</tspan><tspan class="an" y="295">高手</tspan><tspan y="295"></tspan><tspan x="0" y="354">4.</tspan><tspan class="an" y="354">神童</tspan><tspan y="354"></tspan><tspan x="0" y="413">5.</tspan><tspan class="an" y="413">天才</tspan><tspan y="413"></tspan><tspan x="0" y="472">6.</tspan><tspan class="an" y="472">達人</tspan><tspan y="472"></tspan><tspan x="0" y="531">7.</tspan><tspan class="an" y="531">大師</tspan><tspan y="531"></tspan><tspan x="0" y="590"></tspan><tspan class="ao"><tspan x="0" y="649">※</tspan><tspan class="an" y="649">每升級一個等級，都有神祕小禮物喔！</tspan></tspan></text><text class="ap" transform="translate(1374 1276)"><tspan x="0" y="0">等級說明</tspan></text><g transform="translate(-11 70)"><text class="w" transform="translate(84.092 389)"><tspan x="0" y="0">測驗</tspan></text></g><g class="x" transform="translate(-2 -101.025)"><g transform="translate(39 540.36)"><g transform="translate(0 0)"><path class="v" d="M55.737,545.493s0-.012,0-.016,0-.012,0-.02,0-.012,0-.016,0-.012-.008-.02,0-.012,0-.016a.122.122,0,0,0-.016-.033s0-.008-.008-.012-.008-.012-.012-.02,0-.008-.008-.012,0-.008-.008-.012l-3.675-4.794,0,0c-.008-.008-.012-.016-.02-.025s0-.008-.008-.008a.109.109,0,0,0-.033-.029l0,0c-.012-.008-.02-.016-.033-.024s-.008,0-.012-.008a.183.183,0,0,0-.029-.016s-.008,0-.012,0l-.029-.012s-.008,0-.012,0a.076.076,0,0,0-.029-.008s-.008,0-.012,0a.091.091,0,0,0-.033,0H51.7c-.016,0-.029,0-.045,0H39.408a.41.41,0,0,0-.408.408v19.109a.409.409,0,0,0,.408.408H55.333a.409.409,0,0,0,.408-.408V545.529h0v-.012C55.741,545.509,55.737,545.5,55.737,545.493Zm-1.233-.335H52.074l-.008-3.177Zm.421,14.316H39.817V541.181H51.25l.008,4.385a.41.41,0,0,0,.408.408h3.258Z" transform="translate(-39 -540.36)"/><path class="v" d="M101.3,713.868a.409.409,0,0,0,.408.408h10.869a.408.408,0,1,0,0-.817H101.708A.41.41,0,0,0,101.3,713.868Z" transform="translate(-98.756 -706.392)"/><path class="v" d="M101.708,653.277h7.1a.408.408,0,0,0,0-.817h-7.1a.408.408,0,1,0,0,.817Z" transform="translate(-98.756 -647.883)"/><path class="v" d="M101.708,775.277h10.869a.408.408,0,1,0,0-.817H101.708a.408.408,0,1,0,0,.817Z" transform="translate(-98.756 -764.901)"/><path class="v" d="M108.809,836.277a.408.408,0,0,0,0-.817h-7.1a.408.408,0,1,0,0,.817Z" transform="translate(-98.756 -823.411)"/><path class="v" d="M249.576,865.831l-3.438,3.038-.992-1.327a.408.408,0,1,0-.653.49l1.258,1.682a.405.405,0,0,0,.286.163.141.141,0,0,0,.041,0h0a.4.4,0,0,0,.269-.106l3.769-3.332a.408.408,0,1,0-.539-.612Z" transform="translate(-236.023 -852.442)"/></g></g></g></g></svg>