<svg xmlns="http://www.w3.org/2000/svg" xmlns:xlink="http://www.w3.org/1999/xlink" viewBox="0 0 1920 2385"><defs><style>.a{clip-path:url(#b);}.b,.e{fill:#323232;}.c,.l{fill:none;}.d,.h,.k{fill:#fff;}.d,.k,.l{fill-rule:evenodd;}.d{opacity:0.54;}.e{stroke:#707070;}.f,.g,.m{fill:#dbdbdb;}.g,.i{font-size:14px;}.g,.n,.o{font-family:SegoeUI, Segoe UI;}.i,.o{fill:#707070;}.i,.m{font-family:YuGothicUI-Regular, Yu Gothic UI;}.j{fill:#f4b300;}.l{stroke:#fff;stroke-width:0.5px;}.m,.o{font-size:20px;}.p{stroke:none;}</style><clipPath id="b"><rect width="1920" height="2385"/></clipPath></defs><g id="a" class="a"><rect class="h" width="1920" height="2385"/><rect class="b" width="1920" height="81"/><g transform="translate(-718 -53)"><rect class="c" width="18.868" height="18.868" transform="translate(745 78)"/><path class="d" d="M3,31.408H41.112V27.173H3v4.235ZM3,20.821H41.112V16.587H3v4.235ZM3,6v4.235H41.112V6Z" transform="translate(744.358 76.717)"/></g><g class="e" transform="translate(0 2238)"><rect class="p" width="1920" height="146"/><rect class="c" x="0.5" y="0.5" width="1919" height="145"/></g><g transform="translate(1758.423 26.388)"><g transform="translate(0)"><path class="f" d="M116.047,12.836a6.184,6.184,0,0,0,4.538-1.88,6.183,6.183,0,0,0,1.88-4.538,6.184,6.184,0,0,0-1.88-4.538,6.417,6.417,0,0,0-9.076,0,6.184,6.184,0,0,0-1.88,4.538,6.183,6.183,0,0,0,1.88,4.538A6.184,6.184,0,0,0,116.047,12.836Z" transform="translate(-104.281)"/><path class="f" d="M41.742,208.839a17.11,17.11,0,0,0-.234-1.822,14.173,14.173,0,0,0-.443-1.813,8.6,8.6,0,0,0-.719-1.63,5.87,5.87,0,0,0-1.036-1.354,4.364,4.364,0,0,0-1.429-.894,5.024,5.024,0,0,0-1.864-.334,2.043,2.043,0,0,0-.7.359q-.551.359-1.245.8a7.906,7.906,0,0,1-1.805.8,7.1,7.1,0,0,1-4.463,0,7.9,7.9,0,0,1-1.805-.8q-.694-.443-1.245-.8a2.043,2.043,0,0,0-.7-.359,5.021,5.021,0,0,0-1.864.334,4.363,4.363,0,0,0-1.429.894,5.878,5.878,0,0,0-1.036,1.354A8.613,8.613,0,0,0,19,205.2a14.174,14.174,0,0,0-.443,1.813,17.009,17.009,0,0,0-.234,1.822q-.058.844-.058,1.73a4.166,4.166,0,0,0,1.22,3.167,4.509,4.509,0,0,0,3.243,1.161H37.338a4.509,4.509,0,0,0,3.242-1.161,4.164,4.164,0,0,0,1.22-3.167Q41.8,209.683,41.742,208.839Z" transform="translate(-18.268 -189.226)"/></g></g><text class="g" transform="translate(1795 44)"><tspan x="0" y="0">Andy Chien</tspan></text><path class="f" d="M1691.8-51.869h9.463l-4.891,7.549Z" transform="translate(183 88.869)"/><g transform="translate(56 -2)"><rect class="h" width="199" height="28" rx="14" transform="translate(1411 29)"/><path class="b" d="M14.894,14.062,10.819,9.824a5.764,5.764,0,1,0-.405.37L14.5,14.442a.274.274,0,1,0,.4-.38ZM6.743,10.971A5.211,5.211,0,1,1,11.954,5.76,5.217,5.217,0,0,1,6.743,10.971Z" transform="translate(1582.599 35.381)"/><text class="i" transform="translate(1428 48)"><tspan x="0" y="0">全站搜尋</tspan></text></g><g transform="translate(0 1)"><g transform="translate(1708.479 25.388)"><g transform="translate(0)"><path class="f" d="M64.822,22.5l-1.908-3.181a9.448,9.448,0,0,1-1.347-4.861V11.669A7.789,7.789,0,0,0,56.01,4.217V2.223a2.223,2.223,0,0,0-4.445,0V4.217a7.789,7.789,0,0,0-5.557,7.451v2.786a9.453,9.453,0,0,1-1.346,4.86L42.754,22.5a.557.557,0,0,0,.476.842H64.345a.556.556,0,0,0,.477-.841Z" transform="translate(-42.675 0)"/></g><g transform="translate(7.613 24.449)"><path class="f" d="M188.815,469.333a3.866,3.866,0,0,0,7,0Z" transform="translate(-188.815 -469.333)"/></g></g><ellipse class="j" cx="3.467" cy="3.467" rx="3.467" ry="3.467" transform="translate(1722.956 28.875)"/></g><g transform="translate(270.264 10.85)"><g transform="translate(-168.264 13.15)"><path class="k" d="M16.328,36.693a.664.664,0,0,1-.3-.066L1.494,29.706A.7.7,0,0,1,1.1,29.08V7.629a.69.69,0,0,1,.323-.586A.678.678,0,0,1,2.089,7l14.239,6.781L30.562,7a.691.691,0,0,1,.988.627V29.08a.7.7,0,0,1-.391.626l-14.534,6.92a.665.665,0,0,1-.3.066ZM2.486,28.644l13.842,6.592,13.84-6.592V8.725L16.624,15.172a.7.7,0,0,1-.595,0L2.486,8.725V28.644Z" transform="translate(-0.791 -1.17)"/><path class="k" d="M16.273,36.949a.98.98,0,0,1-.435-.1L1.307,29.931a1.009,1.009,0,0,1-.571-.9V7.575A1.006,1.006,0,0,1,1.2,6.727a1.029,1.029,0,0,1,.969-.057l14.1,6.715,14.1-6.715a1.018,1.018,0,0,1,.967.057,1,1,0,0,1,.464.848V29.026a1,1,0,0,1-.57.9L16.7,36.852a.983.983,0,0,1-.43.1ZM1.737,7.188a.36.36,0,0,0-.2.059.38.38,0,0,0-.184.327V29.026a.386.386,0,0,0,.217.347l14.538,6.922a.373.373,0,0,0,.329,0l14.534-6.922a.383.383,0,0,0,.217-.347V7.575a.381.381,0,0,0-.548-.347L16.273,14.069l-.135-.063L1.9,7.227a.4.4,0,0,0-.167-.039ZM16.273,35.522l-.135-.061L2.12,28.787V8.182l13.988,6.657a.4.4,0,0,0,.331,0L30.422,8.182v20.6l-.174.083L16.273,35.522ZM2.739,28.4l13.534,6.443L29.806,28.4V9.158L16.7,15.4a1.017,1.017,0,0,1-.862,0L2.739,9.158V28.4Z" transform="translate(-0.736 -1.116)"/><path class="k" d="M16.817,10.059,4.749,4.315a.692.692,0,1,1,.6-1.248l11.472,5.46,11.468-5.46a.691.691,0,1,1,.595,1.248L16.817,10.059" transform="translate(-1.28 -0.579)"/><path class="k" d="M16.763,10.348l-.135-.063L4.564,4.54a1,1,0,0,1-.472-1.332,1.026,1.026,0,0,1,1.334-.474l11.337,5.4L28.1,2.734a1.02,1.02,0,0,1,1.333.473A1,1,0,0,1,28.96,4.54l-12.2,5.808ZM4.994,3.255a.382.382,0,0,0-.347.217.387.387,0,0,0,.183.513L16.763,9.663l11.93-5.678a.384.384,0,1,0-.331-.693l-11.6,5.525-.135-.063L5.159,3.292a.385.385,0,0,0-.165-.037Z" transform="translate(-1.226 -0.525)"/><path class="k" d="M18.206,15.9H19.59V37.35H18.206Z" transform="translate(-3.363 -2.518)"/><path class="k" d="M17.843,15.532h2V37.6h-2Zm.618,21.454h.767V16.149h-.767Z" transform="translate(-3.309 -2.463)"/><path class="k" d="M57.931,40.777H52.55V30.406h1.214v9.272h4.167Z" transform="translate(-8.528 -4.7)"/><path class="l" d="M57.931,40.777H52.55V30.406h1.214v9.272h4.167Z" transform="translate(-8.528 -4.7)"/><path class="k" d="M66.431,37.864H61.2a2.773,2.773,0,0,0,.664,1.91,2.3,2.3,0,0,0,1.751.672,3.64,3.64,0,0,0,2.3-.825v1.116a4.31,4.31,0,0,1-2.584.708,3.131,3.131,0,0,1-2.466-1.008,4.129,4.129,0,0,1-.9-2.839,4.046,4.046,0,0,1,.98-2.817,3.142,3.142,0,0,1,2.433-1.088,2.782,2.782,0,0,1,2.248.941,3.912,3.912,0,0,1,.8,2.61v.622Zm-1.214-1.006a2.415,2.415,0,0,0-.5-1.6,1.684,1.684,0,0,0-1.355-.572,1.911,1.911,0,0,0-1.425.6,2.717,2.717,0,0,0-.724,1.568Z" transform="translate(-9.644 -5.194)"/><path class="l" d="M66.431,37.864H61.2a2.773,2.773,0,0,0,.664,1.91,2.3,2.3,0,0,0,1.751.672,3.64,3.64,0,0,0,2.3-.825v1.116a4.31,4.31,0,0,1-2.584.708,3.131,3.131,0,0,1-2.466-1.008,4.129,4.129,0,0,1-.9-2.839,4.046,4.046,0,0,1,.98-2.817,3.142,3.142,0,0,1,2.433-1.088,2.782,2.782,0,0,1,2.248.941,3.912,3.912,0,0,1,.8,2.61v.622Zm-1.214-1.006a2.415,2.415,0,0,0-.5-1.6,1.684,1.684,0,0,0-1.355-.572,1.911,1.911,0,0,0-1.425.6,2.717,2.717,0,0,0-.724,1.568Z" transform="translate(-9.644 -5.194)"/><path class="k" d="M74.89,41.271H73.7V40.113h-.028A2.484,2.484,0,0,1,71.4,41.445a2.434,2.434,0,0,1-1.733-.586,2.03,2.03,0,0,1-.624-1.555q0-2.075,2.444-2.415l2.219-.312q0-1.887-1.526-1.888a3.646,3.646,0,0,0-2.415.912V34.386a4.587,4.587,0,0,1,2.517-.694q2.611,0,2.612,2.763v4.816ZM73.7,37.525l-1.786.246a2.9,2.9,0,0,0-1.244.408,1.18,1.18,0,0,0-.419,1.037,1.13,1.13,0,0,0,.387.886,1.494,1.494,0,0,0,1.031.343,1.9,1.9,0,0,0,1.456-.617,2.217,2.217,0,0,0,.574-1.567v-.737Z" transform="translate(-11.008 -5.194)"/><path class="l" d="M74.89,41.271H73.7V40.113h-.028A2.484,2.484,0,0,1,71.4,41.445a2.434,2.434,0,0,1-1.733-.586,2.03,2.03,0,0,1-.624-1.555q0-2.075,2.444-2.415l2.219-.312q0-1.887-1.526-1.888a3.646,3.646,0,0,0-2.415.912V34.386a4.587,4.587,0,0,1,2.517-.694q2.611,0,2.612,2.763v4.816ZM73.7,37.525l-1.786.246a2.9,2.9,0,0,0-1.244.408,1.18,1.18,0,0,0-.419,1.037,1.13,1.13,0,0,0,.387.886,1.494,1.494,0,0,0,1.031.343,1.9,1.9,0,0,0,1.456-.617,2.217,2.217,0,0,0,.574-1.567v-.737Z" transform="translate(-11.008 -5.194)"/><path class="k" d="M82.417,35.074a1.452,1.452,0,0,0-.9-.238,1.511,1.511,0,0,0-1.269.715,3.3,3.3,0,0,0-.511,1.952v3.776H78.555V33.873h1.186V35.4h.029a2.574,2.574,0,0,1,.775-1.219,1.766,1.766,0,0,1,1.165-.438,1.934,1.934,0,0,1,.708.1v1.229Z" transform="translate(-12.439 -5.202)"/><path class="l" d="M82.417,35.074a1.452,1.452,0,0,0-.9-.238,1.511,1.511,0,0,0-1.269.715,3.3,3.3,0,0,0-.511,1.952v3.776H78.555V33.873h1.186V35.4h.029a2.574,2.574,0,0,1,.775-1.219,1.766,1.766,0,0,1,1.165-.438,1.934,1.934,0,0,1,.708.1v1.229Z" transform="translate(-12.439 -5.202)"/><path class="k" d="M90.73,41.271H89.545V37.048q0-2.358-1.722-2.359a1.869,1.869,0,0,0-1.472.669,2.481,2.481,0,0,0-.582,1.689v4.223H84.583V33.865h1.185v1.229H85.8a2.67,2.67,0,0,1,2.429-1.4,2.264,2.264,0,0,1,1.858.785,3.5,3.5,0,0,1,.644,2.268v4.527Z" transform="translate(-13.345 -5.194)"/><path class="l" d="M90.73,41.271H89.545V37.048q0-2.358-1.722-2.359a1.869,1.869,0,0,0-1.472.669,2.481,2.481,0,0,0-.582,1.689v4.223H84.583V33.865h1.185v1.229H85.8a2.67,2.67,0,0,1,2.429-1.4,2.264,2.264,0,0,1,1.858.785,3.5,3.5,0,0,1,.644,2.268v4.527Z" transform="translate(-13.345 -5.194)"/><path class="k" d="M105.209,40.777H104V33.819q0-.823.1-2.017h-.029a6.434,6.434,0,0,1-.311,1.006l-3.544,7.969h-.592l-3.538-7.912a6.207,6.207,0,0,1-.311-1.063h-.03q.059.622.059,2.032v6.943H94.636V30.406h1.606l3.181,7.232a9.544,9.544,0,0,1,.478,1.244h.043c.208-.568.373-.993.5-1.273l3.246-7.2h1.519V40.777Z" transform="translate(-14.857 -4.7)"/><path class="l" d="M105.209,40.777H104V33.819q0-.823.1-2.017h-.029a6.434,6.434,0,0,1-.311,1.006l-3.544,7.969h-.592l-3.538-7.912a6.207,6.207,0,0,1-.311-1.063h-.03q.059.622.059,2.032v6.943H94.636V30.406h1.606l3.181,7.232a9.544,9.544,0,0,1,.478,1.244h.043c.208-.568.373-.993.5-1.273l3.246-7.2h1.519V40.777Z" transform="translate(-14.857 -4.7)"/><path class="k" d="M113.109,41.445a3.432,3.432,0,0,1-2.622-1.038,3.84,3.84,0,0,1-.98-2.751,4.009,4.009,0,0,1,1.02-2.916,3.671,3.671,0,0,1,2.756-1.048,3.32,3.32,0,0,1,2.585,1.02,4.044,4.044,0,0,1,.929,2.828,3.98,3.98,0,0,1-1,2.839,3.512,3.512,0,0,1-2.686,1.066Zm.086-6.755a2.252,2.252,0,0,0-1.807.778,3.186,3.186,0,0,0-.666,2.144,3.021,3.021,0,0,0,.672,2.076,2.285,2.285,0,0,0,1.8.76,2.167,2.167,0,0,0,1.768-.745,3.226,3.226,0,0,0,.619-2.118,3.284,3.284,0,0,0-.619-2.141,2.159,2.159,0,0,0-1.768-.753Z" transform="translate(-17.093 -5.194)"/><path class="l" d="M113.109,41.445a3.432,3.432,0,0,1-2.622-1.038,3.84,3.84,0,0,1-.98-2.751,4.009,4.009,0,0,1,1.02-2.916,3.671,3.671,0,0,1,2.756-1.048,3.32,3.32,0,0,1,2.585,1.02,4.044,4.044,0,0,1,.929,2.828,3.98,3.98,0,0,1-1,2.839,3.512,3.512,0,0,1-2.686,1.066Zm.086-6.755a2.252,2.252,0,0,0-1.807.778,3.186,3.186,0,0,0-.666,2.144,3.021,3.021,0,0,0,.672,2.076,2.285,2.285,0,0,0,1.8.76,2.167,2.167,0,0,0,1.768-.745,3.226,3.226,0,0,0,.619-2.118,3.284,3.284,0,0,0-.619-2.141,2.159,2.159,0,0,0-1.768-.753Z" transform="translate(-17.093 -5.194)"/><path class="k" d="M126.549,40.672h-1.186V39.413h-.029a2.737,2.737,0,0,1-2.545,1.432,2.766,2.766,0,0,1-2.232-.994,4.084,4.084,0,0,1-.835-2.709,4.44,4.44,0,0,1,.925-2.943,3.052,3.052,0,0,1,2.466-1.106,2.372,2.372,0,0,1,2.22,1.2h.029V29.707h1.186V40.672Zm-1.186-3.35V36.231a2.118,2.118,0,0,0-.592-1.518,1.988,1.988,0,0,0-1.506-.623,2.049,2.049,0,0,0-1.706.8,3.49,3.49,0,0,0-.621,2.2,3.132,3.132,0,0,0,.6,2.021,1.949,1.949,0,0,0,1.6.742,2.025,2.025,0,0,0,1.609-.715,2.668,2.668,0,0,0,.618-1.81Z" transform="translate(-18.629 -4.595)"/><path class="l" d="M126.549,40.672h-1.186V39.413h-.029a2.737,2.737,0,0,1-2.545,1.432,2.766,2.766,0,0,1-2.232-.994,4.084,4.084,0,0,1-.835-2.709,4.44,4.44,0,0,1,.925-2.943,3.052,3.052,0,0,1,2.466-1.106,2.372,2.372,0,0,1,2.22,1.2h.029V29.707h1.186V40.672Zm-1.186-3.35V36.231a2.118,2.118,0,0,0-.592-1.518,1.988,1.988,0,0,0-1.506-.623,2.049,2.049,0,0,0-1.706.8,3.49,3.49,0,0,0-.621,2.2,3.132,3.132,0,0,0,.6,2.021,1.949,1.949,0,0,0,1.6.742,2.025,2.025,0,0,0,1.609-.715,2.668,2.668,0,0,0,.618-1.81Z" transform="translate(-18.629 -4.595)"/><path class="k" d="M136.446,37.864h-5.229a2.77,2.77,0,0,0,.666,1.91,2.3,2.3,0,0,0,1.75.672,3.636,3.636,0,0,0,2.3-.825v1.116a4.307,4.307,0,0,1-2.583.708,3.128,3.128,0,0,1-2.465-1.008,4.13,4.13,0,0,1-.9-2.839,4.052,4.052,0,0,1,.979-2.817,3.147,3.147,0,0,1,2.435-1.088,2.783,2.783,0,0,1,2.248.941,3.916,3.916,0,0,1,.8,2.61v.622Zm-1.215-1.006a2.419,2.419,0,0,0-.494-1.6,1.69,1.69,0,0,0-1.358-.572,1.91,1.91,0,0,0-1.423.6,2.711,2.711,0,0,0-.724,1.568Z" transform="translate(-20.173 -5.194)"/><path class="l" d="M136.446,37.864h-5.229a2.77,2.77,0,0,0,.666,1.91,2.3,2.3,0,0,0,1.75.672,3.636,3.636,0,0,0,2.3-.825v1.116a4.307,4.307,0,0,1-2.583.708,3.128,3.128,0,0,1-2.465-1.008,4.13,4.13,0,0,1-.9-2.839,4.052,4.052,0,0,1,.979-2.817,3.147,3.147,0,0,1,2.435-1.088,2.783,2.783,0,0,1,2.248.941,3.916,3.916,0,0,1,.8,2.61v.622Zm-1.215-1.006a2.419,2.419,0,0,0-.494-1.6,1.69,1.69,0,0,0-1.358-.572,1.91,1.91,0,0,0-1.423.6,2.711,2.711,0,0,0-.724,1.568Z" transform="translate(-20.173 -5.194)"/><path class="k" d="M59.092.247l.775,1.867a40.375,40.375,0,0,1-4.12.532l.1,1.14h3.732V5.432H55.942l.073,1.309h3.561V8.486H56.136l.1,1.477H70.7l.121-1.477h-3.2V6.741h3.318l.1-1.212H67.621V3.882h3.562l.1-1.308H67.426V.612h6.057l-.654,9.351h1.624v4.822H72.225V11.878H54.779v2.907H52.55V9.963H54.1L53.569.949a36.754,36.754,0,0,0,5.523-.7ZM56.669,13.235h14.1v1.816a40.853,40.853,0,0,1-5.718,2.06h9.253v1.938h-9.4v2.084a1.852,1.852,0,0,1-.438,1.187,1.929,1.929,0,0,1-1.405.606H59.092V20.988q1.285.047,2.737.048.751,0,.75-.534V19.049H52.985V17.111H62.58v-.873a39.429,39.429,0,0,0,4.435-1.258H56.669V13.235ZM65.464.247l1.477.921A12.139,12.139,0,0,1,65.44,2.5c.387.323.76.629,1.114.921L65.271,4.7c-.389-.387-.84-.789-1.357-1.212A22.609,22.609,0,0,1,60.934,4.9l-.971-1.6a14.68,14.68,0,0,0,2.425-.921q-.777-.534-1.65-1.09L61.9.15q1.088.655,2.059,1.308a12.833,12.833,0,0,0,1.5-1.212ZM65.755,4.8l1.477.921a15.912,15.912,0,0,1-1.768,1.624q.752.581,1.381,1.114L65.56,9.746a18.317,18.317,0,0,0-1.6-1.405,23.071,23.071,0,0,1-2.737,1.308l-.97-1.6a12.94,12.94,0,0,0,2.18-.848q-.725-.486-1.5-.969L62.1,5.092c.68.405,1.3.809,1.867,1.212a12.987,12.987,0,0,0,1.793-1.5Z" transform="translate(-8.528 -0.15)"/><path class="k" d="M89.9,10.819V2.968H81.809V.835H92.13v9.98Zm4,1.308h8.167v9.692H83.844V12.126H93.9ZM88.98,6.359l.582,2.059a27.647,27.647,0,0,1-6.833,3.755l-.919-2.108A31.683,31.683,0,0,0,88.98,6.359ZM83.8,3.353a19.874,19.874,0,0,1,3.731,2.3L86.241,7.619a16.229,16.229,0,0,0-3.56-2.593L83.8,3.353ZM86.17,16H99.738V14.16H86.17Zm0,3.778H99.738V17.844H86.17ZM93.051.835h10.37V11.4H101.1V2.968H93.051V.835Zm7.293,5.331.558,1.986a34.231,34.231,0,0,1-6.785,2.376l-.872-2.037a39.118,39.118,0,0,0,7.1-2.325ZM95.038,3.16a18.965,18.965,0,0,1,3.538,2.013L97.291,7.135a14.685,14.685,0,0,0-3.368-2.3L95.038,3.16Z" transform="translate(-12.928 -0.253)"/><path class="k" d="M111.752,2.281h6.881V19.1h-6.881Zm2.229,14.683H116.4V4.316h-2.422Zm18.56-15.215V13.96h-9.692v5.718q0,.775.92.775h5.839a1.627,1.627,0,0,0,1.237-.412q.46-.387.607-3.756H133.7c-.243,2.681-.639,4.992-1.189,5.477a3.578,3.578,0,0,1-2.593.726h-7.049a2.406,2.406,0,0,1-1.7-.583,2.112,2.112,0,0,1-.63-1.6V1.749Zm-9.692,10.078h2.567V3.88h-2.567Zm4.8,0h2.569V3.88h-2.569Z" transform="translate(-17.431 -0.39)"/></g></g><text class="m" transform="translate(495 2282)"><tspan x="0" y="22">關於我們</tspan><tspan class="n" y="22" xml:space="preserve">  </tspan><tspan y="22">｜</tspan><tspan class="n" y="22" xml:space="preserve">  </tspan><tspan y="22">合作夥伴</tspan><tspan class="n" y="22" xml:space="preserve">  </tspan><tspan y="22">｜</tspan><tspan class="n" y="22" xml:space="preserve">  </tspan><tspan y="22">服務條款</tspan><tspan class="n" y="22" xml:space="preserve">  </tspan><tspan y="22">｜</tspan><tspan class="n" y="22" xml:space="preserve">  </tspan><tspan y="22">智財權政策</tspan><tspan class="n" y="22" xml:space="preserve">  </tspan><tspan y="22">｜</tspan><tspan class="n" y="22" xml:space="preserve">  </tspan><tspan y="22">隱私權政策</tspan><tspan class="n" y="22" xml:space="preserve">  </tspan><tspan y="22">｜</tspan><tspan class="n" y="22" xml:space="preserve">  </tspan><tspan y="22">常見問答</tspan><tspan class="n" y="22" xml:space="preserve">  </tspan><tspan y="22">｜</tspan><tspan class="n" y="22" xml:space="preserve">  </tspan><tspan y="22">聯絡我們</tspan></text><text class="o" transform="translate(644 2326)"><tspan x="0" y="22">© 2017 Dopod International Corp. Ltd. All Rights Reserved</tspan></text><rect class="f" width="1088" height="578" transform="translate(140 170)"/><rect class="f" width="1088" height="1396" transform="translate(140 840)"/><rect class="f" width="536" height="578" transform="translate(1244 170)"/><rect class="f" width="536" height="241" transform="translate(1244 840)"/><rect class="f" width="536" height="253" transform="translate(1244 1143)"/><rect class="f" width="536" height="253" transform="translate(1244 1423)"/><rect class="f" width="536" height="253" transform="translate(1244 1703)"/><rect class="f" width="536" height="253" transform="translate(1244 1983)"/></g></svg>