<?xml version="1.0" encoding="utf-8"?>
<!-- Generator: Adobe Illustrator 16.0.0, SVG Export Plug-In . SVG Version: 6.00 Build 0)  -->
<!DOCTYPE svg PUBLIC "-//W3C//DTD SVG 1.1//EN" "http://www.w3.org/Graphics/SVG/1.1/DTD/svg11.dtd">
<svg version="1.1" xmlns="http://www.w3.org/2000/svg" xmlns:xlink="http://www.w3.org/1999/xlink" x="0px" y="0px" width="1400px"
	 height="931px" viewBox="0 0 1400 931" enable-background="new 0 0 1400 931" xml:space="preserve">
<g id="圖層_1" display="none">
	<image display="inline" overflow="visible" width="1400" height="931" xlink:href="ec.png" >
	</image>
</g>
<g id="圖層_2">
	<g>
		<g>
			<g>
				<g>
					<path fill="#130813" d="M-334.301,713.198V194.11c0-12.194,9.919-22.115,22.112-22.115h770.62
						c12.193,0,22.112,9.921,22.112,22.115v519.088H-334.301z"/>
					<g>
						<path fill="#B4B4B6" d="M480.877,713.534h-815.515V194.11c0-12.38,10.069-22.45,22.448-22.45h770.621
							c12.377,0,22.446,10.07,22.446,22.45V713.534z M-333.965,712.863h814.172V194.11c0-12.009-9.767-21.779-21.775-21.779
							h-770.621c-12.008,0-21.776,9.77-21.776,21.779V712.863z"/>
					</g>
				</g>
				<path d="M458.43,174.683h-770.619c-10.684,0-19.426,8.743-19.426,19.427v516.402h809.47V194.109
					C477.855,183.425,469.113,174.683,458.43,174.683z"/>
				<rect x="-306.112" y="205.743" fill="#FFFFFF" width="757.747" height="477.568"/>
				<linearGradient id="SVGID_1_" gradientUnits="userSpaceOnUse" x1="585.9629" y1="647.7158" x2="285.7905" y2="127.8021">
					<stop  offset="0" style="stop-color:#000000"/>
					<stop  offset="0.4129" style="stop-color:#020202"/>
					<stop  offset="0.5616" style="stop-color:#090909"/>
					<stop  offset="0.6676" style="stop-color:#141414"/>
					<stop  offset="0.7534" style="stop-color:#252525"/>
					<stop  offset="0.8268" style="stop-color:#3B3B3B"/>
					<stop  offset="0.8918" style="stop-color:#575757"/>
					<stop  offset="0.9492" style="stop-color:#767676"/>
					<stop  offset="1" style="stop-color:#999999"/>
				</linearGradient>
				<path fill="url(#SVGID_1_)" d="M478.976,193.084c0-10.685-8.743-19.427-19.425-19.427H206.366l14.884,31.061h231.503v477.566
					l0.572,6.714l9.818,20.487h15.833V193.084z"/>
			</g>
			<g>
				<circle fill="#4D4E4E" cx="73.121" cy="191.516" r="3.27"/>
				<path d="M69.851,191.183c0,0.305,0.061,0.594,0.149,0.87c0.479,0.676,1.276,1.121,2.181,1.121c1.467,0,2.655-1.164,2.655-2.599
					c0-0.983-0.564-1.828-1.387-2.27c-0.193-0.038-0.394-0.059-0.598-0.059C71.193,188.246,69.851,189.561,69.851,191.183z"/>
			</g>
		</g>
		<g>
			<g>
				
					<radialGradient id="SVGID_2_" cx="377.9106" cy="4711.0801" r="43.5081" gradientTransform="matrix(1.9507 0 0 1.1148 -665.3027 -4554.1787)" gradientUnits="userSpaceOnUse">
					<stop  offset="0" style="stop-color:#D9DADD"/>
					<stop  offset="0.3858" style="stop-color:#D7D9DC"/>
					<stop  offset="0.5247" style="stop-color:#D1D3D6"/>
					<stop  offset="0.6237" style="stop-color:#C7C9CC"/>
					<stop  offset="0.7038" style="stop-color:#B8BBBE"/>
					<stop  offset="0.7715" style="stop-color:#A5AAAD"/>
					<stop  offset="0.7908" style="stop-color:#9EA4A7"/>
					<stop  offset="0.812" style="stop-color:#919598"/>
					<stop  offset="0.8541" style="stop-color:#707071"/>
					<stop  offset="0.9134" style="stop-color:#3E3B3D"/>
					<stop  offset="0.9868" style="stop-color:#000000"/>
					<stop  offset="1" style="stop-color:#000000"/>
				</radialGradient>
				<rect x="4.279" y="709.485" fill="url(#SVGID_2_)" width="137.179" height="10.074"/>
				<rect x="4.279" y="718.899" fill="#F7F8F8" width="137.157" height="0.538"/>
			</g>
			<g>
				<linearGradient id="SVGID_3_" gradientUnits="userSpaceOnUse" x1="73.1206" y1="743.1523" x2="73.1206" y2="730.5723">
					<stop  offset="0" style="stop-color:#000000"/>
					<stop  offset="0.6" style="stop-color:#858C91"/>
					<stop  offset="1" style="stop-color:#AEB3B6"/>
				</linearGradient>
				<path fill="url(#SVGID_3_)" d="M529.69,743.152c-304.38,0-608.76,0-913.139,0c-20.473-2.579-36.354-9.993-45.057-12.58
					c334.417,0.002,668.835,0.002,1003.254,0C572.152,731.633,556.353,742.085,529.69,743.152z"/>
				<rect x="-428.506" y="729.632" fill="#9A9EA1" width="1003.254" height="0.94"/>
			</g>
			
				<image overflow="visible" width="4181" height="84" xlink:href="A5D006A1.png"  transform="matrix(0.24 0 0 0.24 -428.5063 709.4854)">
			</image>
		</g>
		<g>
			
				<linearGradient id="SVGID_4_" gradientUnits="userSpaceOnUse" x1="1157.5508" y1="321.0229" x2="1157.5508" y2="304.8364" gradientTransform="matrix(-1 0 0 -1 1232.0146 1064.1758)">
				<stop  offset="0" style="stop-color:#000000"/>
				<stop  offset="0.0132" style="stop-color:#101111"/>
				<stop  offset="0.0581" style="stop-color:#424648"/>
				<stop  offset="0.0969" style="stop-color:#666C70"/>
				<stop  offset="0.1276" style="stop-color:#7D8388"/>
				<stop  offset="0.1464" style="stop-color:#858C91"/>
				<stop  offset="0.249" style="stop-color:#A0A3A7"/>
				<stop  offset="0.406" style="stop-color:#C3C3C5"/>
				<stop  offset="0.5621" style="stop-color:#DEDDDF"/>
				<stop  offset="0.7148" style="stop-color:#F1F1F1"/>
				<stop  offset="0.8626" style="stop-color:#FCFCFD"/>
				<stop  offset="1" style="stop-color:#FFFFFF"/>
			</linearGradient>
			<path fill="url(#SVGID_4_)" d="M-382.104,743.152c304.379,0,608.759,0,913.14,0c20.472,3.32,36.352,12.859,45.055,16.187
				c-334.417,0-668.835,0-1003.253,0C-424.567,757.975-408.768,744.528-382.104,743.152z"/>
		</g>
	</g>
	<g>
		<path d="M577.769,279.166h48.859v3.532h-52.457v-95.233h3.597V279.166z"/>
		<path d="M666.919,284.006c-5.713,0-10.956-1.537-15.73-4.611c-4.774-3.074-8.514-7.293-11.217-12.656
			c-2.704-5.363-4.055-11.315-4.055-17.856v-2.943c0-6.541,1.308-12.536,3.924-17.987c2.616-5.45,6.214-9.702,10.792-12.754
			c4.578-3.051,9.571-4.578,14.978-4.578c7.892,0,14.346,2.813,19.361,8.438c5.014,5.625,7.521,13.016,7.521,22.173v3.728h-53.045
			v3.852c0,5.746,1.21,11.067,3.63,15.963c2.42,4.896,5.756,8.737,10.007,11.523c4.251,2.786,8.863,4.178,13.833,4.178
			c4.752,0,8.797-0.79,12.133-2.371c3.335-1.581,6.289-4.018,8.862-7.31l2.486,1.766
			C685.124,280.191,677.296,284.006,666.919,284.006z M665.611,214.151c-6.89,0-12.733,2.562-17.529,7.686
			c-4.797,5.124-7.609,11.654-8.438,19.589h49.317v-0.85c0-4.796-1.014-9.255-3.042-13.376c-2.028-4.121-4.819-7.326-8.372-9.615
			C673.993,215.296,670.015,214.151,665.611,214.151z"/>
		<path d="M754.695,282.698c-0.873-3.009-1.309-7.326-1.309-12.951c-2.791,4.536-6.605,8.045-11.446,10.531
			c-4.84,2.485-10.313,3.728-16.417,3.728c-6.54,0-11.806-1.776-15.796-5.331c-3.989-3.554-5.984-8.186-5.984-13.899
			c0-6.497,2.932-11.697,8.797-15.6c5.864-3.902,13.659-5.897,23.384-5.985h17.463v-10.334c0-5.93-1.863-10.531-5.592-13.801
			c-3.729-3.271-9.059-4.906-15.992-4.906c-6.454,0-11.839,1.658-16.155,4.971c-4.317,3.314-6.476,7.414-6.476,12.296l-3.532-0.131
			c0-5.756,2.528-10.639,7.588-14.651c5.058-4.011,11.25-6.017,18.575-6.017c7.63,0,13.691,1.908,18.184,5.723
			c4.49,3.816,6.802,9.189,6.933,16.123v33.816c0,7.762,0.61,13.038,1.832,15.828v0.589H754.695z M725.523,280.475
			c6.628,0,12.329-1.482,17.104-4.448c4.774-2.965,8.36-7.129,10.759-12.493v-16.81h-16.352c-10.116,0-17.856,2.006-23.22,6.018
			c-4.36,3.271-6.54,7.348-6.54,12.231c0,4.317,1.722,7.98,5.167,10.989C715.887,278.97,720.247,280.475,725.523,280.475z"/>
		<path d="M810.88,214.544l-4.578-0.393c-6.018,0-11.054,1.95-15.109,5.849c-4.056,3.898-6.716,9.355-7.979,16.368v46.33h-3.532
			v-70.771h3.532v14.716c1.918-4.927,4.796-8.83,8.634-11.708c3.836-2.878,8.655-4.317,14.455-4.317
			c2.049,0,3.705,0.244,4.971,0.732L810.88,214.544z"/>
		<path d="M828.017,228.41c2.311-5.494,5.712-9.833,10.203-13.016c4.491-3.182,9.462-4.774,14.913-4.774
			c7.587,0,13.223,2.148,16.908,6.442c3.684,4.295,5.548,10.782,5.592,19.458v46.178h-3.532v-46.264
			c-0.044-7.579-1.592-13.188-4.644-16.826c-3.053-3.637-7.893-5.457-14.521-5.457c-6.105,0-11.392,2.167-15.861,6.502
			c-4.47,4.335-7.489,9.921-9.059,16.761v45.284h-3.532v-70.771h3.532V228.41z"/>
		<path d="M904.674,187.465l39.179,90.066l39.31-90.066h5.167v95.233h-3.531v-90l-39.507,90h-2.813l-39.31-89.542v89.542h-3.532
			v-95.233H904.674z"/>
		<path d="M1007.298,245.939c0-6.758,1.297-12.83,3.892-18.216c2.594-5.385,6.257-9.583,10.988-12.591
			c4.731-3.008,10.083-4.513,16.058-4.513c5.93,0,11.25,1.461,15.959,4.382c4.71,2.922,8.383,7.064,11.021,12.427
			c2.638,5.363,3.979,11.403,4.022,18.118v3.14c0,6.802-1.286,12.885-3.858,18.249c-2.574,5.363-6.226,9.549-10.956,12.558
			c-4.731,3.009-10.084,4.513-16.058,4.513c-5.975,0-11.327-1.482-16.058-4.448c-4.731-2.965-8.404-7.118-11.021-12.46
			c-2.617-5.341-3.947-11.348-3.99-18.02V245.939z M1010.83,248.687c0,5.887,1.166,11.283,3.499,16.188
			c2.332,4.905,5.581,8.731,9.746,11.479c4.163,2.748,8.928,4.121,14.291,4.121c8.066,0,14.64-3.03,19.721-9.092
			c5.079-6.061,7.619-13.866,7.619-23.416v-2.027c0-5.799-1.177-11.162-3.531-16.09c-2.355-4.927-5.615-8.775-9.778-11.544
			c-4.165-2.769-8.886-4.153-14.161-4.153c-8.067,0-14.651,3.074-19.753,9.223c-5.102,6.148-7.652,13.889-7.652,23.219V248.687z"/>
		<path d="M1083.104,246.593c0-11.293,2.376-20.113,7.13-26.457c4.752-6.345,11.271-9.517,19.557-9.517
			c5.319,0,10.018,1.2,14.095,3.597c4.077,2.398,7.38,5.975,9.909,10.727v-42.711h3.532v100.465h-3.532v-11.315
			c-2.398,4.012-5.69,7.119-9.876,9.32c-4.187,2.202-8.939,3.303-14.259,3.303c-8.198,0-14.674-3.248-19.426-9.746
			c-4.754-6.497-7.13-15.414-7.13-26.751V246.593z M1086.768,247.967c0,10.03,1.983,17.955,5.952,23.776
			c3.967,5.821,9.592,8.732,16.875,8.732c5.843,0,10.835-1.297,14.979-3.892c4.142-2.594,7.216-6.398,9.222-11.414v-33.161
			c-4.055-11.904-12.078-17.856-24.069-17.856c-7.239,0-12.875,2.856-16.908,8.568
			C1088.784,228.433,1086.768,236.848,1086.768,247.967z"/>
		<path d="M1185.14,284.006c-5.713,0-10.956-1.537-15.73-4.611s-8.514-7.293-11.217-12.656c-2.705-5.363-4.056-11.315-4.056-17.856
			v-2.943c0-6.541,1.309-12.536,3.925-17.987c2.616-5.45,6.213-9.702,10.792-12.754c4.578-3.051,9.57-4.578,14.979-4.578
			c7.892,0,14.346,2.813,19.36,8.438c5.014,5.625,7.521,13.016,7.521,22.173v3.728h-53.045v3.852c0,5.746,1.21,11.067,3.63,15.963
			c2.42,4.896,5.756,8.737,10.007,11.523c4.252,2.786,8.863,4.178,13.834,4.178c4.752,0,8.798-0.79,12.133-2.371
			c3.336-1.581,6.29-4.018,8.863-7.31l2.485,1.766C1203.345,280.191,1195.517,284.006,1185.14,284.006z M1183.832,214.151
			c-6.891,0-12.733,2.562-17.529,7.686c-4.798,5.124-7.61,11.654-8.438,19.589h49.316v-0.85c0-4.796-1.014-9.255-3.041-13.376
			s-4.818-7.326-8.372-9.615C1192.214,215.296,1188.235,214.151,1183.832,214.151z"/>
		<path d="M610.407,402.694h-33.03v40.749h-3.532V348.21h30.349c9.549,0,17.147,2.464,22.794,7.391
			c5.646,4.928,8.47,11.621,8.47,20.08c0,6.498-2.018,12.177-6.05,17.038c-4.034,4.863-9.168,7.882-15.403,9.06l25.443,40.748v0.916
			h-3.728L610.407,402.694z M577.377,399.163h30.021c7.326,0,13.245-2.225,17.758-6.672c4.513-4.448,6.77-10.051,6.77-16.81
			c0-7.413-2.497-13.255-7.489-17.529c-4.994-4.273-11.829-6.41-20.505-6.41h-26.555V399.163z"/>
		<path d="M685.429,444.752c-5.713,0-10.956-1.537-15.73-4.611c-4.774-3.074-8.514-7.293-11.217-12.656
			c-2.704-5.364-4.055-11.315-4.055-17.856v-2.943c0-6.541,1.308-12.536,3.924-17.987c2.616-5.45,6.214-9.702,10.792-12.754
			c4.578-3.051,9.571-4.578,14.978-4.578c7.892,0,14.346,2.813,19.361,8.437c5.014,5.625,7.521,13.017,7.521,22.174v3.728h-53.045
			v3.853c0,5.745,1.21,11.066,3.63,15.963s5.756,8.737,10.007,11.523c4.251,2.785,8.863,4.178,13.833,4.178
			c4.752,0,8.797-0.79,12.133-2.371s6.289-4.018,8.863-7.31l2.484,1.767C703.635,440.937,695.807,444.752,685.429,444.752z
			 M684.121,374.896c-6.89,0-12.733,2.562-17.529,7.686c-4.797,5.124-7.609,11.653-8.438,19.589h49.316v-0.85
			c0-4.797-1.014-9.255-3.041-13.376s-4.818-7.325-8.371-9.615C692.503,376.041,688.525,374.896,684.121,374.896z"/>
		<path d="M729.317,443.443V348.21h26.359c7.369,0,14.04,1.745,20.015,5.232c5.974,3.489,10.661,8.383,14.063,14.684
			c3.401,6.302,5.145,13.354,5.232,21.159v12.362c0,7.937-1.668,15.087-5.003,21.453c-3.336,6.367-7.991,11.338-13.965,14.913
			c-5.975,3.576-12.646,5.386-20.015,5.429H729.317z M732.85,351.742v88.169h22.827c6.672,0,12.743-1.624,18.216-4.873
			c5.472-3.247,9.756-7.783,12.853-13.604c3.096-5.821,4.666-12.285,4.71-19.393V389.81c0-7.107-1.516-13.561-4.546-19.361
			c-3.031-5.799-7.261-10.344-12.689-13.637c-5.429-3.292-11.436-4.981-18.02-5.069H732.85z"/>
		<path d="M840.575,444.752c-5.713,0-10.956-1.537-15.73-4.611s-8.514-7.293-11.217-12.656c-2.705-5.364-4.056-11.315-4.056-17.856
			v-2.943c0-6.541,1.309-12.536,3.925-17.987c2.616-5.45,6.213-9.702,10.792-12.754c4.578-3.051,9.57-4.578,14.979-4.578
			c7.892,0,14.346,2.813,19.36,8.437c5.014,5.625,7.521,13.017,7.521,22.174v3.728h-53.045v3.853c0,5.745,1.21,11.066,3.63,15.963
			s5.756,8.737,10.007,11.523c4.252,2.785,8.863,4.178,13.834,4.178c4.752,0,8.798-0.79,12.133-2.371
			c3.336-1.581,6.29-4.018,8.863-7.31l2.485,1.767C858.78,440.937,850.952,444.752,840.575,444.752z M839.268,374.896
			c-6.891,0-12.733,2.562-17.529,7.686c-4.798,5.124-7.61,11.653-8.438,19.589h49.316v-0.85c0-4.797-1.014-9.255-3.041-13.376
			s-4.818-7.325-8.372-9.615C847.649,376.041,843.671,374.896,839.268,374.896z"/>
		<path d="M926.259,426.11c0-8.59-7.326-14.433-21.978-17.529c-8.808-1.874-14.935-4.284-18.379-7.228
			c-3.445-2.943-5.167-6.987-5.167-12.133c0-5.188,2.19-9.462,6.573-12.82c4.382-3.357,10.083-5.036,17.104-5.036
			c7.631,0,13.758,1.821,18.38,5.461c4.621,3.642,6.934,8.558,6.934,14.749h-3.598c0-4.752-2.007-8.721-6.018-11.904
			c-4.013-3.182-9.245-4.774-15.698-4.774c-6.191,0-11.098,1.352-14.716,4.055c-3.62,2.705-5.43,6.083-5.43,10.138
			c0,3.184,0.676,5.681,2.028,7.489c1.351,1.81,3.554,3.445,6.605,4.905c3.052,1.462,7.5,2.868,13.344,4.219
			c5.843,1.353,10.465,2.943,13.866,4.775c3.401,1.831,5.864,4.001,7.391,6.508c1.526,2.508,2.289,5.57,2.289,9.189
			c0,5.582-2.289,10.073-6.867,13.474c-4.578,3.401-10.574,5.103-17.987,5.103c-7.937,0-14.335-1.799-19.197-5.396
			s-7.292-8.23-7.292-13.899h3.531c0.349,4.972,2.54,8.842,6.573,11.61c4.033,2.77,9.495,4.153,16.385,4.153
			c6.322,0,11.457-1.472,15.403-4.415S926.259,430.297,926.259,426.11z"/>
		<path d="M948.301,350.565c0-1.002,0.349-1.864,1.047-2.583c0.697-0.719,1.547-1.079,2.551-1.079c1.003,0,1.864,0.36,2.584,1.079
			c0.719,0.72,1.079,1.581,1.079,2.583c0,1.004-0.36,1.854-1.079,2.551c-0.72,0.698-1.581,1.047-2.584,1.047
			c-1.004,0-1.854-0.349-2.551-1.047C948.649,352.419,948.301,351.569,948.301,350.565z M953.665,443.443h-3.532v-70.771h3.532
			V443.443z"/>
		<path d="M973.548,407.339c0-11.293,2.376-20.113,7.13-26.458c4.752-6.344,11.271-9.516,19.557-9.516
			c5.275,0,9.963,1.21,14.063,3.63c4.098,2.42,7.391,5.963,9.876,10.628v-12.95h3.598V442.2c0,9.331-2.398,16.624-7.194,21.879
			c-4.798,5.254-11.315,7.882-19.557,7.882c-4.754,0-9.104-1.028-13.049-3.081c-3.947-2.056-7.315-5.006-10.105-8.853l2.485-2.361
			c2.747,3.479,5.756,6.143,9.026,7.991c3.271,1.847,7.106,2.771,11.512,2.771c7.281,0,12.95-2.209,17.006-6.626
			c4.055-4.42,6.147-10.654,6.278-18.706v-10.838c-2.442,4.013-5.745,7.097-9.909,9.255s-8.885,3.238-14.16,3.238
			c-8.198,0-14.674-3.248-19.426-9.746c-4.754-6.497-7.13-15.414-7.13-26.752V407.339z M977.146,408.712
			c0,10.117,2.005,18.063,6.018,23.841c4.011,5.778,9.636,8.667,16.875,8.667c5.974,0,11.054-1.384,15.24-4.153
			c4.186-2.769,7.15-6.66,8.895-11.676v-32.114c-3.837-12.253-11.838-18.38-24.004-18.38c-7.283,0-12.94,2.856-16.974,8.568
			C979.162,389.178,977.146,397.593,977.146,408.712z"/>
		<path d="M1053.868,389.155c2.311-5.494,5.712-9.832,10.203-13.016c4.491-3.182,9.462-4.774,14.913-4.774
			c7.587,0,13.223,2.148,16.908,6.442c3.684,4.295,5.548,10.782,5.592,19.458v46.178h-3.532v-46.265
			c-0.044-7.579-1.592-13.188-4.644-16.826c-3.053-3.637-7.893-5.456-14.521-5.456c-6.105,0-11.392,2.167-15.861,6.502
			c-4.47,4.335-7.489,9.922-9.059,16.761v45.284h-3.532v-70.771h3.532V389.155z"/>
	</g>
	<g>
		<path d="M947.802-268.398v39.84c0,6.223-1.806,11.078-5.415,14.566c-3.609,3.489-8.498,5.232-14.667,5.232
			s-11.058-1.744-14.667-5.232c-3.61-3.488-5.429-8.29-5.455-14.405v-40.002h2.182v39.759c0,5.442,1.637,9.752,4.91,12.93
			c3.272,3.179,7.616,4.768,13.03,4.768c5.415,0,9.751-1.589,13.011-4.768c3.26-3.178,4.889-7.502,4.889-12.97v-39.719H947.802z"/>
		<path d="M964.408-243.104c1.428-3.394,3.529-6.074,6.304-8.041s5.845-2.95,9.212-2.95c4.688,0,8.169,1.327,10.445,3.98
			c2.276,2.653,3.428,6.661,3.455,12.021v28.527h-2.182v-28.58c-0.027-4.682-0.984-8.147-2.869-10.395
			c-1.886-2.247-4.876-3.371-8.971-3.371c-3.771,0-7.037,1.339-9.798,4.017c-2.762,2.678-4.626,6.129-5.597,10.354v27.975h-2.182
			v-43.719h2.182V-243.104z"/>
		<path d="M1005.502-231.872c0-6.976,1.467-12.425,4.404-16.344c2.936-3.919,6.963-5.879,12.08-5.879
			c3.287,0,6.189,0.741,8.708,2.222c2.519,1.482,4.56,3.691,6.122,6.626v-26.385h2.182v62.063h-2.182v-6.99
			c-1.482,2.479-3.516,4.398-6.102,5.758s-5.522,2.041-8.809,2.041c-5.064,0-9.064-2.006-12-6.021
			c-2.938-4.013-4.404-9.522-4.404-16.526V-231.872z M1007.764-231.023c0,6.196,1.226,11.091,3.678,14.688
			c2.451,3.596,5.926,5.394,10.424,5.394c3.609,0,6.693-0.801,9.254-2.404c2.559-1.603,4.457-3.953,5.697-7.051v-20.486
			c-2.506-7.354-7.463-11.031-14.869-11.031c-4.473,0-7.955,1.765-10.445,5.293C1009.01-243.09,1007.764-237.892,1007.764-231.023z"
			/>
		<path d="M1068.535-208.759c-3.529,0-6.769-0.95-9.719-2.849c-2.949-1.899-5.26-4.505-6.93-7.818
			c-1.67-3.313-2.505-6.99-2.505-11.031v-1.818c0-4.041,0.808-7.744,2.425-11.112c1.616-3.367,3.838-5.993,6.666-7.879
			c2.829-1.885,5.913-2.828,9.254-2.828c4.875,0,8.861,1.737,11.96,5.212c3.097,3.475,4.646,8.041,4.646,13.698v2.303h-32.769v2.38
			c0,3.549,0.747,6.836,2.242,9.861c1.494,3.025,3.556,5.397,6.182,7.119c2.627,1.721,5.475,2.581,8.547,2.581
			c2.936,0,5.434-0.488,7.494-1.464c2.061-0.977,3.886-2.482,5.476-4.516l1.535,1.091
			C1079.781-211.116,1074.945-208.759,1068.535-208.759z M1067.727-251.913c-4.257,0-7.866,1.583-10.829,4.748
			c-2.964,3.166-4.7,7.199-5.212,12.102h30.466v-0.525c0-2.963-0.626-5.717-1.879-8.263c-1.253-2.545-2.978-4.525-5.172-5.939
			C1072.904-251.206,1070.447-251.913,1067.727-251.913z"/>
		<path d="M1113.789-251.67l-2.828-0.243c-3.717,0-6.828,1.205-9.334,3.613c-2.505,2.409-4.148,5.779-4.93,10.112v28.621h-2.182
			v-43.719h2.182v9.091c1.186-3.044,2.963-5.455,5.334-7.233c2.37-1.778,5.347-2.667,8.93-2.667c1.266,0,2.289,0.151,3.07,0.453
			L1113.789-251.67z"/>
		<path d="M1183.126-227.588c-0.565,6.061-2.653,10.714-6.263,13.96c-3.61,3.247-8.513,4.869-14.708,4.869
			c-4.176,0-7.872-1.057-11.091-3.172c-3.22-2.114-5.718-5.118-7.496-9.011c-1.777-3.892-2.68-8.344-2.707-13.354v-9.091
			c0-5.01,0.875-9.488,2.627-13.435c1.75-3.946,4.248-6.997,7.494-9.152c3.246-2.155,6.971-3.232,11.173-3.232
			c6.142,0,11.03,1.616,14.667,4.849s5.738,7.866,6.304,13.899h-2.182c-0.62-5.414-2.505-9.529-5.657-12.344
			c-3.151-2.814-7.529-4.223-13.132-4.223c-5.711,0-10.323,2.156-13.839,6.465c-3.516,4.31-5.273,10.088-5.273,17.334v8.647
			c0,4.633,0.781,8.734,2.344,12.304s3.805,6.351,6.729,8.344c2.922,1.994,6.269,2.99,10.04,2.99c5.63,0,10.027-1.387,13.192-4.162
			c3.165-2.774,5.031-6.936,5.597-12.485H1183.126z"/>
		<path d="M1192.299-232.275c0-4.175,0.801-7.926,2.403-11.253c1.603-3.326,3.865-5.919,6.788-7.778
			c2.923-1.859,6.229-2.788,9.92-2.788c3.663,0,6.949,0.903,9.859,2.707c2.909,1.805,5.178,4.364,6.809,7.677
			c1.629,3.313,2.457,7.044,2.484,11.192v1.939c0,4.202-0.795,7.96-2.384,11.273c-1.59,3.313-3.846,5.899-6.769,7.758
			c-2.922,1.859-6.229,2.788-9.919,2.788s-6.997-0.916-9.92-2.748c-2.923-1.832-5.192-4.397-6.809-7.697
			c-1.616-3.299-2.438-7.011-2.464-11.132V-232.275z M1194.48-230.579c0,3.637,0.721,6.97,2.161,10
			c1.44,3.031,3.448,5.395,6.021,7.091c2.572,1.697,5.516,2.545,8.829,2.545c4.983,0,9.044-1.872,12.183-5.616
			c3.137-3.744,4.707-8.566,4.707-14.465v-1.252c0-3.583-0.728-6.896-2.182-9.94c-1.455-3.044-3.469-5.421-6.041-7.132
			c-2.572-1.71-5.488-2.566-8.748-2.566c-4.984,0-9.051,1.899-12.203,5.697c-3.15,3.798-4.727,8.58-4.727,14.344V-230.579z"/>
		<path d="M1243.331-243.104c1.427-3.394,3.528-6.074,6.304-8.041c2.773-1.966,5.845-2.95,9.212-2.95
			c4.688,0,8.169,1.327,10.445,3.98c2.276,2.653,3.427,6.661,3.454,12.021v28.527h-2.182v-28.58
			c-0.027-4.682-0.983-8.147-2.869-10.395c-1.885-2.247-4.875-3.371-8.97-3.371c-3.771,0-7.038,1.339-9.798,4.017
			c-2.762,2.678-4.627,6.129-5.597,10.354v27.975h-2.183v-43.719h2.183V-243.104z"/>
		<path d="M1313.395-220.275c0-5.307-4.525-8.916-13.576-10.829c-5.441-1.158-9.227-2.646-11.354-4.465
			c-2.129-1.818-3.193-4.316-3.193-7.495c0-3.206,1.354-5.845,4.062-7.919s6.229-3.111,10.566-3.111
			c4.714,0,8.498,1.125,11.354,3.374c2.854,2.25,4.282,5.287,4.282,9.111h-2.222c0-2.936-1.24-5.387-3.718-7.354
			c-2.479-1.966-5.712-2.95-9.697-2.95c-3.825,0-6.856,0.835-9.092,2.505c-2.235,1.67-3.354,3.758-3.354,6.263
			c0,1.967,0.417,3.509,1.253,4.627c0.834,1.118,2.195,2.128,4.08,3.03c1.886,0.903,4.633,1.771,8.244,2.606
			c3.609,0.835,6.465,1.818,8.565,2.95s3.622,2.472,4.565,4.021c0.943,1.549,1.414,3.441,1.414,5.677
			c0,3.448-1.414,6.222-4.242,8.323s-6.532,3.152-11.111,3.152c-4.903,0-8.855-1.111-11.859-3.333s-4.506-5.084-4.506-8.586h2.183
			c0.216,3.071,1.569,5.462,4.061,7.172c2.491,1.711,5.865,2.565,10.122,2.565c3.905,0,7.077-0.909,9.516-2.727
			C1312.176-215.487,1313.395-217.689,1313.395-220.275z"/>
		<path d="M1332.507-265.085v11.799h9.94v2.182h-9.94v31.063c0,3.101,0.505,5.394,1.515,6.876c1.011,1.483,2.701,2.224,5.072,2.224
			c1.185,0,2.626-0.121,4.322-0.363l0.364,2.061c-0.89,0.323-2.411,0.485-4.565,0.485c-3.18,0-5.455-0.883-6.829-2.649
			s-2.075-4.55-2.101-8.352v-31.345h-8.082v-2.182h8.082v-11.799H1332.507z"/>
		<path d="M1373.074-251.67l-2.828-0.243c-3.717,0-6.828,1.205-9.334,3.613c-2.505,2.409-4.148,5.779-4.93,10.112v28.621h-2.182
			v-43.719h2.182v9.091c1.186-3.044,2.963-5.455,5.334-7.233c2.37-1.778,5.347-2.667,8.93-2.667c1.266,0,2.289,0.151,3.07,0.453
			L1373.074-251.67z"/>
		<path d="M1410.773-209.567v-7.071c-1.293,2.425-3.179,4.344-5.656,5.758c-2.479,1.414-5.617,2.121-9.415,2.121
			c-4.769,0-8.344-1.394-10.728-4.182c-2.385-2.788-3.604-6.849-3.657-12.182v-28.163h2.183v28.244
			c0.053,4.633,1.104,8.142,3.15,10.526s5.037,3.576,8.971,3.576c4.176,0,7.569-0.983,10.183-2.949
			c2.612-1.966,4.269-4.849,4.97-8.647v-30.749h2.223v43.719H1410.773z"/>
		<path d="M1441.604-210.941c3.959,0,7.225-1.05,9.798-3.151c2.572-2.101,3.979-5.01,4.223-8.728h2.182
			c-0.216,4.229-1.845,7.63-4.89,10.202c-3.043,2.573-6.814,3.859-11.313,3.859c-5.469,0-9.813-1.98-13.031-5.939
			c-3.219-3.96-4.828-9.334-4.828-16.122v-1.455c0-6.627,1.609-11.92,4.828-15.88c3.219-3.959,7.535-5.939,12.95-5.939
			c4.633,0,8.458,1.388,11.476,4.162c3.016,2.775,4.619,6.465,4.808,11.071h-2.182c-0.188-3.933-1.569-7.091-4.142-9.475
			s-5.893-3.576-9.96-3.576c-4.876,0-8.694,1.758-11.455,5.273c-2.762,3.516-4.142,8.398-4.142,14.647v1.414
			c0,6.115,1.394,10.917,4.182,14.405C1432.896-212.685,1436.727-210.941,1441.604-210.941z"/>
		<path d="M1473.645-265.085v11.799h9.94v2.182h-9.94v31.063c0,3.101,0.506,5.394,1.516,6.876s2.701,2.224,5.071,2.224
			c1.185,0,2.626-0.121,4.323-0.363l0.363,2.061c-0.889,0.323-2.41,0.485-4.565,0.485c-3.179,0-5.455-0.883-6.829-2.649
			c-1.373-1.766-2.074-4.55-2.101-8.352v-31.345h-8.081v-2.182h8.081v-11.799H1473.645z"/>
		<path d="M1494.333-266.944c0-0.62,0.216-1.152,0.646-1.596s0.956-0.667,1.575-0.667c0.62,0,1.152,0.222,1.597,0.667
			s0.667,0.977,0.667,1.596c0,0.62-0.223,1.145-0.667,1.576c-0.444,0.431-0.977,0.646-1.597,0.646c-0.619,0-1.145-0.215-1.575-0.646
			C1494.549-265.799,1494.333-266.324,1494.333-266.944z M1497.646-209.567h-2.182v-43.719h2.182V-209.567z"/>
		<path d="M1508.678-232.275c0-4.175,0.801-7.926,2.403-11.253c1.603-3.326,3.865-5.919,6.788-7.778
			c2.923-1.859,6.229-2.788,9.92-2.788c3.663,0,6.949,0.903,9.859,2.707c2.909,1.805,5.178,4.364,6.809,7.677
			c1.629,3.313,2.457,7.044,2.484,11.192v1.939c0,4.202-0.795,7.96-2.384,11.273c-1.59,3.313-3.846,5.899-6.769,7.758
			c-2.922,1.859-6.229,2.788-9.919,2.788s-6.997-0.916-9.92-2.748c-2.923-1.832-5.192-4.397-6.809-7.697
			c-1.616-3.299-2.438-7.011-2.464-11.132V-232.275z M1510.859-230.579c0,3.637,0.721,6.97,2.161,10
			c1.44,3.031,3.448,5.395,6.021,7.091c2.572,1.697,5.516,2.545,8.829,2.545c4.983,0,9.044-1.872,12.183-5.616
			c3.137-3.744,4.707-8.566,4.707-14.465v-1.252c0-3.583-0.728-6.896-2.182-9.94c-1.455-3.044-3.469-5.421-6.041-7.132
			c-2.572-1.71-5.488-2.566-8.748-2.566c-4.984,0-9.051,1.899-12.203,5.697c-3.15,3.798-4.727,8.58-4.727,14.344V-230.579z"/>
		<path d="M1559.71-243.104c1.427-3.394,3.528-6.074,6.304-8.041c2.773-1.966,5.845-2.95,9.212-2.95
			c4.688,0,8.169,1.327,10.445,3.98c2.276,2.653,3.427,6.661,3.454,12.021v28.527h-2.182v-28.58
			c-0.027-4.682-0.983-8.147-2.869-10.395c-1.885-2.247-4.875-3.371-8.97-3.371c-3.771,0-7.038,1.339-9.798,4.017
			c-2.762,2.678-4.627,6.129-5.597,10.354v27.975h-2.183v-43.719h2.183V-243.104z"/>
	</g>
	<g>
		<path d="M235.351-145.595c-1.596,12.321-4.343,22.514-8.155,30.669c8.775,9.839,21.894,12.055,38.203,12.144
			c2.57,0,22.071,0,25.616-0.089c-0.709,1.063-1.507,2.925-1.772,3.988h-23.933c-17.284,0-30.58-2.393-39.976-12.409
			c-3.368,6.027-7.269,10.637-11.7,14.183c-0.621-0.887-2.216-2.394-3.28-3.014c4.698-3.457,8.775-8.332,12.144-14.537
			c-3.28-4.343-5.939-9.927-8.066-16.93l3.457-1.507c1.596,5.938,3.812,10.637,6.471,14.537c2.925-6.648,5.141-14.537,6.471-23.755
			h-14.537c3.988-6.382,9.307-16.31,13.384-24.553h-17.196v-3.9h23.578c-3.9,7.711-9.041,17.462-13.119,24.553h9.042l0.797-0.177
			L235.351-145.595z M259.815-164.829h-18.171v-3.723h18.171v-7.623h4.078v7.623h19.146v11.789h6.825v3.634h-6.825v12.055h-19.146
			v8.155h21.273v3.634h-21.273v8.864H288.8v3.723h-24.907v10.548h-4.078v-10.548h-23.489v-3.723h23.489v-8.864h-19.5v-3.634h19.5
			v-8.155h-18.88v-3.723h18.88v-8.332h-24.375v-3.634h24.375V-164.829z M263.893-164.829v8.066h15.157v-8.066H263.893z
			 M279.05-153.129h-15.157v8.332h15.157V-153.129z"/>
		<path d="M325.585-127.158c-1.33-2.748-5.229-8.864-8.066-13.295v43.875h-4.078v-45.914c-3.279,10.991-7.889,22.248-12.409,28.719
			c-0.621-1.063-1.772-2.748-2.659-3.546c5.762-7.711,11.7-22.78,14.448-35.721h-12.675v-3.989h13.295v-19.678h4.078v19.678h10.902
			v3.989h-10.902v7.357c2.482,3.103,9.13,12.853,10.725,15.246L325.585-127.158z M380.541-111.292h-6.116v9.662
			c0,2.57-0.621,3.812-2.57,4.521c-2.039,0.62-5.673,0.62-11.612,0.62c-0.266-0.975-0.886-2.57-1.418-3.723
			c4.787,0.177,8.775,0.089,10.017,0.089c1.152-0.089,1.507-0.443,1.507-1.419v-9.75h-33.505v14.803h-4.078v-14.803h-6.382v-3.545
			h6.382v-22.515h18.348v-6.47H327.89v-3.634h13.119v-7.357h-9.219v-3.457h9.219v-7.18h-10.814v-3.545h10.814v-7.712h3.989v7.712
			h16.93v-7.712h4.078v7.712h11.611v3.545h-11.611v7.18h10.371v3.457h-10.371v7.357h13.562v3.634h-24.464v6.47h19.323v22.515h6.116
			V-111.292z M336.842-133.806v7.534h14.271v-7.534H336.842z M336.842-114.837h14.271v-7.978h-14.271V-114.837z M344.997-158.27
			h16.93v-7.18h-16.93V-158.27z M344.997-147.456h16.93v-7.357h-16.93V-147.456z M355.102-133.806v7.534h15.246v-7.534H355.102z
			 M370.348-114.837v-7.978h-15.246v7.978H370.348z"/>
		<path d="M462.886-160.575v39.887h-4.343v-5.407h-28.63v29.605h-4.343v-29.605h-28.63v5.85h-4.166v-40.331h32.796v-16.043h4.343
			v16.043H462.886z M425.569-130.26v-26.148h-28.63v26.148H425.569z M458.542-130.26v-26.148h-28.63v26.148H458.542z"/>
		<path d="M478.841-106.505c0-3.014,2.127-4.876,4.521-4.876c2.394,0,4.521,1.862,4.521,4.876c0,2.925-2.127,4.786-4.521,4.786
			C480.968-101.719,478.841-103.58,478.841-106.505z"/>
		<path d="M501-106.505c0-3.014,2.127-4.876,4.521-4.876c2.394,0,4.521,1.862,4.521,4.876c0,2.925-2.127,4.786-4.521,4.786
			C503.128-101.719,501-103.58,501-106.505z"/>
		<path d="M523.16-106.505c0-3.014,2.127-4.876,4.521-4.876c2.394,0,4.521,1.862,4.521,4.876c0,2.925-2.127,4.786-4.521,4.786
			C525.288-101.719,523.16-103.58,523.16-106.505z"/>
		<path d="M545.32-106.505c0-3.014,2.127-4.876,4.521-4.876c2.394,0,4.521,1.862,4.521,4.876c0,2.925-2.127,4.786-4.521,4.786
			C547.447-101.719,545.32-103.58,545.32-106.505z"/>
	</g>
	
		<image overflow="visible" width="1920" height="1080" xlink:href="A5D006A5.png"  transform="matrix(0.4421 0 0 0.4421 -394.8438 205.791)">
	</image>
	<g>
	</g>
	<g>
	</g>
	<g>
	</g>
	<g>
	</g>
	<g>
	</g>
	<g>
	</g>
</g>
</svg>
