<?xml version="1.0" encoding="utf-8"?>
<!-- Generator: Adobe Illustrator 16.0.0, SVG Export Plug-In . SVG Version: 6.00 Build 0)  -->
<!DOCTYPE svg PUBLIC "-//W3C//DTD SVG 1.1//EN" "http://www.w3.org/Graphics/SVG/1.1/DTD/svg11.dtd">
<svg version="1.1" id="圖層_1" xmlns="http://www.w3.org/2000/svg" xmlns:xlink="http://www.w3.org/1999/xlink" x="0px" y="0px"
	 width="1400px" height="931px" viewBox="0 0 1400 931" enable-background="new 0 0 1400 931" xml:space="preserve">
<g>
	<path fill="#3E3A39" d="M826.757,395.365h-22.95l-13.795-22.826c-1.031-1.731-2.021-3.278-2.97-4.64
		c-0.948-1.361-1.907-2.526-2.876-3.495c-0.97-0.969-1.979-1.711-3.031-2.228c-1.052-0.516-2.195-0.773-3.434-0.773h-5.382v33.962
		h-19.98v-88.708h31.673c21.527,0,32.291,8.042,32.291,24.125c0,3.094-0.475,5.949-1.423,8.568s-2.289,4.979-4.021,7.083
		c-1.731,2.103-3.825,3.918-6.278,5.442c-2.454,1.526-5.187,2.723-8.196,3.589v0.248c1.319,0.411,2.599,1.082,3.835,2.01
		c1.237,0.928,2.434,2.011,3.589,3.248c1.153,1.236,2.258,2.566,3.31,3.989c1.052,1.424,2.011,2.814,2.877,4.177L826.757,395.365z
		 M772.319,321.627v24.683h8.661c4.287,0,7.731-1.237,10.33-3.712c2.639-2.516,3.959-5.629,3.959-9.341
		c0-7.753-4.64-11.63-13.919-11.63H772.319z"/>
	<path fill="#3E3A39" d="M886.515,369.26h-41.322c0.659,9.196,6.454,13.795,17.383,13.795c6.969,0,13.094-1.648,18.373-4.948v14.104
		c-5.856,3.135-13.466,4.701-22.827,4.701c-10.229,0-18.167-2.835-23.816-8.506c-5.649-5.67-8.475-13.579-8.475-23.724
		c0-10.517,3.052-18.847,9.155-24.992c6.103-6.145,13.608-9.217,22.518-9.217c9.237,0,16.382,2.743,21.435,8.228
		s7.578,12.93,7.578,22.331L886.515,369.26L886.515,369.26z M868.39,357.259c0-9.072-3.672-13.609-11.012-13.609
		c-3.135,0-5.846,1.299-8.135,3.897c-2.289,2.598-3.681,5.836-4.177,9.712H868.39z"/>
	<path fill="#3E3A39" d="M900.063,395.365v-88.708h31.426c31.508,0,47.262,14.414,47.262,43.241
		c0,13.816-4.299,24.848-12.896,33.096c-8.6,8.249-20.055,12.372-34.364,12.372L900.063,395.365L900.063,395.365z M920.043,322.926
		v56.23h9.898c8.66,0,15.453-2.598,20.383-7.794c4.928-5.196,7.393-12.269,7.393-21.219c0-8.453-2.442-15.104-7.331-19.949
		c-4.887-4.846-11.743-7.269-20.567-7.269H920.043L920.043,322.926z"/>
	<path fill="#3E3A39" d="M1048.467,369.26h-41.322c0.658,9.196,6.453,13.795,17.383,13.795c6.969,0,13.094-1.648,18.373-4.948
		v14.104c-5.856,3.135-13.466,4.701-22.827,4.701c-10.229,0-18.167-2.835-23.816-8.506c-5.649-5.67-8.475-13.579-8.475-23.724
		c0-10.517,3.052-18.847,9.155-24.992c6.103-6.145,13.608-9.217,22.518-9.217c9.237,0,16.382,2.743,21.436,8.228
		c5.052,5.484,7.578,12.93,7.578,22.331v8.228H1048.467z M1030.342,357.259c0-9.072-3.672-13.609-11.012-13.609
		c-3.135,0-5.846,1.299-8.135,3.897c-2.289,2.598-3.682,5.836-4.176,9.712H1030.342z"/>
	<path fill="#3E3A39" d="M1055.951,393.695v-15.837c3.217,1.939,6.423,3.382,9.619,4.33c3.194,0.949,6.217,1.423,9.063,1.423
		c3.464,0,6.196-0.474,8.196-1.423c2-0.948,3.001-2.391,3.001-4.33c0-1.237-0.455-2.268-1.361-3.093
		c-0.906-0.824-2.071-1.547-3.494-2.165c-1.424-0.619-2.979-1.176-4.672-1.67c-1.69-0.495-3.318-1.052-4.887-1.671
		c-2.516-0.948-4.732-1.97-6.648-3.063c-1.918-1.093-3.526-2.359-4.825-3.805c-1.3-1.443-2.289-3.113-2.97-5.011
		c-0.682-1.896-1.021-4.146-1.021-6.743c0-3.546,0.773-6.599,2.319-9.155c1.547-2.557,3.607-4.648,6.187-6.278
		c2.577-1.629,5.525-2.824,8.846-3.589c3.319-0.762,6.774-1.144,10.362-1.144c2.804,0,5.649,0.216,8.536,0.648
		c2.887,0.434,5.732,1.063,8.537,1.888v15.094c-2.475-1.443-5.125-2.525-7.949-3.248c-2.825-0.721-5.599-1.082-8.32-1.082
		c-1.277,0-2.484,0.114-3.618,0.34c-1.136,0.229-2.135,0.558-3,0.99c-0.866,0.433-1.548,0.989-2.041,1.67
		c-0.495,0.681-0.742,1.454-0.742,2.32c0,1.153,0.371,2.145,1.113,2.969c0.741,0.825,1.711,1.537,2.906,2.135
		c1.195,0.599,2.525,1.135,3.99,1.608c1.463,0.475,2.917,0.958,4.361,1.453c2.598,0.907,4.948,1.896,7.052,2.97
		s3.907,2.33,5.413,3.773c1.505,1.443,2.66,3.135,3.464,5.071c0.805,1.939,1.206,4.248,1.206,6.93c0,3.753-0.813,6.959-2.443,9.618
		c-1.63,2.66-3.795,4.825-6.495,6.495c-2.7,1.671-5.814,2.889-9.341,3.65c-3.525,0.763-7.187,1.145-10.979,1.145
		C1068.344,396.911,1061.89,395.839,1055.951,393.695z"/>
	<path fill="#3E3A39" d="M1125.73,321.998c-3.301,0-6-0.979-8.104-2.938c-2.104-1.958-3.155-4.361-3.155-7.207
		c0-2.928,1.053-5.32,3.155-7.176c2.103-1.856,4.804-2.784,8.104-2.784c3.341,0,6.052,0.928,8.135,2.784
		c2.082,1.855,3.124,4.248,3.124,7.176c0,2.969-1.042,5.403-3.124,7.3C1131.782,321.05,1129.071,321.998,1125.73,321.998z
		 M1135.381,395.365h-19.548V332.02h19.548V395.365z"/>
	<path fill="#3E3A39" d="M1213.944,388.128c0,11.753-3.402,20.855-10.207,27.312c-6.806,6.453-16.662,9.681-29.569,9.681
		c-8.537,0-15.301-1.217-20.291-3.648v-16.455c6.516,3.794,13.094,5.691,19.734,5.691c6.598,0,11.712-1.743,15.341-5.229
		s5.443-8.218,5.443-14.197v-5.011h-0.248c-4.454,7.094-11.031,10.641-19.732,10.641c-8.083,0-14.497-2.846-19.238-8.536
		c-4.743-5.691-7.114-13.32-7.114-22.89c0-10.722,2.64-19.237,7.918-25.549c5.278-6.31,12.229-9.464,20.849-9.464
		c7.711,0,13.484,2.969,17.319,8.907h0.248v-7.361h19.548V388.128L1213.944,388.128z M1194.645,364.93v-5.011
		c0-4-1.187-7.413-3.558-10.238c-2.372-2.824-5.455-4.237-9.248-4.237c-4.331,0-7.733,1.691-10.207,5.073
		c-2.475,3.382-3.712,8.145-3.712,14.289c0,5.279,1.175,9.455,3.525,12.526c2.352,3.072,5.567,4.608,9.649,4.608
		c4.042,0,7.311-1.557,9.807-4.671C1193.396,374.156,1194.645,370.044,1194.645,364.93z"/>
	<path fill="#3E3A39" d="M1291.456,395.365h-19.486v-35.199c0-9.813-3.506-14.723-10.517-14.723c-3.382,0-6.166,1.299-8.352,3.897
		c-2.187,2.598-3.278,5.897-3.278,9.896v36.127h-19.548V332.02h19.548v10.021h0.248c4.659-7.711,11.442-11.566,20.352-11.566
		c14.021,0,21.033,8.702,21.033,26.104V395.365L1291.456,395.365z"/>
</g>
<g>
	<path fill="#3E3A39" d="M581.753,635.581l-3.217,10.642c-3.919,0.246-8.888,0.371-14.908,0.371
		c-26.313,0-43.221-0.959-50.727-2.877c-7.507-1.918-14.373-5.724-20.601-11.414c-5.401,7.053-10.269,12.332-14.599,15.838
		l-8.724-8.166c6.599-4.908,11.795-10.271,15.59-16.084c-4.866-6.846-8.765-15.156-11.691-24.93l10.27-3.402
		c1.771,6.227,4.021,11.877,6.742,16.949c2.434-7.463,3.649-15.32,3.649-23.568H472.63v-10.641
		c8.29-9.691,14.496-18.807,18.62-27.343h-20.537v-10.764h32.972v10.764c-3.548,7.919-9.114,16.99-16.701,27.22h18.063
		c0,19.135-2.702,34.209-8.104,45.219c7.671,7.053,17.021,10.898,28.054,11.537c11.032,0.641,23.312,0.959,36.839,0.959
		C568.721,635.891,575.36,635.788,581.753,635.581z M579.959,622.281H545.75v10.146h-10.764v-10.146h-30.064v-9.401h30.064v-7.98
		h-25.487v-8.969h25.487v-7.486h-22.827v-8.721h22.827v-8.662h-30.064v-8.846h30.064v-8.104h-22.827v-8.846h22.827v-7.857h10.764
		v7.857h26.724v16.949h7.238v8.846h-7.238v17.383H545.75v7.486h29.137v8.969H545.75v7.98h34.209V622.281z M561.339,562.215v-8.104
		H545.75v8.104H561.339z M561.339,579.723v-8.662H545.75v8.662H561.339z"/>
	<path fill="#3E3A39" d="M634.273,592.465l-7.177,8.785c-1.484-3.425-3.177-6.931-5.072-10.519v56.975h-10.889v-52.704
		c-3.052,8.825-6.104,15.713-9.155,20.659l-5.813-12.123c5.649-9.403,10.371-20.725,14.166-33.963h-12.619v-11.011h13.423V537.1
		h10.889v21.466h8.97v11.011h-8.97v5.691C626.231,580.465,630.314,586.197,634.273,592.465z M708.444,627.602h-8.908v9.217
		c0,3.713-1.217,6.353-3.649,7.92c-2.434,1.566-8.146,2.392-17.136,2.474l-4.021-10.765c6.516,0.084,10.524,0.074,12.03-0.028
		c1.505-0.104,2.258-0.938,2.258-2.507v-6.311h-39.527v19.982H638.85v-19.982h-9.094v-9.031h9.094v-29.26h24.992v-6.805h-33.714
		v-9.032h16.702v-6.188h-10.888v-8.475h10.888v-5.443h-15.094v-9.278h15.094v-7.113h10.393v7.113h22.826v-7.113h10.394v7.113h15.961
		v9.278h-15.961v5.443h13.177v8.475h-13.177v6.188h17.568v9.032h-33.405v6.805h24.931v29.26h8.908V627.602z M663.843,603.538v-5.444
		h-14.352v5.444H663.843z M663.843,618.57v-6.557h-14.352v6.557H663.843z M680.05,558.813v-5.443h-22.826v5.443H680.05z
		 M680.05,573.474v-6.188h-22.826v6.188H680.05z M689.02,603.538v-5.444h-14.412v5.444H689.02z M689.02,618.57v-6.557h-14.412v6.557
		H689.02z"/>
	<path fill="#3E3A39" d="M828.021,611.146h-43.488v36.561h-11.63v-36.561h-43.303v-53.51h43.303v-20.353h11.63v20.353h43.488
		V611.146z M772.902,599.95v-31.179h-31.55v31.179H772.902z M816.329,599.95v-31.179h-31.797v31.179H816.329z"/>
	<path fill="#3E3A39" d="M848.621,634.221c0-2.514,0.906-4.599,2.722-6.248c1.814-1.648,3.979-2.475,6.495-2.475
		c2.475,0,4.618,0.815,6.434,2.442c1.814,1.631,2.723,3.724,2.723,6.279c0,2.393-0.866,4.444-2.598,6.156
		c-1.732,1.711-3.959,2.565-6.683,2.565c-2.516,0-4.66-0.836-6.433-2.506C849.507,638.768,848.621,636.695,848.621,634.221z"/>
	<path fill="#3E3A39" d="M880.852,634.221c0-2.514,0.905-4.599,2.722-6.248c1.813-1.648,3.979-2.475,6.495-2.475
		c2.475,0,4.617,0.815,6.434,2.442c1.814,1.631,2.722,3.724,2.722,6.279c0,2.393-0.866,4.444-2.598,6.156
		c-1.731,1.711-3.959,2.565-6.682,2.565c-2.517,0-4.66-0.836-6.434-2.506C881.736,638.768,880.852,636.695,880.852,634.221z"/>
	<path fill="#3E3A39" d="M913.08,634.221c0-2.514,0.906-4.599,2.722-6.248c1.814-1.648,3.979-2.475,6.495-2.475
		c2.475,0,4.618,0.815,6.434,2.442c1.814,1.631,2.723,3.724,2.723,6.279c0,2.393-0.866,4.444-2.598,6.156
		c-1.732,1.711-3.959,2.565-6.683,2.565c-2.516,0-4.66-0.836-6.433-2.506C913.966,638.768,913.08,636.695,913.08,634.221z"/>
</g>
<rect x="74.123" y="249.969" fill="#3E3A39" width="602.97" height="191.596"/>
<g id="logo_whiite">
	<path id="Fill-1" fill="#FFFFFF" d="M157.24,432.651c-0.524,0-1.052-0.097-1.534-0.34l-74.75-35.591
		c-1.231-0.581-2.023-1.852-2.023-3.217V283.184c0-1.239,0.629-2.363,1.66-3.015c1.022-0.663,2.314-0.743,3.421-0.209l73.225,34.873
		l73.2-34.873c1.115-0.533,2.404-0.454,3.434,0.209c1.03,0.651,1.647,1.776,1.647,3.015v110.318c0,1.365-0.787,2.637-2.009,3.217
		l-74.746,35.591C158.279,432.554,157.757,432.651,157.24,432.651L157.24,432.651z M86.055,391.258l71.185,33.904l71.177-33.904
		V288.821l-69.651,33.154c-0.971,0.454-2.102,0.454-3.06,0l-69.651-33.154V391.258L86.055,391.258z"/>
	<path id="Fill-2" fill="#FFFFFF" d="M157.24,434.247c-0.795,0-1.534-0.167-2.238-0.508l-74.727-35.586
		c-1.766-0.836-2.938-2.667-2.938-4.651V283.184c0-1.781,0.909-3.403,2.396-4.36c1.451-0.918,3.395-1.04,4.984-0.292l72.523,34.53
		l72.523-34.53c1.589-0.755,3.495-0.629,4.971,0.292c1.487,0.949,2.387,2.579,2.387,4.36v110.318c0,1.984-1.146,3.814-2.933,4.651
		l-74.738,35.595C158.766,434.08,158.015,434.247,157.24,434.247L157.24,434.247z M82.486,281.196c-0.371,0-0.721,0.105-1.026,0.308
		c-0.595,0.367-0.945,0.987-0.945,1.681v110.318c0,0.755,0.442,1.463,1.114,1.783l74.765,35.596c0.538,0.264,1.176,0.264,1.69,0
		l74.748-35.596c0.681-0.32,1.114-1.028,1.114-1.783V283.184c0-0.693-0.35-1.314-0.909-1.677c-0.572-0.354-1.304-0.408-1.91-0.109
		l-73.886,35.186l-0.693-0.325l-73.201-34.861C83.079,281.271,82.778,281.196,82.486,281.196L82.486,281.196z M157.24,426.912
		l-0.693-0.315l-72.09-34.323V286.308l71.936,34.236c0.515,0.247,1.167,0.247,1.703,0l71.907-34.236v105.966l-0.895,0.427
		L157.24,426.912L157.24,426.912z M87.636,390.263l69.604,33.133l69.596-33.133v-98.939l-67.385,32.081
		c-1.385,0.664-3.058,0.651-4.434,0l-67.381-32.081V390.263L87.636,390.263z"/>
	<path id="Fill-3" fill="#FFFFFF" d="M157.24,298.722l-62.063-29.538c-1.76-0.842-2.511-2.96-1.686-4.744
		c0.872-1.765,2.985-2.516,4.754-1.673l58.994,28.081l58.978-28.081c1.773-0.842,3.895-0.091,4.753,1.673
		c0.834,1.783,0.079,3.901-1.693,4.744L157.24,298.722"/>
	<path id="Fill-4" fill="#FFFFFF" d="M157.24,300.487l-0.693-0.322l-62.041-29.546c-2.565-1.219-3.648-4.299-2.43-6.851
		c1.18-2.483,4.356-3.61,6.861-2.438l58.303,27.754l58.302-27.754c2.507-1.201,5.67-0.045,6.854,2.434
		c1.218,2.569,0.121,5.637-2.43,6.856L157.24,300.487L157.24,300.487z M96.716,264.011c-0.764,0-1.446,0.424-1.782,1.116
		c-0.462,0.979-0.053,2.153,0.939,2.639l61.367,29.199l61.355-29.199c0.992-0.486,1.393-1.66,0.938-2.639
		c-0.454-0.958-1.66-1.404-2.639-0.928l-59.654,28.416l-0.693-0.324l-58.982-28.092C97.288,264.073,97.015,264.011,96.716,264.011
		L96.716,264.011z"/>
	<polygon id="Fill-5" fill="#FFFFFF" points="153.671,318.764 160.789,318.764 160.789,429.105 153.671,429.105 	"/>
	<path id="Fill-6" fill="#FFFFFF" d="M152.084,317.177h10.304v113.515h-10.304V317.177z M155.261,427.509h3.946V320.35h-3.946
		V427.509z"/>
	<polygon id="Fill-7" fill="#FFFFFF" points="331.401,435.506 303.731,435.506 303.731,382.169 309.976,382.169 309.976,429.848 
		331.401,429.848 	"/>
	<polygon id="Stroke-8" fill="none" stroke="#FFFFFF" stroke-width="0.5" points="331.401,435.506 303.731,435.506 303.731,382.169 
		309.976,382.169 309.976,429.848 331.401,429.848 	"/>
	<path id="Fill-9" fill="#FFFFFF" d="M369.378,417.986h-26.886c0.096,4.241,1.238,7.51,3.415,9.822
		c2.184,2.301,5.19,3.457,9.005,3.457c4.286,0,8.23-1.416,11.832-4.246v5.739c-3.352,2.424-7.779,3.635-13.287,3.635
		c-5.374,0-9.609-1.727-12.682-5.183c-3.074-3.465-4.608-8.326-4.608-14.598c0-5.932,1.677-10.757,5.042-14.491
		c3.352-3.725,7.529-5.598,12.515-5.598c4.979,0,8.835,1.612,11.561,4.838c2.736,3.226,4.095,7.697,4.095,13.425V417.986
		L369.378,417.986z M363.133,412.81c-0.026-3.511-0.879-6.259-2.551-8.214c-1.668-1.963-3.998-2.939-6.971-2.939
		c-2.878,0-5.325,1.028-7.326,3.094c-2.009,2.056-3.256,4.744-3.723,8.06H363.133L363.133,412.81z"/>
	<path id="Stroke-10" fill="none" stroke="#FFFFFF" stroke-width="0.5" d="M369.378,417.986h-26.886
		c0.096,4.241,1.238,7.51,3.415,9.822c2.184,2.301,5.19,3.457,9.005,3.457c4.286,0,8.23-1.416,11.832-4.246v5.739
		c-3.352,2.424-7.779,3.635-13.287,3.635c-5.374,0-9.609-1.727-12.682-5.183c-3.074-3.465-4.608-8.326-4.608-14.598
		c0-5.932,1.677-10.757,5.042-14.491c3.352-3.725,7.529-5.598,12.515-5.598c4.979,0,8.835,1.612,11.561,4.838
		c2.736,3.226,4.095,7.697,4.095,13.425V417.986L369.378,417.986z M363.133,412.81c-0.026-3.511-0.879-6.259-2.551-8.214
		c-1.668-1.963-3.998-2.939-6.971-2.939c-2.878,0-5.325,1.028-7.326,3.094c-2.009,2.056-3.256,4.744-3.723,8.06H363.133
		L363.133,412.81z"/>
	<path id="Fill-11" fill="#FFFFFF" d="M405.869,435.506h-6.11v-5.957h-0.142c-2.649,4.562-6.563,6.844-11.713,6.844
		c-3.797,0-6.775-1.002-8.917-3.012c-2.138-2.01-3.208-4.668-3.208-7.996c0-7.114,4.189-11.257,12.57-12.417l11.411-1.604
		c0-6.469-2.612-9.707-7.843-9.707c-4.583,0-8.731,1.565-12.417,4.689v-6.251c3.743-2.381,8.056-3.571,12.937-3.571
		c8.953,0,13.433,4.736,13.433,14.209V435.506L405.869,435.506z M399.759,416.24l-9.183,1.268c-2.825,0.397-4.958,1.092-6.396,2.1
		c-1.434,1.002-2.154,2.782-2.154,5.333c0,1.86,0.666,3.379,1.993,4.557c1.318,1.174,3.088,1.766,5.303,1.766
		c3.021,0,5.513-1.057,7.484-3.174c1.967-2.124,2.954-4.804,2.954-8.055V416.24L399.759,416.24z"/>
	<path id="Stroke-12" fill="none" stroke="#FFFFFF" stroke-width="0.5" d="M405.869,435.506h-6.11v-5.957h-0.142
		c-2.649,4.562-6.563,6.844-11.713,6.844c-3.797,0-6.775-1.002-8.917-3.012c-2.138-2.01-3.208-4.668-3.208-7.996
		c0-7.114,4.189-11.257,12.57-12.417l11.411-1.604c0-6.469-2.612-9.707-7.843-9.707c-4.583,0-8.731,1.565-12.417,4.689v-6.251
		c3.743-2.381,8.056-3.571,12.937-3.571c8.953,0,13.433,4.736,13.433,14.209V435.506L405.869,435.506z M399.759,416.24l-9.183,1.268
		c-2.825,0.397-4.958,1.092-6.396,2.1c-1.434,1.002-2.154,2.782-2.154,5.333c0,1.86,0.666,3.379,1.993,4.557
		c1.318,1.174,3.088,1.766,5.303,1.766c3.021,0,5.513-1.057,7.484-3.174c1.967-2.124,2.954-4.804,2.954-8.055V416.24L399.759,416.24
		z"/>
	<path id="Fill-13" fill="#FFFFFF" d="M437.222,403.59c-1.067-0.815-2.607-1.221-4.613-1.221c-2.607,0-4.779,1.221-6.528,3.679
		c-1.753,2.449-2.624,5.802-2.624,10.04v19.419h-6.102v-38.087h6.102v7.852h0.145c0.87-2.68,2.192-4.771,3.985-6.273
		c1.784-1.497,3.79-2.249,5.991-2.249c1.587,0,2.803,0.179,3.644,0.525V403.59L437.222,403.59z"/>
	<path id="Stroke-14" fill="none" stroke="#FFFFFF" stroke-width="0.5" d="M437.222,403.59c-1.067-0.815-2.607-1.221-4.613-1.221
		c-2.607,0-4.779,1.221-6.528,3.679c-1.753,2.449-2.624,5.802-2.624,10.04v19.419h-6.102v-38.087h6.102v7.852h0.145
		c0.87-2.68,2.192-4.771,3.985-6.273c1.784-1.497,3.79-2.249,5.991-2.249c1.587,0,2.803,0.179,3.644,0.525V403.59L437.222,403.59z"
		/>
	<path id="Fill-15" fill="#FFFFFF" d="M475.31,435.506h-6.098v-21.718c0-8.086-2.953-12.131-8.854-12.131
		c-3.055,0-5.572,1.148-7.574,3.442c-1.992,2.287-2.991,5.186-2.991,8.688v21.718h-6.098v-38.087h6.098v6.315h0.153
		c2.876-4.809,7.036-7.211,12.494-7.211c4.165,0,7.348,1.348,9.558,4.041c2.202,2.684,3.312,6.58,3.312,11.662V435.506
		L475.31,435.506z"/>
	<path id="Stroke-16" fill="none" stroke="#FFFFFF" stroke-width="0.5" d="M475.31,435.506h-6.098v-21.718
		c0-8.086-2.953-12.131-8.854-12.131c-3.055,0-5.572,1.148-7.574,3.442c-1.992,2.287-2.991,5.186-2.991,8.688v21.718h-6.098v-38.087
		h6.098v6.315h0.153c2.876-4.809,7.036-7.211,12.494-7.211c4.165,0,7.348,1.348,9.558,4.041c2.202,2.684,3.312,6.58,3.312,11.662
		V435.506L475.31,435.506z"/>
	<path id="Fill-17" fill="#FFFFFF" d="M541.993,435.506h-6.209v-35.787c0-2.82,0.176-6.285,0.518-10.373h-0.146
		c-0.597,2.406-1.127,4.131-1.6,5.171l-18.225,40.988h-3.046l-18.194-40.693c-0.52-1.191-1.05-3.009-1.596-5.466h-0.153
		c0.201,2.134,0.307,5.619,0.307,10.454v35.706h-6.028v-53.337h8.255l16.36,37.191c1.263,2.858,2.086,4.983,2.462,6.396h0.223
		c1.071-2.923,1.919-5.107,2.573-6.544l16.687-37.042h7.813V435.506L541.993,435.506z"/>
	<path id="Stroke-18" fill="none" stroke="#FFFFFF" stroke-width="0.5" d="M541.993,435.506h-6.209v-35.787
		c0-2.82,0.176-6.285,0.518-10.373h-0.146c-0.597,2.406-1.127,4.131-1.6,5.171l-18.225,40.988h-3.046l-18.194-40.693
		c-0.52-1.191-1.05-3.009-1.596-5.466h-0.153c0.201,2.134,0.307,5.619,0.307,10.454v35.706h-6.028v-53.337h8.255l16.36,37.191
		c1.263,2.858,2.086,4.983,2.462,6.396h0.223c1.071-2.923,1.919-5.107,2.573-6.544l16.687-37.042h7.813V435.506L541.993,435.506z"/>
	<path id="Fill-19" fill="#FFFFFF" d="M571.123,436.393c-5.632,0-10.125-1.775-13.483-5.333c-3.358-3.559-5.044-8.273-5.044-14.149
		c0-6.4,1.749-11.396,5.244-14.998c3.503-3.588,8.219-5.389,14.175-5.389c5.675,0,10.105,1.746,13.296,5.248
		c3.183,3.499,4.779,8.338,4.779,14.541c0,6.078-1.715,10.941-5.149,14.603C581.5,434.567,576.896,436.393,571.123,436.393
		L571.123,436.393z M571.563,401.656c-3.913,0-7.015,1.331-9.293,3.998c-2.283,2.671-3.422,6.34-3.422,11.026
		c0,4.514,1.152,8.072,3.456,10.675c2.309,2.611,5.394,3.908,9.259,3.908c3.942,0,6.972-1.279,9.098-3.831
		c2.12-2.552,3.183-6.187,3.183-10.897c0-4.763-1.063-8.432-3.183-11.01C578.535,402.949,575.505,401.656,571.563,401.656
		L571.563,401.656z"/>
	<path id="Stroke-20" fill="none" stroke="#FFFFFF" stroke-width="0.5" d="M571.123,436.393c-5.632,0-10.125-1.775-13.483-5.333
		c-3.358-3.559-5.044-8.273-5.044-14.149c0-6.4,1.749-11.396,5.244-14.998c3.503-3.588,8.219-5.389,14.175-5.389
		c5.675,0,10.105,1.746,13.296,5.248c3.183,3.499,4.779,8.338,4.779,14.541c0,6.078-1.715,10.941-5.149,14.603
		C581.5,434.567,576.896,436.393,571.123,436.393L571.123,436.393z M571.563,401.656c-3.913,0-7.015,1.331-9.293,3.998
		c-2.283,2.671-3.422,6.34-3.422,11.026c0,4.514,1.152,8.072,3.456,10.675c2.309,2.611,5.394,3.908,9.259,3.908
		c3.942,0,6.972-1.279,9.098-3.831c2.12-2.552,3.183-6.187,3.183-10.897c0-4.763-1.063-8.432-3.183-11.01
		C578.535,402.949,575.505,401.656,571.563,401.656L571.563,401.656z"/>
	<path id="Fill-21" fill="#FFFFFF" d="M632.337,435.506h-6.098v-6.477h-0.149c-2.829,4.91-7.19,7.364-13.087,7.364
		c-4.796,0-8.62-1.697-11.479-5.111c-2.862-3.41-4.292-8.048-4.292-13.933c0-6.293,1.584-11.345,4.754-15.134
		c3.179-3.797,7.403-5.692,12.685-5.692c5.23,0,9.041,2.061,11.418,6.179h0.149v-23.588h6.098V435.506L632.337,435.506z
		 M626.239,418.275v-5.606c0-3.072-1.016-5.683-3.046-7.808c-2.035-2.142-4.61-3.204-7.74-3.204c-3.717,0-6.64,1.361-8.777,4.092
		c-2.13,2.731-3.197,6.499-3.197,11.307c0,4.387,1.021,7.861,3.064,10.394c2.047,2.544,4.792,3.815,8.244,3.815
		c3.396,0,6.152-1.228,8.274-3.682C625.181,425.128,626.239,422.031,626.239,418.275L626.239,418.275z"/>
	<path id="Stroke-22" fill="none" stroke="#FFFFFF" stroke-width="0.5" d="M632.337,435.506h-6.098v-6.477h-0.149
		c-2.829,4.91-7.19,7.364-13.087,7.364c-4.796,0-8.62-1.697-11.479-5.111c-2.862-3.41-4.292-8.048-4.292-13.933
		c0-6.293,1.584-11.345,4.754-15.134c3.179-3.797,7.403-5.692,12.685-5.692c5.23,0,9.041,2.061,11.418,6.179h0.149v-23.588h6.098
		V435.506L632.337,435.506z M626.239,418.275v-5.606c0-3.072-1.016-5.683-3.046-7.808c-2.035-2.142-4.61-3.204-7.74-3.204
		c-3.717,0-6.64,1.361-8.777,4.092c-2.13,2.731-3.197,6.499-3.197,11.307c0,4.387,1.021,7.861,3.064,10.394
		c2.047,2.544,4.792,3.815,8.244,3.815c3.396,0,6.152-1.228,8.274-3.682C625.181,425.128,626.239,422.031,626.239,418.275
		L626.239,418.275z"/>
	<path id="Fill-23" fill="#FFFFFF" d="M675.297,417.986h-26.896c0.103,4.241,1.243,7.51,3.427,9.822
		c2.185,2.301,5.184,3.457,8.999,3.457c4.288,0,8.235-1.416,11.829-4.246v5.739c-3.35,2.424-7.771,3.635-13.279,3.635
		c-5.376,0-9.61-1.727-12.678-5.183c-3.076-3.465-4.612-8.326-4.612-14.598c0-5.932,1.677-10.757,5.035-14.491
		c3.362-3.725,7.531-5.598,12.519-5.598c4.983,0,8.832,1.612,11.563,4.838s4.093,7.697,4.093,13.425V417.986L675.297,417.986z
		 M669.05,412.81c-0.03-3.511-0.875-6.259-2.544-8.214c-1.677-1.963-4.002-2.939-6.984-2.939c-2.877,0-5.309,1.028-7.314,3.094
		c-2.015,2.056-3.261,4.744-3.726,8.06H669.05L669.05,412.81z"/>
	<path id="Stroke-24" fill="none" stroke="#FFFFFF" stroke-width="0.5" d="M675.297,417.986h-26.896
		c0.103,4.241,1.243,7.51,3.427,9.822c2.185,2.301,5.184,3.457,8.999,3.457c4.288,0,8.235-1.416,11.829-4.246v5.739
		c-3.35,2.424-7.771,3.635-13.279,3.635c-5.376,0-9.61-1.727-12.678-5.183c-3.076-3.465-4.612-8.326-4.612-14.598
		c0-5.932,1.677-10.757,5.035-14.491c3.362-3.725,7.531-5.598,12.519-5.598c4.983,0,8.832,1.612,11.563,4.838
		s4.093,7.697,4.093,13.425V417.986L675.297,417.986z M669.05,412.81c-0.03-3.511-0.875-6.259-2.544-8.214
		c-1.677-1.963-4.002-2.939-6.984-2.939c-2.877,0-5.309,1.028-7.314,3.094c-2.015,2.056-3.261,4.744-3.726,8.06H669.05
		L669.05,412.81z"/>
	<path id="Fill-25" fill="#FFFFFF" d="M337.376,250.468l3.984,9.598c-4.322,0.909-11.381,1.831-21.187,2.736l0.498,5.864h19.19
		v8.468h-18.687l0.375,6.733h18.312v8.969h-17.687l0.493,7.6h74.394l0.619-7.6h-16.444v-8.969h17.063l0.503-6.236h-17.566v-8.468
		h18.317l0.495-6.729h-19.816v-10.088h31.149l-3.363,48.09h8.354v24.795h-11.461v-14.946h-89.721v14.946h-11.46v-24.795h7.974
		l-2.734-46.356C317.932,253.675,327.408,252.46,337.376,250.468L337.376,250.468z M324.915,317.263h72.523v9.336
		c-8.564,3.91-18.362,7.437-29.407,10.595h47.587v9.97h-48.33v10.718c-0.175,2.654-0.923,4.686-2.254,6.102
		c-2.08,2.073-4.483,3.115-7.229,3.115h-20.43v-9.968c4.403,0.162,9.093,0.248,14.079,0.248c2.573,0,3.857-0.913,3.857-2.74v-7.475
		h-49.343v-9.97h49.343v-4.492c7.23-1.568,14.833-3.731,22.809-6.47h-53.207V317.263L324.915,317.263z M370.146,250.468l7.6,4.736
		c-2.659,2.739-5.236,5.028-7.726,6.858c1.991,1.66,3.906,3.235,5.729,4.737l-6.594,6.594c-2.001-1.993-4.321-4.06-6.979-6.232
		c-4.324,2.495-9.436,4.911-15.327,7.237l-4.994-8.225c4.414-1.259,8.559-2.827,12.47-4.737c-2.665-1.83-5.491-3.699-8.485-5.604
		l5.991-5.864c3.731,2.246,7.267,4.488,10.59,6.729C365.081,254.871,367.656,252.795,370.146,250.468L370.146,250.468z
		 M371.64,273.891l7.6,4.736c-3.156,3.326-6.192,6.104-9.093,8.354c2.577,1.993,4.941,3.902,7.104,5.729l-6.612,6.605
		c-2.323-2.323-5.058-4.732-8.218-7.226c-4.073,2.328-8.769,4.566-14.078,6.729l-4.989-8.229c3.99-1.161,7.719-2.611,11.212-4.36
		c-2.485-1.665-5.065-3.324-7.717-4.984l5.974-5.86c3.494,2.084,6.684,4.16,9.598,6.231
		C365.66,279.379,368.725,276.801,371.64,273.891L371.64,273.891z"/>
	<path id="Fill-26" fill="#FFFFFF" d="M473.188,304.306V263.93h-41.615v-10.969h53.081v51.328L473.188,304.306z M493.746,311.03h42
		v49.847H442.04V311.03h38.996H493.746z M468.452,281.371l2.991,10.593c-9.383,7.313-21.097,13.744-35.142,19.312l-4.729-10.84
		C443.443,296.284,455.75,289.927,468.452,281.371L468.452,281.371z M441.788,265.912c6.977,3.331,13.376,7.275,19.188,11.841
		l-6.609,10.097c-5.893-5.565-11.999-10.009-18.306-13.334L441.788,265.912L441.788,265.912z M454,330.968h69.777v-9.477H454
		V330.968z M454,350.397h69.777v-9.965H454V350.397z M489.39,252.962h53.328v54.329h-11.959v-43.36H489.39V252.962L489.39,252.962z
		 M526.896,280.375l2.872,10.214c-9.396,4.66-21.023,8.726-34.896,12.219l-4.484-10.474
		C502.183,289.76,514.352,285.772,526.896,280.375L526.896,280.375z M499.605,264.915c6.64,2.919,12.716,6.367,18.193,10.352
		l-6.604,10.094c-5.569-4.985-11.333-8.926-17.323-11.837L499.605,264.915L499.605,264.915z"/>
	<path id="Fill-27" fill="#FFFFFF" d="M562.405,259.691h35.391v86.479h-35.391V259.691z M573.871,335.2h12.455v-65.045h-12.455
		V335.2z M669.318,256.956v62.796h-49.847v29.408c0,2.654,1.584,3.985,4.736,3.985h30.022c2.919,0,5.035-0.708,6.367-2.125
		c1.574-1.323,2.611-7.766,3.115-19.315h11.589c-1.247,13.793-3.286,25.672-6.112,28.173c-2.414,2.492-6.853,3.733-13.337,3.733
		H619.6c-3.656,0-6.563-1.002-8.731-2.999c-2.158-2.069-3.233-4.813-3.233-8.223v-95.434H669.318L669.318,256.956z M619.472,308.784
		h13.202v-40.871h-13.202V308.784z M644.14,308.784h13.214v-40.871H644.14V308.784z"/>
</g>
</svg>
